<?xml version="1.0" encoding="UTF-8" standalone="no"?>
<!DOCTYPE svg PUBLIC "-//W3C//DTD SVG 1.1//EN"
 "http://www.w3.org/Graphics/SVG/1.1/DTD/svg11.dtd">
<!-- Generated by graphviz version 2.43.0 (0)
 -->
<!-- Title: PermutationMatrix.hpp Pages: 1 -->
<svg width="250pt" height="140pt"
 viewBox="0.00 0.00 250.00 140.00" xmlns="http://www.w3.org/2000/svg" xmlns:xlink="http://www.w3.org/1999/xlink">
<g id="graph0" class="graph" transform="scale(1 1) rotate(0) translate(4 136)">
<title>PermutationMatrix.hpp</title>
<polygon fill="white" stroke="transparent" points="-4,4 -4,-136 246,-136 246,4 -4,4"/>
<!-- Node1 -->
<g id="node1" class="node">
<title>Node1</title>
<g id="a_node1"><a xlink:title=" ">
<polygon fill="#bfbfbf" stroke="black" points="64.5,-112.5 64.5,-131.5 193.5,-131.5 193.5,-112.5 64.5,-112.5"/>
<text text-anchor="middle" x="129" y="-119.5" font-family="Helvetica,sans-Serif" font-size="10.00">PermutationMatrix.hpp</text>
</a>
</g>
</g>
<!-- Node2 -->
<g id="node2" class="node">
<title>Node2</title>
<g id="a_node2"><a xlink:href="../../d9/d7f/PermutationMatrix_8cpp.html" target="_top" xlink:title=" ">
<polygon fill="white" stroke="black" points="0,-56.5 0,-75.5 128,-75.5 128,-56.5 0,-56.5"/>
<text text-anchor="middle" x="64" y="-63.5" font-family="Helvetica,sans-Serif" font-size="10.00">PermutationMatrix.cpp</text>
</a>
</g>
</g>
<!-- Node1&#45;&gt;Node2 -->
<g id="edge1" class="edge">
<title>Node1&#45;&gt;Node2</title>
<path fill="none" stroke="midnightblue" d="M110.73,-105.82C99.08,-96.15 84.4,-83.95 74.63,-75.83"/>
<polygon fill="midnightblue" stroke="midnightblue" points="108.63,-108.63 118.56,-112.32 113.1,-103.24 108.63,-108.63"/>
</g>
<!-- Node3 -->
<g id="node3" class="node">
<title>Node3</title>
<g id="a_node3"><a xlink:href="../../d3/d5d/RowPivotLU_8hpp.html" target="_top" xlink:title=" ">
<polygon fill="white" stroke="black" points="146,-56.5 146,-75.5 242,-75.5 242,-56.5 146,-56.5"/>
<text text-anchor="middle" x="194" y="-63.5" font-family="Helvetica,sans-Serif" font-size="10.00">RowPivotLU.hpp</text>
</a>
</g>
</g>
<!-- Node1&#45;&gt;Node3 -->
<g id="edge2" class="edge">
<title>Node1&#45;&gt;Node3</title>
<path fill="none" stroke="midnightblue" d="M147.27,-105.82C158.92,-96.15 173.6,-83.95 183.37,-75.83"/>
<polygon fill="midnightblue" stroke="midnightblue" points="144.9,-103.24 139.44,-112.32 149.37,-108.63 144.9,-103.24"/>
</g>
<!-- Node4 -->
<g id="node4" class="node">
<title>Node4</title>
<g id="a_node4"><a xlink:href="../../d7/d1c/RowPivotLU_8cpp.html" target="_top" xlink:title=" ">
<polygon fill="white" stroke="black" points="146.5,-0.5 146.5,-19.5 241.5,-19.5 241.5,-0.5 146.5,-0.5"/>
<text text-anchor="middle" x="194" y="-7.5" font-family="Helvetica,sans-Serif" font-size="10.00">RowPivotLU.cpp</text>
</a>
</g>
</g>
<!-- Node3&#45;&gt;Node4 -->
<g id="edge3" class="edge">
<title>Node3&#45;&gt;Node4</title>
<path fill="none" stroke="midnightblue" d="M194,-45.8C194,-36.91 194,-26.78 194,-19.75"/>
<polygon fill="midnightblue" stroke="midnightblue" points="190.5,-46.08 194,-56.08 197.5,-46.08 190.5,-46.08"/>
</g>
</g>
</svg>
