<?xml version="1.0" encoding="UTF-8" standalone="no"?>
<!DOCTYPE svg PUBLIC "-//W3C//DTD SVG 1.1//EN"
 "http://www.w3.org/Graphics/SVG/1.1/DTD/svg11.dtd">
<!-- Generated by graphviz version 2.43.0 (0)
 -->
<!-- Title: NoPivotLU.cpp Pages: 1 -->
<svg width="632pt" height="196pt"
 viewBox="0.00 0.00 631.50 196.00" xmlns="http://www.w3.org/2000/svg" xmlns:xlink="http://www.w3.org/1999/xlink">
<g id="graph0" class="graph" transform="scale(1 1) rotate(0) translate(4 192)">
<title>NoPivotLU.cpp</title>
<polygon fill="white" stroke="transparent" points="-4,4 -4,-192 627.5,-192 627.5,4 -4,4"/>
<!-- Node1 -->
<g id="node1" class="node">
<title>Node1</title>
<g id="a_node1"><a xlink:title=" ">
<polygon fill="#bfbfbf" stroke="black" points="250,-168.5 250,-187.5 338,-187.5 338,-168.5 250,-168.5"/>
<text text-anchor="middle" x="294" y="-175.5" font-family="Helvetica,sans-Serif" font-size="10.00">NoPivotLU.cpp</text>
</a>
</g>
</g>
<!-- Node2 -->
<g id="node2" class="node">
<title>Node2</title>
<g id="a_node2"><a xlink:href="../../d5/db4/NoPivotLU_8hpp.html" target="_top" xlink:title=" ">
<polygon fill="white" stroke="black" points="204.5,-112.5 204.5,-131.5 293.5,-131.5 293.5,-112.5 204.5,-112.5"/>
<text text-anchor="middle" x="249" y="-119.5" font-family="Helvetica,sans-Serif" font-size="10.00">NoPivotLU.hpp</text>
</a>
</g>
</g>
<!-- Node1&#45;&gt;Node2 -->
<g id="edge1" class="edge">
<title>Node1&#45;&gt;Node2</title>
<path fill="none" stroke="midnightblue" d="M286.57,-168.08C280.15,-160.38 270.69,-149.03 262.88,-139.65"/>
<polygon fill="midnightblue" stroke="midnightblue" points="265.38,-137.19 256.29,-131.75 260.01,-141.67 265.38,-137.19"/>
</g>
<!-- Node5 -->
<g id="node5" class="node">
<title>Node5</title>
<g id="a_node5"><a xlink:title=" ">
<polygon fill="white" stroke="#bfbfbf" points="0,-0.5 0,-19.5 52,-19.5 52,-0.5 0,-0.5"/>
<text text-anchor="middle" x="26" y="-7.5" font-family="Helvetica,sans-Serif" font-size="10.00">cassert</text>
</a>
</g>
</g>
<!-- Node1&#45;&gt;Node5 -->
<g id="edge12" class="edge">
<title>Node1&#45;&gt;Node5</title>
<path fill="none" stroke="midnightblue" d="M272.39,-168.46C252.14,-160.14 221.28,-146.63 196,-132 138.07,-98.48 75.21,-50.32 44.71,-26.11"/>
<polygon fill="midnightblue" stroke="midnightblue" points="46.65,-23.18 36.66,-19.68 42.29,-28.65 46.65,-23.18"/>
</g>
<!-- Node13 -->
<g id="node13" class="node">
<title>Node13</title>
<g id="a_node13"><a xlink:title=" ">
<polygon fill="white" stroke="#bfbfbf" points="311,-112.5 311,-131.5 367,-131.5 367,-112.5 311,-112.5"/>
<text text-anchor="middle" x="339" y="-119.5" font-family="Helvetica,sans-Serif" font-size="10.00">iomanip</text>
</a>
</g>
</g>
<!-- Node1&#45;&gt;Node13 -->
<g id="edge13" class="edge">
<title>Node1&#45;&gt;Node13</title>
<path fill="none" stroke="midnightblue" d="M301.43,-168.08C307.85,-160.38 317.31,-149.03 325.12,-139.65"/>
<polygon fill="midnightblue" stroke="midnightblue" points="327.99,-141.67 331.71,-131.75 322.62,-137.19 327.99,-141.67"/>
</g>
<!-- Node14 -->
<g id="node14" class="node">
<title>Node14</title>
<g id="a_node14"><a xlink:title=" ">
<polygon fill="white" stroke="#bfbfbf" points="385,-112.5 385,-131.5 445,-131.5 445,-112.5 385,-112.5"/>
<text text-anchor="middle" x="415" y="-119.5" font-family="Helvetica,sans-Serif" font-size="10.00">iostream</text>
</a>
</g>
</g>
<!-- Node1&#45;&gt;Node14 -->
<g id="edge14" class="edge">
<title>Node1&#45;&gt;Node14</title>
<path fill="none" stroke="midnightblue" d="M313.17,-168.44C332.91,-159.64 363.89,-145.81 386.49,-135.72"/>
<polygon fill="midnightblue" stroke="midnightblue" points="388.21,-138.79 395.92,-131.52 385.36,-132.4 388.21,-138.79"/>
</g>
<!-- Node3 -->
<g id="node3" class="node">
<title>Node3</title>
<g id="a_node3"><a xlink:href="../../d9/d1c/Matrix_8hpp.html" target="_top" xlink:title=" ">
<polygon fill="white" stroke="black" points="252.5,-56.5 252.5,-75.5 321.5,-75.5 321.5,-56.5 252.5,-56.5"/>
<text text-anchor="middle" x="287" y="-63.5" font-family="Helvetica,sans-Serif" font-size="10.00">Matrix.hpp</text>
</a>
</g>
</g>
<!-- Node2&#45;&gt;Node3 -->
<g id="edge2" class="edge">
<title>Node2&#45;&gt;Node3</title>
<path fill="none" stroke="midnightblue" d="M255.27,-112.08C260.64,-104.46 268.52,-93.26 275.08,-83.94"/>
<polygon fill="midnightblue" stroke="midnightblue" points="277.95,-85.94 280.84,-75.75 272.22,-81.91 277.95,-85.94"/>
</g>
<!-- Node4 -->
<g id="node4" class="node">
<title>Node4</title>
<g id="a_node4"><a xlink:title=" ">
<polygon fill="white" stroke="#bfbfbf" points="70,-0.5 70,-19.5 134,-19.5 134,-0.5 70,-0.5"/>
<text text-anchor="middle" x="102" y="-7.5" font-family="Helvetica,sans-Serif" font-size="10.00">algorithm</text>
</a>
</g>
</g>
<!-- Node3&#45;&gt;Node4 -->
<g id="edge3" class="edge">
<title>Node3&#45;&gt;Node4</title>
<path fill="none" stroke="midnightblue" d="M257.69,-56.44C226.16,-47.24 175.87,-32.56 141.01,-22.39"/>
<polygon fill="midnightblue" stroke="midnightblue" points="141.76,-18.96 131.18,-19.52 139.8,-25.68 141.76,-18.96"/>
</g>
<!-- Node3&#45;&gt;Node5 -->
<g id="edge4" class="edge">
<title>Node3&#45;&gt;Node5</title>
<path fill="none" stroke="midnightblue" d="M252.41,-58.73C209.88,-50.88 135.25,-36.67 62.17,-20.17"/>
<polygon fill="midnightblue" stroke="midnightblue" points="62.86,-16.74 52.34,-17.94 61.31,-23.57 62.86,-16.74"/>
</g>
<!-- Node6 -->
<g id="node6" class="node">
<title>Node6</title>
<g id="a_node6"><a xlink:title=" ">
<polygon fill="white" stroke="#bfbfbf" points="152.5,-0.5 152.5,-19.5 199.5,-19.5 199.5,-0.5 152.5,-0.5"/>
<text text-anchor="middle" x="176" y="-7.5" font-family="Helvetica,sans-Serif" font-size="10.00">cmath</text>
</a>
</g>
</g>
<!-- Node3&#45;&gt;Node6 -->
<g id="edge5" class="edge">
<title>Node3&#45;&gt;Node6</title>
<path fill="none" stroke="midnightblue" d="M269.17,-56.32C251.28,-47.62 223.52,-34.12 202.95,-24.11"/>
<polygon fill="midnightblue" stroke="midnightblue" points="204.31,-20.88 193.79,-19.65 201.25,-27.18 204.31,-20.88"/>
</g>
<!-- Node7 -->
<g id="node7" class="node">
<title>Node7</title>
<g id="a_node7"><a xlink:title=" ">
<polygon fill="white" stroke="#bfbfbf" points="217.5,-0.5 217.5,-19.5 282.5,-19.5 282.5,-0.5 217.5,-0.5"/>
<text text-anchor="middle" x="250" y="-7.5" font-family="Helvetica,sans-Serif" font-size="10.00">functional</text>
</a>
</g>
</g>
<!-- Node3&#45;&gt;Node7 -->
<g id="edge6" class="edge">
<title>Node3&#45;&gt;Node7</title>
<path fill="none" stroke="midnightblue" d="M280.89,-56.08C275.72,-48.53 268.15,-37.49 261.81,-28.23"/>
<polygon fill="midnightblue" stroke="midnightblue" points="264.54,-26.02 256,-19.75 258.76,-29.98 264.54,-26.02"/>
</g>
<!-- Node8 -->
<g id="node8" class="node">
<title>Node8</title>
<g id="a_node8"><a xlink:title=" ">
<polygon fill="white" stroke="#bfbfbf" points="301,-0.5 301,-19.5 349,-19.5 349,-0.5 301,-0.5"/>
<text text-anchor="middle" x="325" y="-7.5" font-family="Helvetica,sans-Serif" font-size="10.00">iosfwd</text>
</a>
</g>
</g>
<!-- Node3&#45;&gt;Node8 -->
<g id="edge7" class="edge">
<title>Node3&#45;&gt;Node8</title>
<path fill="none" stroke="midnightblue" d="M293.27,-56.08C298.64,-48.46 306.52,-37.26 313.08,-27.94"/>
<polygon fill="midnightblue" stroke="midnightblue" points="315.95,-29.94 318.84,-19.75 310.22,-25.91 315.95,-29.94"/>
</g>
<!-- Node9 -->
<g id="node9" class="node">
<title>Node9</title>
<g id="a_node9"><a xlink:title=" ">
<polygon fill="white" stroke="#bfbfbf" points="367,-0.5 367,-19.5 423,-19.5 423,-0.5 367,-0.5"/>
<text text-anchor="middle" x="395" y="-7.5" font-family="Helvetica,sans-Serif" font-size="10.00">numeric</text>
</a>
</g>
</g>
<!-- Node3&#45;&gt;Node9 -->
<g id="edge8" class="edge">
<title>Node3&#45;&gt;Node9</title>
<path fill="none" stroke="midnightblue" d="M304.35,-56.32C321.67,-47.66 348.52,-34.24 368.5,-24.25"/>
<polygon fill="midnightblue" stroke="midnightblue" points="370.31,-27.26 377.69,-19.65 367.18,-21 370.31,-27.26"/>
</g>
<!-- Node10 -->
<g id="node10" class="node">
<title>Node10</title>
<g id="a_node10"><a xlink:title=" ">
<polygon fill="white" stroke="#bfbfbf" points="441,-0.5 441,-19.5 495,-19.5 495,-0.5 441,-0.5"/>
<text text-anchor="middle" x="468" y="-7.5" font-family="Helvetica,sans-Serif" font-size="10.00">random</text>
</a>
</g>
</g>
<!-- Node3&#45;&gt;Node10 -->
<g id="edge9" class="edge">
<title>Node3&#45;&gt;Node10</title>
<path fill="none" stroke="midnightblue" d="M315.68,-56.44C346.98,-47.11 397.18,-32.13 431.32,-21.94"/>
<polygon fill="midnightblue" stroke="midnightblue" points="432.35,-25.29 440.93,-19.08 430.35,-18.58 432.35,-25.29"/>
</g>
<!-- Node11 -->
<g id="node11" class="node">
<title>Node11</title>
<g id="a_node11"><a xlink:title=" ">
<polygon fill="white" stroke="#bfbfbf" points="513.5,-0.5 513.5,-19.5 558.5,-19.5 558.5,-0.5 513.5,-0.5"/>
<text text-anchor="middle" x="536" y="-7.5" font-family="Helvetica,sans-Serif" font-size="10.00">utility</text>
</a>
</g>
</g>
<!-- Node3&#45;&gt;Node11 -->
<g id="edge10" class="edge">
<title>Node3&#45;&gt;Node11</title>
<path fill="none" stroke="midnightblue" d="M321.74,-58.57C362.8,-50.8 433.38,-36.92 503.45,-20"/>
<polygon fill="midnightblue" stroke="midnightblue" points="504.44,-23.36 513.33,-17.59 502.78,-16.55 504.44,-23.36"/>
</g>
<!-- Node12 -->
<g id="node12" class="node">
<title>Node12</title>
<g id="a_node12"><a xlink:title=" ">
<polygon fill="white" stroke="#bfbfbf" points="576.5,-0.5 576.5,-19.5 623.5,-19.5 623.5,-0.5 576.5,-0.5"/>
<text text-anchor="middle" x="600" y="-7.5" font-family="Helvetica,sans-Serif" font-size="10.00">vector</text>
</a>
</g>
</g>
<!-- Node3&#45;&gt;Node12 -->
<g id="edge11" class="edge">
<title>Node3&#45;&gt;Node12</title>
<path fill="none" stroke="midnightblue" d="M321.85,-60.74C373.38,-54.14 473.06,-40.3 566.43,-20.15"/>
<polygon fill="midnightblue" stroke="midnightblue" points="567.29,-23.55 576.31,-17.99 565.79,-16.71 567.29,-23.55"/>
</g>
</g>
</svg>
