<?xml version="1.0" encoding="UTF-8" standalone="no"?>
<!DOCTYPE svg PUBLIC "-//W3C//DTD SVG 1.1//EN"
 "http://www.w3.org/Graphics/SVG/1.1/DTD/svg11.dtd">
<!-- Generated by graphviz version 2.43.0 (0)
 -->
<!-- Title: PermutationMatrix.hpp Pages: 1 -->
<svg width="286pt" height="196pt"
 viewBox="0.00 0.00 285.50 196.00" xmlns="http://www.w3.org/2000/svg" xmlns:xlink="http://www.w3.org/1999/xlink">
<g id="graph0" class="graph" transform="scale(1 1) rotate(0) translate(4 192)">
<title>PermutationMatrix.hpp</title>
<polygon fill="white" stroke="transparent" points="-4,4 -4,-192 281.5,-192 281.5,4 -4,4"/>
<!-- Node1 -->
<g id="node1" class="node">
<title>Node1</title>
<g id="a_node1"><a xlink:title=" ">
<polygon fill="#bfbfbf" stroke="black" points="84,-168.5 84,-187.5 213,-187.5 213,-168.5 84,-168.5"/>
<text text-anchor="middle" x="148.5" y="-175.5" font-family="Helvetica,sans-Serif" font-size="10.00">PermutationMatrix.hpp</text>
</a>
</g>
</g>
<!-- Node2 -->
<g id="node2" class="node">
<title>Node2</title>
<g id="a_node2"><a xlink:href="../../d3/d5d/RowPivotLU_8hpp.html" target="_top" xlink:title=" ">
<polygon fill="white" stroke="black" points="35.5,-112.5 35.5,-131.5 131.5,-131.5 131.5,-112.5 35.5,-112.5"/>
<text text-anchor="middle" x="83.5" y="-119.5" font-family="Helvetica,sans-Serif" font-size="10.00">RowPivotLU.hpp</text>
</a>
</g>
</g>
<!-- Node1&#45;&gt;Node2 -->
<g id="edge1" class="edge">
<title>Node1&#45;&gt;Node2</title>
<path fill="none" stroke="midnightblue" d="M130.23,-161.82C118.58,-152.15 103.9,-139.95 94.13,-131.83"/>
<polygon fill="midnightblue" stroke="midnightblue" points="128.13,-164.63 138.06,-168.32 132.6,-159.24 128.13,-164.63"/>
</g>
<!-- Node5 -->
<g id="node5" class="node">
<title>Node5</title>
<g id="a_node5"><a xlink:href="../../d9/d7f/PermutationMatrix_8cpp.html" target="_top" xlink:title=" ">
<polygon fill="white" stroke="black" points="149.5,-112.5 149.5,-131.5 277.5,-131.5 277.5,-112.5 149.5,-112.5"/>
<text text-anchor="middle" x="213.5" y="-119.5" font-family="Helvetica,sans-Serif" font-size="10.00">PermutationMatrix.cpp</text>
</a>
</g>
</g>
<!-- Node1&#45;&gt;Node5 -->
<g id="edge5" class="edge">
<title>Node1&#45;&gt;Node5</title>
<path fill="none" stroke="midnightblue" d="M166.77,-161.82C178.42,-152.15 193.1,-139.95 202.87,-131.83"/>
<polygon fill="midnightblue" stroke="midnightblue" points="164.4,-159.24 158.94,-168.32 168.87,-164.63 164.4,-159.24"/>
</g>
<!-- Node3 -->
<g id="node3" class="node">
<title>Node3</title>
<g id="a_node3"><a xlink:href="../../d5/d9e/RowPivotLU_8ipp.html" target="_top" xlink:title=" ">
<polygon fill="white" stroke="black" points="0,-56.5 0,-75.5 93,-75.5 93,-56.5 0,-56.5"/>
<text text-anchor="middle" x="46.5" y="-63.5" font-family="Helvetica,sans-Serif" font-size="10.00">RowPivotLU.ipp</text>
</a>
</g>
</g>
<!-- Node2&#45;&gt;Node3 -->
<g id="edge2" class="edge">
<title>Node2&#45;&gt;Node3</title>
<path fill="none" stroke="midnightblue" d="M71.55,-103.57C65.19,-94.27 57.63,-83.25 52.5,-75.75"/>
<polygon fill="midnightblue" stroke="midnightblue" points="68.85,-105.81 77.39,-112.08 74.63,-101.86 68.85,-105.81"/>
</g>
<!-- Node4 -->
<g id="node4" class="node">
<title>Node4</title>
<g id="a_node4"><a xlink:href="../../d7/d1c/RowPivotLU_8cpp.html" target="_top" xlink:title=" ">
<polygon fill="white" stroke="black" points="36,-0.5 36,-19.5 131,-19.5 131,-0.5 36,-0.5"/>
<text text-anchor="middle" x="83.5" y="-7.5" font-family="Helvetica,sans-Serif" font-size="10.00">RowPivotLU.cpp</text>
</a>
</g>
</g>
<!-- Node2&#45;&gt;Node4 -->
<g id="edge4" class="edge">
<title>Node2&#45;&gt;Node4</title>
<path fill="none" stroke="midnightblue" d="M92.44,-103.2C96.02,-95.11 99.71,-85.3 101.5,-76 105.44,-55.53 95.2,-32.1 88.59,-19.73"/>
<polygon fill="midnightblue" stroke="midnightblue" points="89.23,-101.8 88.12,-112.34 95.56,-104.79 89.23,-101.8"/>
</g>
<!-- Node3&#45;&gt;Node4 -->
<g id="edge3" class="edge">
<title>Node3&#45;&gt;Node4</title>
<path fill="none" stroke="midnightblue" d="M58.45,-47.57C64.81,-38.27 72.37,-27.25 77.5,-19.75"/>
<polygon fill="midnightblue" stroke="midnightblue" points="55.37,-45.86 52.61,-56.08 61.15,-49.81 55.37,-45.86"/>
</g>
</g>
</svg>
