<?xml version="1.0" encoding="UTF-8" standalone="no"?>
<!DOCTYPE svg PUBLIC "-//W3C//DTD SVG 1.1//EN"
 "http://www.w3.org/Graphics/SVG/1.1/DTD/svg11.dtd">
<!-- Generated by graphviz version 2.43.0 (0)
 -->
<!-- Title: ArduinoConfig.hpp Pages: 1 -->
<svg width="629pt" height="207pt"
 viewBox="0.00 0.00 628.50 207.00" xmlns="http://www.w3.org/2000/svg" xmlns:xlink="http://www.w3.org/1999/xlink">
<g id="graph0" class="graph" transform="scale(1 1) rotate(0) translate(4 203)">
<title>ArduinoConfig.hpp</title>
<polygon fill="white" stroke="transparent" points="-4,4 -4,-203 624.5,-203 624.5,4 -4,4"/>
<!-- Node1 -->
<g id="node1" class="node">
<title>Node1</title>
<g id="a_node1"><a xlink:title="Preprocessor logic for configuring the library to make it compatible with the Arduino environment.">
<polygon fill="#bfbfbf" stroke="black" points="175,-179.5 175,-198.5 281,-198.5 281,-179.5 175,-179.5"/>
<text text-anchor="middle" x="228" y="-186.5" font-family="Helvetica,sans-Serif" font-size="10.00">ArduinoConfig.hpp</text>
</a>
</g>
</g>
<!-- Node2 -->
<g id="node2" class="node">
<title>Node2</title>
<g id="a_node2"><a xlink:href="../../dd/db9/ArduinoConfig_8cpp.html" target="_top" xlink:title=" ">
<polygon fill="white" stroke="black" points="4.5,-123.5 4.5,-142.5 109.5,-142.5 109.5,-123.5 4.5,-123.5"/>
<text text-anchor="middle" x="57" y="-130.5" font-family="Helvetica,sans-Serif" font-size="10.00">ArduinoConfig.cpp</text>
</a>
</g>
</g>
<!-- Node1&#45;&gt;Node2 -->
<g id="edge1" class="edge">
<title>Node1&#45;&gt;Node2</title>
<path fill="none" stroke="midnightblue" d="M190.96,-176.3C158.74,-166.13 112.81,-151.62 83.97,-142.52"/>
<polygon fill="midnightblue" stroke="midnightblue" points="190.31,-179.77 200.9,-179.44 192.42,-173.09 190.31,-179.77"/>
</g>
<!-- Node3 -->
<g id="node3" class="node">
<title>Node3</title>
<g id="a_node3"><a xlink:href="../../da/d4b/ArduinoCout_8hpp.html" target="_top" xlink:title="Arduino std::ostream Serial wrapper.">
<polygon fill="white" stroke="black" points="128,-123.5 128,-142.5 226,-142.5 226,-123.5 128,-123.5"/>
<text text-anchor="middle" x="177" y="-130.5" font-family="Helvetica,sans-Serif" font-size="10.00">ArduinoCout.hpp</text>
</a>
</g>
</g>
<!-- Node1&#45;&gt;Node3 -->
<g id="edge2" class="edge">
<title>Node1&#45;&gt;Node3</title>
<path fill="none" stroke="midnightblue" d="M212.62,-171.72C203.63,-162.2 192.64,-150.56 185.26,-142.75"/>
<polygon fill="midnightblue" stroke="midnightblue" points="210.17,-174.22 219.58,-179.08 215.26,-169.41 210.17,-174.22"/>
</g>
<!-- Node5 -->
<g id="node5" class="node">
<title>Node5</title>
<g id="a_node5"><a xlink:href="../../d3/da8/ArduinoMatrixPrinter_8cpp.html" target="_top" xlink:title="Fallback functions for printing matrices without relying on std::ostream or printf.">
<polygon fill="white" stroke="black" points="483.5,-67.5 483.5,-86.5 620.5,-86.5 620.5,-67.5 483.5,-67.5"/>
<text text-anchor="middle" x="552" y="-74.5" font-family="Helvetica,sans-Serif" font-size="10.00">ArduinoMatrixPrinter.cpp</text>
</a>
</g>
</g>
<!-- Node1&#45;&gt;Node5 -->
<g id="edge4" class="edge">
<title>Node1&#45;&gt;Node5</title>
<path fill="none" stroke="midnightblue" d="M262.63,-176.24C328.2,-153.98 469.02,-106.17 526.64,-86.61"/>
<polygon fill="midnightblue" stroke="midnightblue" points="261.5,-172.93 253.15,-179.46 263.75,-179.56 261.5,-172.93"/>
</g>
<!-- Node6 -->
<g id="node6" class="node">
<title>Node6</title>
<g id="a_node6"><a xlink:href="../../d9/d1c/Matrix_8hpp.html" target="_top" xlink:title=" ">
<polygon fill="white" stroke="black" points="244.5,-123.5 244.5,-142.5 313.5,-142.5 313.5,-123.5 244.5,-123.5"/>
<text text-anchor="middle" x="279" y="-130.5" font-family="Helvetica,sans-Serif" font-size="10.00">Matrix.hpp</text>
</a>
</g>
</g>
<!-- Node1&#45;&gt;Node6 -->
<g id="edge5" class="edge">
<title>Node1&#45;&gt;Node6</title>
<path fill="none" stroke="midnightblue" d="M243.38,-171.72C252.37,-162.2 263.36,-150.56 270.74,-142.75"/>
<polygon fill="midnightblue" stroke="midnightblue" points="240.74,-169.41 236.42,-179.08 245.83,-174.22 240.74,-169.41"/>
</g>
<!-- Node4 -->
<g id="node4" class="node">
<title>Node4</title>
<g id="a_node4"><a xlink:href="../../dd/d4f/Basic-matrix-operations_8ino.html" target="_top" xlink:title=" ">
<polygon fill="white" stroke="black" points="0,-6 0,-25 152,-25 152,-6 0,-6"/>
<text text-anchor="middle" x="76" y="-13" font-family="Helvetica,sans-Serif" font-size="10.00">Basic&#45;matrix&#45;operations.ino</text>
</a>
</g>
</g>
<!-- Node3&#45;&gt;Node4 -->
<g id="edge3" class="edge">
<title>Node3&#45;&gt;Node4</title>
<path fill="none" stroke="midnightblue" d="M118.41,-121.17C99.41,-114.57 80.33,-103.99 69,-87 56.31,-67.96 65.76,-39.37 71.87,-25.16"/>
<polygon fill="midnightblue" stroke="midnightblue" points="117.41,-124.52 128,-124.18 119.5,-117.84 117.41,-124.52"/>
</g>
<!-- Node6&#45;&gt;Node4 -->
<g id="edge16" class="edge">
<title>Node6&#45;&gt;Node4</title>
<path fill="none" stroke="midnightblue" d="M234.33,-121.74C183.56,-109.91 107.01,-91.51 102,-87 83.78,-70.59 78.3,-40.26 76.67,-25.31"/>
<polygon fill="midnightblue" stroke="midnightblue" points="233.58,-125.15 244.11,-124.01 235.16,-118.34 233.58,-125.15"/>
</g>
<!-- Node6&#45;&gt;Node5 -->
<g id="edge6" class="edge">
<title>Node6&#45;&gt;Node5</title>
<path fill="none" stroke="midnightblue" d="M323.67,-123.16C374.85,-113.04 458.13,-96.57 508.72,-86.56"/>
<polygon fill="midnightblue" stroke="midnightblue" points="322.71,-119.79 313.58,-125.16 324.06,-126.65 322.71,-119.79"/>
</g>
<!-- Node7 -->
<g id="node7" class="node">
<title>Node7</title>
<g id="a_node7"><a xlink:href="../../d9/d52/HouseholderQR_8hpp.html" target="_top" xlink:title=" ">
<polygon fill="white" stroke="black" points="265.5,-67.5 265.5,-86.5 378.5,-86.5 378.5,-67.5 265.5,-67.5"/>
<text text-anchor="middle" x="322" y="-74.5" font-family="Helvetica,sans-Serif" font-size="10.00">HouseholderQR.hpp</text>
</a>
</g>
</g>
<!-- Node6&#45;&gt;Node7 -->
<g id="edge7" class="edge">
<title>Node6&#45;&gt;Node7</title>
<path fill="none" stroke="midnightblue" d="M292.42,-115.14C299.91,-105.74 308.94,-94.4 315.03,-86.75"/>
<polygon fill="midnightblue" stroke="midnightblue" points="289.59,-113.08 286.1,-123.08 295.07,-117.44 289.59,-113.08"/>
</g>
<!-- Node9 -->
<g id="node9" class="node">
<title>Node9</title>
<g id="a_node9"><a xlink:href="../../de/dd7/Basic-matrix-operations-no-iostream_8ino.html" target="_top" xlink:title=" ">
<polygon fill="white" stroke="black" points="170,-0.5 170,-30.5 304,-30.5 304,-0.5 170,-0.5"/>
<text text-anchor="start" x="178" y="-18.5" font-family="Helvetica,sans-Serif" font-size="10.00">Basic&#45;matrix&#45;operations</text>
<text text-anchor="middle" x="237" y="-7.5" font-family="Helvetica,sans-Serif" font-size="10.00">&#45;no&#45;iostream.ino</text>
</a>
</g>
</g>
<!-- Node6&#45;&gt;Node9 -->
<g id="edge17" class="edge">
<title>Node6&#45;&gt;Node9</title>
<path fill="none" stroke="midnightblue" d="M269.45,-114.32C265.27,-106.15 260.54,-96.24 257,-87 249.68,-67.87 243.65,-44.92 240.19,-30.52"/>
<polygon fill="midnightblue" stroke="midnightblue" points="266.39,-116.02 274.14,-123.24 272.58,-112.76 266.39,-116.02"/>
</g>
<!-- Node11 -->
<g id="node11" class="node">
<title>Node11</title>
<g id="a_node11"><a xlink:href="../../d9/d1c/Linear__Algebra_8h.html" target="_top" xlink:title=" ">
<polygon fill="white" stroke="black" points="111,-67.5 111,-86.5 209,-86.5 209,-67.5 111,-67.5"/>
<text text-anchor="middle" x="160" y="-74.5" font-family="Helvetica,sans-Serif" font-size="10.00">Linear_Algebra.h</text>
</a>
</g>
</g>
<!-- Node6&#45;&gt;Node11 -->
<g id="edge12" class="edge">
<title>Node6&#45;&gt;Node11</title>
<path fill="none" stroke="midnightblue" d="M250.86,-119.23C228.6,-109.13 198.14,-95.31 178.77,-86.52"/>
<polygon fill="midnightblue" stroke="midnightblue" points="249.59,-122.5 260.14,-123.44 252.48,-116.12 249.59,-122.5"/>
</g>
<!-- Node12 -->
<g id="node12" class="node">
<title>Node12</title>
<g id="a_node12"><a xlink:href="../../dd/d52/Matrix_8cpp.html" target="_top" xlink:title=" ">
<polygon fill="white" stroke="black" points="397,-67.5 397,-86.5 465,-86.5 465,-67.5 397,-67.5"/>
<text text-anchor="middle" x="431" y="-74.5" font-family="Helvetica,sans-Serif" font-size="10.00">Matrix.cpp</text>
</a>
</g>
</g>
<!-- Node6&#45;&gt;Node12 -->
<g id="edge15" class="edge">
<title>Node6&#45;&gt;Node12</title>
<path fill="none" stroke="midnightblue" d="M312.67,-120.04C341.27,-109.88 381.61,-95.55 407.03,-86.52"/>
<polygon fill="midnightblue" stroke="midnightblue" points="311.34,-116.8 303.08,-123.44 313.68,-123.39 311.34,-116.8"/>
</g>
<!-- Node7&#45;&gt;Node4 -->
<g id="edge9" class="edge">
<title>Node7&#45;&gt;Node4</title>
<path fill="none" stroke="midnightblue" d="M276.99,-65.11C229.24,-53.57 154.81,-35.56 111.18,-25.01"/>
<polygon fill="midnightblue" stroke="midnightblue" points="276.21,-68.53 286.75,-67.48 277.86,-61.72 276.21,-68.53"/>
</g>
<!-- Node8 -->
<g id="node8" class="node">
<title>Node8</title>
<g id="a_node8"><a xlink:href="../../df/d5c/HouseholderQR_8cpp.html" target="_top" xlink:title=" ">
<polygon fill="white" stroke="black" points="428.5,-6 428.5,-25 541.5,-25 541.5,-6 428.5,-6"/>
<text text-anchor="middle" x="485" y="-13" font-family="Helvetica,sans-Serif" font-size="10.00">HouseholderQR.cpp</text>
</a>
</g>
</g>
<!-- Node7&#45;&gt;Node8 -->
<g id="edge8" class="edge">
<title>Node7&#45;&gt;Node8</title>
<path fill="none" stroke="midnightblue" d="M355.06,-63.93C386.74,-52.37 433.75,-35.21 461.69,-25.01"/>
<polygon fill="midnightblue" stroke="midnightblue" points="353.55,-60.76 345.35,-67.48 355.95,-67.33 353.55,-60.76"/>
</g>
<!-- Node7&#45;&gt;Node9 -->
<g id="edge10" class="edge">
<title>Node7&#45;&gt;Node9</title>
<path fill="none" stroke="midnightblue" d="M301.63,-61.74C288.12,-52.28 270.47,-39.93 257.03,-30.52"/>
<polygon fill="midnightblue" stroke="midnightblue" points="299.62,-64.61 309.82,-67.48 303.64,-58.87 299.62,-64.61"/>
</g>
<!-- Node10 -->
<g id="node10" class="node">
<title>Node10</title>
<g id="a_node10"><a xlink:href="../../de/d90/qr-perftest_8cpp.html" target="_top" xlink:title=" ">
<polygon fill="white" stroke="black" points="322,-6 322,-25 410,-25 410,-6 322,-6"/>
<text text-anchor="middle" x="366" y="-13" font-family="Helvetica,sans-Serif" font-size="10.00">qr&#45;perftest.cpp</text>
</a>
</g>
</g>
<!-- Node7&#45;&gt;Node10 -->
<g id="edge11" class="edge">
<title>Node7&#45;&gt;Node10</title>
<path fill="none" stroke="midnightblue" d="M334.32,-59.34C342.58,-48.17 353.11,-33.93 359.71,-25.01"/>
<polygon fill="midnightblue" stroke="midnightblue" points="331.44,-57.35 328.3,-67.48 337.06,-61.52 331.44,-57.35"/>
</g>
<!-- Node11&#45;&gt;Node4 -->
<g id="edge13" class="edge">
<title>Node11&#45;&gt;Node4</title>
<path fill="none" stroke="midnightblue" d="M139.69,-61.61C123.53,-50.17 101.48,-34.55 88.01,-25.01"/>
<polygon fill="midnightblue" stroke="midnightblue" points="137.78,-64.55 147.96,-67.48 141.83,-58.84 137.78,-64.55"/>
</g>
<!-- Node11&#45;&gt;Node9 -->
<g id="edge14" class="edge">
<title>Node11&#45;&gt;Node9</title>
<path fill="none" stroke="midnightblue" d="M179.16,-61.2C191.3,-51.81 206.91,-39.75 218.85,-30.52"/>
<polygon fill="midnightblue" stroke="midnightblue" points="176.81,-58.59 171.03,-67.48 181.09,-64.13 176.81,-58.59"/>
</g>
</g>
</svg>
