<?xml version="1.0" encoding="UTF-8" standalone="no"?>
<!DOCTYPE svg PUBLIC "-//W3C//DTD SVG 1.1//EN"
 "http://www.w3.org/Graphics/SVG/1.1/DTD/svg11.dtd">
<!-- Generated by graphviz version 2.43.0 (0)
 -->
<!-- Title: NoPivotLU.hpp Pages: 1 -->
<svg width="131pt" height="140pt"
 viewBox="0.00 0.00 130.50 140.00" xmlns="http://www.w3.org/2000/svg" xmlns:xlink="http://www.w3.org/1999/xlink">
<g id="graph0" class="graph" transform="scale(1 1) rotate(0) translate(4 136)">
<title>NoPivotLU.hpp</title>
<polygon fill="white" stroke="transparent" points="-4,4 -4,-136 126.5,-136 126.5,4 -4,4"/>
<!-- Node1 -->
<g id="node1" class="node">
<title>Node1</title>
<g id="a_node1"><a xlink:title=" ">
<polygon fill="#bfbfbf" stroke="black" points="33.5,-112.5 33.5,-131.5 122.5,-131.5 122.5,-112.5 33.5,-112.5"/>
<text text-anchor="middle" x="78" y="-119.5" font-family="Helvetica,sans-Serif" font-size="10.00">NoPivotLU.hpp</text>
</a>
</g>
</g>
<!-- Node2 -->
<g id="node2" class="node">
<title>Node2</title>
<g id="a_node2"><a xlink:href="../../de/d20/NoPivotLU_8ipp.html" target="_top" xlink:title=" ">
<polygon fill="white" stroke="black" points="0,-56.5 0,-75.5 86,-75.5 86,-56.5 0,-56.5"/>
<text text-anchor="middle" x="43" y="-63.5" font-family="Helvetica,sans-Serif" font-size="10.00">NoPivotLU.ipp</text>
</a>
</g>
</g>
<!-- Node1&#45;&gt;Node2 -->
<g id="edge1" class="edge">
<title>Node1&#45;&gt;Node2</title>
<path fill="none" stroke="midnightblue" d="M66.7,-103.57C60.68,-94.27 53.53,-83.25 48.67,-75.75"/>
<polygon fill="midnightblue" stroke="midnightblue" points="63.84,-105.6 72.22,-112.08 69.72,-101.79 63.84,-105.6"/>
</g>
<!-- Node3 -->
<g id="node3" class="node">
<title>Node3</title>
<g id="a_node3"><a xlink:href="../../dc/d48/NoPivotLU_8cpp.html" target="_top" xlink:title=" ">
<polygon fill="white" stroke="black" points="34,-0.5 34,-19.5 122,-19.5 122,-0.5 34,-0.5"/>
<text text-anchor="middle" x="78" y="-7.5" font-family="Helvetica,sans-Serif" font-size="10.00">NoPivotLU.cpp</text>
</a>
</g>
</g>
<!-- Node1&#45;&gt;Node3 -->
<g id="edge3" class="edge">
<title>Node1&#45;&gt;Node3</title>
<path fill="none" stroke="midnightblue" d="M87.06,-103.08C92.54,-90.11 97.94,-72.12 95,-56 92.6,-42.86 86.56,-28.56 82.37,-19.69"/>
<polygon fill="midnightblue" stroke="midnightblue" points="83.83,-101.72 82.81,-112.26 90.19,-104.66 83.83,-101.72"/>
</g>
<!-- Node2&#45;&gt;Node3 -->
<g id="edge2" class="edge">
<title>Node2&#45;&gt;Node3</title>
<path fill="none" stroke="midnightblue" d="M54.3,-47.57C60.32,-38.27 67.47,-27.25 72.33,-19.75"/>
<polygon fill="midnightblue" stroke="midnightblue" points="51.28,-45.79 48.78,-56.08 57.16,-49.6 51.28,-45.79"/>
</g>
</g>
</svg>
