<?xml version="1.0" encoding="UTF-8" standalone="no"?>
<!DOCTYPE svg PUBLIC "-//W3C//DTD SVG 1.1//EN"
 "http://www.w3.org/Graphics/SVG/1.1/DTD/svg11.dtd">
<!-- Generated by graphviz version 2.43.0 (0)
 -->
<!-- Title: HouseholderQR.hpp Pages: 1 -->
<svg width="590pt" height="151pt"
 viewBox="0.00 0.00 590.00 151.00" xmlns="http://www.w3.org/2000/svg" xmlns:xlink="http://www.w3.org/1999/xlink">
<g id="graph0" class="graph" transform="scale(1 1) rotate(0) translate(4 147)">
<title>HouseholderQR.hpp</title>
<polygon fill="white" stroke="transparent" points="-4,4 -4,-147 586,-147 586,4 -4,4"/>
<!-- Node1 -->
<g id="node1" class="node">
<title>Node1</title>
<g id="a_node1"><a xlink:title=" ">
<polygon fill="#bfbfbf" stroke="black" points="185.5,-123.5 185.5,-142.5 298.5,-142.5 298.5,-123.5 185.5,-123.5"/>
<text text-anchor="middle" x="242" y="-130.5" font-family="Helvetica,sans-Serif" font-size="10.00">HouseholderQR.hpp</text>
</a>
</g>
</g>
<!-- Node2 -->
<g id="node2" class="node">
<title>Node2</title>
<g id="a_node2"><a xlink:href="../../d6/d05/HouseholderQR_8ipp.html" target="_top" xlink:title=" ">
<polygon fill="white" stroke="black" points="0,-62 0,-81 110,-81 110,-62 0,-62"/>
<text text-anchor="middle" x="55" y="-69" font-family="Helvetica,sans-Serif" font-size="10.00">HouseholderQR.ipp</text>
</a>
</g>
</g>
<!-- Node1&#45;&gt;Node2 -->
<g id="edge1" class="edge">
<title>Node1&#45;&gt;Node2</title>
<path fill="none" stroke="midnightblue" d="M205.48,-120.38C169.13,-108.82 114.21,-91.34 81.74,-81.01"/>
<polygon fill="midnightblue" stroke="midnightblue" points="204.62,-123.78 215.21,-123.48 206.74,-117.11 204.62,-123.78"/>
</g>
<!-- Node3 -->
<g id="node3" class="node">
<title>Node3</title>
<g id="a_node3"><a xlink:href="../../df/d5c/HouseholderQR_8cpp.html" target="_top" xlink:title=" ">
<polygon fill="white" stroke="black" points="39.5,-0.5 39.5,-19.5 152.5,-19.5 152.5,-0.5 39.5,-0.5"/>
<text text-anchor="middle" x="96" y="-7.5" font-family="Helvetica,sans-Serif" font-size="10.00">HouseholderQR.cpp</text>
</a>
</g>
</g>
<!-- Node1&#45;&gt;Node3 -->
<g id="edge3" class="edge">
<title>Node1&#45;&gt;Node3</title>
<path fill="none" stroke="midnightblue" d="M210.8,-119.23C193.86,-111.41 173.14,-100.34 157,-87 132.48,-66.74 111.08,-35.25 101.44,-19.95"/>
<polygon fill="midnightblue" stroke="midnightblue" points="209.72,-122.58 220.28,-123.45 212.57,-116.18 209.72,-122.58"/>
</g>
<!-- Node4 -->
<g id="node4" class="node">
<title>Node4</title>
<g id="a_node4"><a xlink:href="../../dd/d4f/Basic-matrix-operations_8ino.html" target="_top" xlink:title=" ">
<polygon fill="white" stroke="black" points="166,-62 166,-81 318,-81 318,-62 166,-62"/>
<text text-anchor="middle" x="242" y="-69" font-family="Helvetica,sans-Serif" font-size="10.00">Basic&#45;matrix&#45;operations.ino</text>
</a>
</g>
</g>
<!-- Node1&#45;&gt;Node4 -->
<g id="edge4" class="edge">
<title>Node1&#45;&gt;Node4</title>
<path fill="none" stroke="midnightblue" d="M242,-113.32C242,-102.5 242,-89.4 242,-81.01"/>
<polygon fill="midnightblue" stroke="midnightblue" points="238.5,-113.48 242,-123.48 245.5,-113.48 238.5,-113.48"/>
</g>
<!-- Node5 -->
<g id="node5" class="node">
<title>Node5</title>
<g id="a_node5"><a xlink:href="../../de/dd7/Basic-matrix-operations-no-iostream_8ino.html" target="_top" xlink:title=" ">
<polygon fill="white" stroke="black" points="336,-56.5 336,-86.5 470,-86.5 470,-56.5 336,-56.5"/>
<text text-anchor="start" x="344" y="-74.5" font-family="Helvetica,sans-Serif" font-size="10.00">Basic&#45;matrix&#45;operations</text>
<text text-anchor="middle" x="403" y="-63.5" font-family="Helvetica,sans-Serif" font-size="10.00">&#45;no&#45;iostream.ino</text>
</a>
</g>
</g>
<!-- Node1&#45;&gt;Node5 -->
<g id="edge5" class="edge">
<title>Node1&#45;&gt;Node5</title>
<path fill="none" stroke="midnightblue" d="M274.54,-119.98C300.71,-110.3 337.54,-96.69 365.06,-86.52"/>
<polygon fill="midnightblue" stroke="midnightblue" points="273.23,-116.73 265.07,-123.48 275.66,-123.29 273.23,-116.73"/>
</g>
<!-- Node6 -->
<g id="node6" class="node">
<title>Node6</title>
<g id="a_node6"><a xlink:href="../../d3/d58/QR-PerfTest_8cpp.html" target="_top" xlink:title=" ">
<polygon fill="white" stroke="black" points="488,-62 488,-81 582,-81 582,-62 488,-62"/>
<text text-anchor="middle" x="535" y="-69" font-family="Helvetica,sans-Serif" font-size="10.00">QR&#45;PerfTest.cpp</text>
</a>
</g>
</g>
<!-- Node1&#45;&gt;Node6 -->
<g id="edge6" class="edge">
<title>Node1&#45;&gt;Node6</title>
<path fill="none" stroke="midnightblue" d="M302.05,-121.72C350.1,-113.23 419.1,-100.43 479,-87 486.94,-85.22 495.46,-83.12 503.4,-81.07"/>
<polygon fill="midnightblue" stroke="midnightblue" points="301.37,-118.29 292.13,-123.47 302.59,-125.18 301.37,-118.29"/>
</g>
<!-- Node2&#45;&gt;Node3 -->
<g id="edge2" class="edge">
<title>Node2&#45;&gt;Node3</title>
<path fill="none" stroke="midnightblue" d="M66.71,-53.51C74.37,-42.39 84.05,-28.34 90.14,-19.51"/>
<polygon fill="midnightblue" stroke="midnightblue" points="63.67,-51.75 60.87,-61.98 69.43,-55.73 63.67,-51.75"/>
</g>
</g>
</svg>
