<?xml version="1.0" encoding="UTF-8" standalone="no"?>
<!DOCTYPE svg PUBLIC "-//W3C//DTD SVG 1.1//EN"
 "http://www.w3.org/Graphics/SVG/1.1/DTD/svg11.dtd">
<!-- Generated by graphviz version 2.43.0 (0)
 -->
<!-- Title: LU.cpp Pages: 1 -->
<svg width="796pt" height="308pt"
 viewBox="0.00 0.00 796.00 308.00" xmlns="http://www.w3.org/2000/svg" xmlns:xlink="http://www.w3.org/1999/xlink">
<g id="graph0" class="graph" transform="scale(1 1) rotate(0) translate(4 304)">
<title>LU.cpp</title>
<polygon fill="white" stroke="transparent" points="-4,4 -4,-304 792,-304 792,4 -4,4"/>
<!-- Node1 -->
<g id="node1" class="node">
<title>Node1</title>
<g id="a_node1"><a xlink:title=" ">
<polygon fill="#bfbfbf" stroke="black" points="257,-280.5 257,-299.5 307,-299.5 307,-280.5 257,-280.5"/>
<text text-anchor="middle" x="282" y="-287.5" font-family="Helvetica,sans-Serif" font-size="10.00">LU.cpp</text>
</a>
</g>
</g>
<!-- Node2 -->
<g id="node2" class="node">
<title>Node2</title>
<g id="a_node2"><a xlink:href="../../d6/dcf/LU_8hpp.html" target="_top" xlink:title=" ">
<polygon fill="white" stroke="black" points="222,-224.5 222,-243.5 272,-243.5 272,-224.5 222,-224.5"/>
<text text-anchor="middle" x="247" y="-231.5" font-family="Helvetica,sans-Serif" font-size="10.00">LU.hpp</text>
</a>
</g>
</g>
<!-- Node1&#45;&gt;Node2 -->
<g id="edge1" class="edge">
<title>Node1&#45;&gt;Node2</title>
<path fill="none" stroke="midnightblue" d="M276.22,-280.08C271.33,-272.53 264.17,-261.49 258.17,-252.23"/>
<polygon fill="midnightblue" stroke="midnightblue" points="261.05,-250.24 252.67,-243.75 255.17,-254.05 261.05,-250.24"/>
</g>
<!-- Node8 -->
<g id="node8" class="node">
<title>Node8</title>
<g id="a_node8"><a xlink:title=" ">
<polygon fill="white" stroke="#bfbfbf" points="0,-112.5 0,-131.5 52,-131.5 52,-112.5 0,-112.5"/>
<text text-anchor="middle" x="26" y="-119.5" font-family="Helvetica,sans-Serif" font-size="10.00">cassert</text>
</a>
</g>
</g>
<!-- Node1&#45;&gt;Node8 -->
<g id="edge15" class="edge">
<title>Node1&#45;&gt;Node8</title>
<path fill="none" stroke="midnightblue" d="M268.6,-280.31C226.95,-253.3 99.51,-170.67 47.97,-137.25"/>
<polygon fill="midnightblue" stroke="midnightblue" points="49.57,-134.11 39.27,-131.61 45.76,-139.98 49.57,-134.11"/>
</g>
<!-- Node16 -->
<g id="node16" class="node">
<title>Node16</title>
<g id="a_node16"><a xlink:title=" ">
<polygon fill="white" stroke="#bfbfbf" points="290,-224.5 290,-243.5 346,-243.5 346,-224.5 290,-224.5"/>
<text text-anchor="middle" x="318" y="-231.5" font-family="Helvetica,sans-Serif" font-size="10.00">iomanip</text>
</a>
</g>
</g>
<!-- Node1&#45;&gt;Node16 -->
<g id="edge16" class="edge">
<title>Node1&#45;&gt;Node16</title>
<path fill="none" stroke="midnightblue" d="M287.94,-280.08C292.98,-272.53 300.34,-261.49 306.51,-252.23"/>
<polygon fill="midnightblue" stroke="midnightblue" points="309.53,-254.01 312.17,-243.75 303.71,-250.13 309.53,-254.01"/>
</g>
<!-- Node17 -->
<g id="node17" class="node">
<title>Node17</title>
<g id="a_node17"><a xlink:title=" ">
<polygon fill="white" stroke="#bfbfbf" points="364,-224.5 364,-243.5 424,-243.5 424,-224.5 364,-224.5"/>
<text text-anchor="middle" x="394" y="-231.5" font-family="Helvetica,sans-Serif" font-size="10.00">iostream</text>
</a>
</g>
</g>
<!-- Node1&#45;&gt;Node17 -->
<g id="edge17" class="edge">
<title>Node1&#45;&gt;Node17</title>
<path fill="none" stroke="midnightblue" d="M299.99,-280.32C318.04,-271.62 346.05,-258.12 366.8,-248.11"/>
<polygon fill="midnightblue" stroke="midnightblue" points="368.56,-251.15 376.05,-243.65 365.52,-244.84 368.56,-251.15"/>
</g>
<!-- Node3 -->
<g id="node3" class="node">
<title>Node3</title>
<g id="a_node3"><a xlink:href="../../d9/d1c/Matrix_8hpp.html" target="_top" xlink:title=" ">
<polygon fill="white" stroke="black" points="379.5,-168.5 379.5,-187.5 448.5,-187.5 448.5,-168.5 379.5,-168.5"/>
<text text-anchor="middle" x="414" y="-175.5" font-family="Helvetica,sans-Serif" font-size="10.00">Matrix.hpp</text>
</a>
</g>
</g>
<!-- Node2&#45;&gt;Node3 -->
<g id="edge2" class="edge">
<title>Node2&#45;&gt;Node3</title>
<path fill="none" stroke="midnightblue" d="M272,-224.92C300,-215.86 345.63,-201.11 377.59,-190.77"/>
<polygon fill="midnightblue" stroke="midnightblue" points="379.01,-193.99 387.45,-187.59 376.85,-187.33 379.01,-193.99"/>
</g>
<!-- Node4 -->
<g id="node4" class="node">
<title>Node4</title>
<g id="a_node4"><a xlink:href="../../d9/dd5/ArduinoConfig_8hpp.html" target="_top" xlink:title="Preprocessor logic for configuring the library to make it compatible with the Arduino environment.">
<polygon fill="white" stroke="black" points="70,-112.5 70,-131.5 216,-131.5 216,-112.5 70,-112.5"/>
<text text-anchor="middle" x="143" y="-119.5" font-family="Helvetica,sans-Serif" font-size="10.00">Arduino/ArduinoConfig.hpp</text>
</a>
</g>
</g>
<!-- Node3&#45;&gt;Node4 -->
<g id="edge3" class="edge">
<title>Node3&#45;&gt;Node4</title>
<path fill="none" stroke="midnightblue" d="M379.4,-170.11C333.02,-160.86 250.25,-144.37 195.99,-133.56"/>
<polygon fill="midnightblue" stroke="midnightblue" points="196.36,-130.06 185.87,-131.54 194.99,-136.93 196.36,-130.06"/>
</g>
<!-- Node7 -->
<g id="node7" class="node">
<title>Node7</title>
<g id="a_node7"><a xlink:title=" ">
<polygon fill="white" stroke="#bfbfbf" points="234,-112.5 234,-131.5 298,-131.5 298,-112.5 234,-112.5"/>
<text text-anchor="middle" x="266" y="-119.5" font-family="Helvetica,sans-Serif" font-size="10.00">algorithm</text>
</a>
</g>
</g>
<!-- Node3&#45;&gt;Node7 -->
<g id="edge6" class="edge">
<title>Node3&#45;&gt;Node7</title>
<path fill="none" stroke="midnightblue" d="M390.55,-168.44C365.87,-159.44 326.81,-145.19 299.02,-135.05"/>
<polygon fill="midnightblue" stroke="midnightblue" points="299.94,-131.66 289.34,-131.52 297.54,-138.23 299.94,-131.66"/>
</g>
<!-- Node3&#45;&gt;Node8 -->
<g id="edge7" class="edge">
<title>Node3&#45;&gt;Node8</title>
<path fill="none" stroke="midnightblue" d="M379.2,-174.02C317.3,-168.4 183.87,-154.88 62.15,-132.01"/>
<polygon fill="midnightblue" stroke="midnightblue" points="62.77,-128.57 52.29,-130.14 61.46,-135.45 62.77,-128.57"/>
</g>
<!-- Node9 -->
<g id="node9" class="node">
<title>Node9</title>
<g id="a_node9"><a xlink:title=" ">
<polygon fill="white" stroke="#bfbfbf" points="316.5,-112.5 316.5,-131.5 363.5,-131.5 363.5,-112.5 316.5,-112.5"/>
<text text-anchor="middle" x="340" y="-119.5" font-family="Helvetica,sans-Serif" font-size="10.00">cmath</text>
</a>
</g>
</g>
<!-- Node3&#45;&gt;Node9 -->
<g id="edge8" class="edge">
<title>Node3&#45;&gt;Node9</title>
<path fill="none" stroke="midnightblue" d="M402.11,-168.32C390.85,-160.11 373.71,-147.6 360.29,-137.81"/>
<polygon fill="midnightblue" stroke="midnightblue" points="362.25,-134.9 352.11,-131.83 358.12,-140.56 362.25,-134.9"/>
</g>
<!-- Node10 -->
<g id="node10" class="node">
<title>Node10</title>
<g id="a_node10"><a xlink:title=" ">
<polygon fill="white" stroke="#bfbfbf" points="381.5,-112.5 381.5,-131.5 446.5,-131.5 446.5,-112.5 381.5,-112.5"/>
<text text-anchor="middle" x="414" y="-119.5" font-family="Helvetica,sans-Serif" font-size="10.00">functional</text>
</a>
</g>
</g>
<!-- Node3&#45;&gt;Node10 -->
<g id="edge9" class="edge">
<title>Node3&#45;&gt;Node10</title>
<path fill="none" stroke="midnightblue" d="M414,-168.08C414,-161.01 414,-150.86 414,-141.99"/>
<polygon fill="midnightblue" stroke="midnightblue" points="417.5,-141.75 414,-131.75 410.5,-141.75 417.5,-141.75"/>
</g>
<!-- Node11 -->
<g id="node11" class="node">
<title>Node11</title>
<g id="a_node11"><a xlink:title=" ">
<polygon fill="white" stroke="#bfbfbf" points="465,-112.5 465,-131.5 521,-131.5 521,-112.5 465,-112.5"/>
<text text-anchor="middle" x="493" y="-119.5" font-family="Helvetica,sans-Serif" font-size="10.00">numeric</text>
</a>
</g>
</g>
<!-- Node3&#45;&gt;Node11 -->
<g id="edge10" class="edge">
<title>Node3&#45;&gt;Node11</title>
<path fill="none" stroke="midnightblue" d="M426.69,-168.32C438.9,-159.98 457.58,-147.21 472,-137.35"/>
<polygon fill="midnightblue" stroke="midnightblue" points="474.06,-140.19 480.34,-131.65 470.11,-134.41 474.06,-140.19"/>
</g>
<!-- Node12 -->
<g id="node12" class="node">
<title>Node12</title>
<g id="a_node12"><a xlink:title=" ">
<polygon fill="white" stroke="#bfbfbf" points="539.5,-112.5 539.5,-131.5 584.5,-131.5 584.5,-112.5 539.5,-112.5"/>
<text text-anchor="middle" x="562" y="-119.5" font-family="Helvetica,sans-Serif" font-size="10.00">utility</text>
</a>
</g>
</g>
<!-- Node3&#45;&gt;Node12 -->
<g id="edge11" class="edge">
<title>Node3&#45;&gt;Node12</title>
<path fill="none" stroke="midnightblue" d="M437.45,-168.44C462.28,-159.39 501.65,-145.02 529.47,-134.87"/>
<polygon fill="midnightblue" stroke="midnightblue" points="530.95,-138.05 539.14,-131.34 528.55,-131.48 530.95,-138.05"/>
</g>
<!-- Node13 -->
<g id="node13" class="node">
<title>Node13</title>
<g id="a_node13"><a xlink:title=" ">
<polygon fill="white" stroke="#bfbfbf" points="602.5,-112.5 602.5,-131.5 649.5,-131.5 649.5,-112.5 602.5,-112.5"/>
<text text-anchor="middle" x="626" y="-119.5" font-family="Helvetica,sans-Serif" font-size="10.00">vector</text>
</a>
</g>
</g>
<!-- Node3&#45;&gt;Node13 -->
<g id="edge12" class="edge">
<title>Node3&#45;&gt;Node13</title>
<path fill="none" stroke="midnightblue" d="M448.58,-168.67C482.82,-160.36 536.99,-147.01 592.29,-132.41"/>
<polygon fill="midnightblue" stroke="midnightblue" points="593.49,-135.71 602.26,-129.76 591.69,-128.94 593.49,-135.71"/>
</g>
<!-- Node14 -->
<g id="node14" class="node">
<title>Node14</title>
<g id="a_node14"><a xlink:title=" ">
<polygon fill="white" stroke="#bfbfbf" points="668,-112.5 668,-131.5 716,-131.5 716,-112.5 668,-112.5"/>
<text text-anchor="middle" x="692" y="-119.5" font-family="Helvetica,sans-Serif" font-size="10.00">iosfwd</text>
</a>
</g>
</g>
<!-- Node3&#45;&gt;Node14 -->
<g id="edge13" class="edge">
<title>Node3&#45;&gt;Node14</title>
<path fill="none" stroke="midnightblue" d="M448.68,-171.58C494.46,-164.22 577.74,-150.11 658.12,-132.05"/>
<polygon fill="midnightblue" stroke="midnightblue" points="658.93,-135.45 667.91,-129.82 657.38,-128.62 658.93,-135.45"/>
</g>
<!-- Node15 -->
<g id="node15" class="node">
<title>Node15</title>
<g id="a_node15"><a xlink:title=" ">
<polygon fill="white" stroke="#bfbfbf" points="734,-112.5 734,-131.5 788,-131.5 788,-112.5 734,-112.5"/>
<text text-anchor="middle" x="761" y="-119.5" font-family="Helvetica,sans-Serif" font-size="10.00">random</text>
</a>
</g>
</g>
<!-- Node3&#45;&gt;Node15 -->
<g id="edge14" class="edge">
<title>Node3&#45;&gt;Node15</title>
<path fill="none" stroke="midnightblue" d="M448.71,-173.14C504.63,-166.67 618.28,-152.49 724.06,-132.01"/>
<polygon fill="midnightblue" stroke="midnightblue" points="724.8,-135.43 733.94,-130.08 723.45,-128.57 724.8,-135.43"/>
</g>
<!-- Node5 -->
<g id="node5" class="node">
<title>Node5</title>
<g id="a_node5"><a xlink:href="../../df/d96/ArduinoMacroFix_8hpp.html" target="_top" xlink:title="Fixes for problematic macros defined by the Arduino Core.">
<polygon fill="white" stroke="black" points="63,-56.5 63,-75.5 223,-75.5 223,-56.5 63,-56.5"/>
<text text-anchor="middle" x="143" y="-63.5" font-family="Helvetica,sans-Serif" font-size="10.00">Arduino/ArduinoMacroFix.hpp</text>
</a>
</g>
</g>
<!-- Node4&#45;&gt;Node5 -->
<g id="edge4" class="edge">
<title>Node4&#45;&gt;Node5</title>
<path fill="none" stroke="midnightblue" d="M143,-112.08C143,-105.01 143,-94.86 143,-85.99"/>
<polygon fill="midnightblue" stroke="midnightblue" points="146.5,-85.75 143,-75.75 139.5,-85.75 146.5,-85.75"/>
</g>
<!-- Node6 -->
<g id="node6" class="node">
<title>Node6</title>
<g id="a_node6"><a xlink:title=" ">
<polygon fill="white" stroke="#bfbfbf" points="111.5,-0.5 111.5,-19.5 174.5,-19.5 174.5,-0.5 111.5,-0.5"/>
<text text-anchor="middle" x="143" y="-7.5" font-family="Helvetica,sans-Serif" font-size="10.00">Arduino.h</text>
</a>
</g>
</g>
<!-- Node5&#45;&gt;Node6 -->
<g id="edge5" class="edge">
<title>Node5&#45;&gt;Node6</title>
<path fill="none" stroke="midnightblue" d="M143,-56.08C143,-49.01 143,-38.86 143,-29.99"/>
<polygon fill="midnightblue" stroke="midnightblue" points="146.5,-29.75 143,-19.75 139.5,-29.75 146.5,-29.75"/>
</g>
</g>
</svg>
