<?xml version="1.0" encoding="UTF-8" standalone="no"?>
<!DOCTYPE svg PUBLIC "-//W3C//DTD SVG 1.1//EN"
 "http://www.w3.org/Graphics/SVG/1.1/DTD/svg11.dtd">
<!-- Generated by graphviz version 2.43.0 (0)
 -->
<!-- Title: HouseholderQR.cpp Pages: 1 -->
<svg width="889pt" height="375pt"
 viewBox="0.00 0.00 889.09 375.00" xmlns="http://www.w3.org/2000/svg" xmlns:xlink="http://www.w3.org/1999/xlink">
<g id="graph0" class="graph" transform="scale(1 1) rotate(0) translate(4 371)">
<title>HouseholderQR.cpp</title>
<polygon fill="white" stroke="transparent" points="-4,4 -4,-371 885.09,-371 885.09,4 -4,4"/>
<!-- Node1 -->
<g id="node1" class="node">
<title>Node1</title>
<g id="a_node1"><a xlink:title=" ">
<polygon fill="#bfbfbf" stroke="black" points="110.5,-347.5 110.5,-366.5 223.5,-366.5 223.5,-347.5 110.5,-347.5"/>
<text text-anchor="middle" x="167" y="-354.5" font-family="Helvetica,sans-Serif" font-size="10.00">HouseholderQR.cpp</text>
</a>
</g>
</g>
<!-- Node2 -->
<g id="node2" class="node">
<title>Node2</title>
<g id="a_node2"><a xlink:href="../../d9/d52/HouseholderQR_8hpp.html" target="_top" xlink:title=" ">
<polygon fill="white" stroke="black" points="244,-224.5 244,-254.5 390,-254.5 390,-224.5 244,-224.5"/>
<text text-anchor="start" x="252" y="-242.5" font-family="Helvetica,sans-Serif" font-size="10.00">include/linalg/Householder</text>
<text text-anchor="middle" x="317" y="-231.5" font-family="Helvetica,sans-Serif" font-size="10.00">QR.hpp</text>
</a>
</g>
</g>
<!-- Node1&#45;&gt;Node2 -->
<g id="edge1" class="edge">
<title>Node1&#45;&gt;Node2</title>
<path fill="none" stroke="midnightblue" d="M191.28,-347.44C210.83,-339.8 238.35,-327.31 259,-311 276.15,-297.45 291.66,-278.03 302.31,-263.01"/>
<polygon fill="midnightblue" stroke="midnightblue" points="305.21,-264.97 308,-254.75 299.45,-261 305.21,-264.97"/>
</g>
<!-- Node8 -->
<g id="node8" class="node">
<title>Node8</title>
<g id="a_node8"><a xlink:title=" ">
<polygon fill="white" stroke="#bfbfbf" points="0,-112.5 0,-131.5 52,-131.5 52,-112.5 0,-112.5"/>
<text text-anchor="middle" x="26" y="-119.5" font-family="Helvetica,sans-Serif" font-size="10.00">cassert</text>
</a>
</g>
</g>
<!-- Node1&#45;&gt;Node8 -->
<g id="edge17" class="edge">
<title>Node1&#45;&gt;Node8</title>
<path fill="none" stroke="midnightblue" d="M134.2,-347.38C114.41,-340.58 90.17,-329.14 75,-311 33.02,-260.81 26.53,-178.72 25.84,-141.91"/>
<polygon fill="midnightblue" stroke="midnightblue" points="29.34,-141.62 25.79,-131.64 22.34,-141.66 29.34,-141.62"/>
</g>
<!-- Node17 -->
<g id="node17" class="node">
<title>Node17</title>
<g id="a_node17"><a xlink:href="../../d6/d05/HouseholderQR_8ipp.html" target="_top" xlink:title=" ">
<polygon fill="white" stroke="black" points="84,-291.5 84,-310.5 250,-310.5 250,-291.5 84,-291.5"/>
<text text-anchor="middle" x="167" y="-298.5" font-family="Helvetica,sans-Serif" font-size="10.00">boilerplate/HouseholderQR.ipp</text>
</a>
</g>
</g>
<!-- Node1&#45;&gt;Node17 -->
<g id="edge18" class="edge">
<title>Node1&#45;&gt;Node17</title>
<path fill="none" stroke="midnightblue" d="M167,-347.08C167,-340.01 167,-329.86 167,-320.99"/>
<polygon fill="midnightblue" stroke="midnightblue" points="170.5,-320.75 167,-310.75 163.5,-320.75 170.5,-320.75"/>
</g>
<!-- Node3 -->
<g id="node3" class="node">
<title>Node3</title>
<g id="a_node3"><a xlink:href="../../d9/d1c/Matrix_8hpp.html" target="_top" xlink:title=" ">
<polygon fill="white" stroke="black" points="418.5,-168.5 418.5,-187.5 487.5,-187.5 487.5,-168.5 418.5,-168.5"/>
<text text-anchor="middle" x="453" y="-175.5" font-family="Helvetica,sans-Serif" font-size="10.00">Matrix.hpp</text>
</a>
</g>
</g>
<!-- Node2&#45;&gt;Node3 -->
<g id="edge2" class="edge">
<title>Node2&#45;&gt;Node3</title>
<path fill="none" stroke="midnightblue" d="M349.23,-224.4C371.84,-214.51 401.84,-201.38 423.76,-191.79"/>
<polygon fill="midnightblue" stroke="midnightblue" points="425.45,-194.87 433.21,-187.66 422.65,-188.46 425.45,-194.87"/>
</g>
<!-- Node4 -->
<g id="node4" class="node">
<title>Node4</title>
<g id="a_node4"><a xlink:href="../../d9/dd5/ArduinoConfig_8hpp.html" target="_top" xlink:title="Preprocessor logic for configuring the library to make it compatible with the Arduino environment.">
<polygon fill="white" stroke="black" points="70,-112.5 70,-131.5 216,-131.5 216,-112.5 70,-112.5"/>
<text text-anchor="middle" x="143" y="-119.5" font-family="Helvetica,sans-Serif" font-size="10.00">Arduino/ArduinoConfig.hpp</text>
</a>
</g>
</g>
<!-- Node3&#45;&gt;Node4 -->
<g id="edge3" class="edge">
<title>Node3&#45;&gt;Node4</title>
<path fill="none" stroke="midnightblue" d="M418.34,-170.96C365.93,-161.83 265.84,-144.4 201.86,-133.25"/>
<polygon fill="midnightblue" stroke="midnightblue" points="202.37,-129.79 191.91,-131.52 201.17,-136.68 202.37,-129.79"/>
</g>
<!-- Node7 -->
<g id="node7" class="node">
<title>Node7</title>
<g id="a_node7"><a xlink:title=" ">
<polygon fill="white" stroke="#bfbfbf" points="234,-112.5 234,-131.5 298,-131.5 298,-112.5 234,-112.5"/>
<text text-anchor="middle" x="266" y="-119.5" font-family="Helvetica,sans-Serif" font-size="10.00">algorithm</text>
</a>
</g>
</g>
<!-- Node3&#45;&gt;Node7 -->
<g id="edge6" class="edge">
<title>Node3&#45;&gt;Node7</title>
<path fill="none" stroke="midnightblue" d="M423.37,-168.44C391.5,-159.24 340.67,-144.56 305.44,-134.39"/>
<polygon fill="midnightblue" stroke="midnightblue" points="306.07,-130.93 295.49,-131.52 304.13,-137.65 306.07,-130.93"/>
</g>
<!-- Node3&#45;&gt;Node8 -->
<g id="edge7" class="edge">
<title>Node3&#45;&gt;Node8</title>
<path fill="none" stroke="midnightblue" d="M418.42,-174.64C351.43,-169.71 199.2,-156.84 62.13,-131.98"/>
<polygon fill="midnightblue" stroke="midnightblue" points="62.76,-128.54 52.29,-130.17 61.49,-135.42 62.76,-128.54"/>
</g>
<!-- Node9 -->
<g id="node9" class="node">
<title>Node9</title>
<g id="a_node9"><a xlink:title=" ">
<polygon fill="white" stroke="#bfbfbf" points="316.5,-112.5 316.5,-131.5 363.5,-131.5 363.5,-112.5 316.5,-112.5"/>
<text text-anchor="middle" x="340" y="-119.5" font-family="Helvetica,sans-Serif" font-size="10.00">cmath</text>
</a>
</g>
</g>
<!-- Node3&#45;&gt;Node9 -->
<g id="edge8" class="edge">
<title>Node3&#45;&gt;Node9</title>
<path fill="none" stroke="midnightblue" d="M435.09,-168.44C416.75,-159.68 387.99,-145.94 366.91,-135.86"/>
<polygon fill="midnightblue" stroke="midnightblue" points="368.35,-132.67 357.82,-131.52 365.33,-138.99 368.35,-132.67"/>
</g>
<!-- Node10 -->
<g id="node10" class="node">
<title>Node10</title>
<g id="a_node10"><a xlink:title=" ">
<polygon fill="white" stroke="#bfbfbf" points="381.5,-112.5 381.5,-131.5 446.5,-131.5 446.5,-112.5 381.5,-112.5"/>
<text text-anchor="middle" x="414" y="-119.5" font-family="Helvetica,sans-Serif" font-size="10.00">functional</text>
</a>
</g>
</g>
<!-- Node3&#45;&gt;Node10 -->
<g id="edge9" class="edge">
<title>Node3&#45;&gt;Node10</title>
<path fill="none" stroke="midnightblue" d="M446.56,-168.08C441.05,-160.46 432.97,-149.26 426.24,-139.94"/>
<polygon fill="midnightblue" stroke="midnightblue" points="429.01,-137.81 420.32,-131.75 423.34,-141.91 429.01,-137.81"/>
</g>
<!-- Node11 -->
<g id="node11" class="node">
<title>Node11</title>
<g id="a_node11"><a xlink:title=" ">
<polygon fill="white" stroke="#bfbfbf" points="465,-112.5 465,-131.5 521,-131.5 521,-112.5 465,-112.5"/>
<text text-anchor="middle" x="493" y="-119.5" font-family="Helvetica,sans-Serif" font-size="10.00">numeric</text>
</a>
</g>
</g>
<!-- Node3&#45;&gt;Node11 -->
<g id="edge10" class="edge">
<title>Node3&#45;&gt;Node11</title>
<path fill="none" stroke="midnightblue" d="M459.61,-168.08C465.26,-160.46 473.54,-149.26 480.45,-139.94"/>
<polygon fill="midnightblue" stroke="midnightblue" points="483.38,-141.87 486.52,-131.75 477.75,-137.7 483.38,-141.87"/>
</g>
<!-- Node12 -->
<g id="node12" class="node">
<title>Node12</title>
<g id="a_node12"><a xlink:title=" ">
<polygon fill="white" stroke="#bfbfbf" points="539.5,-112.5 539.5,-131.5 584.5,-131.5 584.5,-112.5 539.5,-112.5"/>
<text text-anchor="middle" x="562" y="-119.5" font-family="Helvetica,sans-Serif" font-size="10.00">utility</text>
</a>
</g>
</g>
<!-- Node3&#45;&gt;Node12 -->
<g id="edge11" class="edge">
<title>Node3&#45;&gt;Node12</title>
<path fill="none" stroke="midnightblue" d="M470.51,-168.32C488.07,-159.62 515.33,-146.12 535.53,-136.11"/>
<polygon fill="midnightblue" stroke="midnightblue" points="537.12,-139.23 544.53,-131.65 534.02,-132.96 537.12,-139.23"/>
</g>
<!-- Node13 -->
<g id="node13" class="node">
<title>Node13</title>
<g id="a_node13"><a xlink:title=" ">
<polygon fill="white" stroke="#bfbfbf" points="755.5,-56.5 755.5,-75.5 802.5,-75.5 802.5,-56.5 755.5,-56.5"/>
<text text-anchor="middle" x="779" y="-63.5" font-family="Helvetica,sans-Serif" font-size="10.00">vector</text>
</a>
</g>
</g>
<!-- Node3&#45;&gt;Node13 -->
<g id="edge12" class="edge">
<title>Node3&#45;&gt;Node13</title>
<path fill="none" stroke="midnightblue" d="M487.5,-175.91C583.64,-172.53 849.23,-160.66 875,-132 897.82,-106.62 848.29,-86.35 812.25,-75.55"/>
<polygon fill="midnightblue" stroke="midnightblue" points="813.09,-72.15 802.51,-72.76 811.16,-78.88 813.09,-72.15"/>
</g>
<!-- Node14 -->
<g id="node14" class="node">
<title>Node14</title>
<g id="a_node14"><a xlink:title=" ">
<polygon fill="white" stroke="#bfbfbf" points="746,-112.5 746,-131.5 794,-131.5 794,-112.5 746,-112.5"/>
<text text-anchor="middle" x="770" y="-119.5" font-family="Helvetica,sans-Serif" font-size="10.00">iosfwd</text>
</a>
</g>
</g>
<!-- Node3&#45;&gt;Node14 -->
<g id="edge13" class="edge">
<title>Node3&#45;&gt;Node14</title>
<path fill="none" stroke="midnightblue" d="M487.76,-172.74C539.74,-166.09 640.92,-152.11 736.14,-131.99"/>
<polygon fill="midnightblue" stroke="midnightblue" points="736.88,-135.41 745.92,-129.89 735.41,-128.56 736.88,-135.41"/>
</g>
<!-- Node15 -->
<g id="node15" class="node">
<title>Node15</title>
<g id="a_node15"><a xlink:title=" ">
<polygon fill="white" stroke="#bfbfbf" points="812,-112.5 812,-131.5 866,-131.5 866,-112.5 812,-112.5"/>
<text text-anchor="middle" x="839" y="-119.5" font-family="Helvetica,sans-Serif" font-size="10.00">random</text>
</a>
</g>
</g>
<!-- Node3&#45;&gt;Node15 -->
<g id="edge14" class="edge">
<title>Node3&#45;&gt;Node15</title>
<path fill="none" stroke="midnightblue" d="M487.99,-173.87C549.5,-168.08 681.16,-154.35 801.8,-132.03"/>
<polygon fill="midnightblue" stroke="midnightblue" points="802.76,-135.41 811.95,-130.12 801.47,-128.53 802.76,-135.41"/>
</g>
<!-- Node16 -->
<g id="node16" class="node">
<title>Node16</title>
<g id="a_node16"><a xlink:href="../../df/daa/MatrixStorage_8hpp.html" target="_top" xlink:title=" ">
<polygon fill="white" stroke="black" points="602.5,-112.5 602.5,-131.5 727.5,-131.5 727.5,-112.5 602.5,-112.5"/>
<text text-anchor="middle" x="665" y="-119.5" font-family="Helvetica,sans-Serif" font-size="10.00">util/MatrixStorage.hpp</text>
</a>
</g>
</g>
<!-- Node3&#45;&gt;Node16 -->
<g id="edge15" class="edge">
<title>Node3&#45;&gt;Node16</title>
<path fill="none" stroke="midnightblue" d="M486.59,-168.44C523.19,-159.12 581.84,-144.18 621.83,-134"/>
<polygon fill="midnightblue" stroke="midnightblue" points="622.74,-137.38 631.57,-131.52 621.01,-130.59 622.74,-137.38"/>
</g>
<!-- Node5 -->
<g id="node5" class="node">
<title>Node5</title>
<g id="a_node5"><a xlink:href="../../df/d96/ArduinoMacroFix_8hpp.html" target="_top" xlink:title="Fixes for problematic macros defined by the Arduino Core.">
<polygon fill="white" stroke="black" points="83.5,-56.5 83.5,-75.5 202.5,-75.5 202.5,-56.5 83.5,-56.5"/>
<text text-anchor="middle" x="143" y="-63.5" font-family="Helvetica,sans-Serif" font-size="10.00">ArduinoMacroFix.hpp</text>
</a>
</g>
</g>
<!-- Node4&#45;&gt;Node5 -->
<g id="edge4" class="edge">
<title>Node4&#45;&gt;Node5</title>
<path fill="none" stroke="midnightblue" d="M143,-112.08C143,-105.01 143,-94.86 143,-85.99"/>
<polygon fill="midnightblue" stroke="midnightblue" points="146.5,-85.75 143,-75.75 139.5,-85.75 146.5,-85.75"/>
</g>
<!-- Node6 -->
<g id="node6" class="node">
<title>Node6</title>
<g id="a_node6"><a xlink:title=" ">
<polygon fill="white" stroke="#bfbfbf" points="111.5,-0.5 111.5,-19.5 174.5,-19.5 174.5,-0.5 111.5,-0.5"/>
<text text-anchor="middle" x="143" y="-7.5" font-family="Helvetica,sans-Serif" font-size="10.00">Arduino.h</text>
</a>
</g>
</g>
<!-- Node5&#45;&gt;Node6 -->
<g id="edge5" class="edge">
<title>Node5&#45;&gt;Node6</title>
<path fill="none" stroke="midnightblue" d="M143,-56.08C143,-49.01 143,-38.86 143,-29.99"/>
<polygon fill="midnightblue" stroke="midnightblue" points="146.5,-29.75 143,-19.75 139.5,-29.75 146.5,-29.75"/>
</g>
<!-- Node16&#45;&gt;Node13 -->
<g id="edge16" class="edge">
<title>Node16&#45;&gt;Node13</title>
<path fill="none" stroke="midnightblue" d="M683.06,-112.44C701.57,-103.68 730.58,-89.94 751.86,-79.86"/>
<polygon fill="midnightblue" stroke="midnightblue" points="753.48,-82.96 761.02,-75.52 750.49,-76.63 753.48,-82.96"/>
</g>
<!-- Node17&#45;&gt;Node2 -->
<g id="edge19" class="edge">
<title>Node17&#45;&gt;Node2</title>
<path fill="none" stroke="midnightblue" d="M188.49,-291.48C210.23,-282.85 244.49,-269.26 272.16,-258.29"/>
<polygon fill="midnightblue" stroke="midnightblue" points="273.64,-261.46 281.65,-254.52 271.06,-254.96 273.64,-261.46"/>
</g>
<!-- Node17&#45;&gt;Node8 -->
<g id="edge20" class="edge">
<title>Node17&#45;&gt;Node8</title>
<path fill="none" stroke="midnightblue" d="M141.32,-291.47C123,-284.25 98.9,-272.3 83,-255 66.98,-237.57 43.42,-173.53 32.28,-141.5"/>
<polygon fill="midnightblue" stroke="midnightblue" points="35.45,-139.95 28.89,-131.63 28.83,-142.23 35.45,-139.95"/>
</g>
<!-- Node18 -->
<g id="node18" class="node">
<title>Node18</title>
<g id="a_node18"><a xlink:title=" ">
<polygon fill="white" stroke="#bfbfbf" points="170,-230 170,-249 226,-249 226,-230 170,-230"/>
<text text-anchor="middle" x="198" y="-237" font-family="Helvetica,sans-Serif" font-size="10.00">iomanip</text>
</a>
</g>
</g>
<!-- Node17&#45;&gt;Node18 -->
<g id="edge21" class="edge">
<title>Node17&#45;&gt;Node18</title>
<path fill="none" stroke="midnightblue" d="M171.44,-291.48C175.95,-282.82 183.07,-269.15 188.81,-258.15"/>
<polygon fill="midnightblue" stroke="midnightblue" points="192.05,-259.49 193.57,-249.01 185.84,-256.26 192.05,-259.49"/>
</g>
<!-- Node19 -->
<g id="node19" class="node">
<title>Node19</title>
<g id="a_node19"><a xlink:title=" ">
<polygon fill="white" stroke="#bfbfbf" points="92,-230 92,-249 152,-249 152,-230 92,-230"/>
<text text-anchor="middle" x="122" y="-237" font-family="Helvetica,sans-Serif" font-size="10.00">iostream</text>
</a>
</g>
</g>
<!-- Node17&#45;&gt;Node19 -->
<g id="edge22" class="edge">
<title>Node17&#45;&gt;Node19</title>
<path fill="none" stroke="midnightblue" d="M160.55,-291.48C153.8,-282.55 143.03,-268.31 134.59,-257.14"/>
<polygon fill="midnightblue" stroke="midnightblue" points="137.26,-254.87 128.44,-249.01 131.68,-259.1 137.26,-254.87"/>
</g>
</g>
</svg>
