<?xml version="1.0" encoding="UTF-8" standalone="no"?>
<!DOCTYPE svg PUBLIC "-//W3C//DTD SVG 1.1//EN"
 "http://www.w3.org/Graphics/SVG/1.1/DTD/svg11.dtd">
<!-- Generated by graphviz version 2.43.0 (0)
 -->
<!-- Title: RowPivotLU.ipp Pages: 1 -->
<svg width="818pt" height="308pt"
 viewBox="0.00 0.00 818.00 308.00" xmlns="http://www.w3.org/2000/svg" xmlns:xlink="http://www.w3.org/1999/xlink">
<g id="graph0" class="graph" transform="scale(1 1) rotate(0) translate(4 304)">
<title>RowPivotLU.ipp</title>
<polygon fill="white" stroke="transparent" points="-4,4 -4,-304 814,-304 814,4 -4,4"/>
<!-- Node1 -->
<g id="node1" class="node">
<title>Node1</title>
<g id="a_node1"><a xlink:title=" ">
<polygon fill="#bfbfbf" stroke="black" points="629.5,-280.5 629.5,-299.5 722.5,-299.5 722.5,-280.5 629.5,-280.5"/>
<text text-anchor="middle" x="676" y="-287.5" font-family="Helvetica,sans-Serif" font-size="10.00">RowPivotLU.ipp</text>
</a>
</g>
</g>
<!-- Node2 -->
<g id="node2" class="node">
<title>Node2</title>
<g id="a_node2"><a xlink:href="../../d3/d5d/RowPivotLU_8hpp.html" target="_top" xlink:title=" ">
<polygon fill="white" stroke="black" points="428,-224.5 428,-243.5 554,-243.5 554,-224.5 428,-224.5"/>
<text text-anchor="middle" x="491" y="-231.5" font-family="Helvetica,sans-Serif" font-size="10.00">linalg/RowPivotLU.hpp</text>
</a>
</g>
</g>
<!-- Node1&#45;&gt;Node2 -->
<g id="edge1" class="edge">
<title>Node1&#45;&gt;Node2</title>
<path fill="none" stroke="midnightblue" d="M646.69,-280.44C615.16,-271.24 564.87,-256.56 530.01,-246.39"/>
<polygon fill="midnightblue" stroke="midnightblue" points="530.76,-242.96 520.18,-243.52 528.8,-249.68 530.76,-242.96"/>
</g>
<!-- Node5 -->
<g id="node5" class="node">
<title>Node5</title>
<g id="a_node5"><a xlink:title=" ">
<polygon fill="white" stroke="#bfbfbf" points="689,-56.5 689,-75.5 741,-75.5 741,-56.5 689,-56.5"/>
<text text-anchor="middle" x="715" y="-63.5" font-family="Helvetica,sans-Serif" font-size="10.00">cassert</text>
</a>
</g>
</g>
<!-- Node1&#45;&gt;Node5 -->
<g id="edge16" class="edge">
<title>Node1&#45;&gt;Node5</title>
<path fill="none" stroke="midnightblue" d="M673.17,-280.16C669.52,-267.65 664,-244.06 667,-224 674.73,-172.26 696.05,-114 707.5,-85.17"/>
<polygon fill="midnightblue" stroke="midnightblue" points="710.85,-86.22 711.36,-75.64 704.36,-83.6 710.85,-86.22"/>
</g>
<!-- Node15 -->
<g id="node15" class="node">
<title>Node15</title>
<g id="a_node15"><a xlink:title=" ">
<polygon fill="white" stroke="#bfbfbf" points="676,-224.5 676,-243.5 732,-243.5 732,-224.5 676,-224.5"/>
<text text-anchor="middle" x="704" y="-231.5" font-family="Helvetica,sans-Serif" font-size="10.00">iomanip</text>
</a>
</g>
</g>
<!-- Node1&#45;&gt;Node15 -->
<g id="edge17" class="edge">
<title>Node1&#45;&gt;Node15</title>
<path fill="none" stroke="midnightblue" d="M680.62,-280.08C684.46,-272.69 690.02,-261.95 694.76,-252.81"/>
<polygon fill="midnightblue" stroke="midnightblue" points="697.97,-254.24 699.46,-243.75 691.75,-251.02 697.97,-254.24"/>
</g>
<!-- Node16 -->
<g id="node16" class="node">
<title>Node16</title>
<g id="a_node16"><a xlink:title=" ">
<polygon fill="white" stroke="#bfbfbf" points="750,-224.5 750,-243.5 810,-243.5 810,-224.5 750,-224.5"/>
<text text-anchor="middle" x="780" y="-231.5" font-family="Helvetica,sans-Serif" font-size="10.00">iostream</text>
</a>
</g>
</g>
<!-- Node1&#45;&gt;Node16 -->
<g id="edge18" class="edge">
<title>Node1&#45;&gt;Node16</title>
<path fill="none" stroke="midnightblue" d="M692.71,-280.32C709.31,-271.7 735,-258.36 754.22,-248.39"/>
<polygon fill="midnightblue" stroke="midnightblue" points="756.07,-251.37 763.33,-243.65 752.84,-245.16 756.07,-251.37"/>
</g>
<!-- Node3 -->
<g id="node3" class="node">
<title>Node3</title>
<g id="a_node3"><a xlink:href="../../d9/d1c/Matrix_8hpp.html" target="_top" xlink:title=" ">
<polygon fill="white" stroke="black" points="363.5,-112.5 363.5,-131.5 432.5,-131.5 432.5,-112.5 363.5,-112.5"/>
<text text-anchor="middle" x="398" y="-119.5" font-family="Helvetica,sans-Serif" font-size="10.00">Matrix.hpp</text>
</a>
</g>
</g>
<!-- Node2&#45;&gt;Node3 -->
<g id="edge2" class="edge">
<title>Node2&#45;&gt;Node3</title>
<path fill="none" stroke="midnightblue" d="M490.25,-224.11C488.71,-210.68 484.15,-185 471,-168 460.24,-154.09 443.87,-143.44 429.35,-135.99"/>
<polygon fill="midnightblue" stroke="midnightblue" points="430.69,-132.75 420.16,-131.57 427.65,-139.06 430.69,-132.75"/>
</g>
<!-- Node14 -->
<g id="node14" class="node">
<title>Node14</title>
<g id="a_node14"><a xlink:href="../../df/d3f/PermutationMatrix_8hpp.html" target="_top" xlink:title=" ">
<polygon fill="white" stroke="black" points="333.5,-168.5 333.5,-187.5 462.5,-187.5 462.5,-168.5 333.5,-168.5"/>
<text text-anchor="middle" x="398" y="-175.5" font-family="Helvetica,sans-Serif" font-size="10.00">PermutationMatrix.hpp</text>
</a>
</g>
</g>
<!-- Node2&#45;&gt;Node14 -->
<g id="edge14" class="edge">
<title>Node2&#45;&gt;Node14</title>
<path fill="none" stroke="midnightblue" d="M476.06,-224.32C461.41,-215.82 438.87,-202.73 421.76,-192.8"/>
<polygon fill="midnightblue" stroke="midnightblue" points="423.31,-189.65 412.9,-187.65 419.8,-195.7 423.31,-189.65"/>
</g>
<!-- Node4 -->
<g id="node4" class="node">
<title>Node4</title>
<g id="a_node4"><a xlink:title=" ">
<polygon fill="white" stroke="#bfbfbf" points="0,-56.5 0,-75.5 64,-75.5 64,-56.5 0,-56.5"/>
<text text-anchor="middle" x="32" y="-63.5" font-family="Helvetica,sans-Serif" font-size="10.00">algorithm</text>
</a>
</g>
</g>
<!-- Node3&#45;&gt;Node4 -->
<g id="edge3" class="edge">
<title>Node3&#45;&gt;Node4</title>
<path fill="none" stroke="midnightblue" d="M363.23,-117.09C305.36,-110.4 185.43,-95.68 74.22,-76.1"/>
<polygon fill="midnightblue" stroke="midnightblue" points="74.64,-72.62 64.18,-74.31 73.41,-79.51 74.64,-72.62"/>
</g>
<!-- Node3&#45;&gt;Node5 -->
<g id="edge4" class="edge">
<title>Node3&#45;&gt;Node5</title>
<path fill="none" stroke="midnightblue" d="M432.78,-116.41C484.22,-109.42 583.8,-95.06 678.66,-75.9"/>
<polygon fill="midnightblue" stroke="midnightblue" points="679.62,-79.28 688.71,-73.85 678.22,-72.42 679.62,-79.28"/>
</g>
<!-- Node6 -->
<g id="node6" class="node">
<title>Node6</title>
<g id="a_node6"><a xlink:title=" ">
<polygon fill="white" stroke="#bfbfbf" points="82.5,-56.5 82.5,-75.5 129.5,-75.5 129.5,-56.5 82.5,-56.5"/>
<text text-anchor="middle" x="106" y="-63.5" font-family="Helvetica,sans-Serif" font-size="10.00">cmath</text>
</a>
</g>
</g>
<!-- Node3&#45;&gt;Node6 -->
<g id="edge5" class="edge">
<title>Node3&#45;&gt;Node6</title>
<path fill="none" stroke="midnightblue" d="M363.29,-116.15C315.08,-109.17 224.98,-95.2 139.55,-76.18"/>
<polygon fill="midnightblue" stroke="midnightblue" points="140.22,-72.74 129.7,-73.96 138.68,-79.57 140.22,-72.74"/>
</g>
<!-- Node7 -->
<g id="node7" class="node">
<title>Node7</title>
<g id="a_node7"><a xlink:title=" ">
<polygon fill="white" stroke="#bfbfbf" points="147.5,-56.5 147.5,-75.5 212.5,-75.5 212.5,-56.5 147.5,-56.5"/>
<text text-anchor="middle" x="180" y="-63.5" font-family="Helvetica,sans-Serif" font-size="10.00">functional</text>
</a>
</g>
</g>
<!-- Node3&#45;&gt;Node7 -->
<g id="edge6" class="edge">
<title>Node3&#45;&gt;Node7</title>
<path fill="none" stroke="midnightblue" d="M363.46,-112.44C325.19,-102.96 263.48,-87.68 222.33,-77.49"/>
<polygon fill="midnightblue" stroke="midnightblue" points="223.15,-74.08 212.6,-75.08 221.47,-80.88 223.15,-74.08"/>
</g>
<!-- Node8 -->
<g id="node8" class="node">
<title>Node8</title>
<g id="a_node8"><a xlink:title=" ">
<polygon fill="white" stroke="#bfbfbf" points="231,-56.5 231,-75.5 279,-75.5 279,-56.5 231,-56.5"/>
<text text-anchor="middle" x="255" y="-63.5" font-family="Helvetica,sans-Serif" font-size="10.00">iosfwd</text>
</a>
</g>
</g>
<!-- Node3&#45;&gt;Node8 -->
<g id="edge7" class="edge">
<title>Node3&#45;&gt;Node8</title>
<path fill="none" stroke="midnightblue" d="M375.34,-112.44C351.6,-103.48 314.09,-89.31 287.26,-79.18"/>
<polygon fill="midnightblue" stroke="midnightblue" points="288.14,-75.77 277.55,-75.52 285.67,-82.32 288.14,-75.77"/>
</g>
<!-- Node9 -->
<g id="node9" class="node">
<title>Node9</title>
<g id="a_node9"><a xlink:title=" ">
<polygon fill="white" stroke="#bfbfbf" points="297,-56.5 297,-75.5 353,-75.5 353,-56.5 297,-56.5"/>
<text text-anchor="middle" x="325" y="-63.5" font-family="Helvetica,sans-Serif" font-size="10.00">numeric</text>
</a>
</g>
</g>
<!-- Node3&#45;&gt;Node9 -->
<g id="edge8" class="edge">
<title>Node3&#45;&gt;Node9</title>
<path fill="none" stroke="midnightblue" d="M386.27,-112.32C375.16,-104.11 358.26,-91.6 345.02,-81.81"/>
<polygon fill="midnightblue" stroke="midnightblue" points="347.06,-78.97 336.94,-75.83 342.9,-84.59 347.06,-78.97"/>
</g>
<!-- Node10 -->
<g id="node10" class="node">
<title>Node10</title>
<g id="a_node10"><a xlink:title=" ">
<polygon fill="white" stroke="#bfbfbf" points="371,-56.5 371,-75.5 425,-75.5 425,-56.5 371,-56.5"/>
<text text-anchor="middle" x="398" y="-63.5" font-family="Helvetica,sans-Serif" font-size="10.00">random</text>
</a>
</g>
</g>
<!-- Node3&#45;&gt;Node10 -->
<g id="edge9" class="edge">
<title>Node3&#45;&gt;Node10</title>
<path fill="none" stroke="midnightblue" d="M398,-112.08C398,-105.01 398,-94.86 398,-85.99"/>
<polygon fill="midnightblue" stroke="midnightblue" points="401.5,-85.75 398,-75.75 394.5,-85.75 401.5,-85.75"/>
</g>
<!-- Node11 -->
<g id="node11" class="node">
<title>Node11</title>
<g id="a_node11"><a xlink:title=" ">
<polygon fill="white" stroke="#bfbfbf" points="443.5,-56.5 443.5,-75.5 488.5,-75.5 488.5,-56.5 443.5,-56.5"/>
<text text-anchor="middle" x="466" y="-63.5" font-family="Helvetica,sans-Serif" font-size="10.00">utility</text>
</a>
</g>
</g>
<!-- Node3&#45;&gt;Node11 -->
<g id="edge10" class="edge">
<title>Node3&#45;&gt;Node11</title>
<path fill="none" stroke="midnightblue" d="M408.93,-112.32C419.17,-104.18 434.72,-91.84 447,-82.09"/>
<polygon fill="midnightblue" stroke="midnightblue" points="449.22,-84.79 454.88,-75.83 444.87,-79.31 449.22,-84.79"/>
</g>
<!-- Node12 -->
<g id="node12" class="node">
<title>Node12</title>
<g id="a_node12"><a xlink:title=" ">
<polygon fill="white" stroke="#bfbfbf" points="538.5,-0.5 538.5,-19.5 585.5,-19.5 585.5,-0.5 538.5,-0.5"/>
<text text-anchor="middle" x="562" y="-7.5" font-family="Helvetica,sans-Serif" font-size="10.00">vector</text>
</a>
</g>
</g>
<!-- Node3&#45;&gt;Node12 -->
<g id="edge11" class="edge">
<title>Node3&#45;&gt;Node12</title>
<path fill="none" stroke="midnightblue" d="M423.31,-112.39C444.13,-104.64 473.88,-92.02 497,-76 516.99,-62.15 536.21,-41.76 548.5,-27.52"/>
<polygon fill="midnightblue" stroke="midnightblue" points="551.43,-29.47 555.19,-19.56 546.08,-24.96 551.43,-29.47"/>
</g>
<!-- Node13 -->
<g id="node13" class="node">
<title>Node13</title>
<g id="a_node13"><a xlink:href="../../df/daa/MatrixStorage_8hpp.html" target="_top" xlink:title=" ">
<polygon fill="white" stroke="black" points="545.5,-56.5 545.5,-75.5 670.5,-75.5 670.5,-56.5 545.5,-56.5"/>
<text text-anchor="middle" x="608" y="-63.5" font-family="Helvetica,sans-Serif" font-size="10.00">util/MatrixStorage.hpp</text>
</a>
</g>
</g>
<!-- Node3&#45;&gt;Node13 -->
<g id="edge12" class="edge">
<title>Node3&#45;&gt;Node13</title>
<path fill="none" stroke="midnightblue" d="M431.28,-112.44C467.45,-103.14 525.38,-88.25 564.98,-78.06"/>
<polygon fill="midnightblue" stroke="midnightblue" points="566.07,-81.4 574.88,-75.52 564.32,-74.62 566.07,-81.4"/>
</g>
<!-- Node13&#45;&gt;Node12 -->
<g id="edge13" class="edge">
<title>Node13&#45;&gt;Node12</title>
<path fill="none" stroke="midnightblue" d="M600.4,-56.08C593.77,-48.3 583.98,-36.8 575.94,-27.37"/>
<polygon fill="midnightblue" stroke="midnightblue" points="578.6,-25.09 569.45,-19.75 573.27,-29.63 578.6,-25.09"/>
</g>
<!-- Node14&#45;&gt;Node3 -->
<g id="edge15" class="edge">
<title>Node14&#45;&gt;Node3</title>
<path fill="none" stroke="midnightblue" d="M398,-168.08C398,-161.01 398,-150.86 398,-141.99"/>
<polygon fill="midnightblue" stroke="midnightblue" points="401.5,-141.75 398,-131.75 394.5,-141.75 401.5,-141.75"/>
</g>
</g>
</svg>
