<?xml version="1.0" encoding="UTF-8" standalone="no"?>
<!DOCTYPE svg PUBLIC "-//W3C//DTD SVG 1.1//EN"
 "http://www.w3.org/Graphics/SVG/1.1/DTD/svg11.dtd">
<!-- Generated by graphviz version 2.43.0 (0)
 -->
<!-- Title: HouseholderQR.hpp Pages: 1 -->
<svg width="550pt" height="95pt"
 viewBox="0.00 0.00 549.50 95.00" xmlns="http://www.w3.org/2000/svg" xmlns:xlink="http://www.w3.org/1999/xlink">
<g id="graph0" class="graph" transform="scale(1 1) rotate(0) translate(4 91)">
<title>HouseholderQR.hpp</title>
<polygon fill="white" stroke="transparent" points="-4,4 -4,-91 545.5,-91 545.5,4 -4,4"/>
<!-- Node1 -->
<g id="node1" class="node">
<title>Node1</title>
<g id="a_node1"><a xlink:title=" ">
<polygon fill="#bfbfbf" stroke="black" points="231,-67.5 231,-86.5 344,-86.5 344,-67.5 231,-67.5"/>
<text text-anchor="middle" x="287.5" y="-74.5" font-family="Helvetica,sans-Serif" font-size="10.00">HouseholderQR.hpp</text>
</a>
</g>
</g>
<!-- Node2 -->
<g id="node2" class="node">
<title>Node2</title>
<g id="a_node2"><a xlink:href="../../df/d5c/HouseholderQR_8cpp.html" target="_top" xlink:title=" ">
<polygon fill="white" stroke="black" points="0,-6 0,-25 113,-25 113,-6 0,-6"/>
<text text-anchor="middle" x="56.5" y="-13" font-family="Helvetica,sans-Serif" font-size="10.00">HouseholderQR.cpp</text>
</a>
</g>
</g>
<!-- Node1&#45;&gt;Node2 -->
<g id="edge1" class="edge">
<title>Node1&#45;&gt;Node2</title>
<path fill="none" stroke="midnightblue" d="M244.67,-64.97C199.82,-53.41 130.33,-35.52 89.54,-25.01"/>
<polygon fill="midnightblue" stroke="midnightblue" points="243.85,-68.37 254.4,-67.48 245.59,-61.59 243.85,-68.37"/>
</g>
<!-- Node3 -->
<g id="node3" class="node">
<title>Node3</title>
<g id="a_node3"><a xlink:href="../../dd/d4f/Basic-matrix-operations_8ino.html" target="_top" xlink:title=" ">
<polygon fill="white" stroke="black" points="131.5,-6 131.5,-25 283.5,-25 283.5,-6 131.5,-6"/>
<text text-anchor="middle" x="207.5" y="-13" font-family="Helvetica,sans-Serif" font-size="10.00">Basic&#45;matrix&#45;operations.ino</text>
</a>
</g>
</g>
<!-- Node1&#45;&gt;Node3 -->
<g id="edge2" class="edge">
<title>Node1&#45;&gt;Node3</title>
<path fill="none" stroke="midnightblue" d="M267.73,-61.29C252.38,-49.88 231.64,-34.46 218.94,-25.01"/>
<polygon fill="midnightblue" stroke="midnightblue" points="265.93,-64.32 276.04,-67.48 270.1,-58.7 265.93,-64.32"/>
</g>
<!-- Node4 -->
<g id="node4" class="node">
<title>Node4</title>
<g id="a_node4"><a xlink:href="../../de/dd7/Basic-matrix-operations-no-iostream_8ino.html" target="_top" xlink:title=" ">
<polygon fill="white" stroke="black" points="301.5,-0.5 301.5,-30.5 435.5,-30.5 435.5,-0.5 301.5,-0.5"/>
<text text-anchor="start" x="309.5" y="-18.5" font-family="Helvetica,sans-Serif" font-size="10.00">Basic&#45;matrix&#45;operations</text>
<text text-anchor="middle" x="368.5" y="-7.5" font-family="Helvetica,sans-Serif" font-size="10.00">&#45;no&#45;iostream.ino</text>
</a>
</g>
</g>
<!-- Node1&#45;&gt;Node4 -->
<g id="edge3" class="edge">
<title>Node1&#45;&gt;Node4</title>
<path fill="none" stroke="midnightblue" d="M307.28,-61.47C320.11,-52.05 336.73,-39.84 349.41,-30.52"/>
<polygon fill="midnightblue" stroke="midnightblue" points="305.09,-58.73 299.11,-67.48 309.24,-64.38 305.09,-58.73"/>
</g>
<!-- Node5 -->
<g id="node5" class="node">
<title>Node5</title>
<g id="a_node5"><a xlink:href="../../de/d90/qr-perftest_8cpp.html" target="_top" xlink:title=" ">
<polygon fill="white" stroke="black" points="453.5,-6 453.5,-25 541.5,-25 541.5,-6 453.5,-6"/>
<text text-anchor="middle" x="497.5" y="-13" font-family="Helvetica,sans-Serif" font-size="10.00">qr&#45;perftest.cpp</text>
</a>
</g>
</g>
<!-- Node1&#45;&gt;Node5 -->
<g id="edge4" class="edge">
<title>Node1&#45;&gt;Node5</title>
<path fill="none" stroke="midnightblue" d="M327.47,-64.68C368.27,-53.11 430.69,-35.43 467.47,-25.01"/>
<polygon fill="midnightblue" stroke="midnightblue" points="326.26,-61.38 317.59,-67.48 328.16,-68.12 326.26,-61.38"/>
</g>
</g>
</svg>
