<?xml version="1.0" encoding="UTF-8" standalone="no"?>
<!DOCTYPE svg PUBLIC "-//W3C//DTD SVG 1.1//EN"
 "http://www.w3.org/Graphics/SVG/1.1/DTD/svg11.dtd">
<!-- Generated by graphviz version 2.43.0 (0)
 -->
<!-- Title: Matrix.hpp Pages: 1 -->
<svg width="753pt" height="252pt"
 viewBox="0.00 0.00 753.00 252.00" xmlns="http://www.w3.org/2000/svg" xmlns:xlink="http://www.w3.org/1999/xlink">
<g id="graph0" class="graph" transform="scale(1 1) rotate(0) translate(4 248)">
<title>Matrix.hpp</title>
<polygon fill="white" stroke="transparent" points="-4,4 -4,-248 749,-248 749,4 -4,4"/>
<!-- Node1 -->
<g id="node1" class="node">
<title>Node1</title>
<g id="a_node1"><a xlink:title=" ">
<polygon fill="#bfbfbf" stroke="black" points="426.5,-224.5 426.5,-243.5 495.5,-243.5 495.5,-224.5 426.5,-224.5"/>
<text text-anchor="middle" x="461" y="-231.5" font-family="Helvetica,sans-Serif" font-size="10.00">Matrix.hpp</text>
</a>
</g>
</g>
<!-- Node2 -->
<g id="node2" class="node">
<title>Node2</title>
<g id="a_node2"><a xlink:href="../../d9/d52/HouseholderQR_8hpp.html" target="_top" xlink:title=" ">
<polygon fill="white" stroke="black" points="134.5,-168.5 134.5,-187.5 247.5,-187.5 247.5,-168.5 134.5,-168.5"/>
<text text-anchor="middle" x="191" y="-175.5" font-family="Helvetica,sans-Serif" font-size="10.00">HouseholderQR.hpp</text>
</a>
</g>
</g>
<!-- Node1&#45;&gt;Node2 -->
<g id="edge1" class="edge">
<title>Node1&#45;&gt;Node2</title>
<path fill="none" stroke="midnightblue" d="M416.24,-224.05C365.51,-213.9 283.43,-197.49 233.61,-187.52"/>
<polygon fill="midnightblue" stroke="midnightblue" points="415.76,-227.52 426.25,-226.05 417.14,-220.66 415.76,-227.52"/>
</g>
<!-- Node6 -->
<g id="node6" class="node">
<title>Node6</title>
<g id="a_node6"><a xlink:href="../../d5/db4/NoPivotLU_8hpp.html" target="_top" xlink:title=" ">
<polygon fill="white" stroke="black" points="297.5,-168.5 297.5,-187.5 386.5,-187.5 386.5,-168.5 297.5,-168.5"/>
<text text-anchor="middle" x="342" y="-175.5" font-family="Helvetica,sans-Serif" font-size="10.00">NoPivotLU.hpp</text>
</a>
</g>
</g>
<!-- Node1&#45;&gt;Node6 -->
<g id="edge6" class="edge">
<title>Node1&#45;&gt;Node6</title>
<path fill="none" stroke="midnightblue" d="M432.86,-220.23C410.6,-210.13 380.14,-196.31 360.77,-187.52"/>
<polygon fill="midnightblue" stroke="midnightblue" points="431.59,-223.5 442.14,-224.44 434.48,-217.12 431.59,-223.5"/>
</g>
<!-- Node9 -->
<g id="node9" class="node">
<title>Node9</title>
<g id="a_node9"><a xlink:href="../../df/d3f/PermutationMatrix_8hpp.html" target="_top" xlink:title=" ">
<polygon fill="white" stroke="black" points="443.5,-168.5 443.5,-187.5 572.5,-187.5 572.5,-168.5 443.5,-168.5"/>
<text text-anchor="middle" x="508" y="-175.5" font-family="Helvetica,sans-Serif" font-size="10.00">PermutationMatrix.hpp</text>
</a>
</g>
</g>
<!-- Node1&#45;&gt;Node9 -->
<g id="edge10" class="edge">
<title>Node1&#45;&gt;Node9</title>
<path fill="none" stroke="midnightblue" d="M475.42,-216.43C483.66,-206.97 493.65,-195.48 500.38,-187.75"/>
<polygon fill="midnightblue" stroke="midnightblue" points="472.69,-214.24 468.76,-224.08 477.97,-218.84 472.69,-214.24"/>
</g>
<!-- Node10 -->
<g id="node10" class="node">
<title>Node10</title>
<g id="a_node10"><a xlink:href="../../d3/d5d/RowPivotLU_8hpp.html" target="_top" xlink:title=" ">
<polygon fill="white" stroke="black" points="420,-112.5 420,-131.5 516,-131.5 516,-112.5 420,-112.5"/>
<text text-anchor="middle" x="468" y="-119.5" font-family="Helvetica,sans-Serif" font-size="10.00">RowPivotLU.hpp</text>
</a>
</g>
</g>
<!-- Node1&#45;&gt;Node10 -->
<g id="edge16" class="edge">
<title>Node1&#45;&gt;Node10</title>
<path fill="none" stroke="midnightblue" d="M446.93,-216.31C437.73,-203.32 428.38,-184.76 434,-168 438.86,-153.52 450.42,-139.98 458.71,-131.61"/>
<polygon fill="midnightblue" stroke="midnightblue" points="444.21,-218.52 453.08,-224.32 449.76,-214.26 444.21,-218.52"/>
</g>
<!-- Node14 -->
<g id="node14" class="node">
<title>Node14</title>
<g id="a_node14"><a xlink:href="../../dd/d52/Matrix_8cpp.html" target="_top" xlink:title=" ">
<polygon fill="white" stroke="black" points="591,-168.5 591,-187.5 659,-187.5 659,-168.5 591,-168.5"/>
<text text-anchor="middle" x="625" y="-175.5" font-family="Helvetica,sans-Serif" font-size="10.00">Matrix.cpp</text>
</a>
</g>
</g>
<!-- Node1&#45;&gt;Node14 -->
<g id="edge17" class="edge">
<title>Node1&#45;&gt;Node14</title>
<path fill="none" stroke="midnightblue" d="M496.52,-221.3C527.42,-211.13 571.47,-196.62 599.14,-187.52"/>
<polygon fill="midnightblue" stroke="midnightblue" points="495.39,-217.99 486.99,-224.44 497.58,-224.64 495.39,-217.99"/>
</g>
<!-- Node15 -->
<g id="node15" class="node">
<title>Node15</title>
<g id="a_node15"><a xlink:href="../../de/de8/Basics_8cpp.html" target="_top" xlink:title=" ">
<polygon fill="white" stroke="black" points="677,-168.5 677,-187.5 745,-187.5 745,-168.5 677,-168.5"/>
<text text-anchor="middle" x="711" y="-175.5" font-family="Helvetica,sans-Serif" font-size="10.00">Basics.cpp</text>
</a>
</g>
</g>
<!-- Node1&#45;&gt;Node15 -->
<g id="edge18" class="edge">
<title>Node1&#45;&gt;Node15</title>
<path fill="none" stroke="midnightblue" d="M505.78,-223.33C554.88,-212.72 632.56,-195.94 676.93,-186.36"/>
<polygon fill="midnightblue" stroke="midnightblue" points="504.8,-219.96 495.76,-225.49 506.27,-226.8 504.8,-219.96"/>
</g>
<!-- Node3 -->
<g id="node3" class="node">
<title>Node3</title>
<g id="a_node3"><a xlink:href="../../d6/d05/HouseholderQR_8ipp.html" target="_top" xlink:title=" ">
<polygon fill="white" stroke="black" points="0,-112.5 0,-131.5 110,-131.5 110,-112.5 0,-112.5"/>
<text text-anchor="middle" x="55" y="-119.5" font-family="Helvetica,sans-Serif" font-size="10.00">HouseholderQR.ipp</text>
</a>
</g>
</g>
<!-- Node2&#45;&gt;Node3 -->
<g id="edge2" class="edge">
<title>Node2&#45;&gt;Node3</title>
<path fill="none" stroke="midnightblue" d="M159.87,-164.64C134.34,-154.5 98.89,-140.43 76.45,-131.52"/>
<polygon fill="midnightblue" stroke="midnightblue" points="158.86,-168.01 169.45,-168.44 161.45,-161.5 158.86,-168.01"/>
</g>
<!-- Node4 -->
<g id="node4" class="node">
<title>Node4</title>
<g id="a_node4"><a xlink:href="../../df/d5c/HouseholderQR_8cpp.html" target="_top" xlink:title=" ">
<polygon fill="white" stroke="black" points="40.5,-56.5 40.5,-75.5 153.5,-75.5 153.5,-56.5 40.5,-56.5"/>
<text text-anchor="middle" x="97" y="-63.5" font-family="Helvetica,sans-Serif" font-size="10.00">HouseholderQR.cpp</text>
</a>
</g>
</g>
<!-- Node2&#45;&gt;Node4 -->
<g id="edge4" class="edge">
<title>Node2&#45;&gt;Node4</title>
<path fill="none" stroke="midnightblue" d="M176.97,-160.59C156.71,-136.87 119.96,-93.87 104.34,-75.59"/>
<polygon fill="midnightblue" stroke="midnightblue" points="174.47,-163.04 183.62,-168.37 179.79,-158.49 174.47,-163.04"/>
</g>
<!-- Node5 -->
<g id="node5" class="node">
<title>Node5</title>
<g id="a_node5"><a xlink:href="../../d3/d58/QR-PerfTest_8cpp.html" target="_top" xlink:title=" ">
<polygon fill="white" stroke="black" points="166,-112.5 166,-131.5 260,-131.5 260,-112.5 166,-112.5"/>
<text text-anchor="middle" x="213" y="-119.5" font-family="Helvetica,sans-Serif" font-size="10.00">QR&#45;PerfTest.cpp</text>
</a>
</g>
</g>
<!-- Node2&#45;&gt;Node5 -->
<g id="edge5" class="edge">
<title>Node2&#45;&gt;Node5</title>
<path fill="none" stroke="midnightblue" d="M198.46,-158.69C202.17,-149.59 206.48,-139.01 209.43,-131.75"/>
<polygon fill="midnightblue" stroke="midnightblue" points="195.16,-157.5 194.63,-168.08 201.65,-160.14 195.16,-157.5"/>
</g>
<!-- Node3&#45;&gt;Node4 -->
<g id="edge3" class="edge">
<title>Node3&#45;&gt;Node4</title>
<path fill="none" stroke="midnightblue" d="M68.11,-104.14C75.43,-94.74 84.24,-83.4 90.19,-75.75"/>
<polygon fill="midnightblue" stroke="midnightblue" points="65.31,-102.04 61.94,-112.08 70.84,-106.34 65.31,-102.04"/>
</g>
<!-- Node7 -->
<g id="node7" class="node">
<title>Node7</title>
<g id="a_node7"><a xlink:href="../../de/d20/NoPivotLU_8ipp.html" target="_top" xlink:title=" ">
<polygon fill="white" stroke="black" points="278,-112.5 278,-131.5 364,-131.5 364,-112.5 278,-112.5"/>
<text text-anchor="middle" x="321" y="-119.5" font-family="Helvetica,sans-Serif" font-size="10.00">NoPivotLU.ipp</text>
</a>
</g>
</g>
<!-- Node6&#45;&gt;Node7 -->
<g id="edge7" class="edge">
<title>Node6&#45;&gt;Node7</title>
<path fill="none" stroke="midnightblue" d="M334.88,-158.69C331.34,-149.59 327.23,-139.01 324.4,-131.75"/>
<polygon fill="midnightblue" stroke="midnightblue" points="331.65,-160.03 338.53,-168.08 338.17,-157.49 331.65,-160.03"/>
</g>
<!-- Node8 -->
<g id="node8" class="node">
<title>Node8</title>
<g id="a_node8"><a xlink:href="../../dc/d48/NoPivotLU_8cpp.html" target="_top" xlink:title=" ">
<polygon fill="white" stroke="black" points="287,-56.5 287,-75.5 375,-75.5 375,-56.5 287,-56.5"/>
<text text-anchor="middle" x="331" y="-63.5" font-family="Helvetica,sans-Serif" font-size="10.00">NoPivotLU.cpp</text>
</a>
</g>
</g>
<!-- Node6&#45;&gt;Node8 -->
<g id="edge9" class="edge">
<title>Node6&#45;&gt;Node8</title>
<path fill="none" stroke="midnightblue" d="M357.96,-160.72C368.67,-147.74 379.69,-128.98 373,-112 367.04,-96.89 353.35,-83.86 343.21,-75.76"/>
<polygon fill="midnightblue" stroke="midnightblue" points="355.2,-158.55 351.15,-168.34 360.42,-163.21 355.2,-158.55"/>
</g>
<!-- Node7&#45;&gt;Node8 -->
<g id="edge8" class="edge">
<title>Node7&#45;&gt;Node8</title>
<path fill="none" stroke="midnightblue" d="M324.5,-102.1C326.16,-93.14 328.06,-82.86 329.38,-75.75"/>
<polygon fill="midnightblue" stroke="midnightblue" points="321.03,-101.61 322.65,-112.08 327.91,-102.89 321.03,-101.61"/>
</g>
<!-- Node9&#45;&gt;Node10 -->
<g id="edge11" class="edge">
<title>Node9&#45;&gt;Node10</title>
<path fill="none" stroke="midnightblue" d="M495.3,-159.86C488.37,-150.5 480.09,-139.33 474.48,-131.75"/>
<polygon fill="midnightblue" stroke="midnightblue" points="492.63,-162.13 501.39,-168.08 498.25,-157.96 492.63,-162.13"/>
</g>
<!-- Node13 -->
<g id="node13" class="node">
<title>Node13</title>
<g id="a_node13"><a xlink:href="../../d9/d7f/PermutationMatrix_8cpp.html" target="_top" xlink:title=" ">
<polygon fill="white" stroke="black" points="534,-112.5 534,-131.5 662,-131.5 662,-112.5 534,-112.5"/>
<text text-anchor="middle" x="598" y="-119.5" font-family="Helvetica,sans-Serif" font-size="10.00">PermutationMatrix.cpp</text>
</a>
</g>
</g>
<!-- Node9&#45;&gt;Node13 -->
<g id="edge15" class="edge">
<title>Node9&#45;&gt;Node13</title>
<path fill="none" stroke="midnightblue" d="M531.04,-163.18C547.6,-153.24 569.42,-140.15 583.58,-131.65"/>
<polygon fill="midnightblue" stroke="midnightblue" points="529.23,-160.18 522.46,-168.32 532.84,-166.18 529.23,-160.18"/>
</g>
<!-- Node11 -->
<g id="node11" class="node">
<title>Node11</title>
<g id="a_node11"><a xlink:href="../../d5/d9e/RowPivotLU_8ipp.html" target="_top" xlink:title=" ">
<polygon fill="white" stroke="black" points="411.5,-56.5 411.5,-75.5 504.5,-75.5 504.5,-56.5 411.5,-56.5"/>
<text text-anchor="middle" x="458" y="-63.5" font-family="Helvetica,sans-Serif" font-size="10.00">RowPivotLU.ipp</text>
</a>
</g>
</g>
<!-- Node10&#45;&gt;Node11 -->
<g id="edge12" class="edge">
<title>Node10&#45;&gt;Node11</title>
<path fill="none" stroke="midnightblue" d="M464.5,-102.1C462.84,-93.14 460.94,-82.86 459.62,-75.75"/>
<polygon fill="midnightblue" stroke="midnightblue" points="461.09,-102.89 466.35,-112.08 467.97,-101.61 461.09,-102.89"/>
</g>
<!-- Node12 -->
<g id="node12" class="node">
<title>Node12</title>
<g id="a_node12"><a xlink:href="../../d7/d1c/RowPivotLU_8cpp.html" target="_top" xlink:title=" ">
<polygon fill="white" stroke="black" points="447.5,-0.5 447.5,-19.5 542.5,-19.5 542.5,-0.5 447.5,-0.5"/>
<text text-anchor="middle" x="495" y="-7.5" font-family="Helvetica,sans-Serif" font-size="10.00">RowPivotLU.cpp</text>
</a>
</g>
</g>
<!-- Node10&#45;&gt;Node12 -->
<g id="edge14" class="edge">
<title>Node10&#45;&gt;Node12</title>
<path fill="none" stroke="midnightblue" d="M489.71,-106.07C499.06,-98.31 508.97,-87.95 514,-76 522.21,-56.49 509.48,-32.28 501.2,-19.63"/>
<polygon fill="midnightblue" stroke="midnightblue" points="487.56,-103.31 481.79,-112.19 491.84,-108.85 487.56,-103.31"/>
</g>
<!-- Node11&#45;&gt;Node12 -->
<g id="edge13" class="edge">
<title>Node11&#45;&gt;Node12</title>
<path fill="none" stroke="midnightblue" d="M469.95,-47.57C476.31,-38.27 483.87,-27.25 489,-19.75"/>
<polygon fill="midnightblue" stroke="midnightblue" points="466.87,-45.86 464.11,-56.08 472.65,-49.81 466.87,-45.86"/>
</g>
</g>
</svg>
