<?xml version="1.0" encoding="UTF-8" standalone="no"?>
<!DOCTYPE svg PUBLIC "-//W3C//DTD SVG 1.1//EN"
 "http://www.w3.org/Graphics/SVG/1.1/DTD/svg11.dtd">
<!-- Generated by graphviz version 2.43.0 (0)
 -->
<!-- Title: ArduinoMatrixPrinter.cpp Pages: 1 -->
<svg width="889pt" height="263pt"
 viewBox="0.00 0.00 888.50 263.00" xmlns="http://www.w3.org/2000/svg" xmlns:xlink="http://www.w3.org/1999/xlink">
<g id="graph0" class="graph" transform="scale(1 1) rotate(0) translate(4 259)">
<title>ArduinoMatrixPrinter.cpp</title>
<polygon fill="white" stroke="transparent" points="-4,4 -4,-259 884.5,-259 884.5,4 -4,4"/>
<!-- Node1 -->
<g id="node1" class="node">
<title>Node1</title>
<g id="a_node1"><a xlink:title="Fallback functions for printing matrices without relying on std::ostream or printf.">
<polygon fill="#bfbfbf" stroke="black" points="247.5,-235.5 247.5,-254.5 384.5,-254.5 384.5,-235.5 247.5,-235.5"/>
<text text-anchor="middle" x="316" y="-242.5" font-family="Helvetica,sans-Serif" font-size="10.00">ArduinoMatrixPrinter.cpp</text>
</a>
</g>
</g>
<!-- Node2 -->
<g id="node2" class="node">
<title>Node2</title>
<g id="a_node2"><a xlink:href="../../d9/dd5/ArduinoConfig_8hpp.html" target="_top" xlink:title="Preprocessor logic for configuring the library to make it compatible with the Arduino environment.">
<polygon fill="white" stroke="black" points="0,-112.5 0,-142.5 122,-142.5 122,-112.5 0,-112.5"/>
<text text-anchor="start" x="8" y="-130.5" font-family="Helvetica,sans-Serif" font-size="10.00">include/linalg/Arduino</text>
<text text-anchor="middle" x="61" y="-119.5" font-family="Helvetica,sans-Serif" font-size="10.00">/ArduinoConfig.hpp</text>
</a>
</g>
</g>
<!-- Node1&#45;&gt;Node2 -->
<g id="edge1" class="edge">
<title>Node1&#45;&gt;Node2</title>
<path fill="none" stroke="midnightblue" d="M295.6,-235.38C274.57,-226.44 240.89,-211.99 212,-199 173.67,-181.76 130.21,-161.38 99.79,-146.98"/>
<polygon fill="midnightblue" stroke="midnightblue" points="100.93,-143.65 90.4,-142.53 97.94,-149.97 100.93,-143.65"/>
</g>
<!-- Node5 -->
<g id="node5" class="node">
<title>Node5</title>
<g id="a_node5"><a xlink:title=" ">
<polygon fill="white" stroke="#bfbfbf" points="221,-179.5 221,-198.5 271,-198.5 271,-179.5 221,-179.5"/>
<text text-anchor="middle" x="246" y="-186.5" font-family="Helvetica,sans-Serif" font-size="10.00">stdio.h</text>
</a>
</g>
</g>
<!-- Node1&#45;&gt;Node5 -->
<g id="edge4" class="edge">
<title>Node1&#45;&gt;Node5</title>
<path fill="none" stroke="midnightblue" d="M304.75,-235.32C294.2,-227.18 278.2,-214.84 265.56,-205.09"/>
<polygon fill="midnightblue" stroke="midnightblue" points="267.51,-202.17 257.45,-198.83 263.23,-207.71 267.51,-202.17"/>
</g>
<!-- Node6 -->
<g id="node6" class="node">
<title>Node6</title>
<g id="a_node6"><a xlink:title=" ">
<polygon fill="white" stroke="#bfbfbf" points="289.5,-179.5 289.5,-198.5 342.5,-198.5 342.5,-179.5 289.5,-179.5"/>
<text text-anchor="middle" x="316" y="-186.5" font-family="Helvetica,sans-Serif" font-size="10.00">stdint.h</text>
</a>
</g>
</g>
<!-- Node1&#45;&gt;Node6 -->
<g id="edge5" class="edge">
<title>Node1&#45;&gt;Node6</title>
<path fill="none" stroke="midnightblue" d="M316,-235.08C316,-228.01 316,-217.86 316,-208.99"/>
<polygon fill="midnightblue" stroke="midnightblue" points="319.5,-208.75 316,-198.75 312.5,-208.75 319.5,-208.75"/>
</g>
<!-- Node7 -->
<g id="node7" class="node">
<title>Node7</title>
<g id="a_node7"><a xlink:href="../../d9/d1c/Matrix_8hpp.html" target="_top" xlink:title=" ">
<polygon fill="white" stroke="black" points="360.5,-179.5 360.5,-198.5 497.5,-198.5 497.5,-179.5 360.5,-179.5"/>
<text text-anchor="middle" x="429" y="-186.5" font-family="Helvetica,sans-Serif" font-size="10.00">include/linalg/Matrix.hpp</text>
</a>
</g>
</g>
<!-- Node1&#45;&gt;Node7 -->
<g id="edge6" class="edge">
<title>Node1&#45;&gt;Node7</title>
<path fill="none" stroke="midnightblue" d="M333.91,-235.44C352.25,-226.68 381.01,-212.94 402.09,-202.86"/>
<polygon fill="midnightblue" stroke="midnightblue" points="403.67,-205.99 411.18,-198.52 400.65,-199.67 403.67,-205.99"/>
</g>
<!-- Node18 -->
<g id="node18" class="node">
<title>Node18</title>
<g id="a_node18"><a xlink:title=" ">
<polygon fill="white" stroke="#bfbfbf" points="515.5,-179.5 515.5,-198.5 552.5,-198.5 552.5,-179.5 515.5,-179.5"/>
<text text-anchor="middle" x="534" y="-186.5" font-family="Helvetica,sans-Serif" font-size="10.00">new</text>
</a>
</g>
</g>
<!-- Node1&#45;&gt;Node18 -->
<g id="edge19" class="edge">
<title>Node1&#45;&gt;Node18</title>
<path fill="none" stroke="midnightblue" d="M356.27,-235.43C392.77,-227.44 448.25,-214.77 505.45,-198.98"/>
<polygon fill="midnightblue" stroke="midnightblue" points="506.69,-202.26 515.39,-196.21 504.81,-195.52 506.69,-202.26"/>
</g>
<!-- Node3 -->
<g id="node3" class="node">
<title>Node3</title>
<g id="a_node3"><a xlink:href="../../df/d96/ArduinoMacroFix_8hpp.html" target="_top" xlink:title="Fixes for problematic macros defined by the Arduino Core.">
<polygon fill="white" stroke="black" points="1.5,-56.5 1.5,-75.5 120.5,-75.5 120.5,-56.5 1.5,-56.5"/>
<text text-anchor="middle" x="61" y="-63.5" font-family="Helvetica,sans-Serif" font-size="10.00">ArduinoMacroFix.hpp</text>
</a>
</g>
</g>
<!-- Node2&#45;&gt;Node3 -->
<g id="edge2" class="edge">
<title>Node2&#45;&gt;Node3</title>
<path fill="none" stroke="midnightblue" d="M61,-112.4C61,-104.47 61,-94.46 61,-85.86"/>
<polygon fill="midnightblue" stroke="midnightblue" points="64.5,-85.66 61,-75.66 57.5,-85.66 64.5,-85.66"/>
</g>
<!-- Node4 -->
<g id="node4" class="node">
<title>Node4</title>
<g id="a_node4"><a xlink:title=" ">
<polygon fill="white" stroke="#bfbfbf" points="29.5,-0.5 29.5,-19.5 92.5,-19.5 92.5,-0.5 29.5,-0.5"/>
<text text-anchor="middle" x="61" y="-7.5" font-family="Helvetica,sans-Serif" font-size="10.00">Arduino.h</text>
</a>
</g>
</g>
<!-- Node3&#45;&gt;Node4 -->
<g id="edge3" class="edge">
<title>Node3&#45;&gt;Node4</title>
<path fill="none" stroke="midnightblue" d="M61,-56.08C61,-49.01 61,-38.86 61,-29.99"/>
<polygon fill="midnightblue" stroke="midnightblue" points="64.5,-29.75 61,-19.75 57.5,-29.75 64.5,-29.75"/>
</g>
<!-- Node7&#45;&gt;Node2 -->
<g id="edge7" class="edge">
<title>Node7&#45;&gt;Node2</title>
<path fill="none" stroke="midnightblue" d="M365.76,-179.47C307.57,-171.38 218.63,-158.45 132.04,-143.13"/>
<polygon fill="midnightblue" stroke="midnightblue" points="132.5,-139.66 122.05,-141.35 131.28,-146.55 132.5,-139.66"/>
</g>
<!-- Node8 -->
<g id="node8" class="node">
<title>Node8</title>
<g id="a_node8"><a xlink:title=" ">
<polygon fill="white" stroke="#bfbfbf" points="140,-118 140,-137 204,-137 204,-118 140,-118"/>
<text text-anchor="middle" x="172" y="-125" font-family="Helvetica,sans-Serif" font-size="10.00">algorithm</text>
</a>
</g>
</g>
<!-- Node7&#45;&gt;Node8 -->
<g id="edge8" class="edge">
<title>Node7&#45;&gt;Node8</title>
<path fill="none" stroke="midnightblue" d="M378.35,-179.44C334.28,-171.52 268.89,-158.63 213,-143 210.04,-142.17 206.99,-141.24 203.94,-140.26"/>
<polygon fill="midnightblue" stroke="midnightblue" points="204.98,-136.92 194.38,-137.03 202.73,-143.55 204.98,-136.92"/>
</g>
<!-- Node9 -->
<g id="node9" class="node">
<title>Node9</title>
<g id="a_node9"><a xlink:title=" ">
<polygon fill="white" stroke="#bfbfbf" points="222,-118 222,-137 274,-137 274,-118 222,-118"/>
<text text-anchor="middle" x="248" y="-125" font-family="Helvetica,sans-Serif" font-size="10.00">cassert</text>
</a>
</g>
</g>
<!-- Node7&#45;&gt;Node9 -->
<g id="edge9" class="edge">
<title>Node7&#45;&gt;Node9</title>
<path fill="none" stroke="midnightblue" d="M398.24,-179.43C368.51,-170.93 322.3,-157.16 283,-143 281.14,-142.33 279.24,-141.62 277.33,-140.89"/>
<polygon fill="midnightblue" stroke="midnightblue" points="278.45,-137.56 267.86,-137.11 275.85,-144.06 278.45,-137.56"/>
</g>
<!-- Node10 -->
<g id="node10" class="node">
<title>Node10</title>
<g id="a_node10"><a xlink:title=" ">
<polygon fill="white" stroke="#bfbfbf" points="292.5,-118 292.5,-137 339.5,-137 339.5,-118 292.5,-118"/>
<text text-anchor="middle" x="316" y="-125" font-family="Helvetica,sans-Serif" font-size="10.00">cmath</text>
</a>
</g>
</g>
<!-- Node7&#45;&gt;Node10 -->
<g id="edge10" class="edge">
<title>Node7&#45;&gt;Node10</title>
<path fill="none" stroke="midnightblue" d="M412.81,-179.48C394.1,-169.62 363.08,-153.29 341.2,-141.77"/>
<polygon fill="midnightblue" stroke="midnightblue" points="342.64,-138.57 332.16,-137.01 339.38,-144.77 342.64,-138.57"/>
</g>
<!-- Node11 -->
<g id="node11" class="node">
<title>Node11</title>
<g id="a_node11"><a xlink:title=" ">
<polygon fill="white" stroke="#bfbfbf" points="357.5,-118 357.5,-137 422.5,-137 422.5,-118 357.5,-118"/>
<text text-anchor="middle" x="390" y="-125" font-family="Helvetica,sans-Serif" font-size="10.00">functional</text>
</a>
</g>
</g>
<!-- Node7&#45;&gt;Node11 -->
<g id="edge11" class="edge">
<title>Node7&#45;&gt;Node11</title>
<path fill="none" stroke="midnightblue" d="M423.41,-179.48C417.62,-170.64 408.41,-156.59 401.13,-145.48"/>
<polygon fill="midnightblue" stroke="midnightblue" points="403.99,-143.45 395.58,-137.01 398.13,-147.29 403.99,-143.45"/>
</g>
<!-- Node12 -->
<g id="node12" class="node">
<title>Node12</title>
<g id="a_node12"><a xlink:title=" ">
<polygon fill="white" stroke="#bfbfbf" points="441,-118 441,-137 497,-137 497,-118 441,-118"/>
<text text-anchor="middle" x="469" y="-125" font-family="Helvetica,sans-Serif" font-size="10.00">numeric</text>
</a>
</g>
</g>
<!-- Node7&#45;&gt;Node12 -->
<g id="edge12" class="edge">
<title>Node7&#45;&gt;Node12</title>
<path fill="none" stroke="midnightblue" d="M434.73,-179.48C440.67,-170.64 450.12,-156.59 457.59,-145.48"/>
<polygon fill="midnightblue" stroke="midnightblue" points="460.61,-147.26 463.28,-137.01 454.8,-143.36 460.61,-147.26"/>
</g>
<!-- Node13 -->
<g id="node13" class="node">
<title>Node13</title>
<g id="a_node13"><a xlink:title=" ">
<polygon fill="white" stroke="#bfbfbf" points="515.5,-118 515.5,-137 560.5,-137 560.5,-118 515.5,-118"/>
<text text-anchor="middle" x="538" y="-125" font-family="Helvetica,sans-Serif" font-size="10.00">utility</text>
</a>
</g>
</g>
<!-- Node7&#45;&gt;Node13 -->
<g id="edge13" class="edge">
<title>Node7&#45;&gt;Node13</title>
<path fill="none" stroke="midnightblue" d="M444.62,-179.48C462.59,-169.67 492.32,-153.43 513.41,-141.92"/>
<polygon fill="midnightblue" stroke="midnightblue" points="515.31,-144.87 522.41,-137.01 511.96,-138.73 515.31,-144.87"/>
</g>
<!-- Node14 -->
<g id="node14" class="node">
<title>Node14</title>
<g id="a_node14"><a xlink:title=" ">
<polygon fill="white" stroke="#bfbfbf" points="679.5,-56.5 679.5,-75.5 726.5,-75.5 726.5,-56.5 679.5,-56.5"/>
<text text-anchor="middle" x="703" y="-63.5" font-family="Helvetica,sans-Serif" font-size="10.00">vector</text>
</a>
</g>
</g>
<!-- Node7&#45;&gt;Node14 -->
<g id="edge14" class="edge">
<title>Node7&#45;&gt;Node14</title>
<path fill="none" stroke="midnightblue" d="M468.24,-179.43C497.18,-172.16 536.92,-160.16 569,-143 588.52,-132.55 589.2,-123.71 608,-112 628.45,-99.27 653.06,-87.7 672.12,-79.48"/>
<polygon fill="midnightblue" stroke="midnightblue" points="673.67,-82.62 681.52,-75.5 670.95,-76.18 673.67,-82.62"/>
</g>
<!-- Node15 -->
<g id="node15" class="node">
<title>Node15</title>
<g id="a_node15"><a xlink:title=" ">
<polygon fill="white" stroke="#bfbfbf" points="617,-118 617,-137 665,-137 665,-118 617,-118"/>
<text text-anchor="middle" x="641" y="-125" font-family="Helvetica,sans-Serif" font-size="10.00">iosfwd</text>
</a>
</g>
</g>
<!-- Node7&#45;&gt;Node15 -->
<g id="edge15" class="edge">
<title>Node7&#45;&gt;Node15</title>
<path fill="none" stroke="midnightblue" d="M467.02,-179.46C502.51,-171.18 556.78,-157.75 603,-143 605.41,-142.23 607.9,-141.39 610.38,-140.52"/>
<polygon fill="midnightblue" stroke="midnightblue" points="611.66,-143.78 619.84,-137.05 609.25,-137.21 611.66,-143.78"/>
</g>
<!-- Node16 -->
<g id="node16" class="node">
<title>Node16</title>
<g id="a_node16"><a xlink:title=" ">
<polygon fill="white" stroke="#bfbfbf" points="683,-118 683,-137 737,-137 737,-118 683,-118"/>
<text text-anchor="middle" x="710" y="-125" font-family="Helvetica,sans-Serif" font-size="10.00">random</text>
</a>
</g>
</g>
<!-- Node7&#45;&gt;Node16 -->
<g id="edge16" class="edge">
<title>Node7&#45;&gt;Node16</title>
<path fill="none" stroke="midnightblue" d="M495.61,-179.47C545.36,-172.21 614.71,-160.2 674,-143 676.43,-142.29 678.93,-141.48 681.42,-140.61"/>
<polygon fill="midnightblue" stroke="midnightblue" points="682.71,-143.87 690.82,-137.06 680.23,-137.32 682.71,-143.87"/>
</g>
<!-- Node17 -->
<g id="node17" class="node">
<title>Node17</title>
<g id="a_node17"><a xlink:href="../../df/daa/MatrixStorage_8hpp.html" target="_top" xlink:title=" ">
<polygon fill="white" stroke="black" points="755.5,-118 755.5,-137 880.5,-137 880.5,-118 755.5,-118"/>
<text text-anchor="middle" x="818" y="-125" font-family="Helvetica,sans-Serif" font-size="10.00">util/MatrixStorage.hpp</text>
</a>
</g>
</g>
<!-- Node7&#45;&gt;Node17 -->
<g id="edge17" class="edge">
<title>Node7&#45;&gt;Node17</title>
<path fill="none" stroke="midnightblue" d="M497.2,-179.48C561.51,-171.16 660.53,-157.66 746,-143 753.08,-141.78 760.54,-140.4 767.86,-138.98"/>
<polygon fill="midnightblue" stroke="midnightblue" points="768.58,-142.41 777.71,-137.04 767.22,-135.54 768.58,-142.41"/>
</g>
<!-- Node17&#45;&gt;Node14 -->
<g id="edge18" class="edge">
<title>Node17&#45;&gt;Node14</title>
<path fill="none" stroke="midnightblue" d="M801.52,-117.98C782.39,-108.08 750.63,-91.64 728.35,-80.12"/>
<polygon fill="midnightblue" stroke="midnightblue" points="729.94,-77 719.45,-75.51 726.72,-83.21 729.94,-77"/>
</g>
</g>
</svg>
