<?xml version="1.0" encoding="UTF-8" standalone="no"?>
<!DOCTYPE svg PUBLIC "-//W3C//DTD SVG 1.1//EN"
 "http://www.w3.org/Graphics/SVG/1.1/DTD/svg11.dtd">
<!-- Generated by graphviz version 2.43.0 (0)
 -->
<!-- Title: HouseholderQR.cpp Pages: 1 -->
<svg width="632pt" height="196pt"
 viewBox="0.00 0.00 631.50 196.00" xmlns="http://www.w3.org/2000/svg" xmlns:xlink="http://www.w3.org/1999/xlink">
<g id="graph0" class="graph" transform="scale(1 1) rotate(0) translate(4 192)">
<title>HouseholderQR.cpp</title>
<polygon fill="white" stroke="transparent" points="-4,4 -4,-192 627.5,-192 627.5,4 -4,4"/>
<!-- Node1 -->
<g id="node1" class="node">
<title>Node1</title>
<g id="a_node1"><a xlink:title=" ">
<polygon fill="#bfbfbf" stroke="black" points="246.5,-168.5 246.5,-187.5 359.5,-187.5 359.5,-168.5 246.5,-168.5"/>
<text text-anchor="middle" x="303" y="-175.5" font-family="Helvetica,sans-Serif" font-size="10.00">HouseholderQR.cpp</text>
</a>
</g>
</g>
<!-- Node2 -->
<g id="node2" class="node">
<title>Node2</title>
<g id="a_node2"><a xlink:href="../../d9/d52/HouseholderQR_8hpp.html" target="_top" xlink:title=" ">
<polygon fill="white" stroke="black" points="195.5,-112.5 195.5,-131.5 308.5,-131.5 308.5,-112.5 195.5,-112.5"/>
<text text-anchor="middle" x="252" y="-119.5" font-family="Helvetica,sans-Serif" font-size="10.00">HouseholderQR.hpp</text>
</a>
</g>
</g>
<!-- Node1&#45;&gt;Node2 -->
<g id="edge1" class="edge">
<title>Node1&#45;&gt;Node2</title>
<path fill="none" stroke="midnightblue" d="M294.58,-168.08C287.15,-160.22 276.15,-148.57 267.19,-139.08"/>
<polygon fill="midnightblue" stroke="midnightblue" points="269.68,-136.62 260.26,-131.75 264.59,-141.42 269.68,-136.62"/>
</g>
<!-- Node5 -->
<g id="node5" class="node">
<title>Node5</title>
<g id="a_node5"><a xlink:title=" ">
<polygon fill="white" stroke="#bfbfbf" points="0,-0.5 0,-19.5 52,-19.5 52,-0.5 0,-0.5"/>
<text text-anchor="middle" x="26" y="-7.5" font-family="Helvetica,sans-Serif" font-size="10.00">cassert</text>
</a>
</g>
</g>
<!-- Node1&#45;&gt;Node5 -->
<g id="edge12" class="edge">
<title>Node1&#45;&gt;Node5</title>
<path fill="none" stroke="midnightblue" d="M274.85,-168.5C250.75,-160.65 215.51,-147.85 187,-132 130.5,-100.6 71.64,-51.45 43.29,-26.56"/>
<polygon fill="midnightblue" stroke="midnightblue" points="45.32,-23.68 35.51,-19.66 40.67,-28.91 45.32,-23.68"/>
</g>
<!-- Node13 -->
<g id="node13" class="node">
<title>Node13</title>
<g id="a_node13"><a xlink:title=" ">
<polygon fill="white" stroke="#bfbfbf" points="327,-112.5 327,-131.5 383,-131.5 383,-112.5 327,-112.5"/>
<text text-anchor="middle" x="355" y="-119.5" font-family="Helvetica,sans-Serif" font-size="10.00">iomanip</text>
</a>
</g>
</g>
<!-- Node1&#45;&gt;Node13 -->
<g id="edge13" class="edge">
<title>Node1&#45;&gt;Node13</title>
<path fill="none" stroke="midnightblue" d="M311.59,-168.08C319.16,-160.22 330.38,-148.57 339.51,-139.08"/>
<polygon fill="midnightblue" stroke="midnightblue" points="342.16,-141.38 346.57,-131.75 337.12,-136.53 342.16,-141.38"/>
</g>
<!-- Node14 -->
<g id="node14" class="node">
<title>Node14</title>
<g id="a_node14"><a xlink:title=" ">
<polygon fill="white" stroke="#bfbfbf" points="401,-112.5 401,-131.5 461,-131.5 461,-112.5 401,-112.5"/>
<text text-anchor="middle" x="431" y="-119.5" font-family="Helvetica,sans-Serif" font-size="10.00">iostream</text>
</a>
</g>
</g>
<!-- Node1&#45;&gt;Node14 -->
<g id="edge14" class="edge">
<title>Node1&#45;&gt;Node14</title>
<path fill="none" stroke="midnightblue" d="M323.28,-168.44C344.35,-159.56 377.52,-145.56 401.49,-135.45"/>
<polygon fill="midnightblue" stroke="midnightblue" points="402.96,-138.63 410.81,-131.52 400.24,-132.18 402.96,-138.63"/>
</g>
<!-- Node3 -->
<g id="node3" class="node">
<title>Node3</title>
<g id="a_node3"><a xlink:href="../../d9/d1c/Matrix_8hpp.html" target="_top" xlink:title=" ">
<polygon fill="white" stroke="black" points="252.5,-56.5 252.5,-75.5 321.5,-75.5 321.5,-56.5 252.5,-56.5"/>
<text text-anchor="middle" x="287" y="-63.5" font-family="Helvetica,sans-Serif" font-size="10.00">Matrix.hpp</text>
</a>
</g>
</g>
<!-- Node2&#45;&gt;Node3 -->
<g id="edge2" class="edge">
<title>Node2&#45;&gt;Node3</title>
<path fill="none" stroke="midnightblue" d="M257.78,-112.08C262.67,-104.53 269.83,-93.49 275.83,-84.23"/>
<polygon fill="midnightblue" stroke="midnightblue" points="278.83,-86.05 281.33,-75.75 272.95,-82.24 278.83,-86.05"/>
</g>
<!-- Node4 -->
<g id="node4" class="node">
<title>Node4</title>
<g id="a_node4"><a xlink:title=" ">
<polygon fill="white" stroke="#bfbfbf" points="70,-0.5 70,-19.5 134,-19.5 134,-0.5 70,-0.5"/>
<text text-anchor="middle" x="102" y="-7.5" font-family="Helvetica,sans-Serif" font-size="10.00">algorithm</text>
</a>
</g>
</g>
<!-- Node3&#45;&gt;Node4 -->
<g id="edge3" class="edge">
<title>Node3&#45;&gt;Node4</title>
<path fill="none" stroke="midnightblue" d="M257.69,-56.44C226.16,-47.24 175.87,-32.56 141.01,-22.39"/>
<polygon fill="midnightblue" stroke="midnightblue" points="141.76,-18.96 131.18,-19.52 139.8,-25.68 141.76,-18.96"/>
</g>
<!-- Node3&#45;&gt;Node5 -->
<g id="edge4" class="edge">
<title>Node3&#45;&gt;Node5</title>
<path fill="none" stroke="midnightblue" d="M252.41,-58.73C209.88,-50.88 135.25,-36.67 62.17,-20.17"/>
<polygon fill="midnightblue" stroke="midnightblue" points="62.86,-16.74 52.34,-17.94 61.31,-23.57 62.86,-16.74"/>
</g>
<!-- Node6 -->
<g id="node6" class="node">
<title>Node6</title>
<g id="a_node6"><a xlink:title=" ">
<polygon fill="white" stroke="#bfbfbf" points="152.5,-0.5 152.5,-19.5 199.5,-19.5 199.5,-0.5 152.5,-0.5"/>
<text text-anchor="middle" x="176" y="-7.5" font-family="Helvetica,sans-Serif" font-size="10.00">cmath</text>
</a>
</g>
</g>
<!-- Node3&#45;&gt;Node6 -->
<g id="edge5" class="edge">
<title>Node3&#45;&gt;Node6</title>
<path fill="none" stroke="midnightblue" d="M269.17,-56.32C251.28,-47.62 223.52,-34.12 202.95,-24.11"/>
<polygon fill="midnightblue" stroke="midnightblue" points="204.31,-20.88 193.79,-19.65 201.25,-27.18 204.31,-20.88"/>
</g>
<!-- Node7 -->
<g id="node7" class="node">
<title>Node7</title>
<g id="a_node7"><a xlink:title=" ">
<polygon fill="white" stroke="#bfbfbf" points="217.5,-0.5 217.5,-19.5 282.5,-19.5 282.5,-0.5 217.5,-0.5"/>
<text text-anchor="middle" x="250" y="-7.5" font-family="Helvetica,sans-Serif" font-size="10.00">functional</text>
</a>
</g>
</g>
<!-- Node3&#45;&gt;Node7 -->
<g id="edge6" class="edge">
<title>Node3&#45;&gt;Node7</title>
<path fill="none" stroke="midnightblue" d="M280.89,-56.08C275.72,-48.53 268.15,-37.49 261.81,-28.23"/>
<polygon fill="midnightblue" stroke="midnightblue" points="264.54,-26.02 256,-19.75 258.76,-29.98 264.54,-26.02"/>
</g>
<!-- Node8 -->
<g id="node8" class="node">
<title>Node8</title>
<g id="a_node8"><a xlink:title=" ">
<polygon fill="white" stroke="#bfbfbf" points="301,-0.5 301,-19.5 349,-19.5 349,-0.5 301,-0.5"/>
<text text-anchor="middle" x="325" y="-7.5" font-family="Helvetica,sans-Serif" font-size="10.00">iosfwd</text>
</a>
</g>
</g>
<!-- Node3&#45;&gt;Node8 -->
<g id="edge7" class="edge">
<title>Node3&#45;&gt;Node8</title>
<path fill="none" stroke="midnightblue" d="M293.27,-56.08C298.64,-48.46 306.52,-37.26 313.08,-27.94"/>
<polygon fill="midnightblue" stroke="midnightblue" points="315.95,-29.94 318.84,-19.75 310.22,-25.91 315.95,-29.94"/>
</g>
<!-- Node9 -->
<g id="node9" class="node">
<title>Node9</title>
<g id="a_node9"><a xlink:title=" ">
<polygon fill="white" stroke="#bfbfbf" points="367,-0.5 367,-19.5 423,-19.5 423,-0.5 367,-0.5"/>
<text text-anchor="middle" x="395" y="-7.5" font-family="Helvetica,sans-Serif" font-size="10.00">numeric</text>
</a>
</g>
</g>
<!-- Node3&#45;&gt;Node9 -->
<g id="edge8" class="edge">
<title>Node3&#45;&gt;Node9</title>
<path fill="none" stroke="midnightblue" d="M304.35,-56.32C321.67,-47.66 348.52,-34.24 368.5,-24.25"/>
<polygon fill="midnightblue" stroke="midnightblue" points="370.31,-27.26 377.69,-19.65 367.18,-21 370.31,-27.26"/>
</g>
<!-- Node10 -->
<g id="node10" class="node">
<title>Node10</title>
<g id="a_node10"><a xlink:title=" ">
<polygon fill="white" stroke="#bfbfbf" points="441,-0.5 441,-19.5 495,-19.5 495,-0.5 441,-0.5"/>
<text text-anchor="middle" x="468" y="-7.5" font-family="Helvetica,sans-Serif" font-size="10.00">random</text>
</a>
</g>
</g>
<!-- Node3&#45;&gt;Node10 -->
<g id="edge9" class="edge">
<title>Node3&#45;&gt;Node10</title>
<path fill="none" stroke="midnightblue" d="M315.68,-56.44C346.98,-47.11 397.18,-32.13 431.32,-21.94"/>
<polygon fill="midnightblue" stroke="midnightblue" points="432.35,-25.29 440.93,-19.08 430.35,-18.58 432.35,-25.29"/>
</g>
<!-- Node11 -->
<g id="node11" class="node">
<title>Node11</title>
<g id="a_node11"><a xlink:title=" ">
<polygon fill="white" stroke="#bfbfbf" points="513.5,-0.5 513.5,-19.5 558.5,-19.5 558.5,-0.5 513.5,-0.5"/>
<text text-anchor="middle" x="536" y="-7.5" font-family="Helvetica,sans-Serif" font-size="10.00">utility</text>
</a>
</g>
</g>
<!-- Node3&#45;&gt;Node11 -->
<g id="edge10" class="edge">
<title>Node3&#45;&gt;Node11</title>
<path fill="none" stroke="midnightblue" d="M321.74,-58.57C362.8,-50.8 433.38,-36.92 503.45,-20"/>
<polygon fill="midnightblue" stroke="midnightblue" points="504.44,-23.36 513.33,-17.59 502.78,-16.55 504.44,-23.36"/>
</g>
<!-- Node12 -->
<g id="node12" class="node">
<title>Node12</title>
<g id="a_node12"><a xlink:title=" ">
<polygon fill="white" stroke="#bfbfbf" points="576.5,-0.5 576.5,-19.5 623.5,-19.5 623.5,-0.5 576.5,-0.5"/>
<text text-anchor="middle" x="600" y="-7.5" font-family="Helvetica,sans-Serif" font-size="10.00">vector</text>
</a>
</g>
</g>
<!-- Node3&#45;&gt;Node12 -->
<g id="edge11" class="edge">
<title>Node3&#45;&gt;Node12</title>
<path fill="none" stroke="midnightblue" d="M321.85,-60.74C373.38,-54.14 473.06,-40.3 566.43,-20.15"/>
<polygon fill="midnightblue" stroke="midnightblue" points="567.29,-23.55 576.31,-17.99 565.79,-16.71 567.29,-23.55"/>
</g>
</g>
</svg>
