<?xml version="1.0" encoding="UTF-8" standalone="no"?>
<!DOCTYPE svg PUBLIC "-//W3C//DTD SVG 1.1//EN"
 "http://www.w3.org/Graphics/SVG/1.1/DTD/svg11.dtd">
<!-- Generated by graphviz version 2.43.0 (0)
 -->
<!-- Title: Basic&#45;matrix&#45;operations.ino Pages: 1 -->
<svg width="913pt" height="319pt"
 viewBox="0.00 0.00 913.00 319.00" xmlns="http://www.w3.org/2000/svg" xmlns:xlink="http://www.w3.org/1999/xlink">
<g id="graph0" class="graph" transform="scale(1 1) rotate(0) translate(4 315)">
<title>Basic&#45;matrix&#45;operations.ino</title>
<polygon fill="white" stroke="transparent" points="-4,4 -4,-315 909,-315 909,4 -4,4"/>
<!-- Node1 -->
<g id="node1" class="node">
<title>Node1</title>
<g id="a_node1"><a xlink:title=" ">
<polygon fill="#bfbfbf" stroke="black" points="401,-291.5 401,-310.5 553,-310.5 553,-291.5 401,-291.5"/>
<text text-anchor="middle" x="477" y="-298.5" font-family="Helvetica,sans-Serif" font-size="10.00">Basic&#45;matrix&#45;operations.ino</text>
</a>
</g>
</g>
<!-- Node2 -->
<g id="node2" class="node">
<title>Node2</title>
<g id="a_node2"><a xlink:href="../../d9/d1c/Linear__Algebra_8h.html" target="_top" xlink:title=" ">
<polygon fill="white" stroke="black" points="301,-230 301,-249 399,-249 399,-230 301,-230"/>
<text text-anchor="middle" x="350" y="-237" font-family="Helvetica,sans-Serif" font-size="10.00">Linear_Algebra.h</text>
</a>
</g>
</g>
<!-- Node1&#45;&gt;Node2 -->
<g id="edge1" class="edge">
<title>Node1&#45;&gt;Node2</title>
<path fill="none" stroke="midnightblue" d="M458.8,-291.48C437.49,-281.49 401.97,-264.85 377.34,-253.31"/>
<polygon fill="midnightblue" stroke="midnightblue" points="378.7,-250.08 368.16,-249.01 375.73,-256.42 378.7,-250.08"/>
</g>
<!-- Node3 -->
<g id="node3" class="node">
<title>Node3</title>
<g id="a_node3"><a xlink:href="../../d9/d1c/Matrix_8hpp.html" target="_top" xlink:title=" ">
<polygon fill="white" stroke="black" points="354.5,-168.5 354.5,-187.5 491.5,-187.5 491.5,-168.5 354.5,-168.5"/>
<text text-anchor="middle" x="423" y="-175.5" font-family="Helvetica,sans-Serif" font-size="10.00">include/linalg/Matrix.hpp</text>
</a>
</g>
</g>
<!-- Node1&#45;&gt;Node3 -->
<g id="edge19" class="edge">
<title>Node1&#45;&gt;Node3</title>
<path fill="none" stroke="midnightblue" d="M469.71,-291.2C462.79,-282.48 452.5,-268.51 446,-255 437.05,-236.41 430.71,-213.58 426.98,-197.82"/>
<polygon fill="midnightblue" stroke="midnightblue" points="430.32,-196.75 424.72,-187.76 423.49,-198.28 430.32,-196.75"/>
</g>
<!-- Node17 -->
<g id="node17" class="node">
<title>Node17</title>
<g id="a_node17"><a xlink:href="../../d9/d52/HouseholderQR_8hpp.html" target="_top" xlink:title=" ">
<polygon fill="white" stroke="black" points="455,-224.5 455,-254.5 601,-254.5 601,-224.5 455,-224.5"/>
<text text-anchor="start" x="463" y="-242.5" font-family="Helvetica,sans-Serif" font-size="10.00">include/linalg/Householder</text>
<text text-anchor="middle" x="528" y="-231.5" font-family="Helvetica,sans-Serif" font-size="10.00">QR.hpp</text>
</a>
</g>
</g>
<!-- Node1&#45;&gt;Node17 -->
<g id="edge17" class="edge">
<title>Node1&#45;&gt;Node17</title>
<path fill="none" stroke="midnightblue" d="M484.31,-291.48C490.83,-283.87 500.66,-272.4 509.34,-262.26"/>
<polygon fill="midnightblue" stroke="midnightblue" points="512.13,-264.39 515.98,-254.52 506.81,-259.84 512.13,-264.39"/>
</g>
<!-- Node18 -->
<g id="node18" class="node">
<title>Node18</title>
<g id="a_node18"><a xlink:href="../../da/d4b/ArduinoCout_8hpp.html" target="_top" xlink:title="Arduino std::ostream Serial wrapper.">
<polygon fill="white" stroke="black" points="678,-224.5 678,-254.5 800,-254.5 800,-224.5 678,-224.5"/>
<text text-anchor="start" x="686" y="-242.5" font-family="Helvetica,sans-Serif" font-size="10.00">include/linalg/Arduino</text>
<text text-anchor="middle" x="739" y="-231.5" font-family="Helvetica,sans-Serif" font-size="10.00">/ArduinoCout.hpp</text>
</a>
</g>
</g>
<!-- Node1&#45;&gt;Node18 -->
<g id="edge20" class="edge">
<title>Node1&#45;&gt;Node18</title>
<path fill="none" stroke="midnightblue" d="M514.54,-291.48C554.38,-282.43 618.3,-267.91 667.75,-256.68"/>
<polygon fill="midnightblue" stroke="midnightblue" points="668.78,-260.04 677.76,-254.41 667.23,-253.21 668.78,-260.04"/>
</g>
<!-- Node2&#45;&gt;Node3 -->
<g id="edge2" class="edge">
<title>Node2&#45;&gt;Node3</title>
<path fill="none" stroke="midnightblue" d="M360.46,-229.98C371.95,-220.61 390.63,-205.38 404.59,-194.01"/>
<polygon fill="midnightblue" stroke="midnightblue" points="407.02,-196.54 412.56,-187.51 402.6,-191.11 407.02,-196.54"/>
</g>
<!-- Node4 -->
<g id="node4" class="node">
<title>Node4</title>
<g id="a_node4"><a xlink:href="../../d9/dd5/ArduinoConfig_8hpp.html" target="_top" xlink:title="Preprocessor logic for configuring the library to make it compatible with the Arduino environment.">
<polygon fill="white" stroke="black" points="759,-112.5 759,-131.5 905,-131.5 905,-112.5 759,-112.5"/>
<text text-anchor="middle" x="832" y="-119.5" font-family="Helvetica,sans-Serif" font-size="10.00">Arduino/ArduinoConfig.hpp</text>
</a>
</g>
</g>
<!-- Node3&#45;&gt;Node4 -->
<g id="edge3" class="edge">
<title>Node3&#45;&gt;Node4</title>
<path fill="none" stroke="midnightblue" d="M487.81,-168.44C561.1,-158.77 680.25,-143.04 757.37,-132.85"/>
<polygon fill="midnightblue" stroke="midnightblue" points="758.04,-136.3 767.5,-131.52 757.12,-129.36 758.04,-136.3"/>
</g>
<!-- Node7 -->
<g id="node7" class="node">
<title>Node7</title>
<g id="a_node7"><a xlink:title=" ">
<polygon fill="white" stroke="#bfbfbf" points="0,-112.5 0,-131.5 64,-131.5 64,-112.5 0,-112.5"/>
<text text-anchor="middle" x="32" y="-119.5" font-family="Helvetica,sans-Serif" font-size="10.00">algorithm</text>
</a>
</g>
</g>
<!-- Node3&#45;&gt;Node7 -->
<g id="edge6" class="edge">
<title>Node3&#45;&gt;Node7</title>
<path fill="none" stroke="midnightblue" d="M354.32,-169.98C285.77,-162.57 177.22,-149.71 74.13,-132.07"/>
<polygon fill="midnightblue" stroke="midnightblue" points="74.63,-128.6 64.18,-130.34 73.43,-135.5 74.63,-128.6"/>
</g>
<!-- Node8 -->
<g id="node8" class="node">
<title>Node8</title>
<g id="a_node8"><a xlink:title=" ">
<polygon fill="white" stroke="#bfbfbf" points="82,-112.5 82,-131.5 134,-131.5 134,-112.5 82,-112.5"/>
<text text-anchor="middle" x="108" y="-119.5" font-family="Helvetica,sans-Serif" font-size="10.00">cassert</text>
</a>
</g>
</g>
<!-- Node3&#45;&gt;Node8 -->
<g id="edge7" class="edge">
<title>Node3&#45;&gt;Node8</title>
<path fill="none" stroke="midnightblue" d="M359.31,-168.47C304.69,-160.77 223.72,-148.44 144.47,-132.15"/>
<polygon fill="midnightblue" stroke="midnightblue" points="144.82,-128.65 134.31,-130.04 143.39,-135.51 144.82,-128.65"/>
</g>
<!-- Node9 -->
<g id="node9" class="node">
<title>Node9</title>
<g id="a_node9"><a xlink:title=" ">
<polygon fill="white" stroke="#bfbfbf" points="152.5,-112.5 152.5,-131.5 199.5,-131.5 199.5,-112.5 152.5,-112.5"/>
<text text-anchor="middle" x="176" y="-119.5" font-family="Helvetica,sans-Serif" font-size="10.00">cmath</text>
</a>
</g>
</g>
<!-- Node3&#45;&gt;Node9 -->
<g id="edge8" class="edge">
<title>Node3&#45;&gt;Node9</title>
<path fill="none" stroke="midnightblue" d="M377.91,-168.49C336.4,-160.44 272.91,-147.62 209.48,-132.25"/>
<polygon fill="midnightblue" stroke="midnightblue" points="210.26,-128.84 199.72,-129.86 208.6,-135.64 210.26,-128.84"/>
</g>
<!-- Node10 -->
<g id="node10" class="node">
<title>Node10</title>
<g id="a_node10"><a xlink:title=" ">
<polygon fill="white" stroke="#bfbfbf" points="217.5,-112.5 217.5,-131.5 282.5,-131.5 282.5,-112.5 217.5,-112.5"/>
<text text-anchor="middle" x="250" y="-119.5" font-family="Helvetica,sans-Serif" font-size="10.00">functional</text>
</a>
</g>
</g>
<!-- Node3&#45;&gt;Node10 -->
<g id="edge9" class="edge">
<title>Node3&#45;&gt;Node10</title>
<path fill="none" stroke="midnightblue" d="M395.59,-168.44C366.23,-159.28 319.48,-144.69 286.9,-134.52"/>
<polygon fill="midnightblue" stroke="midnightblue" points="287.87,-131.16 277.28,-131.52 285.79,-137.84 287.87,-131.16"/>
</g>
<!-- Node11 -->
<g id="node11" class="node">
<title>Node11</title>
<g id="a_node11"><a xlink:title=" ">
<polygon fill="white" stroke="#bfbfbf" points="301,-112.5 301,-131.5 357,-131.5 357,-112.5 301,-112.5"/>
<text text-anchor="middle" x="329" y="-119.5" font-family="Helvetica,sans-Serif" font-size="10.00">numeric</text>
</a>
</g>
</g>
<!-- Node3&#45;&gt;Node11 -->
<g id="edge10" class="edge">
<title>Node3&#45;&gt;Node11</title>
<path fill="none" stroke="midnightblue" d="M407.9,-168.32C393.1,-159.82 370.31,-146.73 353.02,-136.8"/>
<polygon fill="midnightblue" stroke="midnightblue" points="354.48,-133.6 344.07,-131.65 350.99,-139.67 354.48,-133.6"/>
</g>
<!-- Node12 -->
<g id="node12" class="node">
<title>Node12</title>
<g id="a_node12"><a xlink:title=" ">
<polygon fill="white" stroke="#bfbfbf" points="375.5,-112.5 375.5,-131.5 420.5,-131.5 420.5,-112.5 375.5,-112.5"/>
<text text-anchor="middle" x="398" y="-119.5" font-family="Helvetica,sans-Serif" font-size="10.00">utility</text>
</a>
</g>
</g>
<!-- Node3&#45;&gt;Node12 -->
<g id="edge11" class="edge">
<title>Node3&#45;&gt;Node12</title>
<path fill="none" stroke="midnightblue" d="M418.87,-168.08C415.49,-160.77 410.58,-150.18 406.38,-141.1"/>
<polygon fill="midnightblue" stroke="midnightblue" points="409.43,-139.36 402.05,-131.75 403.08,-142.3 409.43,-139.36"/>
</g>
<!-- Node13 -->
<g id="node13" class="node">
<title>Node13</title>
<g id="a_node13"><a xlink:title=" ">
<polygon fill="white" stroke="#bfbfbf" points="540.5,-56.5 540.5,-75.5 587.5,-75.5 587.5,-56.5 540.5,-56.5"/>
<text text-anchor="middle" x="564" y="-63.5" font-family="Helvetica,sans-Serif" font-size="10.00">vector</text>
</a>
</g>
</g>
<!-- Node3&#45;&gt;Node13 -->
<g id="edge12" class="edge">
<title>Node3&#45;&gt;Node13</title>
<path fill="none" stroke="midnightblue" d="M427.1,-168.34C433.9,-154.75 448.71,-128.3 468,-112 486.4,-96.45 511.08,-85.03 530.81,-77.59"/>
<polygon fill="midnightblue" stroke="midnightblue" points="532.11,-80.85 540.33,-74.16 529.73,-74.26 532.11,-80.85"/>
</g>
<!-- Node14 -->
<g id="node14" class="node">
<title>Node14</title>
<g id="a_node14"><a xlink:title=" ">
<polygon fill="white" stroke="#bfbfbf" points="477,-112.5 477,-131.5 525,-131.5 525,-112.5 477,-112.5"/>
<text text-anchor="middle" x="501" y="-119.5" font-family="Helvetica,sans-Serif" font-size="10.00">iosfwd</text>
</a>
</g>
</g>
<!-- Node3&#45;&gt;Node14 -->
<g id="edge13" class="edge">
<title>Node3&#45;&gt;Node14</title>
<path fill="none" stroke="midnightblue" d="M435.53,-168.32C447.59,-159.98 466.03,-147.21 480.27,-137.35"/>
<polygon fill="midnightblue" stroke="midnightblue" points="482.27,-140.22 488.5,-131.65 478.28,-134.47 482.27,-140.22"/>
</g>
<!-- Node15 -->
<g id="node15" class="node">
<title>Node15</title>
<g id="a_node15"><a xlink:title=" ">
<polygon fill="white" stroke="#bfbfbf" points="543,-112.5 543,-131.5 597,-131.5 597,-112.5 543,-112.5"/>
<text text-anchor="middle" x="570" y="-119.5" font-family="Helvetica,sans-Serif" font-size="10.00">random</text>
</a>
</g>
</g>
<!-- Node3&#45;&gt;Node15 -->
<g id="edge14" class="edge">
<title>Node3&#45;&gt;Node15</title>
<path fill="none" stroke="midnightblue" d="M446.29,-168.44C470.81,-159.44 509.6,-145.19 537.2,-135.05"/>
<polygon fill="midnightblue" stroke="midnightblue" points="538.64,-138.25 546.82,-131.52 536.22,-131.68 538.64,-138.25"/>
</g>
<!-- Node16 -->
<g id="node16" class="node">
<title>Node16</title>
<g id="a_node16"><a xlink:href="../../df/daa/MatrixStorage_8hpp.html" target="_top" xlink:title=" ">
<polygon fill="white" stroke="black" points="615.5,-112.5 615.5,-131.5 740.5,-131.5 740.5,-112.5 615.5,-112.5"/>
<text text-anchor="middle" x="678" y="-119.5" font-family="Helvetica,sans-Serif" font-size="10.00">util/MatrixStorage.hpp</text>
</a>
</g>
</g>
<!-- Node3&#45;&gt;Node16 -->
<g id="edge15" class="edge">
<title>Node3&#45;&gt;Node16</title>
<path fill="none" stroke="midnightblue" d="M463.41,-168.44C507.98,-159 579.77,-143.8 627.89,-133.61"/>
<polygon fill="midnightblue" stroke="midnightblue" points="628.73,-137.01 637.78,-131.52 627.28,-130.16 628.73,-137.01"/>
</g>
<!-- Node5 -->
<g id="node5" class="node">
<title>Node5</title>
<g id="a_node5"><a xlink:href="../../df/d96/ArduinoMacroFix_8hpp.html" target="_top" xlink:title="Fixes for problematic macros defined by the Arduino Core.">
<polygon fill="white" stroke="black" points="772.5,-56.5 772.5,-75.5 891.5,-75.5 891.5,-56.5 772.5,-56.5"/>
<text text-anchor="middle" x="832" y="-63.5" font-family="Helvetica,sans-Serif" font-size="10.00">ArduinoMacroFix.hpp</text>
</a>
</g>
</g>
<!-- Node4&#45;&gt;Node5 -->
<g id="edge4" class="edge">
<title>Node4&#45;&gt;Node5</title>
<path fill="none" stroke="midnightblue" d="M832,-112.08C832,-105.01 832,-94.86 832,-85.99"/>
<polygon fill="midnightblue" stroke="midnightblue" points="835.5,-85.75 832,-75.75 828.5,-85.75 835.5,-85.75"/>
</g>
<!-- Node6 -->
<g id="node6" class="node">
<title>Node6</title>
<g id="a_node6"><a xlink:title=" ">
<polygon fill="white" stroke="#bfbfbf" points="800.5,-0.5 800.5,-19.5 863.5,-19.5 863.5,-0.5 800.5,-0.5"/>
<text text-anchor="middle" x="832" y="-7.5" font-family="Helvetica,sans-Serif" font-size="10.00">Arduino.h</text>
</a>
</g>
</g>
<!-- Node5&#45;&gt;Node6 -->
<g id="edge5" class="edge">
<title>Node5&#45;&gt;Node6</title>
<path fill="none" stroke="midnightblue" d="M832,-56.08C832,-49.01 832,-38.86 832,-29.99"/>
<polygon fill="midnightblue" stroke="midnightblue" points="835.5,-29.75 832,-19.75 828.5,-29.75 835.5,-29.75"/>
</g>
<!-- Node16&#45;&gt;Node13 -->
<g id="edge16" class="edge">
<title>Node16&#45;&gt;Node13</title>
<path fill="none" stroke="midnightblue" d="M659.94,-112.44C641.43,-103.68 612.42,-89.94 591.14,-79.86"/>
<polygon fill="midnightblue" stroke="midnightblue" points="592.51,-76.63 581.98,-75.52 589.52,-82.96 592.51,-76.63"/>
</g>
<!-- Node17&#45;&gt;Node3 -->
<g id="edge18" class="edge">
<title>Node17&#45;&gt;Node3</title>
<path fill="none" stroke="midnightblue" d="M503.12,-224.4C486.29,-214.86 464.16,-202.32 447.43,-192.84"/>
<polygon fill="midnightblue" stroke="midnightblue" points="448.7,-189.54 438.28,-187.66 445.25,-195.63 448.7,-189.54"/>
</g>
<!-- Node18&#45;&gt;Node4 -->
<g id="edge21" class="edge">
<title>Node18&#45;&gt;Node4</title>
<path fill="none" stroke="midnightblue" d="M755.07,-224.29C765.59,-214.59 779.32,-201.16 790,-188 802.27,-172.89 814.1,-154.07 822.06,-140.58"/>
<polygon fill="midnightblue" stroke="midnightblue" points="825.15,-142.23 827.12,-131.82 819.09,-138.73 825.15,-142.23"/>
</g>
<!-- Node19 -->
<g id="node19" class="node">
<title>Node19</title>
<g id="a_node19"><a xlink:title=" ">
<polygon fill="white" stroke="#bfbfbf" points="639.5,-168.5 639.5,-187.5 696.5,-187.5 696.5,-168.5 639.5,-168.5"/>
<text text-anchor="middle" x="668" y="-175.5" font-family="Helvetica,sans-Serif" font-size="10.00">ostream</text>
</a>
</g>
</g>
<!-- Node18&#45;&gt;Node19 -->
<g id="edge22" class="edge">
<title>Node18&#45;&gt;Node19</title>
<path fill="none" stroke="midnightblue" d="M722.17,-224.4C711.33,-215.31 697.22,-203.49 686.13,-194.19"/>
<polygon fill="midnightblue" stroke="midnightblue" points="688.24,-191.4 678.33,-187.66 683.75,-196.76 688.24,-191.4"/>
</g>
<!-- Node20 -->
<g id="node20" class="node">
<title>Node20</title>
<g id="a_node20"><a xlink:title=" ">
<polygon fill="white" stroke="#bfbfbf" points="714.5,-168.5 714.5,-187.5 781.5,-187.5 781.5,-168.5 714.5,-168.5"/>
<text text-anchor="middle" x="748" y="-175.5" font-family="Helvetica,sans-Serif" font-size="10.00">streambuf</text>
</a>
</g>
</g>
<!-- Node18&#45;&gt;Node20 -->
<g id="edge23" class="edge">
<title>Node18&#45;&gt;Node20</title>
<path fill="none" stroke="midnightblue" d="M741.13,-224.4C742.35,-216.38 743.88,-206.23 745.19,-197.57"/>
<polygon fill="midnightblue" stroke="midnightblue" points="748.66,-198.07 746.69,-187.66 741.73,-197.02 748.66,-198.07"/>
</g>
</g>
</svg>
