<?xml version="1.0" encoding="UTF-8" standalone="no"?>
<!DOCTYPE svg PUBLIC "-//W3C//DTD SVG 1.1//EN"
 "http://www.w3.org/Graphics/SVG/1.1/DTD/svg11.dtd">
<!-- Generated by graphviz version 2.43.0 (0)
 -->
<!-- Title: MatrixStorage.hpp Pages: 1 -->
<svg width="1183pt" height="319pt"
 viewBox="0.00 0.00 1183.00 319.00" xmlns="http://www.w3.org/2000/svg" xmlns:xlink="http://www.w3.org/1999/xlink">
<g id="graph0" class="graph" transform="scale(1 1) rotate(0) translate(4 315)">
<title>MatrixStorage.hpp</title>
<polygon fill="white" stroke="transparent" points="-4,4 -4,-315 1179,-315 1179,4 -4,4"/>
<!-- Node1 -->
<g id="node1" class="node">
<title>Node1</title>
<g id="a_node1"><a xlink:title=" ">
<polygon fill="#bfbfbf" stroke="black" points="599.5,-291.5 599.5,-310.5 706.5,-310.5 706.5,-291.5 599.5,-291.5"/>
<text text-anchor="middle" x="653" y="-298.5" font-family="Helvetica,sans-Serif" font-size="10.00">MatrixStorage.hpp</text>
</a>
</g>
</g>
<!-- Node2 -->
<g id="node2" class="node">
<title>Node2</title>
<g id="a_node2"><a xlink:href="../../d9/d1c/Matrix_8hpp.html" target="_top" xlink:title=" ">
<polygon fill="white" stroke="black" points="618.5,-235.5 618.5,-254.5 687.5,-254.5 687.5,-235.5 618.5,-235.5"/>
<text text-anchor="middle" x="653" y="-242.5" font-family="Helvetica,sans-Serif" font-size="10.00">Matrix.hpp</text>
</a>
</g>
</g>
<!-- Node1&#45;&gt;Node2 -->
<g id="edge1" class="edge">
<title>Node1&#45;&gt;Node2</title>
<path fill="none" stroke="midnightblue" d="M653,-280.8C653,-271.91 653,-261.78 653,-254.75"/>
<polygon fill="midnightblue" stroke="midnightblue" points="649.5,-281.08 653,-291.08 656.5,-281.08 649.5,-281.08"/>
</g>
<!-- Node3 -->
<g id="node3" class="node">
<title>Node3</title>
<g id="a_node3"><a xlink:href="../../d9/d52/HouseholderQR_8hpp.html" target="_top" xlink:title=" ">
<polygon fill="white" stroke="black" points="198.5,-179.5 198.5,-198.5 311.5,-198.5 311.5,-179.5 198.5,-179.5"/>
<text text-anchor="middle" x="255" y="-186.5" font-family="Helvetica,sans-Serif" font-size="10.00">HouseholderQR.hpp</text>
</a>
</g>
</g>
<!-- Node2&#45;&gt;Node3 -->
<g id="edge2" class="edge">
<title>Node2&#45;&gt;Node3</title>
<path fill="none" stroke="midnightblue" d="M608.16,-237.92C535.32,-228.03 391.42,-208.51 311.62,-197.68"/>
<polygon fill="midnightblue" stroke="midnightblue" points="608,-241.43 618.38,-239.3 608.94,-234.49 608,-241.43"/>
</g>
<!-- Node6 -->
<g id="node6" class="node">
<title>Node6</title>
<g id="a_node6"><a xlink:href="../../dd/d4f/Basic-matrix-operations_8ino.html" target="_top" xlink:title=" ">
<polygon fill="white" stroke="black" points="278,-118 278,-137 430,-137 430,-118 278,-118"/>
<text text-anchor="middle" x="354" y="-125" font-family="Helvetica,sans-Serif" font-size="10.00">Basic&#45;matrix&#45;operations.ino</text>
</a>
</g>
</g>
<!-- Node2&#45;&gt;Node6 -->
<g id="edge25" class="edge">
<title>Node2&#45;&gt;Node6</title>
<path fill="none" stroke="midnightblue" d="M608.17,-239.57C547.16,-232.9 441.81,-218.91 409,-199 383.78,-183.7 365.7,-152.28 358.05,-137.09"/>
<polygon fill="midnightblue" stroke="midnightblue" points="607.98,-243.07 618.29,-240.66 608.72,-236.11 607.98,-243.07"/>
</g>
<!-- Node7 -->
<g id="node7" class="node">
<title>Node7</title>
<g id="a_node7"><a xlink:href="../../de/dd7/Basic-matrix-operations-no-iostream_8ino.html" target="_top" xlink:title=" ">
<polygon fill="white" stroke="black" points="448,-112.5 448,-142.5 582,-142.5 582,-112.5 448,-112.5"/>
<text text-anchor="start" x="456" y="-130.5" font-family="Helvetica,sans-Serif" font-size="10.00">Basic&#45;matrix&#45;operations</text>
<text text-anchor="middle" x="515" y="-119.5" font-family="Helvetica,sans-Serif" font-size="10.00">&#45;no&#45;iostream.ino</text>
</a>
</g>
</g>
<!-- Node2&#45;&gt;Node7 -->
<g id="edge26" class="edge">
<title>Node2&#45;&gt;Node7</title>
<path fill="none" stroke="midnightblue" d="M618.99,-231.53C601.31,-223.94 580.09,-213 564,-199 545.44,-182.86 530.45,-158.24 522.14,-142.77"/>
<polygon fill="midnightblue" stroke="midnightblue" points="617.81,-234.83 628.39,-235.4 620.47,-228.36 617.81,-234.83"/>
</g>
<!-- Node9 -->
<g id="node9" class="node">
<title>Node9</title>
<g id="a_node9"><a xlink:href="../../d5/db4/NoPivotLU_8hpp.html" target="_top" xlink:title=" ">
<polygon fill="white" stroke="black" points="572.5,-179.5 572.5,-198.5 661.5,-198.5 661.5,-179.5 572.5,-179.5"/>
<text text-anchor="middle" x="617" y="-186.5" font-family="Helvetica,sans-Serif" font-size="10.00">NoPivotLU.hpp</text>
</a>
</g>
</g>
<!-- Node2&#45;&gt;Node9 -->
<g id="edge9" class="edge">
<title>Node2&#45;&gt;Node9</title>
<path fill="none" stroke="midnightblue" d="M641.38,-226.57C635.18,-217.27 627.83,-206.25 622.83,-198.75"/>
<polygon fill="midnightblue" stroke="midnightblue" points="638.6,-228.7 647.06,-235.08 644.42,-224.82 638.6,-228.7"/>
</g>
<!-- Node12 -->
<g id="node12" class="node">
<title>Node12</title>
<g id="a_node12"><a xlink:href="../../df/d3f/PermutationMatrix_8hpp.html" target="_top" xlink:title=" ">
<polygon fill="white" stroke="black" points="718.5,-179.5 718.5,-198.5 847.5,-198.5 847.5,-179.5 718.5,-179.5"/>
<text text-anchor="middle" x="783" y="-186.5" font-family="Helvetica,sans-Serif" font-size="10.00">PermutationMatrix.hpp</text>
</a>
</g>
</g>
<!-- Node2&#45;&gt;Node12 -->
<g id="edge13" class="edge">
<title>Node2&#45;&gt;Node12</title>
<path fill="none" stroke="midnightblue" d="M683.09,-231.5C707.46,-221.38 741.14,-207.39 762.5,-198.52"/>
<polygon fill="midnightblue" stroke="midnightblue" points="681.49,-228.38 673.6,-235.44 684.18,-234.84 681.49,-228.38"/>
</g>
<!-- Node13 -->
<g id="node13" class="node">
<title>Node13</title>
<g id="a_node13"><a xlink:href="../../d3/d5d/RowPivotLU_8hpp.html" target="_top" xlink:title=" ">
<polygon fill="white" stroke="black" points="742,-118 742,-137 838,-137 838,-118 742,-118"/>
<text text-anchor="middle" x="790" y="-125" font-family="Helvetica,sans-Serif" font-size="10.00">RowPivotLU.hpp</text>
</a>
</g>
</g>
<!-- Node2&#45;&gt;Node13 -->
<g id="edge19" class="edge">
<title>Node2&#45;&gt;Node13</title>
<path fill="none" stroke="midnightblue" d="M665.57,-227.12C676.41,-213.24 692.96,-193.55 710,-179 730.11,-161.82 756.56,-146.28 773.43,-137.11"/>
<polygon fill="midnightblue" stroke="midnightblue" points="662.62,-225.22 659.33,-235.29 668.18,-229.47 662.62,-225.22"/>
</g>
<!-- Node17 -->
<g id="node17" class="node">
<title>Node17</title>
<g id="a_node17"><a xlink:href="../../d9/d1c/Linear__Algebra_8h.html" target="_top" xlink:title=" ">
<polygon fill="white" stroke="black" points="418,-179.5 418,-198.5 516,-198.5 516,-179.5 418,-179.5"/>
<text text-anchor="middle" x="467" y="-186.5" font-family="Helvetica,sans-Serif" font-size="10.00">Linear_Algebra.h</text>
</a>
</g>
</g>
<!-- Node2&#45;&gt;Node17 -->
<g id="edge20" class="edge">
<title>Node2&#45;&gt;Node17</title>
<path fill="none" stroke="midnightblue" d="M613.62,-232.57C578.53,-222.38 527.98,-207.7 496.33,-198.52"/>
<polygon fill="midnightblue" stroke="midnightblue" points="612.95,-236.02 623.53,-235.44 614.9,-229.29 612.95,-236.02"/>
</g>
<!-- Node18 -->
<g id="node18" class="node">
<title>Node18</title>
<g id="a_node18"><a xlink:href="../../d3/da8/ArduinoMatrixPrinter_8cpp.html" target="_top" xlink:title="Fallback functions for printing matrices without relying on std::ostream or printf.">
<polygon fill="white" stroke="black" points="865.5,-179.5 865.5,-198.5 1002.5,-198.5 1002.5,-179.5 865.5,-179.5"/>
<text text-anchor="middle" x="934" y="-186.5" font-family="Helvetica,sans-Serif" font-size="10.00">ArduinoMatrixPrinter.cpp</text>
</a>
</g>
</g>
<!-- Node2&#45;&gt;Node18 -->
<g id="edge23" class="edge">
<title>Node2&#45;&gt;Node18</title>
<path fill="none" stroke="midnightblue" d="M697.79,-235.39C750.41,-225.28 837.19,-208.6 889.63,-198.53"/>
<polygon fill="midnightblue" stroke="midnightblue" points="696.9,-232 687.74,-237.32 698.22,-238.87 696.9,-232"/>
</g>
<!-- Node19 -->
<g id="node19" class="node">
<title>Node19</title>
<g id="a_node19"><a xlink:href="../../dd/d52/Matrix_8cpp.html" target="_top" xlink:title=" ">
<polygon fill="white" stroke="black" points="1021,-179.5 1021,-198.5 1089,-198.5 1089,-179.5 1021,-179.5"/>
<text text-anchor="middle" x="1055" y="-186.5" font-family="Helvetica,sans-Serif" font-size="10.00">Matrix.cpp</text>
</a>
</g>
</g>
<!-- Node2&#45;&gt;Node19 -->
<g id="edge24" class="edge">
<title>Node2&#45;&gt;Node19</title>
<path fill="none" stroke="midnightblue" d="M697.9,-239.56C766.04,-232.56 899.53,-217.79 1012,-199 1014.86,-198.52 1017.82,-197.99 1020.78,-197.43"/>
<polygon fill="midnightblue" stroke="midnightblue" points="697.13,-236.12 687.54,-240.62 697.84,-243.09 697.13,-236.12"/>
</g>
<!-- Node20 -->
<g id="node20" class="node">
<title>Node20</title>
<g id="a_node20"><a xlink:href="../../de/de8/Basics_8cpp.html" target="_top" xlink:title=" ">
<polygon fill="white" stroke="black" points="1107,-179.5 1107,-198.5 1175,-198.5 1175,-179.5 1107,-179.5"/>
<text text-anchor="middle" x="1141" y="-186.5" font-family="Helvetica,sans-Serif" font-size="10.00">Basics.cpp</text>
</a>
</g>
</g>
<!-- Node2&#45;&gt;Node20 -->
<g id="edge27" class="edge">
<title>Node2&#45;&gt;Node20</title>
<path fill="none" stroke="midnightblue" d="M698.06,-241.02C778.63,-235.35 952.59,-221.51 1098,-199 1100.86,-198.56 1103.83,-198.05 1106.79,-197.5"/>
<polygon fill="midnightblue" stroke="midnightblue" points="697.51,-237.55 687.78,-241.74 698,-244.54 697.51,-237.55"/>
</g>
<!-- Node4 -->
<g id="node4" class="node">
<title>Node4</title>
<g id="a_node4"><a xlink:href="../../d6/d05/HouseholderQR_8ipp.html" target="_top" xlink:title=" ">
<polygon fill="white" stroke="black" points="0,-118 0,-137 110,-137 110,-118 0,-118"/>
<text text-anchor="middle" x="55" y="-125" font-family="Helvetica,sans-Serif" font-size="10.00">HouseholderQR.ipp</text>
</a>
</g>
</g>
<!-- Node3&#45;&gt;Node4 -->
<g id="edge3" class="edge">
<title>Node3&#45;&gt;Node4</title>
<path fill="none" stroke="midnightblue" d="M216.44,-176.53C177.57,-164.96 118.48,-147.38 83.6,-137.01"/>
<polygon fill="midnightblue" stroke="midnightblue" points="215.76,-179.98 226.34,-179.48 217.76,-173.27 215.76,-179.98"/>
</g>
<!-- Node5 -->
<g id="node5" class="node">
<title>Node5</title>
<g id="a_node5"><a xlink:href="../../df/d5c/HouseholderQR_8cpp.html" target="_top" xlink:title=" ">
<polygon fill="white" stroke="black" points="40.5,-56.5 40.5,-75.5 153.5,-75.5 153.5,-56.5 40.5,-56.5"/>
<text text-anchor="middle" x="97" y="-63.5" font-family="Helvetica,sans-Serif" font-size="10.00">HouseholderQR.cpp</text>
</a>
</g>
</g>
<!-- Node3&#45;&gt;Node5 -->
<g id="edge5" class="edge">
<title>Node3&#45;&gt;Node5</title>
<path fill="none" stroke="midnightblue" d="M218.28,-175.9C198.83,-168.37 175.25,-157.36 157,-143 131.89,-123.25 111,-90.95 101.9,-75.61"/>
<polygon fill="midnightblue" stroke="midnightblue" points="217.15,-179.21 227.74,-179.42 219.59,-172.65 217.15,-179.21"/>
</g>
<!-- Node3&#45;&gt;Node6 -->
<g id="edge6" class="edge">
<title>Node3&#45;&gt;Node6</title>
<path fill="none" stroke="midnightblue" d="M277.89,-174.24C297.01,-162.75 323.68,-146.72 339.84,-137.01"/>
<polygon fill="midnightblue" stroke="midnightblue" points="275.95,-171.32 269.18,-179.48 279.56,-177.32 275.95,-171.32"/>
</g>
<!-- Node3&#45;&gt;Node7 -->
<g id="edge7" class="edge">
<title>Node3&#45;&gt;Node7</title>
<path fill="none" stroke="midnightblue" d="M302.06,-177.23C344.55,-167.51 407.33,-153.14 453.72,-142.52"/>
<polygon fill="midnightblue" stroke="midnightblue" points="301.22,-173.83 292.25,-179.48 302.78,-180.66 301.22,-173.83"/>
</g>
<!-- Node8 -->
<g id="node8" class="node">
<title>Node8</title>
<g id="a_node8"><a xlink:href="../../d3/d58/QR-PerfTest_8cpp.html" target="_top" xlink:title=" ">
<polygon fill="white" stroke="black" points="166,-118 166,-137 260,-137 260,-118 166,-118"/>
<text text-anchor="middle" x="213" y="-125" font-family="Helvetica,sans-Serif" font-size="10.00">QR&#45;PerfTest.cpp</text>
</a>
</g>
</g>
<!-- Node3&#45;&gt;Node8 -->
<g id="edge8" class="edge">
<title>Node3&#45;&gt;Node8</title>
<path fill="none" stroke="midnightblue" d="M243,-171.01C235.16,-159.89 225.24,-145.84 219.01,-137.01"/>
<polygon fill="midnightblue" stroke="midnightblue" points="240.36,-173.32 248.98,-179.48 246.07,-169.29 240.36,-173.32"/>
</g>
<!-- Node4&#45;&gt;Node5 -->
<g id="edge4" class="edge">
<title>Node4&#45;&gt;Node5</title>
<path fill="none" stroke="midnightblue" d="M67,-109.51C74.84,-98.39 84.76,-84.34 90.99,-75.51"/>
<polygon fill="midnightblue" stroke="midnightblue" points="63.93,-107.79 61.02,-117.98 69.64,-111.82 63.93,-107.79"/>
</g>
<!-- Node10 -->
<g id="node10" class="node">
<title>Node10</title>
<g id="a_node10"><a xlink:href="../../de/d20/NoPivotLU_8ipp.html" target="_top" xlink:title=" ">
<polygon fill="white" stroke="black" points="638,-118 638,-137 724,-137 724,-118 638,-118"/>
<text text-anchor="middle" x="681" y="-125" font-family="Helvetica,sans-Serif" font-size="10.00">NoPivotLU.ipp</text>
</a>
</g>
</g>
<!-- Node9&#45;&gt;Node10 -->
<g id="edge10" class="edge">
<title>Node9&#45;&gt;Node10</title>
<path fill="none" stroke="midnightblue" d="M633.51,-172.65C645.71,-161.31 661.87,-146.28 671.85,-137.01"/>
<polygon fill="midnightblue" stroke="midnightblue" points="631.11,-170.1 626.17,-179.48 635.88,-175.23 631.11,-170.1"/>
</g>
<!-- Node11 -->
<g id="node11" class="node">
<title>Node11</title>
<g id="a_node11"><a xlink:href="../../dc/d48/NoPivotLU_8cpp.html" target="_top" xlink:title=" ">
<polygon fill="white" stroke="black" points="582,-56.5 582,-75.5 670,-75.5 670,-56.5 582,-56.5"/>
<text text-anchor="middle" x="626" y="-63.5" font-family="Helvetica,sans-Serif" font-size="10.00">NoPivotLU.cpp</text>
</a>
</g>
</g>
<!-- Node9&#45;&gt;Node11 -->
<g id="edge12" class="edge">
<title>Node9&#45;&gt;Node11</title>
<path fill="none" stroke="midnightblue" d="M618.41,-168.99C620.4,-142.35 623.92,-95 625.36,-75.62"/>
<polygon fill="midnightblue" stroke="midnightblue" points="614.9,-169.07 617.65,-179.3 621.88,-169.59 614.9,-169.07"/>
</g>
<!-- Node10&#45;&gt;Node11 -->
<g id="edge11" class="edge">
<title>Node10&#45;&gt;Node11</title>
<path fill="none" stroke="midnightblue" d="M666.21,-110.5C655.8,-99.24 642.27,-84.6 633.87,-75.51"/>
<polygon fill="midnightblue" stroke="midnightblue" points="663.76,-113.01 673.12,-117.98 668.9,-108.26 663.76,-113.01"/>
</g>
<!-- Node12&#45;&gt;Node13 -->
<g id="edge14" class="edge">
<title>Node12&#45;&gt;Node13</title>
<path fill="none" stroke="midnightblue" d="M785.2,-169.32C786.47,-158.5 788.01,-145.4 789,-137.01"/>
<polygon fill="midnightblue" stroke="midnightblue" points="781.7,-169.13 784,-179.48 788.65,-169.95 781.7,-169.13"/>
</g>
<!-- Node16 -->
<g id="node16" class="node">
<title>Node16</title>
<g id="a_node16"><a xlink:href="../../d9/d7f/PermutationMatrix_8cpp.html" target="_top" xlink:title=" ">
<polygon fill="white" stroke="black" points="856,-118 856,-137 984,-137 984,-118 856,-118"/>
<text text-anchor="middle" x="920" y="-125" font-family="Helvetica,sans-Serif" font-size="10.00">PermutationMatrix.cpp</text>
</a>
</g>
</g>
<!-- Node12&#45;&gt;Node16 -->
<g id="edge18" class="edge">
<title>Node12&#45;&gt;Node16</title>
<path fill="none" stroke="midnightblue" d="M811.83,-175.48C838.44,-163.92 877.23,-147.08 900.41,-137.01"/>
<polygon fill="midnightblue" stroke="midnightblue" points="810.41,-172.28 802.63,-179.48 813.2,-178.7 810.41,-172.28"/>
</g>
<!-- Node14 -->
<g id="node14" class="node">
<title>Node14</title>
<g id="a_node14"><a xlink:href="../../d5/d9e/RowPivotLU_8ipp.html" target="_top" xlink:title=" ">
<polygon fill="white" stroke="black" points="780.5,-56.5 780.5,-75.5 873.5,-75.5 873.5,-56.5 780.5,-56.5"/>
<text text-anchor="middle" x="827" y="-63.5" font-family="Helvetica,sans-Serif" font-size="10.00">RowPivotLU.ipp</text>
</a>
</g>
</g>
<!-- Node13&#45;&gt;Node14 -->
<g id="edge15" class="edge">
<title>Node13&#45;&gt;Node14</title>
<path fill="none" stroke="midnightblue" d="M800.78,-109.17C807.66,-98.11 816.27,-84.25 821.71,-75.51"/>
<polygon fill="midnightblue" stroke="midnightblue" points="797.61,-107.63 795.3,-117.98 803.55,-111.33 797.61,-107.63"/>
</g>
<!-- Node15 -->
<g id="node15" class="node">
<title>Node15</title>
<g id="a_node15"><a xlink:href="../../d7/d1c/RowPivotLU_8cpp.html" target="_top" xlink:title=" ">
<polygon fill="white" stroke="black" points="741.5,-0.5 741.5,-19.5 836.5,-19.5 836.5,-0.5 741.5,-0.5"/>
<text text-anchor="middle" x="789" y="-7.5" font-family="Helvetica,sans-Serif" font-size="10.00">RowPivotLU.cpp</text>
</a>
</g>
</g>
<!-- Node13&#45;&gt;Node15 -->
<g id="edge17" class="edge">
<title>Node13&#45;&gt;Node15</title>
<path fill="none" stroke="midnightblue" d="M781.11,-108.82C775.05,-94.65 768.68,-74.2 772,-56 774.4,-42.86 780.44,-28.56 784.63,-19.69"/>
<polygon fill="midnightblue" stroke="midnightblue" points="777.94,-110.3 785.32,-117.9 784.29,-107.36 777.94,-110.3"/>
</g>
<!-- Node14&#45;&gt;Node15 -->
<g id="edge16" class="edge">
<title>Node14&#45;&gt;Node15</title>
<path fill="none" stroke="midnightblue" d="M814.94,-47.86C808.36,-38.5 800.49,-27.33 795.16,-19.75"/>
<polygon fill="midnightblue" stroke="midnightblue" points="812.11,-49.92 820.73,-56.08 817.83,-45.89 812.11,-49.92"/>
</g>
<!-- Node17&#45;&gt;Node6 -->
<g id="edge21" class="edge">
<title>Node17&#45;&gt;Node6</title>
<path fill="none" stroke="midnightblue" d="M441.76,-174.71C419.88,-163.19 388.86,-146.86 370.16,-137.01"/>
<polygon fill="midnightblue" stroke="midnightblue" points="440.33,-177.91 450.81,-179.48 443.59,-171.72 440.33,-177.91"/>
</g>
<!-- Node17&#45;&gt;Node7 -->
<g id="edge22" class="edge">
<title>Node17&#45;&gt;Node7</title>
<path fill="none" stroke="midnightblue" d="M480.29,-171.53C487.64,-162.42 496.68,-151.21 503.69,-142.52"/>
<polygon fill="midnightblue" stroke="midnightblue" points="477.43,-169.49 473.88,-179.48 482.88,-173.89 477.43,-169.49"/>
</g>
</g>
</svg>
