<?xml version="1.0" encoding="UTF-8" standalone="no"?>
<!DOCTYPE svg PUBLIC "-//W3C//DTD SVG 1.1//EN"
 "http://www.w3.org/Graphics/SVG/1.1/DTD/svg11.dtd">
<!-- Generated by graphviz version 2.43.0 (0)
 -->
<!-- Title: Basic&#45;matrix&#45;operations&#45;no&#45;iostream Pages: 1 -->
<svg width="238pt" height="151pt"
 viewBox="0.00 0.00 238.00 151.00" xmlns="http://www.w3.org/2000/svg" xmlns:xlink="http://www.w3.org/1999/xlink">
<g id="graph0" class="graph" transform="scale(1 1) rotate(0) translate(4 147)">
<title>Basic&#45;matrix&#45;operations&#45;no&#45;iostream</title>
<polygon fill="white" stroke="transparent" points="-4,4 -4,-147 234,-147 234,4 -4,4"/>
<g id="clust1" class="cluster">
<title>clusterdir_566e3080b9de3b93d5667d10c656a736</title>
<g id="a_clust1"><a xlink:href="dir_566e3080b9de3b93d5667d10c656a736.html" target="_top" xlink:title="Arduino">
<polygon fill="#ddddee" stroke="black" points="8,-64 8,-135 222,-135 222,-64 8,-64"/>
<text text-anchor="middle" x="115" y="-123" font-family="Helvetica,sans-Serif" font-size="10.00">Arduino</text>
</a>
</g>
</g>
<!-- dir_fe1531a1f425d772ad3e06a88988779f -->
<g id="node1" class="node">
<title>dir_fe1531a1f425d772ad3e06a88988779f</title>
<g id="a_node1"><a xlink:href="dir_fe1531a1f425d772ad3e06a88988779f.html" target="_top" xlink:title="Basic&#45;matrix&#45;operations&#45;no&#45;iostream">
<polygon fill="#eeeeff" stroke="black" points="213.5,-108 16.5,-108 16.5,-72 213.5,-72 213.5,-108"/>
<text text-anchor="middle" x="115" y="-87.5" font-family="Helvetica,sans-Serif" font-size="10.00">Basic&#45;matrix&#45;operations&#45;no&#45;iostream</text>
</a>
</g>
</g>
<!-- dir_68267d1309a1af8e8297ef4c3efbcdba -->
<g id="node2" class="node">
<title>dir_68267d1309a1af8e8297ef4c3efbcdba</title>
<g id="a_node2"><a xlink:href="dir_68267d1309a1af8e8297ef4c3efbcdba.html" target="_top" xlink:title="src">
<polygon fill="white" stroke="red" points="142,-36 88,-36 88,0 142,0 142,-36"/>
<text text-anchor="middle" x="115" y="-15.5" font-family="Helvetica,sans-Serif" font-size="10.00">src</text>
</a>
</g>
</g>
<!-- dir_fe1531a1f425d772ad3e06a88988779f&#45;&gt;dir_68267d1309a1af8e8297ef4c3efbcdba -->
<g id="edge1" class="edge">
<title>dir_fe1531a1f425d772ad3e06a88988779f&#45;&gt;dir_68267d1309a1af8e8297ef4c3efbcdba</title>
<path fill="none" stroke="black" d="M115,-71.7C115,-63.98 115,-54.71 115,-46.11"/>
<polygon fill="black" stroke="black" points="118.5,-46.1 115,-36.1 111.5,-46.1 118.5,-46.1"/>
<g id="a_edge1&#45;headlabel"><a xlink:href="dir_000004_000000.html" target="_top" xlink:title="3">
<text text-anchor="middle" x="121.34" y="-47.2" font-family="Helvetica,sans-Serif" font-size="10.00">3</text>
</a>
</g>
</g>
</g>
</svg>
