<?xml version="1.0" encoding="UTF-8" standalone="no"?>
<!DOCTYPE svg PUBLIC "-//W3C//DTD SVG 1.1//EN"
 "http://www.w3.org/Graphics/SVG/1.1/DTD/svg11.dtd">
<!-- Generated by graphviz version 2.43.0 (0)
 -->
<!-- Title: Arduino Pages: 1 -->
<svg width="478pt" height="159pt"
 viewBox="0.00 0.00 478.00 159.00" xmlns="http://www.w3.org/2000/svg" xmlns:xlink="http://www.w3.org/1999/xlink">
<g id="graph0" class="graph" transform="scale(1 1) rotate(0) translate(4 155)">
<title>Arduino</title>
<polygon fill="white" stroke="transparent" points="-4,4 -4,-155 474,-155 474,4 -4,4"/>
<g id="clust1" class="cluster">
<title>clusterdir_d28a4824dc47e487b107a5db32ef43c4</title>
<g id="a_clust1"><a xlink:href="dir_d28a4824dc47e487b107a5db32ef43c4.html" target="_top" xlink:title="examples">
<polygon fill="#ddddee" stroke="black" points="8,-56 8,-143 462,-143 462,-56 8,-56"/>
<text text-anchor="middle" x="235" y="-131" font-family="Helvetica,sans-Serif" font-size="10.00">examples</text>
</a>
</g>
</g>
<g id="clust2" class="cluster">
<title>clusterdir_566e3080b9de3b93d5667d10c656a736</title>
<g id="a_clust2"><a xlink:href="dir_566e3080b9de3b93d5667d10c656a736.html" target="_top">
<polygon fill="#eeeeff" stroke="black" points="16,-64 16,-116 454,-116 454,-64 16,-64"/>
</a>
</g>
</g>
<!-- dir_566e3080b9de3b93d5667d10c656a736 -->
<g id="node1" class="node">
<title>dir_566e3080b9de3b93d5667d10c656a736</title>
<text text-anchor="middle" x="419" y="-87.5" font-family="Helvetica,sans-Serif" font-size="10.00">Arduino</text>
</g>
<!-- dir_9e023804e8edd078e3eb70d905dd9782 -->
<g id="node2" class="node">
<title>dir_9e023804e8edd078e3eb70d905dd9782</title>
<g id="a_node2"><a xlink:href="dir_9e023804e8edd078e3eb70d905dd9782.html" target="_top" xlink:title="Basic&#45;matrix&#45;operations">
<polygon fill="white" stroke="black" points="374,-108 240,-108 240,-72 374,-72 374,-108"/>
<text text-anchor="middle" x="307" y="-87.5" font-family="Helvetica,sans-Serif" font-size="10.00">Basic&#45;matrix&#45;operations</text>
</a>
</g>
</g>
<!-- dir_68267d1309a1af8e8297ef4c3efbcdba -->
<g id="node4" class="node">
<title>dir_68267d1309a1af8e8297ef4c3efbcdba</title>
<g id="a_node4"><a xlink:href="dir_68267d1309a1af8e8297ef4c3efbcdba.html" target="_top" xlink:title="src">
<polygon fill="white" stroke="red" points="242,-36 188,-36 188,0 242,0 242,-36"/>
<text text-anchor="middle" x="215" y="-15.5" font-family="Helvetica,sans-Serif" font-size="10.00">src</text>
</a>
</g>
</g>
<!-- dir_9e023804e8edd078e3eb70d905dd9782&#45;&gt;dir_68267d1309a1af8e8297ef4c3efbcdba -->
<g id="edge2" class="edge">
<title>dir_9e023804e8edd078e3eb70d905dd9782&#45;&gt;dir_68267d1309a1af8e8297ef4c3efbcdba</title>
<path fill="none" stroke="black" d="M284.26,-71.7C272.56,-62.8 258.14,-51.82 245.49,-42.2"/>
<polygon fill="black" stroke="black" points="247.56,-39.37 237.48,-36.1 243.32,-44.94 247.56,-39.37"/>
<g id="a_edge2&#45;headlabel"><a xlink:href="dir_000005_000000.html" target="_top" xlink:title="4">
<text text-anchor="middle" x="252.14" y="-36.79" font-family="Helvetica,sans-Serif" font-size="10.00">4</text>
</a>
</g>
</g>
<!-- dir_fe1531a1f425d772ad3e06a88988779f -->
<g id="node3" class="node">
<title>dir_fe1531a1f425d772ad3e06a88988779f</title>
<g id="a_node3"><a xlink:href="dir_fe1531a1f425d772ad3e06a88988779f.html" target="_top" xlink:title="Basic&#45;matrix&#45;operations&#45;no&#45;iostream">
<polygon fill="white" stroke="black" points="221.5,-108 24.5,-108 24.5,-72 221.5,-72 221.5,-108"/>
<text text-anchor="middle" x="123" y="-87.5" font-family="Helvetica,sans-Serif" font-size="10.00">Basic&#45;matrix&#45;operations&#45;no&#45;iostream</text>
</a>
</g>
</g>
<!-- dir_fe1531a1f425d772ad3e06a88988779f&#45;&gt;dir_68267d1309a1af8e8297ef4c3efbcdba -->
<g id="edge1" class="edge">
<title>dir_fe1531a1f425d772ad3e06a88988779f&#45;&gt;dir_68267d1309a1af8e8297ef4c3efbcdba</title>
<path fill="none" stroke="black" d="M145.74,-71.7C157.44,-62.8 171.86,-51.82 184.51,-42.2"/>
<polygon fill="black" stroke="black" points="186.68,-44.94 192.52,-36.1 182.44,-39.37 186.68,-44.94"/>
<g id="a_edge1&#45;headlabel"><a xlink:href="dir_000004_000000.html" target="_top" xlink:title="3">
<text text-anchor="middle" x="185.54" y="-46.88" font-family="Helvetica,sans-Serif" font-size="10.00">3</text>
</a>
</g>
</g>
</g>
</svg>
