<?xml version="1.0" encoding="UTF-8" standalone="no"?>
<!DOCTYPE svg PUBLIC "-//W3C//DTD SVG 1.1//EN"
 "http://www.w3.org/Graphics/SVG/1.1/DTD/svg11.dtd">
<!-- Generated by graphviz version 2.43.0 (0)
 -->
<!-- Title: examples Pages: 1 -->
<svg width="268pt" height="132pt"
 viewBox="0.00 0.00 268.00 132.00" xmlns="http://www.w3.org/2000/svg" xmlns:xlink="http://www.w3.org/1999/xlink">
<g id="graph0" class="graph" transform="scale(1 1) rotate(0) translate(4 128)">
<title>examples</title>
<polygon fill="white" stroke="transparent" points="-4,4 -4,-128 264,-128 264,4 -4,4"/>
<g id="clust1" class="cluster">
<title>clusterdir_d28a4824dc47e487b107a5db32ef43c4</title>
<g id="a_clust1"><a xlink:href="dir_d28a4824dc47e487b107a5db32ef43c4.html" target="_top">
<polygon fill="#eeeeff" stroke="black" points="8,-64 8,-116 252,-116 252,-64 8,-64"/>
</a>
</g>
</g>
<!-- dir_d28a4824dc47e487b107a5db32ef43c4 -->
<g id="node1" class="node">
<title>dir_d28a4824dc47e487b107a5db32ef43c4</title>
<text text-anchor="middle" x="211" y="-87.5" font-family="Helvetica,sans-Serif" font-size="10.00">examples</text>
</g>
<!-- dir_566e3080b9de3b93d5667d10c656a736 -->
<g id="node2" class="node">
<title>dir_566e3080b9de3b93d5667d10c656a736</title>
<g id="a_node2"><a xlink:href="dir_566e3080b9de3b93d5667d10c656a736.html" target="_top" xlink:title="Arduino">
<polygon fill="white" stroke="red" points="160,-108 106,-108 106,-72 160,-72 160,-108"/>
<text text-anchor="middle" x="133" y="-87.5" font-family="Helvetica,sans-Serif" font-size="10.00">Arduino</text>
</a>
</g>
</g>
<!-- dir_68267d1309a1af8e8297ef4c3efbcdba -->
<g id="node4" class="node">
<title>dir_68267d1309a1af8e8297ef4c3efbcdba</title>
<g id="a_node4"><a xlink:href="dir_68267d1309a1af8e8297ef4c3efbcdba.html" target="_top" xlink:title="src">
<polygon fill="white" stroke="red" points="119,-36 65,-36 65,0 119,0 119,-36"/>
<text text-anchor="middle" x="92" y="-15.5" font-family="Helvetica,sans-Serif" font-size="10.00">src</text>
</a>
</g>
</g>
<!-- dir_566e3080b9de3b93d5667d10c656a736&#45;&gt;dir_68267d1309a1af8e8297ef4c3efbcdba -->
<g id="edge2" class="edge">
<title>dir_566e3080b9de3b93d5667d10c656a736&#45;&gt;dir_68267d1309a1af8e8297ef4c3efbcdba</title>
<path fill="none" stroke="black" d="M122.87,-71.7C118.15,-63.64 112.44,-53.89 107.22,-44.98"/>
<polygon fill="black" stroke="black" points="110.09,-42.96 102.02,-36.1 104.05,-46.5 110.09,-42.96"/>
<g id="a_edge2&#45;headlabel"><a xlink:href="dir_000003_000000.html" target="_top" xlink:title="4">
<text text-anchor="middle" x="114.36" y="-42.13" font-family="Helvetica,sans-Serif" font-size="10.00">4</text>
</a>
</g>
</g>
<!-- dir_ae3ee58244b6b1ca28d50b88c5a0b765 -->
<g id="node3" class="node">
<title>dir_ae3ee58244b6b1ca28d50b88c5a0b765</title>
<g id="a_node3"><a xlink:href="dir_ae3ee58244b6b1ca28d50b88c5a0b765.html" target="_top" xlink:title="QR&#45;perftest">
<polygon fill="white" stroke="black" points="88,-108 16,-108 16,-72 88,-72 88,-108"/>
<text text-anchor="middle" x="52" y="-87.5" font-family="Helvetica,sans-Serif" font-size="10.00">QR&#45;perftest</text>
</a>
</g>
</g>
<!-- dir_ae3ee58244b6b1ca28d50b88c5a0b765&#45;&gt;dir_68267d1309a1af8e8297ef4c3efbcdba -->
<g id="edge1" class="edge">
<title>dir_ae3ee58244b6b1ca28d50b88c5a0b765&#45;&gt;dir_68267d1309a1af8e8297ef4c3efbcdba</title>
<path fill="none" stroke="black" d="M61.89,-71.7C66.49,-63.64 72.06,-53.89 77.15,-44.98"/>
<polygon fill="black" stroke="black" points="80.3,-46.52 82.23,-36.1 74.23,-43.05 80.3,-46.52"/>
<g id="a_edge1&#45;headlabel"><a xlink:href="dir_000006_000000.html" target="_top" xlink:title="1">
<text text-anchor="middle" x="80.99" y="-48.55" font-family="Helvetica,sans-Serif" font-size="10.00">1</text>
</a>
</g>
</g>
</g>
</svg>
