<?xml version="1.0" encoding="UTF-8" standalone="no"?>
<!DOCTYPE svg PUBLIC "-//W3C//DTD SVG 1.1//EN"
 "http://www.w3.org/Graphics/SVG/1.1/DTD/svg11.dtd">
<!-- Generated by graphviz version 2.43.0 (0)
 -->
<!-- Title: Graphical Class Hierarchy Pages: 1 -->
<svg width="257pt" height="66pt"
 viewBox="0.00 0.00 257.00 66.00" xmlns="http://www.w3.org/2000/svg" xmlns:xlink="http://www.w3.org/1999/xlink">
<g id="graph0" class="graph" transform="scale(1 1) rotate(0) translate(4 62)">
<title>Graphical Class Hierarchy</title>
<polygon fill="white" stroke="transparent" points="-4,4 -4,-62 253,-62 253,4 -4,4"/>
<!-- Node3 -->
<g id="node1" class="node">
<title>Node3</title>
<g id="a_node1"><a xlink:href="d6/da1/classVector.html" target="_top" xlink:title="A column vector (n×1 matrix).">
<polygon fill="white" stroke="black" points="0,-19.5 0,-38.5 47,-38.5 47,-19.5 0,-19.5"/>
<text text-anchor="middle" x="23.5" y="-26.5" font-family="Helvetica,sans-Serif" font-size="10.00">Vector</text>
</a>
</g>
</g>
<!-- Node0 -->
<g id="node2" class="node">
<title>Node0</title>
<g id="a_node2"><a xlink:href="d3/d3f/classMatrix.html" target="_top" xlink:title="General matrix class.">
<polygon fill="white" stroke="black" points="83,-19.5 83,-38.5 131,-38.5 131,-19.5 83,-19.5"/>
<text text-anchor="middle" x="107" y="-26.5" font-family="Helvetica,sans-Serif" font-size="10.00">Matrix</text>
</a>
</g>
</g>
<!-- Node3&#45;&gt;Node0 -->
<g id="edge1" class="edge">
<title>Node3&#45;&gt;Node0</title>
<path fill="none" stroke="midnightblue" d="M57.3,-22.37C65.86,-22.11 74.91,-22.27 82.85,-22.84"/>
<polygon fill="midnightblue" stroke="midnightblue" points="57.01,-18.88 47.2,-22.88 57.37,-25.87 57.01,-18.88"/>
</g>
<!-- Node0&#45;&gt;Node3 -->
<g id="edge4" class="edge">
<title>Node0&#45;&gt;Node3</title>
<path fill="none" stroke="midnightblue" d="M72.72,-35.65C64.14,-35.88 55.1,-35.71 47.2,-35.12"/>
<polygon fill="midnightblue" stroke="midnightblue" points="73.03,-39.14 82.85,-35.16 72.7,-32.15 73.03,-39.14"/>
</g>
<!-- Node1 -->
<g id="node3" class="node">
<title>Node1</title>
<g id="a_node3"><a xlink:href="d2/d78/classRowVector.html" target="_top" xlink:title="A row vector (1×n matrix).">
<polygon fill="white" stroke="black" points="174,-38.5 174,-57.5 242,-57.5 242,-38.5 174,-38.5"/>
<text text-anchor="middle" x="208" y="-45.5" font-family="Helvetica,sans-Serif" font-size="10.00">RowVector</text>
</a>
</g>
</g>
<!-- Node0&#45;&gt;Node1 -->
<g id="edge2" class="edge">
<title>Node0&#45;&gt;Node1</title>
<path fill="none" stroke="midnightblue" d="M141.25,-35.38C151.74,-37.4 163.33,-39.62 173.81,-41.63"/>
<polygon fill="midnightblue" stroke="midnightblue" points="141.69,-31.9 131.21,-33.45 140.37,-38.78 141.69,-31.9"/>
</g>
<!-- Node2 -->
<g id="node4" class="node">
<title>Node2</title>
<g id="a_node4"><a xlink:href="d3/d61/classSquareMatrix.html" target="_top" xlink:title="Square matrix class.">
<polygon fill="white" stroke="black" points="167,-0.5 167,-19.5 249,-19.5 249,-0.5 167,-0.5"/>
<text text-anchor="middle" x="208" y="-7.5" font-family="Helvetica,sans-Serif" font-size="10.00">SquareMatrix</text>
</a>
</g>
</g>
<!-- Node0&#45;&gt;Node2 -->
<g id="edge3" class="edge">
<title>Node0&#45;&gt;Node2</title>
<path fill="none" stroke="midnightblue" d="M141.2,-22.63C149.44,-21.05 158.35,-19.34 166.88,-17.7"/>
<polygon fill="midnightblue" stroke="midnightblue" points="140.37,-19.22 131.21,-24.55 141.69,-26.1 140.37,-19.22"/>
</g>
</g>
</svg>
