<?xml version="1.0" encoding="UTF-8" standalone="no"?>
<!DOCTYPE svg PUBLIC "-//W3C//DTD SVG 1.1//EN"
 "http://www.w3.org/Graphics/SVG/1.1/DTD/svg11.dtd">
<!-- Generated by graphviz version 2.43.0 (0)
 -->
<!-- Title: RowPivotLU.ipp Pages: 1 -->
<svg width="982pt" height="364pt"
 viewBox="0.00 0.00 982.00 364.00" xmlns="http://www.w3.org/2000/svg" xmlns:xlink="http://www.w3.org/1999/xlink">
<g id="graph0" class="graph" transform="scale(1 1) rotate(0) translate(4 360)">
<title>RowPivotLU.ipp</title>
<polygon fill="white" stroke="transparent" points="-4,4 -4,-360 978,-360 978,4 -4,4"/>
<!-- Node1 -->
<g id="node1" class="node">
<title>Node1</title>
<g id="a_node1"><a xlink:title=" ">
<polygon fill="#bfbfbf" stroke="black" points="793.5,-336.5 793.5,-355.5 886.5,-355.5 886.5,-336.5 793.5,-336.5"/>
<text text-anchor="middle" x="840" y="-343.5" font-family="Helvetica,sans-Serif" font-size="10.00">RowPivotLU.ipp</text>
</a>
</g>
</g>
<!-- Node2 -->
<g id="node2" class="node">
<title>Node2</title>
<g id="a_node2"><a xlink:href="../../d3/d5d/RowPivotLU_8hpp.html" target="_top" xlink:title=" ">
<polygon fill="white" stroke="black" points="528,-280.5 528,-299.5 692,-299.5 692,-280.5 528,-280.5"/>
<text text-anchor="middle" x="610" y="-287.5" font-family="Helvetica,sans-Serif" font-size="10.00">include/linalg/RowPivotLU.hpp</text>
</a>
</g>
</g>
<!-- Node1&#45;&gt;Node2 -->
<g id="edge1" class="edge">
<title>Node1&#45;&gt;Node2</title>
<path fill="none" stroke="midnightblue" d="M803.56,-336.44C763.6,-327.06 699.41,-311.99 656.02,-301.8"/>
<polygon fill="midnightblue" stroke="midnightblue" points="656.81,-298.39 646.27,-299.52 655.21,-305.21 656.81,-298.39"/>
</g>
<!-- Node8 -->
<g id="node8" class="node">
<title>Node8</title>
<g id="a_node8"><a xlink:title=" ">
<polygon fill="white" stroke="#bfbfbf" points="853,-112.5 853,-131.5 905,-131.5 905,-112.5 853,-112.5"/>
<text text-anchor="middle" x="879" y="-119.5" font-family="Helvetica,sans-Serif" font-size="10.00">cassert</text>
</a>
</g>
</g>
<!-- Node1&#45;&gt;Node8 -->
<g id="edge19" class="edge">
<title>Node1&#45;&gt;Node8</title>
<path fill="none" stroke="midnightblue" d="M837.17,-336.16C833.52,-323.65 828,-300.06 831,-280 838.73,-228.26 860.05,-170 871.5,-141.17"/>
<polygon fill="midnightblue" stroke="midnightblue" points="874.85,-142.22 875.36,-131.64 868.36,-139.6 874.85,-142.22"/>
</g>
<!-- Node18 -->
<g id="node18" class="node">
<title>Node18</title>
<g id="a_node18"><a xlink:title=" ">
<polygon fill="white" stroke="#bfbfbf" points="840,-280.5 840,-299.5 896,-299.5 896,-280.5 840,-280.5"/>
<text text-anchor="middle" x="868" y="-287.5" font-family="Helvetica,sans-Serif" font-size="10.00">iomanip</text>
</a>
</g>
</g>
<!-- Node1&#45;&gt;Node18 -->
<g id="edge20" class="edge">
<title>Node1&#45;&gt;Node18</title>
<path fill="none" stroke="midnightblue" d="M844.62,-336.08C848.46,-328.69 854.02,-317.95 858.76,-308.81"/>
<polygon fill="midnightblue" stroke="midnightblue" points="861.97,-310.24 863.46,-299.75 855.75,-307.02 861.97,-310.24"/>
</g>
<!-- Node19 -->
<g id="node19" class="node">
<title>Node19</title>
<g id="a_node19"><a xlink:title=" ">
<polygon fill="white" stroke="#bfbfbf" points="914,-280.5 914,-299.5 974,-299.5 974,-280.5 914,-280.5"/>
<text text-anchor="middle" x="944" y="-287.5" font-family="Helvetica,sans-Serif" font-size="10.00">iostream</text>
</a>
</g>
</g>
<!-- Node1&#45;&gt;Node19 -->
<g id="edge21" class="edge">
<title>Node1&#45;&gt;Node19</title>
<path fill="none" stroke="midnightblue" d="M856.71,-336.32C873.31,-327.7 899,-314.36 918.22,-304.39"/>
<polygon fill="midnightblue" stroke="midnightblue" points="920.07,-307.37 927.33,-299.65 916.84,-301.16 920.07,-307.37"/>
</g>
<!-- Node3 -->
<g id="node3" class="node">
<title>Node3</title>
<g id="a_node3"><a xlink:href="../../d9/d1c/Matrix_8hpp.html" target="_top" xlink:title=" ">
<polygon fill="white" stroke="black" points="482.5,-168.5 482.5,-187.5 551.5,-187.5 551.5,-168.5 482.5,-168.5"/>
<text text-anchor="middle" x="517" y="-175.5" font-family="Helvetica,sans-Serif" font-size="10.00">Matrix.hpp</text>
</a>
</g>
</g>
<!-- Node2&#45;&gt;Node3 -->
<g id="edge2" class="edge">
<title>Node2&#45;&gt;Node3</title>
<path fill="none" stroke="midnightblue" d="M609.25,-280.11C607.71,-266.68 603.15,-241 590,-224 579.24,-210.09 562.87,-199.44 548.35,-191.99"/>
<polygon fill="midnightblue" stroke="midnightblue" points="549.69,-188.75 539.16,-187.57 546.65,-195.06 549.69,-188.75"/>
</g>
<!-- Node17 -->
<g id="node17" class="node">
<title>Node17</title>
<g id="a_node17"><a xlink:href="../../df/d3f/PermutationMatrix_8hpp.html" target="_top" xlink:title=" ">
<polygon fill="white" stroke="black" points="452.5,-224.5 452.5,-243.5 581.5,-243.5 581.5,-224.5 452.5,-224.5"/>
<text text-anchor="middle" x="517" y="-231.5" font-family="Helvetica,sans-Serif" font-size="10.00">PermutationMatrix.hpp</text>
</a>
</g>
</g>
<!-- Node2&#45;&gt;Node17 -->
<g id="edge17" class="edge">
<title>Node2&#45;&gt;Node17</title>
<path fill="none" stroke="midnightblue" d="M595.06,-280.32C580.41,-271.82 557.87,-258.73 540.76,-248.8"/>
<polygon fill="midnightblue" stroke="midnightblue" points="542.31,-245.65 531.9,-243.65 538.8,-251.7 542.31,-245.65"/>
</g>
<!-- Node4 -->
<g id="node4" class="node">
<title>Node4</title>
<g id="a_node4"><a xlink:href="../../d9/dd5/ArduinoConfig_8hpp.html" target="_top" xlink:title="Preprocessor logic for configuring the library to make it compatible with the Arduino environment.">
<polygon fill="white" stroke="black" points="0,-112.5 0,-131.5 146,-131.5 146,-112.5 0,-112.5"/>
<text text-anchor="middle" x="73" y="-119.5" font-family="Helvetica,sans-Serif" font-size="10.00">Arduino/ArduinoConfig.hpp</text>
</a>
</g>
</g>
<!-- Node3&#45;&gt;Node4 -->
<g id="edge3" class="edge">
<title>Node3&#45;&gt;Node4</title>
<path fill="none" stroke="midnightblue" d="M482.16,-172.76C411.77,-164.2 251.01,-144.65 153.27,-132.76"/>
<polygon fill="midnightblue" stroke="midnightblue" points="153.48,-129.26 143.13,-131.53 152.64,-136.21 153.48,-129.26"/>
</g>
<!-- Node7 -->
<g id="node7" class="node">
<title>Node7</title>
<g id="a_node7"><a xlink:title=" ">
<polygon fill="white" stroke="#bfbfbf" points="164,-112.5 164,-131.5 228,-131.5 228,-112.5 164,-112.5"/>
<text text-anchor="middle" x="196" y="-119.5" font-family="Helvetica,sans-Serif" font-size="10.00">algorithm</text>
</a>
</g>
</g>
<!-- Node3&#45;&gt;Node7 -->
<g id="edge6" class="edge">
<title>Node3&#45;&gt;Node7</title>
<path fill="none" stroke="midnightblue" d="M482.41,-172.09C431.23,-164.67 332.11,-149.79 238.15,-132.13"/>
<polygon fill="midnightblue" stroke="midnightblue" points="238.67,-128.67 228.19,-130.25 237.37,-135.55 238.67,-128.67"/>
</g>
<!-- Node3&#45;&gt;Node8 -->
<g id="edge7" class="edge">
<title>Node3&#45;&gt;Node8</title>
<path fill="none" stroke="midnightblue" d="M551.58,-173.56C609.73,-167.5 730.92,-153.64 842.62,-132.08"/>
<polygon fill="midnightblue" stroke="midnightblue" points="843.56,-135.46 852.7,-130.11 842.21,-128.59 843.56,-135.46"/>
</g>
<!-- Node9 -->
<g id="node9" class="node">
<title>Node9</title>
<g id="a_node9"><a xlink:title=" ">
<polygon fill="white" stroke="#bfbfbf" points="246.5,-112.5 246.5,-131.5 293.5,-131.5 293.5,-112.5 246.5,-112.5"/>
<text text-anchor="middle" x="270" y="-119.5" font-family="Helvetica,sans-Serif" font-size="10.00">cmath</text>
</a>
</g>
</g>
<!-- Node3&#45;&gt;Node9 -->
<g id="edge8" class="edge">
<title>Node3&#45;&gt;Node9</title>
<path fill="none" stroke="midnightblue" d="M482.21,-170.47C441.55,-162.68 372.06,-148.85 303.78,-132.32"/>
<polygon fill="midnightblue" stroke="midnightblue" points="304.26,-128.84 293.72,-129.86 302.6,-135.64 304.26,-128.84"/>
</g>
<!-- Node10 -->
<g id="node10" class="node">
<title>Node10</title>
<g id="a_node10"><a xlink:title=" ">
<polygon fill="white" stroke="#bfbfbf" points="311.5,-112.5 311.5,-131.5 376.5,-131.5 376.5,-112.5 311.5,-112.5"/>
<text text-anchor="middle" x="344" y="-119.5" font-family="Helvetica,sans-Serif" font-size="10.00">functional</text>
</a>
</g>
</g>
<!-- Node3&#45;&gt;Node10 -->
<g id="edge9" class="edge">
<title>Node3&#45;&gt;Node10</title>
<path fill="none" stroke="midnightblue" d="M489.59,-168.44C460.23,-159.28 413.48,-144.69 380.9,-134.52"/>
<polygon fill="midnightblue" stroke="midnightblue" points="381.87,-131.16 371.28,-131.52 379.79,-137.84 381.87,-131.16"/>
</g>
<!-- Node11 -->
<g id="node11" class="node">
<title>Node11</title>
<g id="a_node11"><a xlink:title=" ">
<polygon fill="white" stroke="#bfbfbf" points="395,-112.5 395,-131.5 451,-131.5 451,-112.5 395,-112.5"/>
<text text-anchor="middle" x="423" y="-119.5" font-family="Helvetica,sans-Serif" font-size="10.00">numeric</text>
</a>
</g>
</g>
<!-- Node3&#45;&gt;Node11 -->
<g id="edge10" class="edge">
<title>Node3&#45;&gt;Node11</title>
<path fill="none" stroke="midnightblue" d="M501.9,-168.32C487.1,-159.82 464.31,-146.73 447.02,-136.8"/>
<polygon fill="midnightblue" stroke="midnightblue" points="448.48,-133.6 438.07,-131.65 444.99,-139.67 448.48,-133.6"/>
</g>
<!-- Node12 -->
<g id="node12" class="node">
<title>Node12</title>
<g id="a_node12"><a xlink:title=" ">
<polygon fill="white" stroke="#bfbfbf" points="469.5,-112.5 469.5,-131.5 514.5,-131.5 514.5,-112.5 469.5,-112.5"/>
<text text-anchor="middle" x="492" y="-119.5" font-family="Helvetica,sans-Serif" font-size="10.00">utility</text>
</a>
</g>
</g>
<!-- Node3&#45;&gt;Node12 -->
<g id="edge11" class="edge">
<title>Node3&#45;&gt;Node12</title>
<path fill="none" stroke="midnightblue" d="M512.87,-168.08C509.49,-160.77 504.58,-150.18 500.38,-141.1"/>
<polygon fill="midnightblue" stroke="midnightblue" points="503.43,-139.36 496.05,-131.75 497.08,-142.3 503.43,-139.36"/>
</g>
<!-- Node13 -->
<g id="node13" class="node">
<title>Node13</title>
<g id="a_node13"><a xlink:title=" ">
<polygon fill="white" stroke="#bfbfbf" points="633.5,-56.5 633.5,-75.5 680.5,-75.5 680.5,-56.5 633.5,-56.5"/>
<text text-anchor="middle" x="657" y="-63.5" font-family="Helvetica,sans-Serif" font-size="10.00">vector</text>
</a>
</g>
</g>
<!-- Node3&#45;&gt;Node13 -->
<g id="edge12" class="edge">
<title>Node3&#45;&gt;Node13</title>
<path fill="none" stroke="midnightblue" d="M521.11,-168.35C527.92,-154.77 542.75,-128.34 562,-112 580.09,-96.64 604.31,-85.28 623.77,-77.81"/>
<polygon fill="midnightblue" stroke="midnightblue" points="624.99,-81.09 633.17,-74.36 622.58,-74.52 624.99,-81.09"/>
</g>
<!-- Node14 -->
<g id="node14" class="node">
<title>Node14</title>
<g id="a_node14"><a xlink:title=" ">
<polygon fill="white" stroke="#bfbfbf" points="571,-112.5 571,-131.5 619,-131.5 619,-112.5 571,-112.5"/>
<text text-anchor="middle" x="595" y="-119.5" font-family="Helvetica,sans-Serif" font-size="10.00">iosfwd</text>
</a>
</g>
</g>
<!-- Node3&#45;&gt;Node14 -->
<g id="edge13" class="edge">
<title>Node3&#45;&gt;Node14</title>
<path fill="none" stroke="midnightblue" d="M529.53,-168.32C541.59,-159.98 560.03,-147.21 574.27,-137.35"/>
<polygon fill="midnightblue" stroke="midnightblue" points="576.27,-140.22 582.5,-131.65 572.28,-134.47 576.27,-140.22"/>
</g>
<!-- Node15 -->
<g id="node15" class="node">
<title>Node15</title>
<g id="a_node15"><a xlink:title=" ">
<polygon fill="white" stroke="#bfbfbf" points="637,-112.5 637,-131.5 691,-131.5 691,-112.5 637,-112.5"/>
<text text-anchor="middle" x="664" y="-119.5" font-family="Helvetica,sans-Serif" font-size="10.00">random</text>
</a>
</g>
</g>
<!-- Node3&#45;&gt;Node15 -->
<g id="edge14" class="edge">
<title>Node3&#45;&gt;Node15</title>
<path fill="none" stroke="midnightblue" d="M540.29,-168.44C564.81,-159.44 603.6,-145.19 631.2,-135.05"/>
<polygon fill="midnightblue" stroke="midnightblue" points="632.64,-138.25 640.82,-131.52 630.22,-131.68 632.64,-138.25"/>
</g>
<!-- Node16 -->
<g id="node16" class="node">
<title>Node16</title>
<g id="a_node16"><a xlink:href="../../df/daa/MatrixStorage_8hpp.html" target="_top" xlink:title=" ">
<polygon fill="white" stroke="black" points="709.5,-112.5 709.5,-131.5 834.5,-131.5 834.5,-112.5 709.5,-112.5"/>
<text text-anchor="middle" x="772" y="-119.5" font-family="Helvetica,sans-Serif" font-size="10.00">util/MatrixStorage.hpp</text>
</a>
</g>
</g>
<!-- Node3&#45;&gt;Node16 -->
<g id="edge15" class="edge">
<title>Node3&#45;&gt;Node16</title>
<path fill="none" stroke="midnightblue" d="M551.66,-169.66C595.48,-160.38 671.27,-144.33 721.52,-133.69"/>
<polygon fill="midnightblue" stroke="midnightblue" points="722.47,-137.07 731.53,-131.57 721.02,-130.22 722.47,-137.07"/>
</g>
<!-- Node5 -->
<g id="node5" class="node">
<title>Node5</title>
<g id="a_node5"><a xlink:href="../../df/d96/ArduinoMacroFix_8hpp.html" target="_top" xlink:title="Fixes for problematic macros defined by the Arduino Core.">
<polygon fill="white" stroke="black" points="13.5,-56.5 13.5,-75.5 132.5,-75.5 132.5,-56.5 13.5,-56.5"/>
<text text-anchor="middle" x="73" y="-63.5" font-family="Helvetica,sans-Serif" font-size="10.00">ArduinoMacroFix.hpp</text>
</a>
</g>
</g>
<!-- Node4&#45;&gt;Node5 -->
<g id="edge4" class="edge">
<title>Node4&#45;&gt;Node5</title>
<path fill="none" stroke="midnightblue" d="M73,-112.08C73,-105.01 73,-94.86 73,-85.99"/>
<polygon fill="midnightblue" stroke="midnightblue" points="76.5,-85.75 73,-75.75 69.5,-85.75 76.5,-85.75"/>
</g>
<!-- Node6 -->
<g id="node6" class="node">
<title>Node6</title>
<g id="a_node6"><a xlink:title=" ">
<polygon fill="white" stroke="#bfbfbf" points="41.5,-0.5 41.5,-19.5 104.5,-19.5 104.5,-0.5 41.5,-0.5"/>
<text text-anchor="middle" x="73" y="-7.5" font-family="Helvetica,sans-Serif" font-size="10.00">Arduino.h</text>
</a>
</g>
</g>
<!-- Node5&#45;&gt;Node6 -->
<g id="edge5" class="edge">
<title>Node5&#45;&gt;Node6</title>
<path fill="none" stroke="midnightblue" d="M73,-56.08C73,-49.01 73,-38.86 73,-29.99"/>
<polygon fill="midnightblue" stroke="midnightblue" points="76.5,-29.75 73,-19.75 69.5,-29.75 76.5,-29.75"/>
</g>
<!-- Node16&#45;&gt;Node13 -->
<g id="edge16" class="edge">
<title>Node16&#45;&gt;Node13</title>
<path fill="none" stroke="midnightblue" d="M753.78,-112.44C735.1,-103.68 705.84,-89.94 684.38,-79.86"/>
<polygon fill="midnightblue" stroke="midnightblue" points="685.68,-76.6 675.14,-75.52 682.7,-82.93 685.68,-76.6"/>
</g>
<!-- Node17&#45;&gt;Node3 -->
<g id="edge18" class="edge">
<title>Node17&#45;&gt;Node3</title>
<path fill="none" stroke="midnightblue" d="M517,-224.08C517,-217.01 517,-206.86 517,-197.99"/>
<polygon fill="midnightblue" stroke="midnightblue" points="520.5,-197.75 517,-187.75 513.5,-197.75 520.5,-197.75"/>
</g>
</g>
</svg>
