<?xml version="1.0" encoding="UTF-8" standalone="no"?>
<!DOCTYPE svg PUBLIC "-//W3C//DTD SVG 1.1//EN"
 "http://www.w3.org/Graphics/SVG/1.1/DTD/svg11.dtd">
<!-- Generated by graphviz version 2.43.0 (0)
 -->
<!-- Title: RowPivotLU.cpp Pages: 1 -->
<svg width="749pt" height="364pt"
 viewBox="0.00 0.00 748.50 364.00" xmlns="http://www.w3.org/2000/svg" xmlns:xlink="http://www.w3.org/1999/xlink">
<g id="graph0" class="graph" transform="scale(1 1) rotate(0) translate(4 360)">
<title>RowPivotLU.cpp</title>
<polygon fill="white" stroke="transparent" points="-4,4 -4,-360 744.5,-360 744.5,4 -4,4"/>
<!-- Node1 -->
<g id="node1" class="node">
<title>Node1</title>
<g id="a_node1"><a xlink:title=" ">
<polygon fill="#bfbfbf" stroke="black" points="96.5,-336.5 96.5,-355.5 191.5,-355.5 191.5,-336.5 96.5,-336.5"/>
<text text-anchor="middle" x="144" y="-343.5" font-family="Helvetica,sans-Serif" font-size="10.00">RowPivotLU.cpp</text>
</a>
</g>
</g>
<!-- Node2 -->
<g id="node2" class="node">
<title>Node2</title>
<g id="a_node2"><a xlink:href="../../d3/d5d/RowPivotLU_8hpp.html" target="_top" xlink:title=" ">
<polygon fill="white" stroke="black" points="225,-224.5 225,-243.5 351,-243.5 351,-224.5 225,-224.5"/>
<text text-anchor="middle" x="288" y="-231.5" font-family="Helvetica,sans-Serif" font-size="10.00">linalg/RowPivotLU.hpp</text>
</a>
</g>
</g>
<!-- Node1&#45;&gt;Node2 -->
<g id="edge1" class="edge">
<title>Node1&#45;&gt;Node2</title>
<path fill="none" stroke="midnightblue" d="M163.85,-336.45C181.37,-328.4 207.14,-315.32 227,-300 245.47,-285.75 263.34,-265.75 274.91,-251.71"/>
<polygon fill="midnightblue" stroke="midnightblue" points="277.7,-253.82 281.25,-243.84 272.25,-249.43 277.7,-253.82"/>
</g>
<!-- Node5 -->
<g id="node5" class="node">
<title>Node5</title>
<g id="a_node5"><a xlink:title=" ">
<polygon fill="white" stroke="#bfbfbf" points="0,-56.5 0,-75.5 52,-75.5 52,-56.5 0,-56.5"/>
<text text-anchor="middle" x="26" y="-63.5" font-family="Helvetica,sans-Serif" font-size="10.00">cassert</text>
</a>
</g>
</g>
<!-- Node1&#45;&gt;Node5 -->
<g id="edge16" class="edge">
<title>Node1&#45;&gt;Node5</title>
<path fill="none" stroke="midnightblue" d="M115.61,-336.42C75.49,-322.34 7,-290.21 7,-235 7,-235 7,-235 7,-177 7,-144.49 15.16,-107.35 20.78,-85.61"/>
<polygon fill="midnightblue" stroke="midnightblue" points="24.22,-86.32 23.44,-75.75 17.46,-84.5 24.22,-86.32"/>
</g>
<!-- Node15 -->
<g id="node15" class="node">
<title>Node15</title>
<g id="a_node15"><a xlink:href="../../d5/d9e/RowPivotLU_8ipp.html" target="_top" xlink:title=" ">
<polygon fill="white" stroke="black" points="69.5,-280.5 69.5,-299.5 218.5,-299.5 218.5,-280.5 69.5,-280.5"/>
<text text-anchor="middle" x="144" y="-287.5" font-family="Helvetica,sans-Serif" font-size="10.00">boilerplate/RowPivotLU.ipp</text>
</a>
</g>
</g>
<!-- Node1&#45;&gt;Node15 -->
<g id="edge17" class="edge">
<title>Node1&#45;&gt;Node15</title>
<path fill="none" stroke="midnightblue" d="M144,-336.08C144,-329.01 144,-318.86 144,-309.99"/>
<polygon fill="midnightblue" stroke="midnightblue" points="147.5,-309.75 144,-299.75 140.5,-309.75 147.5,-309.75"/>
</g>
<!-- Node3 -->
<g id="node3" class="node">
<title>Node3</title>
<g id="a_node3"><a xlink:href="../../d9/d1c/Matrix_8hpp.html" target="_top" xlink:title=" ">
<polygon fill="white" stroke="black" points="304.5,-112.5 304.5,-131.5 373.5,-131.5 373.5,-112.5 304.5,-112.5"/>
<text text-anchor="middle" x="339" y="-119.5" font-family="Helvetica,sans-Serif" font-size="10.00">Matrix.hpp</text>
</a>
</g>
</g>
<!-- Node2&#45;&gt;Node3 -->
<g id="edge2" class="edge">
<title>Node2&#45;&gt;Node3</title>
<path fill="none" stroke="midnightblue" d="M286.78,-224.1C285.41,-211.1 284.39,-186.46 293,-168 298.55,-156.1 308.71,-145.64 318.07,-137.8"/>
<polygon fill="midnightblue" stroke="midnightblue" points="320.24,-140.55 325.95,-131.63 315.92,-135.04 320.24,-140.55"/>
</g>
<!-- Node14 -->
<g id="node14" class="node">
<title>Node14</title>
<g id="a_node14"><a xlink:href="../../df/d3f/PermutationMatrix_8hpp.html" target="_top" xlink:title=" ">
<polygon fill="white" stroke="black" points="302.5,-168.5 302.5,-187.5 431.5,-187.5 431.5,-168.5 302.5,-168.5"/>
<text text-anchor="middle" x="367" y="-175.5" font-family="Helvetica,sans-Serif" font-size="10.00">PermutationMatrix.hpp</text>
</a>
</g>
</g>
<!-- Node2&#45;&gt;Node14 -->
<g id="edge14" class="edge">
<title>Node2&#45;&gt;Node14</title>
<path fill="none" stroke="midnightblue" d="M300.69,-224.32C312.9,-215.98 331.58,-203.21 346,-193.35"/>
<polygon fill="midnightblue" stroke="midnightblue" points="348.06,-196.19 354.34,-187.65 344.11,-190.41 348.06,-196.19"/>
</g>
<!-- Node4 -->
<g id="node4" class="node">
<title>Node4</title>
<g id="a_node4"><a xlink:title=" ">
<polygon fill="white" stroke="#bfbfbf" points="70,-56.5 70,-75.5 134,-75.5 134,-56.5 70,-56.5"/>
<text text-anchor="middle" x="102" y="-63.5" font-family="Helvetica,sans-Serif" font-size="10.00">algorithm</text>
</a>
</g>
</g>
<!-- Node3&#45;&gt;Node4 -->
<g id="edge3" class="edge">
<title>Node3&#45;&gt;Node4</title>
<path fill="none" stroke="midnightblue" d="M304.28,-113.09C261.73,-103.39 189.67,-86.97 144.02,-76.58"/>
<polygon fill="midnightblue" stroke="midnightblue" points="144.67,-73.13 134.15,-74.32 143.12,-79.96 144.67,-73.13"/>
</g>
<!-- Node3&#45;&gt;Node5 -->
<g id="edge4" class="edge">
<title>Node3&#45;&gt;Node5</title>
<path fill="none" stroke="midnightblue" d="M304.14,-116.4C253.1,-109.43 154.87,-95.18 62.14,-76.09"/>
<polygon fill="midnightblue" stroke="midnightblue" points="62.82,-72.65 52.31,-74.04 61.39,-79.51 62.82,-72.65"/>
</g>
<!-- Node6 -->
<g id="node6" class="node">
<title>Node6</title>
<g id="a_node6"><a xlink:title=" ">
<polygon fill="white" stroke="#bfbfbf" points="152.5,-56.5 152.5,-75.5 199.5,-75.5 199.5,-56.5 152.5,-56.5"/>
<text text-anchor="middle" x="176" y="-63.5" font-family="Helvetica,sans-Serif" font-size="10.00">cmath</text>
</a>
</g>
</g>
<!-- Node3&#45;&gt;Node6 -->
<g id="edge5" class="edge">
<title>Node3&#45;&gt;Node6</title>
<path fill="none" stroke="midnightblue" d="M313.17,-112.44C285.11,-103.15 240.17,-88.26 209.43,-78.07"/>
<polygon fill="midnightblue" stroke="midnightblue" points="210.18,-74.64 199.59,-74.82 207.98,-81.28 210.18,-74.64"/>
</g>
<!-- Node7 -->
<g id="node7" class="node">
<title>Node7</title>
<g id="a_node7"><a xlink:title=" ">
<polygon fill="white" stroke="#bfbfbf" points="217.5,-56.5 217.5,-75.5 282.5,-75.5 282.5,-56.5 217.5,-56.5"/>
<text text-anchor="middle" x="250" y="-63.5" font-family="Helvetica,sans-Serif" font-size="10.00">functional</text>
</a>
</g>
</g>
<!-- Node3&#45;&gt;Node7 -->
<g id="edge6" class="edge">
<title>Node3&#45;&gt;Node7</title>
<path fill="none" stroke="midnightblue" d="M324.7,-112.32C310.82,-103.9 289.51,-90.97 273.2,-81.07"/>
<polygon fill="midnightblue" stroke="midnightblue" points="274.63,-77.85 264.26,-75.65 271,-83.83 274.63,-77.85"/>
</g>
<!-- Node8 -->
<g id="node8" class="node">
<title>Node8</title>
<g id="a_node8"><a xlink:title=" ">
<polygon fill="white" stroke="#bfbfbf" points="301,-56.5 301,-75.5 349,-75.5 349,-56.5 301,-56.5"/>
<text text-anchor="middle" x="325" y="-63.5" font-family="Helvetica,sans-Serif" font-size="10.00">iosfwd</text>
</a>
</g>
</g>
<!-- Node3&#45;&gt;Node8 -->
<g id="edge7" class="edge">
<title>Node3&#45;&gt;Node8</title>
<path fill="none" stroke="midnightblue" d="M336.69,-112.08C334.83,-104.93 332.16,-94.64 329.85,-85.69"/>
<polygon fill="midnightblue" stroke="midnightblue" points="333.17,-84.55 327.27,-75.75 326.39,-86.31 333.17,-84.55"/>
</g>
<!-- Node9 -->
<g id="node9" class="node">
<title>Node9</title>
<g id="a_node9"><a xlink:title=" ">
<polygon fill="white" stroke="#bfbfbf" points="367,-56.5 367,-75.5 423,-75.5 423,-56.5 367,-56.5"/>
<text text-anchor="middle" x="395" y="-63.5" font-family="Helvetica,sans-Serif" font-size="10.00">numeric</text>
</a>
</g>
</g>
<!-- Node3&#45;&gt;Node9 -->
<g id="edge8" class="edge">
<title>Node3&#45;&gt;Node9</title>
<path fill="none" stroke="midnightblue" d="M348,-112.32C356.19,-104.42 368.51,-92.55 378.47,-82.94"/>
<polygon fill="midnightblue" stroke="midnightblue" points="381.07,-85.29 385.84,-75.83 376.21,-80.26 381.07,-85.29"/>
</g>
<!-- Node10 -->
<g id="node10" class="node">
<title>Node10</title>
<g id="a_node10"><a xlink:title=" ">
<polygon fill="white" stroke="#bfbfbf" points="441,-56.5 441,-75.5 495,-75.5 495,-56.5 441,-56.5"/>
<text text-anchor="middle" x="468" y="-63.5" font-family="Helvetica,sans-Serif" font-size="10.00">random</text>
</a>
</g>
</g>
<!-- Node3&#45;&gt;Node10 -->
<g id="edge9" class="edge">
<title>Node3&#45;&gt;Node10</title>
<path fill="none" stroke="midnightblue" d="M359.44,-112.44C380.67,-103.56 414.1,-89.56 438.25,-79.45"/>
<polygon fill="midnightblue" stroke="midnightblue" points="439.78,-82.61 447.66,-75.52 437.08,-76.15 439.78,-82.61"/>
</g>
<!-- Node11 -->
<g id="node11" class="node">
<title>Node11</title>
<g id="a_node11"><a xlink:title=" ">
<polygon fill="white" stroke="#bfbfbf" points="513.5,-56.5 513.5,-75.5 558.5,-75.5 558.5,-56.5 513.5,-56.5"/>
<text text-anchor="middle" x="536" y="-63.5" font-family="Helvetica,sans-Serif" font-size="10.00">utility</text>
</a>
</g>
</g>
<!-- Node3&#45;&gt;Node11 -->
<g id="edge10" class="edge">
<title>Node3&#45;&gt;Node11</title>
<path fill="none" stroke="midnightblue" d="M370.65,-112.45C401.94,-103.98 451.41,-90.53 503.52,-76.12"/>
<polygon fill="midnightblue" stroke="midnightblue" points="504.58,-79.46 513.28,-73.41 502.71,-72.71 504.58,-79.46"/>
</g>
<!-- Node12 -->
<g id="node12" class="node">
<title>Node12</title>
<g id="a_node12"><a xlink:title=" ">
<polygon fill="white" stroke="#bfbfbf" points="608.5,-0.5 608.5,-19.5 655.5,-19.5 655.5,-0.5 608.5,-0.5"/>
<text text-anchor="middle" x="632" y="-7.5" font-family="Helvetica,sans-Serif" font-size="10.00">vector</text>
</a>
</g>
</g>
<!-- Node3&#45;&gt;Node12 -->
<g id="edge11" class="edge">
<title>Node3&#45;&gt;Node12</title>
<path fill="none" stroke="midnightblue" d="M373.53,-120.36C420.08,-118.16 504.35,-109.43 567,-76 588.89,-64.32 608.17,-42.85 619.93,-27.79"/>
<polygon fill="midnightblue" stroke="midnightblue" points="622.74,-29.88 625.95,-19.79 617.14,-25.68 622.74,-29.88"/>
</g>
<!-- Node13 -->
<g id="node13" class="node">
<title>Node13</title>
<g id="a_node13"><a xlink:href="../../df/daa/MatrixStorage_8hpp.html" target="_top" xlink:title=" ">
<polygon fill="white" stroke="black" points="615.5,-56.5 615.5,-75.5 740.5,-75.5 740.5,-56.5 615.5,-56.5"/>
<text text-anchor="middle" x="678" y="-63.5" font-family="Helvetica,sans-Serif" font-size="10.00">util/MatrixStorage.hpp</text>
</a>
</g>
</g>
<!-- Node3&#45;&gt;Node13 -->
<g id="edge12" class="edge">
<title>Node3&#45;&gt;Node13</title>
<path fill="none" stroke="midnightblue" d="M373.69,-115.47C430.22,-106.47 543.07,-88.49 614.32,-77.14"/>
<polygon fill="midnightblue" stroke="midnightblue" points="615.2,-80.55 624.52,-75.52 614.1,-73.64 615.2,-80.55"/>
</g>
<!-- Node13&#45;&gt;Node12 -->
<g id="edge13" class="edge">
<title>Node13&#45;&gt;Node12</title>
<path fill="none" stroke="midnightblue" d="M670.4,-56.08C663.77,-48.3 653.98,-36.8 645.94,-27.37"/>
<polygon fill="midnightblue" stroke="midnightblue" points="648.6,-25.09 639.45,-19.75 643.27,-29.63 648.6,-25.09"/>
</g>
<!-- Node14&#45;&gt;Node3 -->
<g id="edge15" class="edge">
<title>Node14&#45;&gt;Node3</title>
<path fill="none" stroke="midnightblue" d="M362.38,-168.08C358.54,-160.69 352.98,-149.95 348.24,-140.81"/>
<polygon fill="midnightblue" stroke="midnightblue" points="351.25,-139.02 343.54,-131.75 345.03,-142.24 351.25,-139.02"/>
</g>
<!-- Node15&#45;&gt;Node2 -->
<g id="edge18" class="edge">
<title>Node15&#45;&gt;Node2</title>
<path fill="none" stroke="midnightblue" d="M166.82,-280.44C190.83,-271.44 228.83,-257.19 255.87,-247.05"/>
<polygon fill="midnightblue" stroke="midnightblue" points="257.16,-250.3 265.29,-243.52 254.7,-243.75 257.16,-250.3"/>
</g>
<!-- Node15&#45;&gt;Node5 -->
<g id="edge19" class="edge">
<title>Node15&#45;&gt;Node5</title>
<path fill="none" stroke="midnightblue" d="M116.99,-280.42C99.27,-273.4 77.04,-261.7 64,-244 28.33,-195.58 24.75,-120.64 25.22,-85.89"/>
<polygon fill="midnightblue" stroke="midnightblue" points="28.72,-85.83 25.5,-75.74 21.73,-85.64 28.72,-85.83"/>
</g>
<!-- Node16 -->
<g id="node16" class="node">
<title>Node16</title>
<g id="a_node16"><a xlink:title=" ">
<polygon fill="white" stroke="#bfbfbf" points="151,-224.5 151,-243.5 207,-243.5 207,-224.5 151,-224.5"/>
<text text-anchor="middle" x="179" y="-231.5" font-family="Helvetica,sans-Serif" font-size="10.00">iomanip</text>
</a>
</g>
</g>
<!-- Node15&#45;&gt;Node16 -->
<g id="edge20" class="edge">
<title>Node15&#45;&gt;Node16</title>
<path fill="none" stroke="midnightblue" d="M149.78,-280.08C154.67,-272.53 161.83,-261.49 167.83,-252.23"/>
<polygon fill="midnightblue" stroke="midnightblue" points="170.83,-254.05 173.33,-243.75 164.95,-250.24 170.83,-254.05"/>
</g>
<!-- Node17 -->
<g id="node17" class="node">
<title>Node17</title>
<g id="a_node17"><a xlink:title=" ">
<polygon fill="white" stroke="#bfbfbf" points="73,-224.5 73,-243.5 133,-243.5 133,-224.5 73,-224.5"/>
<text text-anchor="middle" x="103" y="-231.5" font-family="Helvetica,sans-Serif" font-size="10.00">iostream</text>
</a>
</g>
</g>
<!-- Node15&#45;&gt;Node17 -->
<g id="edge21" class="edge">
<title>Node15&#45;&gt;Node17</title>
<path fill="none" stroke="midnightblue" d="M137.23,-280.08C131.44,-272.46 122.94,-261.26 115.86,-251.94"/>
<polygon fill="midnightblue" stroke="midnightblue" points="118.48,-249.6 109.64,-243.75 112.9,-253.83 118.48,-249.6"/>
</g>
</g>
</svg>
