<?xml version="1.0" encoding="UTF-8" standalone="no"?>
<!DOCTYPE svg PUBLIC "-//W3C//DTD SVG 1.1//EN"
 "http://www.w3.org/Graphics/SVG/1.1/DTD/svg11.dtd">
<!-- Generated by graphviz version 2.43.0 (0)
 -->
<!-- Title: QR&#45;PerfTest.cpp Pages: 1 -->
<svg width="749pt" height="252pt"
 viewBox="0.00 0.00 748.50 252.00" xmlns="http://www.w3.org/2000/svg" xmlns:xlink="http://www.w3.org/1999/xlink">
<g id="graph0" class="graph" transform="scale(1 1) rotate(0) translate(4 248)">
<title>QR&#45;PerfTest.cpp</title>
<polygon fill="white" stroke="transparent" points="-4,4 -4,-248 744.5,-248 744.5,4 -4,4"/>
<!-- Node1 -->
<g id="node1" class="node">
<title>Node1</title>
<g id="a_node1"><a xlink:title=" ">
<polygon fill="#bfbfbf" stroke="black" points="193,-224.5 193,-243.5 287,-243.5 287,-224.5 193,-224.5"/>
<text text-anchor="middle" x="240" y="-231.5" font-family="Helvetica,sans-Serif" font-size="10.00">QR&#45;PerfTest.cpp</text>
</a>
</g>
</g>
<!-- Node2 -->
<g id="node2" class="node">
<title>Node2</title>
<g id="a_node2"><a xlink:title=" ">
<polygon fill="white" stroke="#bfbfbf" points="68,-168.5 68,-187.5 118,-187.5 118,-168.5 68,-168.5"/>
<text text-anchor="middle" x="93" y="-175.5" font-family="Helvetica,sans-Serif" font-size="10.00">chrono</text>
</a>
</g>
</g>
<!-- Node1&#45;&gt;Node2 -->
<g id="edge1" class="edge">
<title>Node1&#45;&gt;Node2</title>
<path fill="none" stroke="midnightblue" d="M216.71,-224.44C192.19,-215.44 153.4,-201.19 125.8,-191.05"/>
<polygon fill="midnightblue" stroke="midnightblue" points="126.78,-187.68 116.18,-187.52 124.36,-194.25 126.78,-187.68"/>
</g>
<!-- Node3 -->
<g id="node3" class="node">
<title>Node3</title>
<g id="a_node3"><a xlink:title=" ">
<polygon fill="white" stroke="#bfbfbf" points="136,-168.5 136,-187.5 192,-187.5 192,-168.5 136,-168.5"/>
<text text-anchor="middle" x="164" y="-175.5" font-family="Helvetica,sans-Serif" font-size="10.00">iomanip</text>
</a>
</g>
</g>
<!-- Node1&#45;&gt;Node3 -->
<g id="edge2" class="edge">
<title>Node1&#45;&gt;Node3</title>
<path fill="none" stroke="midnightblue" d="M227.79,-224.32C216.22,-216.11 198.62,-203.6 184.84,-193.81"/>
<polygon fill="midnightblue" stroke="midnightblue" points="186.61,-190.77 176.43,-187.83 182.56,-196.48 186.61,-190.77"/>
</g>
<!-- Node4 -->
<g id="node4" class="node">
<title>Node4</title>
<g id="a_node4"><a xlink:title=" ">
<polygon fill="white" stroke="#bfbfbf" points="210,-168.5 210,-187.5 270,-187.5 270,-168.5 210,-168.5"/>
<text text-anchor="middle" x="240" y="-175.5" font-family="Helvetica,sans-Serif" font-size="10.00">iostream</text>
</a>
</g>
</g>
<!-- Node1&#45;&gt;Node4 -->
<g id="edge3" class="edge">
<title>Node1&#45;&gt;Node4</title>
<path fill="none" stroke="midnightblue" d="M240,-224.08C240,-217.01 240,-206.86 240,-197.99"/>
<polygon fill="midnightblue" stroke="midnightblue" points="243.5,-197.75 240,-187.75 236.5,-197.75 243.5,-197.75"/>
</g>
<!-- Node5 -->
<g id="node5" class="node">
<title>Node5</title>
<g id="a_node5"><a xlink:href="../../d9/d52/HouseholderQR_8hpp.html" target="_top" xlink:title=" ">
<polygon fill="white" stroke="black" points="288.5,-168.5 288.5,-187.5 431.5,-187.5 431.5,-168.5 288.5,-168.5"/>
<text text-anchor="middle" x="360" y="-175.5" font-family="Helvetica,sans-Serif" font-size="10.00">linalg/HouseholderQR.hpp</text>
</a>
</g>
</g>
<!-- Node1&#45;&gt;Node5 -->
<g id="edge4" class="edge">
<title>Node1&#45;&gt;Node5</title>
<path fill="none" stroke="midnightblue" d="M259.01,-224.44C278.59,-215.64 309.31,-201.81 331.73,-191.72"/>
<polygon fill="midnightblue" stroke="midnightblue" points="333.39,-194.81 341.07,-187.52 330.52,-188.43 333.39,-194.81"/>
</g>
<!-- Node17 -->
<g id="node17" class="node">
<title>Node17</title>
<g id="a_node17"><a xlink:title=" ">
<polygon fill="white" stroke="#bfbfbf" points="449.5,-168.5 449.5,-187.5 510.5,-187.5 510.5,-168.5 449.5,-168.5"/>
<text text-anchor="middle" x="480" y="-175.5" font-family="Helvetica,sans-Serif" font-size="10.00">Eigen/QR</text>
</a>
</g>
</g>
<!-- Node1&#45;&gt;Node17 -->
<g id="edge17" class="edge">
<title>Node1&#45;&gt;Node17</title>
<path fill="none" stroke="midnightblue" d="M278.55,-224.45C316.97,-215.91 377.92,-202.31 439.47,-188.34"/>
<polygon fill="midnightblue" stroke="midnightblue" points="440.37,-191.72 449.35,-186.09 438.82,-184.9 440.37,-191.72"/>
</g>
<!-- Node6 -->
<g id="node6" class="node">
<title>Node6</title>
<g id="a_node6"><a xlink:href="../../d9/d1c/Matrix_8hpp.html" target="_top" xlink:title=" ">
<polygon fill="white" stroke="black" points="325.5,-112.5 325.5,-131.5 394.5,-131.5 394.5,-112.5 325.5,-112.5"/>
<text text-anchor="middle" x="360" y="-119.5" font-family="Helvetica,sans-Serif" font-size="10.00">Matrix.hpp</text>
</a>
</g>
</g>
<!-- Node5&#45;&gt;Node6 -->
<g id="edge5" class="edge">
<title>Node5&#45;&gt;Node6</title>
<path fill="none" stroke="midnightblue" d="M360,-168.08C360,-161.01 360,-150.86 360,-141.99"/>
<polygon fill="midnightblue" stroke="midnightblue" points="363.5,-141.75 360,-131.75 356.5,-141.75 363.5,-141.75"/>
</g>
<!-- Node7 -->
<g id="node7" class="node">
<title>Node7</title>
<g id="a_node7"><a xlink:title=" ">
<polygon fill="white" stroke="#bfbfbf" points="0,-56.5 0,-75.5 64,-75.5 64,-56.5 0,-56.5"/>
<text text-anchor="middle" x="32" y="-63.5" font-family="Helvetica,sans-Serif" font-size="10.00">algorithm</text>
</a>
</g>
</g>
<!-- Node6&#45;&gt;Node7 -->
<g id="edge6" class="edge">
<title>Node6&#45;&gt;Node7</title>
<path fill="none" stroke="midnightblue" d="M325.43,-116.27C273.18,-108.97 170.8,-94.08 74.13,-76.12"/>
<polygon fill="midnightblue" stroke="midnightblue" points="74.66,-72.66 64.19,-74.26 73.38,-79.54 74.66,-72.66"/>
</g>
<!-- Node8 -->
<g id="node8" class="node">
<title>Node8</title>
<g id="a_node8"><a xlink:title=" ">
<polygon fill="white" stroke="#bfbfbf" points="82,-56.5 82,-75.5 134,-75.5 134,-56.5 82,-56.5"/>
<text text-anchor="middle" x="108" y="-63.5" font-family="Helvetica,sans-Serif" font-size="10.00">cassert</text>
</a>
</g>
</g>
<!-- Node6&#45;&gt;Node8 -->
<g id="edge7" class="edge">
<title>Node6&#45;&gt;Node8</title>
<path fill="none" stroke="midnightblue" d="M325.49,-114.25C284.69,-106.17 214.51,-91.97 144.23,-75.98"/>
<polygon fill="midnightblue" stroke="midnightblue" points="144.85,-72.53 134.32,-73.71 143.28,-79.35 144.85,-72.53"/>
</g>
<!-- Node9 -->
<g id="node9" class="node">
<title>Node9</title>
<g id="a_node9"><a xlink:title=" ">
<polygon fill="white" stroke="#bfbfbf" points="152.5,-56.5 152.5,-75.5 199.5,-75.5 199.5,-56.5 152.5,-56.5"/>
<text text-anchor="middle" x="176" y="-63.5" font-family="Helvetica,sans-Serif" font-size="10.00">cmath</text>
</a>
</g>
</g>
<!-- Node6&#45;&gt;Node9 -->
<g id="edge8" class="edge">
<title>Node6&#45;&gt;Node9</title>
<path fill="none" stroke="midnightblue" d="M330.84,-112.44C297.83,-102.75 244.12,-86.99 209.43,-76.81"/>
<polygon fill="midnightblue" stroke="midnightblue" points="210.33,-73.43 199.75,-73.97 208.36,-80.15 210.33,-73.43"/>
</g>
<!-- Node10 -->
<g id="node10" class="node">
<title>Node10</title>
<g id="a_node10"><a xlink:title=" ">
<polygon fill="white" stroke="#bfbfbf" points="217.5,-56.5 217.5,-75.5 282.5,-75.5 282.5,-56.5 217.5,-56.5"/>
<text text-anchor="middle" x="250" y="-63.5" font-family="Helvetica,sans-Serif" font-size="10.00">functional</text>
</a>
</g>
</g>
<!-- Node6&#45;&gt;Node10 -->
<g id="edge9" class="edge">
<title>Node6&#45;&gt;Node10</title>
<path fill="none" stroke="midnightblue" d="M342.33,-112.32C324.61,-103.62 297.1,-90.12 276.71,-80.11"/>
<polygon fill="midnightblue" stroke="midnightblue" points="278.15,-76.92 267.63,-75.65 275.06,-83.2 278.15,-76.92"/>
</g>
<!-- Node11 -->
<g id="node11" class="node">
<title>Node11</title>
<g id="a_node11"><a xlink:title=" ">
<polygon fill="white" stroke="#bfbfbf" points="301,-56.5 301,-75.5 349,-75.5 349,-56.5 301,-56.5"/>
<text text-anchor="middle" x="325" y="-63.5" font-family="Helvetica,sans-Serif" font-size="10.00">iosfwd</text>
</a>
</g>
</g>
<!-- Node6&#45;&gt;Node11 -->
<g id="edge10" class="edge">
<title>Node6&#45;&gt;Node11</title>
<path fill="none" stroke="midnightblue" d="M354.22,-112.08C349.33,-104.53 342.17,-93.49 336.17,-84.23"/>
<polygon fill="midnightblue" stroke="midnightblue" points="339.05,-82.24 330.67,-75.75 333.17,-86.05 339.05,-82.24"/>
</g>
<!-- Node12 -->
<g id="node12" class="node">
<title>Node12</title>
<g id="a_node12"><a xlink:title=" ">
<polygon fill="white" stroke="#bfbfbf" points="367,-56.5 367,-75.5 423,-75.5 423,-56.5 367,-56.5"/>
<text text-anchor="middle" x="395" y="-63.5" font-family="Helvetica,sans-Serif" font-size="10.00">numeric</text>
</a>
</g>
</g>
<!-- Node6&#45;&gt;Node12 -->
<g id="edge11" class="edge">
<title>Node6&#45;&gt;Node12</title>
<path fill="none" stroke="midnightblue" d="M365.78,-112.08C370.67,-104.53 377.83,-93.49 383.83,-84.23"/>
<polygon fill="midnightblue" stroke="midnightblue" points="386.83,-86.05 389.33,-75.75 380.95,-82.24 386.83,-86.05"/>
</g>
<!-- Node13 -->
<g id="node13" class="node">
<title>Node13</title>
<g id="a_node13"><a xlink:title=" ">
<polygon fill="white" stroke="#bfbfbf" points="441,-56.5 441,-75.5 495,-75.5 495,-56.5 441,-56.5"/>
<text text-anchor="middle" x="468" y="-63.5" font-family="Helvetica,sans-Serif" font-size="10.00">random</text>
</a>
</g>
</g>
<!-- Node6&#45;&gt;Node13 -->
<g id="edge12" class="edge">
<title>Node6&#45;&gt;Node13</title>
<path fill="none" stroke="midnightblue" d="M377.35,-112.32C394.67,-103.66 421.52,-90.24 441.5,-80.25"/>
<polygon fill="midnightblue" stroke="midnightblue" points="443.31,-83.26 450.69,-75.65 440.18,-77 443.31,-83.26"/>
</g>
<!-- Node14 -->
<g id="node14" class="node">
<title>Node14</title>
<g id="a_node14"><a xlink:title=" ">
<polygon fill="white" stroke="#bfbfbf" points="513.5,-56.5 513.5,-75.5 558.5,-75.5 558.5,-56.5 513.5,-56.5"/>
<text text-anchor="middle" x="536" y="-63.5" font-family="Helvetica,sans-Serif" font-size="10.00">utility</text>
</a>
</g>
</g>
<!-- Node6&#45;&gt;Node14 -->
<g id="edge13" class="edge">
<title>Node6&#45;&gt;Node14</title>
<path fill="none" stroke="midnightblue" d="M387.89,-112.44C419.33,-102.79 470.4,-87.13 503.59,-76.94"/>
<polygon fill="midnightblue" stroke="midnightblue" points="504.75,-80.25 513.28,-73.97 502.69,-73.56 504.75,-80.25"/>
</g>
<!-- Node15 -->
<g id="node15" class="node">
<title>Node15</title>
<g id="a_node15"><a xlink:title=" ">
<polygon fill="white" stroke="#bfbfbf" points="608.5,-0.5 608.5,-19.5 655.5,-19.5 655.5,-0.5 608.5,-0.5"/>
<text text-anchor="middle" x="632" y="-7.5" font-family="Helvetica,sans-Serif" font-size="10.00">vector</text>
</a>
</g>
</g>
<!-- Node6&#45;&gt;Node15 -->
<g id="edge14" class="edge">
<title>Node6&#45;&gt;Node15</title>
<path fill="none" stroke="midnightblue" d="M394.5,-119.54C437.57,-116.42 512.33,-106.64 568,-76 589.37,-64.24 608.19,-43.1 619.8,-28.12"/>
<polygon fill="midnightblue" stroke="midnightblue" points="622.88,-29.85 626.05,-19.74 617.27,-25.66 622.88,-29.85"/>
</g>
<!-- Node16 -->
<g id="node16" class="node">
<title>Node16</title>
<g id="a_node16"><a xlink:href="../../df/daa/MatrixStorage_8hpp.html" target="_top" xlink:title=" ">
<polygon fill="white" stroke="black" points="615.5,-56.5 615.5,-75.5 740.5,-75.5 740.5,-56.5 615.5,-56.5"/>
<text text-anchor="middle" x="678" y="-63.5" font-family="Helvetica,sans-Serif" font-size="10.00">util/MatrixStorage.hpp</text>
</a>
</g>
</g>
<!-- Node6&#45;&gt;Node16 -->
<g id="edge15" class="edge">
<title>Node6&#45;&gt;Node16</title>
<path fill="none" stroke="midnightblue" d="M394.64,-115.12C448.12,-106.04 551.5,-88.48 617.51,-77.27"/>
<polygon fill="midnightblue" stroke="midnightblue" points="618.5,-80.65 627.77,-75.53 617.32,-73.75 618.5,-80.65"/>
</g>
<!-- Node16&#45;&gt;Node15 -->
<g id="edge16" class="edge">
<title>Node16&#45;&gt;Node15</title>
<path fill="none" stroke="midnightblue" d="M670.4,-56.08C663.77,-48.3 653.98,-36.8 645.94,-27.37"/>
<polygon fill="midnightblue" stroke="midnightblue" points="648.6,-25.09 639.45,-19.75 643.27,-29.63 648.6,-25.09"/>
</g>
</g>
</svg>
