<?xml version="1.0" encoding="UTF-8" standalone="no"?>
<!DOCTYPE svg PUBLIC "-//W3C//DTD SVG 1.1//EN"
 "http://www.w3.org/Graphics/SVG/1.1/DTD/svg11.dtd">
<!-- Generated by graphviz version 2.43.0 (0)
 -->
<!-- Title: Matrix.cpp Pages: 1 -->
<svg width="803pt" height="252pt"
 viewBox="0.00 0.00 803.00 252.00" xmlns="http://www.w3.org/2000/svg" xmlns:xlink="http://www.w3.org/1999/xlink">
<g id="graph0" class="graph" transform="scale(1 1) rotate(0) translate(4 248)">
<title>Matrix.cpp</title>
<polygon fill="white" stroke="transparent" points="-4,4 -4,-248 799,-248 799,4 -4,4"/>
<!-- Node1 -->
<g id="node1" class="node">
<title>Node1</title>
<g id="a_node1"><a xlink:title=" ">
<polygon fill="#bfbfbf" stroke="black" points="507,-224.5 507,-243.5 575,-243.5 575,-224.5 507,-224.5"/>
<text text-anchor="middle" x="541" y="-231.5" font-family="Helvetica,sans-Serif" font-size="10.00">Matrix.cpp</text>
</a>
</g>
</g>
<!-- Node2 -->
<g id="node2" class="node">
<title>Node2</title>
<g id="a_node2"><a xlink:href="../../d9/d1c/Matrix_8hpp.html" target="_top" xlink:title=" ">
<polygon fill="white" stroke="black" points="425.5,-168.5 425.5,-187.5 494.5,-187.5 494.5,-168.5 425.5,-168.5"/>
<text text-anchor="middle" x="460" y="-175.5" font-family="Helvetica,sans-Serif" font-size="10.00">Matrix.hpp</text>
</a>
</g>
</g>
<!-- Node1&#45;&gt;Node2 -->
<g id="edge1" class="edge">
<title>Node1&#45;&gt;Node2</title>
<path fill="none" stroke="midnightblue" d="M527.99,-224.32C515.47,-215.98 496.32,-203.21 481.53,-193.35"/>
<polygon fill="midnightblue" stroke="midnightblue" points="483.24,-190.29 472.98,-187.65 479.36,-196.11 483.24,-190.29"/>
</g>
<!-- Node15 -->
<g id="node15" class="node">
<title>Node15</title>
<g id="a_node15"><a xlink:title=" ">
<polygon fill="white" stroke="#bfbfbf" points="513,-168.5 513,-187.5 569,-187.5 569,-168.5 513,-168.5"/>
<text text-anchor="middle" x="541" y="-175.5" font-family="Helvetica,sans-Serif" font-size="10.00">iomanip</text>
</a>
</g>
</g>
<!-- Node1&#45;&gt;Node15 -->
<g id="edge14" class="edge">
<title>Node1&#45;&gt;Node15</title>
<path fill="none" stroke="midnightblue" d="M541,-224.08C541,-217.01 541,-206.86 541,-197.99"/>
<polygon fill="midnightblue" stroke="midnightblue" points="544.5,-197.75 541,-187.75 537.5,-197.75 544.5,-197.75"/>
</g>
<!-- Node16 -->
<g id="node16" class="node">
<title>Node16</title>
<g id="a_node16"><a xlink:title=" ">
<polygon fill="white" stroke="#bfbfbf" points="587,-168.5 587,-187.5 647,-187.5 647,-168.5 587,-168.5"/>
<text text-anchor="middle" x="617" y="-175.5" font-family="Helvetica,sans-Serif" font-size="10.00">iostream</text>
</a>
</g>
</g>
<!-- Node1&#45;&gt;Node16 -->
<g id="edge15" class="edge">
<title>Node1&#45;&gt;Node16</title>
<path fill="none" stroke="midnightblue" d="M553.21,-224.32C564.78,-216.11 582.38,-203.6 596.16,-193.81"/>
<polygon fill="midnightblue" stroke="midnightblue" points="598.44,-196.48 604.57,-187.83 594.39,-190.77 598.44,-196.48"/>
</g>
<!-- Node3 -->
<g id="node3" class="node">
<title>Node3</title>
<g id="a_node3"><a xlink:href="../../d9/dd5/ArduinoConfig_8hpp.html" target="_top" xlink:title="Preprocessor logic for configuring the library to make it compatible with the Arduino environment.">
<polygon fill="white" stroke="black" points="7,-112.5 7,-131.5 153,-131.5 153,-112.5 7,-112.5"/>
<text text-anchor="middle" x="80" y="-119.5" font-family="Helvetica,sans-Serif" font-size="10.00">Arduino/ArduinoConfig.hpp</text>
</a>
</g>
</g>
<!-- Node2&#45;&gt;Node3 -->
<g id="edge2" class="edge">
<title>Node2&#45;&gt;Node3</title>
<path fill="none" stroke="midnightblue" d="M425.27,-172.06C363.07,-163.23 231.56,-144.54 150,-132.95"/>
<polygon fill="midnightblue" stroke="midnightblue" points="150.21,-129.44 139.82,-131.5 149.23,-136.37 150.21,-129.44"/>
</g>
<!-- Node6 -->
<g id="node6" class="node">
<title>Node6</title>
<g id="a_node6"><a xlink:title=" ">
<polygon fill="white" stroke="#bfbfbf" points="171,-112.5 171,-131.5 235,-131.5 235,-112.5 171,-112.5"/>
<text text-anchor="middle" x="203" y="-119.5" font-family="Helvetica,sans-Serif" font-size="10.00">algorithm</text>
</a>
</g>
</g>
<!-- Node2&#45;&gt;Node6 -->
<g id="edge5" class="edge">
<title>Node2&#45;&gt;Node6</title>
<path fill="none" stroke="midnightblue" d="M425.18,-169.87C384.39,-161.48 314.5,-147.03 245.02,-132.2"/>
<polygon fill="midnightblue" stroke="midnightblue" points="245.73,-128.78 235.22,-130.11 244.27,-135.62 245.73,-128.78"/>
</g>
<!-- Node7 -->
<g id="node7" class="node">
<title>Node7</title>
<g id="a_node7"><a xlink:title=" ">
<polygon fill="white" stroke="#bfbfbf" points="253,-112.5 253,-131.5 305,-131.5 305,-112.5 253,-112.5"/>
<text text-anchor="middle" x="279" y="-119.5" font-family="Helvetica,sans-Serif" font-size="10.00">cassert</text>
</a>
</g>
</g>
<!-- Node2&#45;&gt;Node7 -->
<g id="edge6" class="edge">
<title>Node2&#45;&gt;Node7</title>
<path fill="none" stroke="midnightblue" d="M431.32,-168.44C399.75,-159.02 348.95,-143.87 314.79,-133.68"/>
<polygon fill="midnightblue" stroke="midnightblue" points="315.78,-130.32 305.2,-130.82 313.78,-137.03 315.78,-130.32"/>
</g>
<!-- Node8 -->
<g id="node8" class="node">
<title>Node8</title>
<g id="a_node8"><a xlink:title=" ">
<polygon fill="white" stroke="#bfbfbf" points="323.5,-112.5 323.5,-131.5 370.5,-131.5 370.5,-112.5 323.5,-112.5"/>
<text text-anchor="middle" x="347" y="-119.5" font-family="Helvetica,sans-Serif" font-size="10.00">cmath</text>
</a>
</g>
</g>
<!-- Node2&#45;&gt;Node8 -->
<g id="edge7" class="edge">
<title>Node2&#45;&gt;Node8</title>
<path fill="none" stroke="midnightblue" d="M442.09,-168.44C423.75,-159.68 394.99,-145.94 373.91,-135.86"/>
<polygon fill="midnightblue" stroke="midnightblue" points="375.35,-132.67 364.82,-131.52 372.33,-138.99 375.35,-132.67"/>
</g>
<!-- Node9 -->
<g id="node9" class="node">
<title>Node9</title>
<g id="a_node9"><a xlink:title=" ">
<polygon fill="white" stroke="#bfbfbf" points="388.5,-112.5 388.5,-131.5 453.5,-131.5 453.5,-112.5 388.5,-112.5"/>
<text text-anchor="middle" x="421" y="-119.5" font-family="Helvetica,sans-Serif" font-size="10.00">functional</text>
</a>
</g>
</g>
<!-- Node2&#45;&gt;Node9 -->
<g id="edge8" class="edge">
<title>Node2&#45;&gt;Node9</title>
<path fill="none" stroke="midnightblue" d="M453.56,-168.08C448.05,-160.46 439.97,-149.26 433.24,-139.94"/>
<polygon fill="midnightblue" stroke="midnightblue" points="436.01,-137.81 427.32,-131.75 430.34,-141.91 436.01,-137.81"/>
</g>
<!-- Node10 -->
<g id="node10" class="node">
<title>Node10</title>
<g id="a_node10"><a xlink:title=" ">
<polygon fill="white" stroke="#bfbfbf" points="472,-112.5 472,-131.5 528,-131.5 528,-112.5 472,-112.5"/>
<text text-anchor="middle" x="500" y="-119.5" font-family="Helvetica,sans-Serif" font-size="10.00">numeric</text>
</a>
</g>
</g>
<!-- Node2&#45;&gt;Node10 -->
<g id="edge9" class="edge">
<title>Node2&#45;&gt;Node10</title>
<path fill="none" stroke="midnightblue" d="M466.61,-168.08C472.26,-160.46 480.54,-149.26 487.45,-139.94"/>
<polygon fill="midnightblue" stroke="midnightblue" points="490.38,-141.87 493.52,-131.75 484.75,-137.7 490.38,-141.87"/>
</g>
<!-- Node11 -->
<g id="node11" class="node">
<title>Node11</title>
<g id="a_node11"><a xlink:title=" ">
<polygon fill="white" stroke="#bfbfbf" points="546.5,-112.5 546.5,-131.5 591.5,-131.5 591.5,-112.5 546.5,-112.5"/>
<text text-anchor="middle" x="569" y="-119.5" font-family="Helvetica,sans-Serif" font-size="10.00">utility</text>
</a>
</g>
</g>
<!-- Node2&#45;&gt;Node11 -->
<g id="edge10" class="edge">
<title>Node2&#45;&gt;Node11</title>
<path fill="none" stroke="midnightblue" d="M477.51,-168.32C495.07,-159.62 522.33,-146.12 542.53,-136.11"/>
<polygon fill="midnightblue" stroke="midnightblue" points="544.12,-139.23 551.53,-131.65 541.02,-132.96 544.12,-139.23"/>
</g>
<!-- Node12 -->
<g id="node12" class="node">
<title>Node12</title>
<g id="a_node12"><a xlink:title=" ">
<polygon fill="white" stroke="#bfbfbf" points="609.5,-112.5 609.5,-131.5 656.5,-131.5 656.5,-112.5 609.5,-112.5"/>
<text text-anchor="middle" x="633" y="-119.5" font-family="Helvetica,sans-Serif" font-size="10.00">vector</text>
</a>
</g>
</g>
<!-- Node2&#45;&gt;Node12 -->
<g id="edge11" class="edge">
<title>Node2&#45;&gt;Node12</title>
<path fill="none" stroke="midnightblue" d="M487.41,-168.44C517.89,-158.93 567.12,-143.56 599.77,-133.37"/>
<polygon fill="midnightblue" stroke="midnightblue" points="600.83,-136.71 609.33,-130.39 598.74,-130.03 600.83,-136.71"/>
</g>
<!-- Node13 -->
<g id="node13" class="node">
<title>Node13</title>
<g id="a_node13"><a xlink:title=" ">
<polygon fill="white" stroke="#bfbfbf" points="675,-112.5 675,-131.5 723,-131.5 723,-112.5 675,-112.5"/>
<text text-anchor="middle" x="699" y="-119.5" font-family="Helvetica,sans-Serif" font-size="10.00">iosfwd</text>
</a>
</g>
</g>
<!-- Node2&#45;&gt;Node13 -->
<g id="edge12" class="edge">
<title>Node2&#45;&gt;Node13</title>
<path fill="none" stroke="midnightblue" d="M494.81,-169.62C540.96,-159.8 620.88,-142.67 665,-132.13"/>
<polygon fill="midnightblue" stroke="midnightblue" points="665.99,-135.49 674.89,-129.73 664.34,-128.69 665.99,-135.49"/>
</g>
<!-- Node14 -->
<g id="node14" class="node">
<title>Node14</title>
<g id="a_node14"><a xlink:title=" ">
<polygon fill="white" stroke="#bfbfbf" points="741,-112.5 741,-131.5 795,-131.5 795,-112.5 741,-112.5"/>
<text text-anchor="middle" x="768" y="-119.5" font-family="Helvetica,sans-Serif" font-size="10.00">random</text>
</a>
</g>
</g>
<!-- Node2&#45;&gt;Node14 -->
<g id="edge13" class="edge">
<title>Node2&#45;&gt;Node14</title>
<path fill="none" stroke="midnightblue" d="M494.56,-169.78C497.75,-169.16 500.93,-168.56 504,-168 601.79,-150.29 629.74,-152.31 730.91,-132.07"/>
<polygon fill="midnightblue" stroke="midnightblue" points="731.83,-135.45 740.93,-130.04 730.44,-128.59 731.83,-135.45"/>
</g>
<!-- Node4 -->
<g id="node4" class="node">
<title>Node4</title>
<g id="a_node4"><a xlink:href="../../df/d96/ArduinoMacroFix_8hpp.html" target="_top" xlink:title="Fixes for problematic macros defined by the Arduino Core.">
<polygon fill="white" stroke="black" points="0,-56.5 0,-75.5 160,-75.5 160,-56.5 0,-56.5"/>
<text text-anchor="middle" x="80" y="-63.5" font-family="Helvetica,sans-Serif" font-size="10.00">Arduino/ArduinoMacroFix.hpp</text>
</a>
</g>
</g>
<!-- Node3&#45;&gt;Node4 -->
<g id="edge3" class="edge">
<title>Node3&#45;&gt;Node4</title>
<path fill="none" stroke="midnightblue" d="M80,-112.08C80,-105.01 80,-94.86 80,-85.99"/>
<polygon fill="midnightblue" stroke="midnightblue" points="83.5,-85.75 80,-75.75 76.5,-85.75 83.5,-85.75"/>
</g>
<!-- Node5 -->
<g id="node5" class="node">
<title>Node5</title>
<g id="a_node5"><a xlink:title=" ">
<polygon fill="white" stroke="#bfbfbf" points="48.5,-0.5 48.5,-19.5 111.5,-19.5 111.5,-0.5 48.5,-0.5"/>
<text text-anchor="middle" x="80" y="-7.5" font-family="Helvetica,sans-Serif" font-size="10.00">Arduino.h</text>
</a>
</g>
</g>
<!-- Node4&#45;&gt;Node5 -->
<g id="edge4" class="edge">
<title>Node4&#45;&gt;Node5</title>
<path fill="none" stroke="midnightblue" d="M80,-56.08C80,-49.01 80,-38.86 80,-29.99"/>
<polygon fill="midnightblue" stroke="midnightblue" points="83.5,-29.75 80,-19.75 76.5,-29.75 83.5,-29.75"/>
</g>
</g>
</svg>
