<?xml version="1.0" encoding="UTF-8" standalone="no"?>
<!DOCTYPE svg PUBLIC "-//W3C//DTD SVG 1.1//EN"
 "http://www.w3.org/Graphics/SVG/1.1/DTD/svg11.dtd">
<!-- Generated by graphviz version 2.43.0 (0)
 -->
<!-- Title: HouseholderQR.ipp Pages: 1 -->
<svg width="749pt" height="252pt"
 viewBox="0.00 0.00 748.50 252.00" xmlns="http://www.w3.org/2000/svg" xmlns:xlink="http://www.w3.org/1999/xlink">
<g id="graph0" class="graph" transform="scale(1 1) rotate(0) translate(4 248)">
<title>HouseholderQR.ipp</title>
<polygon fill="white" stroke="transparent" points="-4,4 -4,-248 744.5,-248 744.5,4 -4,4"/>
<!-- Node1 -->
<g id="node1" class="node">
<title>Node1</title>
<g id="a_node1"><a xlink:title=" ">
<polygon fill="#bfbfbf" stroke="black" points="279,-224.5 279,-243.5 389,-243.5 389,-224.5 279,-224.5"/>
<text text-anchor="middle" x="334" y="-231.5" font-family="Helvetica,sans-Serif" font-size="10.00">HouseholderQR.ipp</text>
</a>
</g>
</g>
<!-- Node2 -->
<g id="node2" class="node">
<title>Node2</title>
<g id="a_node2"><a xlink:href="../../d9/d52/HouseholderQR_8hpp.html" target="_top" xlink:title=" ">
<polygon fill="white" stroke="black" points="203.5,-168.5 203.5,-187.5 346.5,-187.5 346.5,-168.5 203.5,-168.5"/>
<text text-anchor="middle" x="275" y="-175.5" font-family="Helvetica,sans-Serif" font-size="10.00">linalg/HouseholderQR.hpp</text>
</a>
</g>
</g>
<!-- Node1&#45;&gt;Node2 -->
<g id="edge1" class="edge">
<title>Node1&#45;&gt;Node2</title>
<path fill="none" stroke="midnightblue" d="M324.52,-224.32C315.8,-216.34 302.66,-204.31 292.1,-194.65"/>
<polygon fill="midnightblue" stroke="midnightblue" points="294.39,-192 284.65,-187.83 289.67,-197.17 294.39,-192"/>
</g>
<!-- Node5 -->
<g id="node5" class="node">
<title>Node5</title>
<g id="a_node5"><a xlink:title=" ">
<polygon fill="white" stroke="#bfbfbf" points="0,-56.5 0,-75.5 52,-75.5 52,-56.5 0,-56.5"/>
<text text-anchor="middle" x="26" y="-63.5" font-family="Helvetica,sans-Serif" font-size="10.00">cassert</text>
</a>
</g>
</g>
<!-- Node1&#45;&gt;Node5 -->
<g id="edge14" class="edge">
<title>Node1&#45;&gt;Node5</title>
<path fill="none" stroke="midnightblue" d="M297.38,-224.45C268.62,-216.97 228.06,-204.68 195,-188 134.89,-157.67 72.63,-107.28 43.28,-82.18"/>
<polygon fill="midnightblue" stroke="midnightblue" points="45.44,-79.42 35.59,-75.53 40.86,-84.71 45.44,-79.42"/>
</g>
<!-- Node14 -->
<g id="node14" class="node">
<title>Node14</title>
<g id="a_node14"><a xlink:title=" ">
<polygon fill="white" stroke="#bfbfbf" points="365,-168.5 365,-187.5 421,-187.5 421,-168.5 365,-168.5"/>
<text text-anchor="middle" x="393" y="-175.5" font-family="Helvetica,sans-Serif" font-size="10.00">iomanip</text>
</a>
</g>
</g>
<!-- Node1&#45;&gt;Node14 -->
<g id="edge15" class="edge">
<title>Node1&#45;&gt;Node14</title>
<path fill="none" stroke="midnightblue" d="M343.48,-224.32C352.2,-216.34 365.34,-204.31 375.9,-194.65"/>
<polygon fill="midnightblue" stroke="midnightblue" points="378.33,-197.17 383.35,-187.83 373.61,-192 378.33,-197.17"/>
</g>
<!-- Node15 -->
<g id="node15" class="node">
<title>Node15</title>
<g id="a_node15"><a xlink:title=" ">
<polygon fill="white" stroke="#bfbfbf" points="439,-168.5 439,-187.5 499,-187.5 499,-168.5 439,-168.5"/>
<text text-anchor="middle" x="469" y="-175.5" font-family="Helvetica,sans-Serif" font-size="10.00">iostream</text>
</a>
</g>
</g>
<!-- Node1&#45;&gt;Node15 -->
<g id="edge16" class="edge">
<title>Node1&#45;&gt;Node15</title>
<path fill="none" stroke="midnightblue" d="M355.39,-224.44C377.71,-215.52 412.9,-201.44 438.21,-191.32"/>
<polygon fill="midnightblue" stroke="midnightblue" points="439.72,-194.48 447.71,-187.52 437.12,-187.98 439.72,-194.48"/>
</g>
<!-- Node3 -->
<g id="node3" class="node">
<title>Node3</title>
<g id="a_node3"><a xlink:href="../../d9/d1c/Matrix_8hpp.html" target="_top" xlink:title=" ">
<polygon fill="white" stroke="black" points="290.5,-112.5 290.5,-131.5 359.5,-131.5 359.5,-112.5 290.5,-112.5"/>
<text text-anchor="middle" x="325" y="-119.5" font-family="Helvetica,sans-Serif" font-size="10.00">Matrix.hpp</text>
</a>
</g>
</g>
<!-- Node2&#45;&gt;Node3 -->
<g id="edge2" class="edge">
<title>Node2&#45;&gt;Node3</title>
<path fill="none" stroke="midnightblue" d="M283.26,-168.08C290.46,-160.3 301.11,-148.8 309.85,-139.37"/>
<polygon fill="midnightblue" stroke="midnightblue" points="312.67,-141.47 316.9,-131.75 307.53,-136.71 312.67,-141.47"/>
</g>
<!-- Node4 -->
<g id="node4" class="node">
<title>Node4</title>
<g id="a_node4"><a xlink:title=" ">
<polygon fill="white" stroke="#bfbfbf" points="70,-56.5 70,-75.5 134,-75.5 134,-56.5 70,-56.5"/>
<text text-anchor="middle" x="102" y="-63.5" font-family="Helvetica,sans-Serif" font-size="10.00">algorithm</text>
</a>
</g>
</g>
<!-- Node3&#45;&gt;Node4 -->
<g id="edge3" class="edge">
<title>Node3&#45;&gt;Node4</title>
<path fill="none" stroke="midnightblue" d="M290.16,-112.56C250.66,-103 186.3,-87.41 144.04,-77.18"/>
<polygon fill="midnightblue" stroke="midnightblue" points="144.61,-73.72 134.07,-74.77 142.96,-80.52 144.61,-73.72"/>
</g>
<!-- Node3&#45;&gt;Node5 -->
<g id="edge4" class="edge">
<title>Node3&#45;&gt;Node5</title>
<path fill="none" stroke="midnightblue" d="M290.23,-116.01C241.4,-108.8 149.57,-94.5 62.13,-76.1"/>
<polygon fill="midnightblue" stroke="midnightblue" points="62.83,-72.67 52.32,-74.02 61.37,-79.52 62.83,-72.67"/>
</g>
<!-- Node6 -->
<g id="node6" class="node">
<title>Node6</title>
<g id="a_node6"><a xlink:title=" ">
<polygon fill="white" stroke="#bfbfbf" points="152.5,-56.5 152.5,-75.5 199.5,-75.5 199.5,-56.5 152.5,-56.5"/>
<text text-anchor="middle" x="176" y="-63.5" font-family="Helvetica,sans-Serif" font-size="10.00">cmath</text>
</a>
</g>
</g>
<!-- Node3&#45;&gt;Node6 -->
<g id="edge5" class="edge">
<title>Node3&#45;&gt;Node6</title>
<path fill="none" stroke="midnightblue" d="M301.39,-112.44C276.54,-103.44 237.23,-89.19 209.25,-79.05"/>
<polygon fill="midnightblue" stroke="midnightblue" points="210.09,-75.63 199.5,-75.52 207.71,-82.21 210.09,-75.63"/>
</g>
<!-- Node7 -->
<g id="node7" class="node">
<title>Node7</title>
<g id="a_node7"><a xlink:title=" ">
<polygon fill="white" stroke="#bfbfbf" points="217.5,-56.5 217.5,-75.5 282.5,-75.5 282.5,-56.5 217.5,-56.5"/>
<text text-anchor="middle" x="250" y="-63.5" font-family="Helvetica,sans-Serif" font-size="10.00">functional</text>
</a>
</g>
</g>
<!-- Node3&#45;&gt;Node7 -->
<g id="edge6" class="edge">
<title>Node3&#45;&gt;Node7</title>
<path fill="none" stroke="midnightblue" d="M312.95,-112.32C301.54,-104.11 284.17,-91.6 270.57,-81.81"/>
<polygon fill="midnightblue" stroke="midnightblue" points="272.43,-78.84 262.27,-75.83 268.34,-84.52 272.43,-78.84"/>
</g>
<!-- Node8 -->
<g id="node8" class="node">
<title>Node8</title>
<g id="a_node8"><a xlink:title=" ">
<polygon fill="white" stroke="#bfbfbf" points="301,-56.5 301,-75.5 349,-75.5 349,-56.5 301,-56.5"/>
<text text-anchor="middle" x="325" y="-63.5" font-family="Helvetica,sans-Serif" font-size="10.00">iosfwd</text>
</a>
</g>
</g>
<!-- Node3&#45;&gt;Node8 -->
<g id="edge7" class="edge">
<title>Node3&#45;&gt;Node8</title>
<path fill="none" stroke="midnightblue" d="M325,-112.08C325,-105.01 325,-94.86 325,-85.99"/>
<polygon fill="midnightblue" stroke="midnightblue" points="328.5,-85.75 325,-75.75 321.5,-85.75 328.5,-85.75"/>
</g>
<!-- Node9 -->
<g id="node9" class="node">
<title>Node9</title>
<g id="a_node9"><a xlink:title=" ">
<polygon fill="white" stroke="#bfbfbf" points="367,-56.5 367,-75.5 423,-75.5 423,-56.5 367,-56.5"/>
<text text-anchor="middle" x="395" y="-63.5" font-family="Helvetica,sans-Serif" font-size="10.00">numeric</text>
</a>
</g>
</g>
<!-- Node3&#45;&gt;Node9 -->
<g id="edge8" class="edge">
<title>Node3&#45;&gt;Node9</title>
<path fill="none" stroke="midnightblue" d="M336.25,-112.32C346.8,-104.18 362.8,-91.84 375.44,-82.09"/>
<polygon fill="midnightblue" stroke="midnightblue" points="377.77,-84.71 383.55,-75.83 373.49,-79.17 377.77,-84.71"/>
</g>
<!-- Node10 -->
<g id="node10" class="node">
<title>Node10</title>
<g id="a_node10"><a xlink:title=" ">
<polygon fill="white" stroke="#bfbfbf" points="441,-56.5 441,-75.5 495,-75.5 495,-56.5 441,-56.5"/>
<text text-anchor="middle" x="468" y="-63.5" font-family="Helvetica,sans-Serif" font-size="10.00">random</text>
</a>
</g>
</g>
<!-- Node3&#45;&gt;Node10 -->
<g id="edge9" class="edge">
<title>Node3&#45;&gt;Node10</title>
<path fill="none" stroke="midnightblue" d="M347.66,-112.44C371.4,-103.48 408.91,-89.31 435.74,-79.18"/>
<polygon fill="midnightblue" stroke="midnightblue" points="437.33,-82.32 445.45,-75.52 434.86,-75.77 437.33,-82.32"/>
</g>
<!-- Node11 -->
<g id="node11" class="node">
<title>Node11</title>
<g id="a_node11"><a xlink:title=" ">
<polygon fill="white" stroke="#bfbfbf" points="513.5,-56.5 513.5,-75.5 558.5,-75.5 558.5,-56.5 513.5,-56.5"/>
<text text-anchor="middle" x="536" y="-63.5" font-family="Helvetica,sans-Serif" font-size="10.00">utility</text>
</a>
</g>
</g>
<!-- Node3&#45;&gt;Node11 -->
<g id="edge10" class="edge">
<title>Node3&#45;&gt;Node11</title>
<path fill="none" stroke="midnightblue" d="M359.72,-112.57C393.87,-104.22 447.7,-90.88 503.58,-76.06"/>
<polygon fill="midnightblue" stroke="midnightblue" points="504.53,-79.42 513.3,-73.47 502.73,-72.66 504.53,-79.42"/>
</g>
<!-- Node12 -->
<g id="node12" class="node">
<title>Node12</title>
<g id="a_node12"><a xlink:title=" ">
<polygon fill="white" stroke="#bfbfbf" points="608.5,-0.5 608.5,-19.5 655.5,-19.5 655.5,-0.5 608.5,-0.5"/>
<text text-anchor="middle" x="632" y="-7.5" font-family="Helvetica,sans-Serif" font-size="10.00">vector</text>
</a>
</g>
</g>
<!-- Node3&#45;&gt;Node12 -->
<g id="edge11" class="edge">
<title>Node3&#45;&gt;Node12</title>
<path fill="none" stroke="midnightblue" d="M359.73,-121C408.9,-119.62 500.36,-111.92 568,-76 589.54,-64.56 608.33,-43.35 619.88,-28.28"/>
<polygon fill="midnightblue" stroke="midnightblue" points="622.99,-29.95 626.1,-19.82 617.35,-25.81 622.99,-29.95"/>
</g>
<!-- Node13 -->
<g id="node13" class="node">
<title>Node13</title>
<g id="a_node13"><a xlink:href="../../df/daa/MatrixStorage_8hpp.html" target="_top" xlink:title=" ">
<polygon fill="white" stroke="black" points="615.5,-56.5 615.5,-75.5 740.5,-75.5 740.5,-56.5 615.5,-56.5"/>
<text text-anchor="middle" x="678" y="-63.5" font-family="Helvetica,sans-Serif" font-size="10.00">util/MatrixStorage.hpp</text>
</a>
</g>
</g>
<!-- Node3&#45;&gt;Node13 -->
<g id="edge12" class="edge">
<title>Node3&#45;&gt;Node13</title>
<path fill="none" stroke="midnightblue" d="M359.81,-115.67C418.29,-106.73 537.16,-88.55 611.9,-77.11"/>
<polygon fill="midnightblue" stroke="midnightblue" points="612.78,-80.52 622.14,-75.55 611.72,-73.6 612.78,-80.52"/>
</g>
<!-- Node13&#45;&gt;Node12 -->
<g id="edge13" class="edge">
<title>Node13&#45;&gt;Node12</title>
<path fill="none" stroke="midnightblue" d="M670.4,-56.08C663.77,-48.3 653.98,-36.8 645.94,-27.37"/>
<polygon fill="midnightblue" stroke="midnightblue" points="648.6,-25.09 639.45,-19.75 643.27,-29.63 648.6,-25.09"/>
</g>
</g>
</svg>
