<?xml version="1.0" encoding="UTF-8" standalone="no"?>
<!DOCTYPE svg PUBLIC "-//W3C//DTD SVG 1.1//EN"
 "http://www.w3.org/Graphics/SVG/1.1/DTD/svg11.dtd">
<!-- Generated by graphviz version 2.43.0 (0)
 -->
<!-- Title: Graphical Class Hierarchy Pages: 1 -->
<svg width="174pt" height="104pt"
 viewBox="0.00 0.00 174.00 104.00" xmlns="http://www.w3.org/2000/svg" xmlns:xlink="http://www.w3.org/1999/xlink">
<g id="graph0" class="graph" transform="scale(1 1) rotate(0) translate(4 100)">
<title>Graphical Class Hierarchy</title>
<polygon fill="white" stroke="transparent" points="-4,4 -4,-100 170,-100 170,4 -4,4"/>
<!-- Node0 -->
<g id="node1" class="node">
<title>Node0</title>
<g id="a_node1"><a xlink:href="d3/d3f/classMatrix.html" target="_top" xlink:title="General matrix class.">
<polygon fill="white" stroke="black" points="0,-38.5 0,-57.5 48,-57.5 48,-38.5 0,-38.5"/>
<text text-anchor="middle" x="24" y="-45.5" font-family="Helvetica,sans-Serif" font-size="10.00">Matrix</text>
</a>
</g>
</g>
<!-- Node1 -->
<g id="node2" class="node">
<title>Node1</title>
<g id="a_node2"><a xlink:href="d2/d78/classRowVector.html" target="_top" xlink:title="A row vector (1×n matrix).">
<polygon fill="white" stroke="black" points="91,-76.5 91,-95.5 159,-95.5 159,-76.5 91,-76.5"/>
<text text-anchor="middle" x="125" y="-83.5" font-family="Helvetica,sans-Serif" font-size="10.00">RowVector</text>
</a>
</g>
</g>
<!-- Node0&#45;&gt;Node1 -->
<g id="edge1" class="edge">
<title>Node0&#45;&gt;Node1</title>
<path fill="none" stroke="midnightblue" d="M57.66,-60.54C71.19,-65.73 86.63,-71.65 99.2,-76.48"/>
<polygon fill="midnightblue" stroke="midnightblue" points="58.8,-57.23 48.21,-56.91 56.29,-63.76 58.8,-57.23"/>
</g>
<!-- Node2 -->
<g id="node3" class="node">
<title>Node2</title>
<g id="a_node3"><a xlink:href="d3/d61/classSquareMatrix.html" target="_top" xlink:title="Square matrix class.">
<polygon fill="white" stroke="black" points="84,-38.5 84,-57.5 166,-57.5 166,-38.5 84,-38.5"/>
<text text-anchor="middle" x="125" y="-45.5" font-family="Helvetica,sans-Serif" font-size="10.00">SquareMatrix</text>
</a>
</g>
</g>
<!-- Node0&#45;&gt;Node2 -->
<g id="edge2" class="edge">
<title>Node0&#45;&gt;Node2</title>
<path fill="none" stroke="midnightblue" d="M58.48,-48C66.64,-48 75.45,-48 83.88,-48"/>
<polygon fill="midnightblue" stroke="midnightblue" points="58.21,-44.5 48.21,-48 58.21,-51.5 58.21,-44.5"/>
</g>
<!-- Node3 -->
<g id="node4" class="node">
<title>Node3</title>
<g id="a_node4"><a xlink:href="d6/da1/classVector.html" target="_top" xlink:title="A column vector (n×1 matrix).">
<polygon fill="white" stroke="black" points="101.5,-0.5 101.5,-19.5 148.5,-19.5 148.5,-0.5 101.5,-0.5"/>
<text text-anchor="middle" x="125" y="-7.5" font-family="Helvetica,sans-Serif" font-size="10.00">Vector</text>
</a>
</g>
</g>
<!-- Node0&#45;&gt;Node3 -->
<g id="edge3" class="edge">
<title>Node0&#45;&gt;Node3</title>
<path fill="none" stroke="midnightblue" d="M57.69,-35.45C71.97,-29.97 88.36,-23.68 101.28,-18.72"/>
<polygon fill="midnightblue" stroke="midnightblue" points="56.29,-32.24 48.21,-39.09 58.8,-38.77 56.29,-32.24"/>
</g>
</g>
</svg>
