<?xml version="1.0" encoding="UTF-8" standalone="no"?>
<!DOCTYPE svg PUBLIC "-//W3C//DTD SVG 1.1//EN"
 "http://www.w3.org/Graphics/SVG/1.1/DTD/svg11.dtd">
<!-- Generated by graphviz version 2.43.0 (0)
 -->
<!-- Title: Matrix and vector operations Pages: 1 -->
<svg width="476pt" height="249pt"
 viewBox="0.00 0.00 476.00 249.00" xmlns="http://www.w3.org/2000/svg" xmlns:xlink="http://www.w3.org/1999/xlink">
<g id="graph0" class="graph" transform="scale(1 1) rotate(0) translate(4 245)">
<title>Matrix and vector operations</title>
<polygon fill="white" stroke="transparent" points="-4,4 -4,-245 472,-245 472,4 -4,4"/>
<!-- Node7 -->
<g id="node1" class="node">
<title>Node7</title>
<g id="a_node1"><a xlink:href="../../d2/dd7/group__ScalMul.html" target="_top" xlink:title="Multiplication by a scalar.">
<polygon fill="white" stroke="black" points="467,-241 350,-241 350,-222 467,-222 467,-241"/>
<text text-anchor="middle" x="408.5" y="-229" font-family="Helvetica,sans-Serif" font-size="10.00">Scalar multiplication</text>
</a>
</g>
</g>
<!-- Node9 -->
<g id="node2" class="node">
<title>Node9</title>
<g id="a_node2"><a xlink:href="../../d3/dcb/group__MatTrans.html" target="_top" xlink:title="Matrix and vector transposition.">
<polygon fill="white" stroke="black" points="449,-204 368,-204 368,-185 449,-185 449,-204"/>
<text text-anchor="middle" x="408.5" y="-192" font-family="Helvetica,sans-Serif" font-size="10.00">Transposition</text>
</a>
</g>
</g>
<!-- Node5 -->
<g id="node3" class="node">
<title>Node5</title>
<g id="a_node3"><a xlink:href="../../dc/df7/group__MatSub.html" target="_top" xlink:title="Matrix and vector subtraction.">
<polygon fill="white" stroke="black" points="444.5,-167 372.5,-167 372.5,-148 444.5,-148 444.5,-167"/>
<text text-anchor="middle" x="408.5" y="-155" font-family="Helvetica,sans-Serif" font-size="10.00">Subtraction</text>
</a>
</g>
</g>
<!-- Node1 -->
<g id="node4" class="node">
<title>Node1</title>
<g id="a_node4"><a xlink:title="Matrix and vector operations, such as addition, multiplication, cross products, transposition ....">
<polygon fill="#bfbfbf" stroke="black" points="313,-130 155,-130 155,-111 313,-111 313,-130"/>
<text text-anchor="middle" x="234" y="-118" font-family="Helvetica,sans-Serif" font-size="10.00">Matrix and vector operations</text>
</a>
</g>
</g>
<!-- Node1&#45;&gt;Node7 -->
<g id="edge6" class="edge">
<title>Node1&#45;&gt;Node7</title>
<path fill="none" stroke="black" d="M251.25,-137.26C272.11,-157.9 310.26,-192.77 349,-213.5 355.18,-216.81 362.07,-219.61 368.88,-221.94"/>
<polygon fill="black" stroke="black" points="253.67,-134.73 244.13,-130.11 248.7,-139.67 253.67,-134.73"/>
</g>
<!-- Node1&#45;&gt;Node9 -->
<g id="edge8" class="edge">
<title>Node1&#45;&gt;Node9</title>
<path fill="none" stroke="black" d="M261.41,-134.96C284.17,-147.06 318.15,-164.27 349,-176.5 356.7,-179.56 365.15,-182.42 373.16,-184.93"/>
<polygon fill="black" stroke="black" points="262.85,-131.76 252.38,-130.12 259.54,-137.93 262.85,-131.76"/>
</g>
<!-- Node1&#45;&gt;Node5 -->
<g id="edge4" class="edge">
<title>Node1&#45;&gt;Node5</title>
<path fill="none" stroke="black" d="M289.55,-132.2C316.68,-138.02 348.66,-144.88 372.47,-149.99"/>
<polygon fill="black" stroke="black" points="289.93,-128.7 279.42,-130.03 288.47,-135.55 289.93,-128.7"/>
</g>
<!-- Node4 -->
<g id="node5" class="node">
<title>Node4</title>
<g id="a_node5"><a xlink:href="../../da/d14/group__MatAdd.html" target="_top" xlink:title="Matrix and vector addition.">
<polygon fill="white" stroke="black" points="437,-130 380,-130 380,-111 437,-111 437,-130"/>
<text text-anchor="middle" x="408.5" y="-118" font-family="Helvetica,sans-Serif" font-size="10.00">Addition</text>
</a>
</g>
</g>
<!-- Node1&#45;&gt;Node4 -->
<g id="edge3" class="edge">
<title>Node1&#45;&gt;Node4</title>
<path fill="none" stroke="black" d="M323.28,-120.5C343.89,-120.5 364.34,-120.5 379.93,-120.5"/>
<polygon fill="black" stroke="black" points="323.17,-117 313.17,-120.5 323.17,-124 323.17,-117"/>
</g>
<!-- Node8 -->
<g id="node6" class="node">
<title>Node8</title>
<g id="a_node6"><a xlink:href="../../d4/da7/group__ScalDiv.html" target="_top" xlink:title="Division by a scalar.">
<polygon fill="white" stroke="black" points="452.5,-93 364.5,-93 364.5,-74 452.5,-74 452.5,-93"/>
<text text-anchor="middle" x="408.5" y="-81" font-family="Helvetica,sans-Serif" font-size="10.00">Scalar division</text>
</a>
</g>
</g>
<!-- Node1&#45;&gt;Node8 -->
<g id="edge7" class="edge">
<title>Node1&#45;&gt;Node8</title>
<path fill="none" stroke="black" d="M289.52,-108.81C313.7,-103.62 341.74,-97.6 364.42,-92.74"/>
<polygon fill="black" stroke="black" points="288.47,-105.45 279.42,-110.97 289.93,-112.3 288.47,-105.45"/>
</g>
<!-- Node6 -->
<g id="node7" class="node">
<title>Node6</title>
<g id="a_node7"><a xlink:href="../../d1/de0/group__MatNeg.html" target="_top" xlink:title="Matrix and vector negation.">
<polygon fill="white" stroke="black" points="439,-56 378,-56 378,-37 439,-37 439,-56"/>
<text text-anchor="middle" x="408.5" y="-44" font-family="Helvetica,sans-Serif" font-size="10.00">Negation</text>
</a>
</g>
</g>
<!-- Node1&#45;&gt;Node6 -->
<g id="edge5" class="edge">
<title>Node1&#45;&gt;Node6</title>
<path fill="none" stroke="black" d="M261.41,-106.04C284.17,-93.94 318.15,-76.73 349,-64.5 358.19,-60.86 368.42,-57.49 377.72,-54.67"/>
<polygon fill="black" stroke="black" points="259.54,-103.07 252.38,-110.88 262.85,-109.24 259.54,-103.07"/>
</g>
<!-- Node3 -->
<g id="node8" class="node">
<title>Node3</title>
<g id="a_node8"><a xlink:href="../../df/d18/group__MatMul.html" target="_top" xlink:title="Matrix&#45;matrix, matrix&#45;vector and vector&#45;vector multiplication.">
<polygon fill="white" stroke="black" points="468,-19 349,-19 349,0 468,0 468,-19"/>
<text text-anchor="middle" x="408.5" y="-7" font-family="Helvetica,sans-Serif" font-size="10.00">Matrix multiplication</text>
</a>
</g>
</g>
<!-- Node1&#45;&gt;Node3 -->
<g id="edge2" class="edge">
<title>Node1&#45;&gt;Node3</title>
<path fill="none" stroke="black" d="M251.25,-103.74C272.11,-83.1 310.26,-48.23 349,-27.5 355.18,-24.19 362.07,-21.39 368.88,-19.06"/>
<polygon fill="black" stroke="black" points="248.7,-101.33 244.13,-110.89 253.67,-106.27 248.7,-101.33"/>
</g>
<!-- Node2 -->
<g id="node9" class="node">
<title>Node2</title>
<g id="a_node9"><a xlink:href="../../db/d95/group__MatVec.html" target="_top" xlink:title="Matrix and vector containers.">
<polygon fill="white" stroke="black" points="119,-130 0,-130 0,-111 119,-111 119,-130"/>
<text text-anchor="middle" x="59.5" y="-118" font-family="Helvetica,sans-Serif" font-size="10.00">Matrices and vectors</text>
</a>
</g>
</g>
<!-- Node2&#45;&gt;Node1 -->
<g id="edge1" class="edge">
<title>Node2&#45;&gt;Node1</title>
<path fill="none" stroke="black" d="M129.44,-120.5C137.8,-120.5 146.38,-120.5 154.86,-120.5"/>
<polygon fill="black" stroke="black" points="129.38,-117 119.38,-120.5 129.38,-124 129.38,-117"/>
</g>
</g>
</svg>
