<?xml version="1.0" encoding="UTF-8" standalone="no"?>
<!DOCTYPE svg PUBLIC "-//W3C//DTD SVG 1.1//EN"
 "http://www.w3.org/Graphics/SVG/1.1/DTD/svg11.dtd">
<!-- Generated by graphviz version 2.43.0 (0)
 -->
<!-- Title: Linear_Algebra.h Pages: 1 -->
<svg width="913pt" height="252pt"
 viewBox="0.00 0.00 912.50 252.00" xmlns="http://www.w3.org/2000/svg" xmlns:xlink="http://www.w3.org/1999/xlink">
<g id="graph0" class="graph" transform="scale(1 1) rotate(0) translate(4 248)">
<title>Linear_Algebra.h</title>
<polygon fill="white" stroke="transparent" points="-4,4 -4,-248 908.5,-248 908.5,4 -4,4"/>
<!-- Node1 -->
<g id="node1" class="node">
<title>Node1</title>
<g id="a_node1"><a xlink:title=" ">
<polygon fill="#bfbfbf" stroke="black" points="444,-224.5 444,-243.5 542,-243.5 542,-224.5 444,-224.5"/>
<text text-anchor="middle" x="493" y="-231.5" font-family="Helvetica,sans-Serif" font-size="10.00">Linear_Algebra.h</text>
</a>
</g>
</g>
<!-- Node2 -->
<g id="node2" class="node">
<title>Node2</title>
<g id="a_node2"><a xlink:href="../../d9/d1c/Matrix_8hpp.html" target="_top" xlink:title=" ">
<polygon fill="white" stroke="black" points="424.5,-168.5 424.5,-187.5 561.5,-187.5 561.5,-168.5 424.5,-168.5"/>
<text text-anchor="middle" x="493" y="-175.5" font-family="Helvetica,sans-Serif" font-size="10.00">include/linalg/Matrix.hpp</text>
</a>
</g>
</g>
<!-- Node1&#45;&gt;Node2 -->
<g id="edge1" class="edge">
<title>Node1&#45;&gt;Node2</title>
<path fill="none" stroke="midnightblue" d="M493,-224.08C493,-217.01 493,-206.86 493,-197.99"/>
<polygon fill="midnightblue" stroke="midnightblue" points="496.5,-197.75 493,-187.75 489.5,-197.75 496.5,-197.75"/>
</g>
<!-- Node3 -->
<g id="node3" class="node">
<title>Node3</title>
<g id="a_node3"><a xlink:href="../../d9/dd5/ArduinoConfig_8hpp.html" target="_top" xlink:title="Preprocessor logic for configuring the library to make it compatible with the Arduino environment.">
<polygon fill="white" stroke="black" points="0,-112.5 0,-131.5 146,-131.5 146,-112.5 0,-112.5"/>
<text text-anchor="middle" x="73" y="-119.5" font-family="Helvetica,sans-Serif" font-size="10.00">Arduino/ArduinoConfig.hpp</text>
</a>
</g>
</g>
<!-- Node2&#45;&gt;Node3 -->
<g id="edge2" class="edge">
<title>Node2&#45;&gt;Node3</title>
<path fill="none" stroke="midnightblue" d="M426.45,-168.44C351.18,-158.77 228.83,-143.04 149.64,-132.85"/>
<polygon fill="midnightblue" stroke="midnightblue" points="149.6,-129.32 139.24,-131.52 148.71,-136.26 149.6,-129.32"/>
</g>
<!-- Node6 -->
<g id="node6" class="node">
<title>Node6</title>
<g id="a_node6"><a xlink:title=" ">
<polygon fill="white" stroke="#bfbfbf" points="164,-112.5 164,-131.5 228,-131.5 228,-112.5 164,-112.5"/>
<text text-anchor="middle" x="196" y="-119.5" font-family="Helvetica,sans-Serif" font-size="10.00">algorithm</text>
</a>
</g>
</g>
<!-- Node2&#45;&gt;Node6 -->
<g id="edge5" class="edge">
<title>Node2&#45;&gt;Node6</title>
<path fill="none" stroke="midnightblue" d="M440.42,-168.42C390.81,-160.18 314.11,-147.05 238.39,-132.21"/>
<polygon fill="midnightblue" stroke="midnightblue" points="238.69,-128.7 228.2,-130.2 237.34,-135.57 238.69,-128.7"/>
</g>
<!-- Node7 -->
<g id="node7" class="node">
<title>Node7</title>
<g id="a_node7"><a xlink:title=" ">
<polygon fill="white" stroke="#bfbfbf" points="246,-112.5 246,-131.5 298,-131.5 298,-112.5 246,-112.5"/>
<text text-anchor="middle" x="272" y="-119.5" font-family="Helvetica,sans-Serif" font-size="10.00">cassert</text>
</a>
</g>
</g>
<!-- Node2&#45;&gt;Node7 -->
<g id="edge6" class="edge">
<title>Node2&#45;&gt;Node7</title>
<path fill="none" stroke="midnightblue" d="M456.96,-168.44C421.51,-159.99 365.6,-146.56 308.31,-132.3"/>
<polygon fill="midnightblue" stroke="midnightblue" points="308.91,-128.85 298.36,-129.82 307.22,-135.64 308.91,-128.85"/>
</g>
<!-- Node8 -->
<g id="node8" class="node">
<title>Node8</title>
<g id="a_node8"><a xlink:title=" ">
<polygon fill="white" stroke="#bfbfbf" points="316.5,-112.5 316.5,-131.5 363.5,-131.5 363.5,-112.5 316.5,-112.5"/>
<text text-anchor="middle" x="340" y="-119.5" font-family="Helvetica,sans-Serif" font-size="10.00">cmath</text>
</a>
</g>
</g>
<!-- Node2&#45;&gt;Node8 -->
<g id="edge7" class="edge">
<title>Node2&#45;&gt;Node8</title>
<path fill="none" stroke="midnightblue" d="M468.76,-168.44C442.98,-159.35 402.04,-144.9 373.26,-134.74"/>
<polygon fill="midnightblue" stroke="midnightblue" points="374.22,-131.37 363.63,-131.34 371.89,-137.97 374.22,-131.37"/>
</g>
<!-- Node9 -->
<g id="node9" class="node">
<title>Node9</title>
<g id="a_node9"><a xlink:title=" ">
<polygon fill="white" stroke="#bfbfbf" points="381.5,-112.5 381.5,-131.5 446.5,-131.5 446.5,-112.5 381.5,-112.5"/>
<text text-anchor="middle" x="414" y="-119.5" font-family="Helvetica,sans-Serif" font-size="10.00">functional</text>
</a>
</g>
</g>
<!-- Node2&#45;&gt;Node9 -->
<g id="edge8" class="edge">
<title>Node2&#45;&gt;Node9</title>
<path fill="none" stroke="midnightblue" d="M480.31,-168.32C468.1,-159.98 449.42,-147.21 435,-137.35"/>
<polygon fill="midnightblue" stroke="midnightblue" points="436.89,-134.41 426.66,-131.65 432.94,-140.19 436.89,-134.41"/>
</g>
<!-- Node10 -->
<g id="node10" class="node">
<title>Node10</title>
<g id="a_node10"><a xlink:title=" ">
<polygon fill="white" stroke="#bfbfbf" points="465,-112.5 465,-131.5 521,-131.5 521,-112.5 465,-112.5"/>
<text text-anchor="middle" x="493" y="-119.5" font-family="Helvetica,sans-Serif" font-size="10.00">numeric</text>
</a>
</g>
</g>
<!-- Node2&#45;&gt;Node10 -->
<g id="edge9" class="edge">
<title>Node2&#45;&gt;Node10</title>
<path fill="none" stroke="midnightblue" d="M493,-168.08C493,-161.01 493,-150.86 493,-141.99"/>
<polygon fill="midnightblue" stroke="midnightblue" points="496.5,-141.75 493,-131.75 489.5,-141.75 496.5,-141.75"/>
</g>
<!-- Node11 -->
<g id="node11" class="node">
<title>Node11</title>
<g id="a_node11"><a xlink:title=" ">
<polygon fill="white" stroke="#bfbfbf" points="539.5,-112.5 539.5,-131.5 584.5,-131.5 584.5,-112.5 539.5,-112.5"/>
<text text-anchor="middle" x="562" y="-119.5" font-family="Helvetica,sans-Serif" font-size="10.00">utility</text>
</a>
</g>
</g>
<!-- Node2&#45;&gt;Node11 -->
<g id="edge10" class="edge">
<title>Node2&#45;&gt;Node11</title>
<path fill="none" stroke="midnightblue" d="M504.09,-168.32C514.49,-160.18 530.26,-147.84 542.72,-138.09"/>
<polygon fill="midnightblue" stroke="midnightblue" points="544.99,-140.75 550.71,-131.83 540.68,-135.24 544.99,-140.75"/>
</g>
<!-- Node12 -->
<g id="node12" class="node">
<title>Node12</title>
<g id="a_node12"><a xlink:title=" ">
<polygon fill="white" stroke="#bfbfbf" points="703.5,-56.5 703.5,-75.5 750.5,-75.5 750.5,-56.5 703.5,-56.5"/>
<text text-anchor="middle" x="727" y="-63.5" font-family="Helvetica,sans-Serif" font-size="10.00">vector</text>
</a>
</g>
</g>
<!-- Node2&#45;&gt;Node12 -->
<g id="edge11" class="edge">
<title>Node2&#45;&gt;Node12</title>
<path fill="none" stroke="midnightblue" d="M512.68,-168.5C532.95,-159.66 565.38,-145.29 593,-132 610.55,-123.56 614.53,-120.61 632,-112 654.44,-100.93 680.09,-88.81 699.08,-79.94"/>
<polygon fill="midnightblue" stroke="midnightblue" points="700.76,-83.02 708.35,-75.62 697.81,-76.68 700.76,-83.02"/>
</g>
<!-- Node13 -->
<g id="node13" class="node">
<title>Node13</title>
<g id="a_node13"><a xlink:title=" ">
<polygon fill="white" stroke="#bfbfbf" points="641,-112.5 641,-131.5 689,-131.5 689,-112.5 641,-112.5"/>
<text text-anchor="middle" x="665" y="-119.5" font-family="Helvetica,sans-Serif" font-size="10.00">iosfwd</text>
</a>
</g>
</g>
<!-- Node2&#45;&gt;Node13 -->
<g id="edge12" class="edge">
<title>Node2&#45;&gt;Node13</title>
<path fill="none" stroke="midnightblue" d="M520.25,-168.44C550.26,-159.02 598.53,-143.87 630.99,-133.68"/>
<polygon fill="midnightblue" stroke="midnightblue" points="632.43,-136.89 640.93,-130.56 630.34,-130.21 632.43,-136.89"/>
</g>
<!-- Node14 -->
<g id="node14" class="node">
<title>Node14</title>
<g id="a_node14"><a xlink:title=" ">
<polygon fill="white" stroke="#bfbfbf" points="707,-112.5 707,-131.5 761,-131.5 761,-112.5 707,-112.5"/>
<text text-anchor="middle" x="734" y="-119.5" font-family="Helvetica,sans-Serif" font-size="10.00">random</text>
</a>
</g>
</g>
<!-- Node2&#45;&gt;Node14 -->
<g id="edge13" class="edge">
<title>Node2&#45;&gt;Node14</title>
<path fill="none" stroke="midnightblue" d="M533.53,-168.46C572.84,-160.11 634.41,-146.8 696.87,-132.22"/>
<polygon fill="midnightblue" stroke="midnightblue" points="697.96,-135.56 706.89,-129.87 696.36,-128.74 697.96,-135.56"/>
</g>
<!-- Node15 -->
<g id="node15" class="node">
<title>Node15</title>
<g id="a_node15"><a xlink:href="../../df/daa/MatrixStorage_8hpp.html" target="_top" xlink:title=" ">
<polygon fill="white" stroke="black" points="779.5,-112.5 779.5,-131.5 904.5,-131.5 904.5,-112.5 779.5,-112.5"/>
<text text-anchor="middle" x="842" y="-119.5" font-family="Helvetica,sans-Serif" font-size="10.00">util/MatrixStorage.hpp</text>
</a>
</g>
</g>
<!-- Node2&#45;&gt;Node15 -->
<g id="edge14" class="edge">
<title>Node2&#45;&gt;Node15</title>
<path fill="none" stroke="midnightblue" d="M548.3,-168.44C610.33,-158.85 710.86,-143.29 776.7,-133.1"/>
<polygon fill="midnightblue" stroke="midnightblue" points="777.61,-136.5 786.96,-131.52 776.54,-129.59 777.61,-136.5"/>
</g>
<!-- Node4 -->
<g id="node4" class="node">
<title>Node4</title>
<g id="a_node4"><a xlink:href="../../df/d96/ArduinoMacroFix_8hpp.html" target="_top" xlink:title="Fixes for problematic macros defined by the Arduino Core.">
<polygon fill="white" stroke="black" points="13.5,-56.5 13.5,-75.5 132.5,-75.5 132.5,-56.5 13.5,-56.5"/>
<text text-anchor="middle" x="73" y="-63.5" font-family="Helvetica,sans-Serif" font-size="10.00">ArduinoMacroFix.hpp</text>
</a>
</g>
</g>
<!-- Node3&#45;&gt;Node4 -->
<g id="edge3" class="edge">
<title>Node3&#45;&gt;Node4</title>
<path fill="none" stroke="midnightblue" d="M73,-112.08C73,-105.01 73,-94.86 73,-85.99"/>
<polygon fill="midnightblue" stroke="midnightblue" points="76.5,-85.75 73,-75.75 69.5,-85.75 76.5,-85.75"/>
</g>
<!-- Node5 -->
<g id="node5" class="node">
<title>Node5</title>
<g id="a_node5"><a xlink:title=" ">
<polygon fill="white" stroke="#bfbfbf" points="41.5,-0.5 41.5,-19.5 104.5,-19.5 104.5,-0.5 41.5,-0.5"/>
<text text-anchor="middle" x="73" y="-7.5" font-family="Helvetica,sans-Serif" font-size="10.00">Arduino.h</text>
</a>
</g>
</g>
<!-- Node4&#45;&gt;Node5 -->
<g id="edge4" class="edge">
<title>Node4&#45;&gt;Node5</title>
<path fill="none" stroke="midnightblue" d="M73,-56.08C73,-49.01 73,-38.86 73,-29.99"/>
<polygon fill="midnightblue" stroke="midnightblue" points="76.5,-29.75 73,-19.75 69.5,-29.75 76.5,-29.75"/>
</g>
<!-- Node15&#45;&gt;Node12 -->
<g id="edge15" class="edge">
<title>Node15&#45;&gt;Node12</title>
<path fill="none" stroke="midnightblue" d="M823.78,-112.44C805.1,-103.68 775.84,-89.94 754.38,-79.86"/>
<polygon fill="midnightblue" stroke="midnightblue" points="755.68,-76.6 745.14,-75.52 752.7,-82.93 755.68,-76.6"/>
</g>
</g>
</svg>
