<?xml version="1.0" encoding="UTF-8" standalone="no"?>
<!DOCTYPE svg PUBLIC "-//W3C//DTD SVG 1.1//EN"
 "http://www.w3.org/Graphics/SVG/1.1/DTD/svg11.dtd">
<!-- Generated by graphviz version 2.43.0 (0)
 -->
<!-- Title: HouseholderQR.ipp Pages: 1 -->
<svg width="913pt" height="319pt"
 viewBox="0.00 0.00 912.50 319.00" xmlns="http://www.w3.org/2000/svg" xmlns:xlink="http://www.w3.org/1999/xlink">
<g id="graph0" class="graph" transform="scale(1 1) rotate(0) translate(4 315)">
<title>HouseholderQR.ipp</title>
<polygon fill="white" stroke="transparent" points="-4,4 -4,-315 908.5,-315 908.5,4 -4,4"/>
<!-- Node1 -->
<g id="node1" class="node">
<title>Node1</title>
<g id="a_node1"><a xlink:title=" ">
<polygon fill="#bfbfbf" stroke="black" points="385,-291.5 385,-310.5 495,-310.5 495,-291.5 385,-291.5"/>
<text text-anchor="middle" x="440" y="-298.5" font-family="Helvetica,sans-Serif" font-size="10.00">HouseholderQR.ipp</text>
</a>
</g>
</g>
<!-- Node2 -->
<g id="node2" class="node">
<title>Node2</title>
<g id="a_node2"><a xlink:href="../../d9/d52/HouseholderQR_8hpp.html" target="_top" xlink:title=" ">
<polygon fill="white" stroke="black" points="308,-224.5 308,-254.5 454,-254.5 454,-224.5 308,-224.5"/>
<text text-anchor="start" x="316" y="-242.5" font-family="Helvetica,sans-Serif" font-size="10.00">include/linalg/Householder</text>
<text text-anchor="middle" x="381" y="-231.5" font-family="Helvetica,sans-Serif" font-size="10.00">QR.hpp</text>
</a>
</g>
</g>
<!-- Node1&#45;&gt;Node2 -->
<g id="edge1" class="edge">
<title>Node1&#45;&gt;Node2</title>
<path fill="none" stroke="midnightblue" d="M431.55,-291.48C423.85,-283.72 412.18,-271.94 401.99,-261.66"/>
<polygon fill="midnightblue" stroke="midnightblue" points="404.43,-259.16 394.91,-254.52 399.46,-264.09 404.43,-259.16"/>
</g>
<!-- Node8 -->
<g id="node8" class="node">
<title>Node8</title>
<g id="a_node8"><a xlink:title=" ">
<polygon fill="white" stroke="#bfbfbf" points="0,-112.5 0,-131.5 52,-131.5 52,-112.5 0,-112.5"/>
<text text-anchor="middle" x="26" y="-119.5" font-family="Helvetica,sans-Serif" font-size="10.00">cassert</text>
</a>
</g>
</g>
<!-- Node1&#45;&gt;Node8 -->
<g id="edge17" class="edge">
<title>Node1&#45;&gt;Node8</title>
<path fill="none" stroke="midnightblue" d="M409.03,-291.49C380.16,-283.23 336.11,-269.81 299,-255 204.76,-217.4 97.69,-161.6 50.52,-136.32"/>
<polygon fill="midnightblue" stroke="midnightblue" points="52.11,-133.2 41.65,-131.54 48.79,-139.36 52.11,-133.2"/>
</g>
<!-- Node17 -->
<g id="node17" class="node">
<title>Node17</title>
<g id="a_node17"><a xlink:title=" ">
<polygon fill="white" stroke="#bfbfbf" points="472,-230 472,-249 528,-249 528,-230 472,-230"/>
<text text-anchor="middle" x="500" y="-237" font-family="Helvetica,sans-Serif" font-size="10.00">iomanip</text>
</a>
</g>
</g>
<!-- Node1&#45;&gt;Node17 -->
<g id="edge18" class="edge">
<title>Node1&#45;&gt;Node17</title>
<path fill="none" stroke="midnightblue" d="M448.6,-291.48C457.86,-282.28 472.82,-267.46 484.21,-256.16"/>
<polygon fill="midnightblue" stroke="midnightblue" points="486.78,-258.54 491.42,-249.01 481.85,-253.57 486.78,-258.54"/>
</g>
<!-- Node18 -->
<g id="node18" class="node">
<title>Node18</title>
<g id="a_node18"><a xlink:title=" ">
<polygon fill="white" stroke="#bfbfbf" points="546,-230 546,-249 606,-249 606,-230 546,-230"/>
<text text-anchor="middle" x="576" y="-237" font-family="Helvetica,sans-Serif" font-size="10.00">iostream</text>
</a>
</g>
</g>
<!-- Node1&#45;&gt;Node18 -->
<g id="edge19" class="edge">
<title>Node1&#45;&gt;Node18</title>
<path fill="none" stroke="midnightblue" d="M459.49,-291.48C482.41,-281.45 520.69,-264.7 547.08,-253.15"/>
<polygon fill="midnightblue" stroke="midnightblue" points="548.79,-256.22 556.55,-249.01 545.99,-249.81 548.79,-256.22"/>
</g>
<!-- Node3 -->
<g id="node3" class="node">
<title>Node3</title>
<g id="a_node3"><a xlink:href="../../d9/d1c/Matrix_8hpp.html" target="_top" xlink:title=" ">
<polygon fill="white" stroke="black" points="418.5,-168.5 418.5,-187.5 487.5,-187.5 487.5,-168.5 418.5,-168.5"/>
<text text-anchor="middle" x="453" y="-175.5" font-family="Helvetica,sans-Serif" font-size="10.00">Matrix.hpp</text>
</a>
</g>
</g>
<!-- Node2&#45;&gt;Node3 -->
<g id="edge2" class="edge">
<title>Node2&#45;&gt;Node3</title>
<path fill="none" stroke="midnightblue" d="M398.06,-224.4C409.06,-215.31 423.37,-203.49 434.62,-194.19"/>
<polygon fill="midnightblue" stroke="midnightblue" points="437.04,-196.73 442.52,-187.66 432.59,-191.33 437.04,-196.73"/>
</g>
<!-- Node4 -->
<g id="node4" class="node">
<title>Node4</title>
<g id="a_node4"><a xlink:href="../../d9/dd5/ArduinoConfig_8hpp.html" target="_top" xlink:title="Preprocessor logic for configuring the library to make it compatible with the Arduino environment.">
<polygon fill="white" stroke="black" points="70,-112.5 70,-131.5 216,-131.5 216,-112.5 70,-112.5"/>
<text text-anchor="middle" x="143" y="-119.5" font-family="Helvetica,sans-Serif" font-size="10.00">Arduino/ArduinoConfig.hpp</text>
</a>
</g>
</g>
<!-- Node3&#45;&gt;Node4 -->
<g id="edge3" class="edge">
<title>Node3&#45;&gt;Node4</title>
<path fill="none" stroke="midnightblue" d="M418.34,-170.96C365.93,-161.83 265.84,-144.4 201.86,-133.25"/>
<polygon fill="midnightblue" stroke="midnightblue" points="202.37,-129.79 191.91,-131.52 201.17,-136.68 202.37,-129.79"/>
</g>
<!-- Node7 -->
<g id="node7" class="node">
<title>Node7</title>
<g id="a_node7"><a xlink:title=" ">
<polygon fill="white" stroke="#bfbfbf" points="234,-112.5 234,-131.5 298,-131.5 298,-112.5 234,-112.5"/>
<text text-anchor="middle" x="266" y="-119.5" font-family="Helvetica,sans-Serif" font-size="10.00">algorithm</text>
</a>
</g>
</g>
<!-- Node3&#45;&gt;Node7 -->
<g id="edge6" class="edge">
<title>Node3&#45;&gt;Node7</title>
<path fill="none" stroke="midnightblue" d="M423.37,-168.44C391.5,-159.24 340.67,-144.56 305.44,-134.39"/>
<polygon fill="midnightblue" stroke="midnightblue" points="306.07,-130.93 295.49,-131.52 304.13,-137.65 306.07,-130.93"/>
</g>
<!-- Node3&#45;&gt;Node8 -->
<g id="edge7" class="edge">
<title>Node3&#45;&gt;Node8</title>
<path fill="none" stroke="midnightblue" d="M418.42,-174.64C351.43,-169.71 199.2,-156.84 62.13,-131.98"/>
<polygon fill="midnightblue" stroke="midnightblue" points="62.76,-128.54 52.29,-130.17 61.49,-135.42 62.76,-128.54"/>
</g>
<!-- Node9 -->
<g id="node9" class="node">
<title>Node9</title>
<g id="a_node9"><a xlink:title=" ">
<polygon fill="white" stroke="#bfbfbf" points="316.5,-112.5 316.5,-131.5 363.5,-131.5 363.5,-112.5 316.5,-112.5"/>
<text text-anchor="middle" x="340" y="-119.5" font-family="Helvetica,sans-Serif" font-size="10.00">cmath</text>
</a>
</g>
</g>
<!-- Node3&#45;&gt;Node9 -->
<g id="edge8" class="edge">
<title>Node3&#45;&gt;Node9</title>
<path fill="none" stroke="midnightblue" d="M435.09,-168.44C416.75,-159.68 387.99,-145.94 366.91,-135.86"/>
<polygon fill="midnightblue" stroke="midnightblue" points="368.35,-132.67 357.82,-131.52 365.33,-138.99 368.35,-132.67"/>
</g>
<!-- Node10 -->
<g id="node10" class="node">
<title>Node10</title>
<g id="a_node10"><a xlink:title=" ">
<polygon fill="white" stroke="#bfbfbf" points="381.5,-112.5 381.5,-131.5 446.5,-131.5 446.5,-112.5 381.5,-112.5"/>
<text text-anchor="middle" x="414" y="-119.5" font-family="Helvetica,sans-Serif" font-size="10.00">functional</text>
</a>
</g>
</g>
<!-- Node3&#45;&gt;Node10 -->
<g id="edge9" class="edge">
<title>Node3&#45;&gt;Node10</title>
<path fill="none" stroke="midnightblue" d="M446.56,-168.08C441.05,-160.46 432.97,-149.26 426.24,-139.94"/>
<polygon fill="midnightblue" stroke="midnightblue" points="429.01,-137.81 420.32,-131.75 423.34,-141.91 429.01,-137.81"/>
</g>
<!-- Node11 -->
<g id="node11" class="node">
<title>Node11</title>
<g id="a_node11"><a xlink:title=" ">
<polygon fill="white" stroke="#bfbfbf" points="465,-112.5 465,-131.5 521,-131.5 521,-112.5 465,-112.5"/>
<text text-anchor="middle" x="493" y="-119.5" font-family="Helvetica,sans-Serif" font-size="10.00">numeric</text>
</a>
</g>
</g>
<!-- Node3&#45;&gt;Node11 -->
<g id="edge10" class="edge">
<title>Node3&#45;&gt;Node11</title>
<path fill="none" stroke="midnightblue" d="M459.61,-168.08C465.26,-160.46 473.54,-149.26 480.45,-139.94"/>
<polygon fill="midnightblue" stroke="midnightblue" points="483.38,-141.87 486.52,-131.75 477.75,-137.7 483.38,-141.87"/>
</g>
<!-- Node12 -->
<g id="node12" class="node">
<title>Node12</title>
<g id="a_node12"><a xlink:title=" ">
<polygon fill="white" stroke="#bfbfbf" points="539.5,-112.5 539.5,-131.5 584.5,-131.5 584.5,-112.5 539.5,-112.5"/>
<text text-anchor="middle" x="562" y="-119.5" font-family="Helvetica,sans-Serif" font-size="10.00">utility</text>
</a>
</g>
</g>
<!-- Node3&#45;&gt;Node12 -->
<g id="edge11" class="edge">
<title>Node3&#45;&gt;Node12</title>
<path fill="none" stroke="midnightblue" d="M470.51,-168.32C488.07,-159.62 515.33,-146.12 535.53,-136.11"/>
<polygon fill="midnightblue" stroke="midnightblue" points="537.12,-139.23 544.53,-131.65 534.02,-132.96 537.12,-139.23"/>
</g>
<!-- Node13 -->
<g id="node13" class="node">
<title>Node13</title>
<g id="a_node13"><a xlink:title=" ">
<polygon fill="white" stroke="#bfbfbf" points="703.5,-56.5 703.5,-75.5 750.5,-75.5 750.5,-56.5 703.5,-56.5"/>
<text text-anchor="middle" x="727" y="-63.5" font-family="Helvetica,sans-Serif" font-size="10.00">vector</text>
</a>
</g>
</g>
<!-- Node3&#45;&gt;Node13 -->
<g id="edge12" class="edge">
<title>Node3&#45;&gt;Node13</title>
<path fill="none" stroke="midnightblue" d="M484.66,-168.42C513.39,-160.27 556.67,-147.04 593,-132 611,-124.55 614.53,-120.61 632,-112 654.44,-100.93 680.09,-88.81 699.08,-79.94"/>
<polygon fill="midnightblue" stroke="midnightblue" points="700.76,-83.02 708.35,-75.62 697.81,-76.68 700.76,-83.02"/>
</g>
<!-- Node14 -->
<g id="node14" class="node">
<title>Node14</title>
<g id="a_node14"><a xlink:title=" ">
<polygon fill="white" stroke="#bfbfbf" points="641,-112.5 641,-131.5 689,-131.5 689,-112.5 641,-112.5"/>
<text text-anchor="middle" x="665" y="-119.5" font-family="Helvetica,sans-Serif" font-size="10.00">iosfwd</text>
</a>
</g>
</g>
<!-- Node3&#45;&gt;Node14 -->
<g id="edge13" class="edge">
<title>Node3&#45;&gt;Node14</title>
<path fill="none" stroke="midnightblue" d="M486.59,-168.44C526.12,-158.38 591.37,-141.75 631.05,-131.65"/>
<polygon fill="midnightblue" stroke="midnightblue" points="631.97,-135.03 640.8,-129.16 630.24,-128.24 631.97,-135.03"/>
</g>
<!-- Node15 -->
<g id="node15" class="node">
<title>Node15</title>
<g id="a_node15"><a xlink:title=" ">
<polygon fill="white" stroke="#bfbfbf" points="707,-112.5 707,-131.5 761,-131.5 761,-112.5 707,-112.5"/>
<text text-anchor="middle" x="734" y="-119.5" font-family="Helvetica,sans-Serif" font-size="10.00">random</text>
</a>
</g>
</g>
<!-- Node3&#45;&gt;Node15 -->
<g id="edge14" class="edge">
<title>Node3&#45;&gt;Node15</title>
<path fill="none" stroke="midnightblue" d="M487.62,-171.35C533.35,-163.74 616.57,-149.34 697.11,-132.08"/>
<polygon fill="midnightblue" stroke="midnightblue" points="697.88,-135.5 706.92,-129.97 696.4,-128.66 697.88,-135.5"/>
</g>
<!-- Node16 -->
<g id="node16" class="node">
<title>Node16</title>
<g id="a_node16"><a xlink:href="../../df/daa/MatrixStorage_8hpp.html" target="_top" xlink:title=" ">
<polygon fill="white" stroke="black" points="779.5,-112.5 779.5,-131.5 904.5,-131.5 904.5,-112.5 779.5,-112.5"/>
<text text-anchor="middle" x="842" y="-119.5" font-family="Helvetica,sans-Serif" font-size="10.00">util/MatrixStorage.hpp</text>
</a>
</g>
</g>
<!-- Node3&#45;&gt;Node16 -->
<g id="edge15" class="edge">
<title>Node3&#45;&gt;Node16</title>
<path fill="none" stroke="midnightblue" d="M487.52,-172.21C550.86,-163.41 686.84,-144.54 770.75,-132.89"/>
<polygon fill="midnightblue" stroke="midnightblue" points="771.3,-136.35 780.72,-131.51 770.33,-129.42 771.3,-136.35"/>
</g>
<!-- Node5 -->
<g id="node5" class="node">
<title>Node5</title>
<g id="a_node5"><a xlink:href="../../df/d96/ArduinoMacroFix_8hpp.html" target="_top" xlink:title="Fixes for problematic macros defined by the Arduino Core.">
<polygon fill="white" stroke="black" points="83.5,-56.5 83.5,-75.5 202.5,-75.5 202.5,-56.5 83.5,-56.5"/>
<text text-anchor="middle" x="143" y="-63.5" font-family="Helvetica,sans-Serif" font-size="10.00">ArduinoMacroFix.hpp</text>
</a>
</g>
</g>
<!-- Node4&#45;&gt;Node5 -->
<g id="edge4" class="edge">
<title>Node4&#45;&gt;Node5</title>
<path fill="none" stroke="midnightblue" d="M143,-112.08C143,-105.01 143,-94.86 143,-85.99"/>
<polygon fill="midnightblue" stroke="midnightblue" points="146.5,-85.75 143,-75.75 139.5,-85.75 146.5,-85.75"/>
</g>
<!-- Node6 -->
<g id="node6" class="node">
<title>Node6</title>
<g id="a_node6"><a xlink:title=" ">
<polygon fill="white" stroke="#bfbfbf" points="111.5,-0.5 111.5,-19.5 174.5,-19.5 174.5,-0.5 111.5,-0.5"/>
<text text-anchor="middle" x="143" y="-7.5" font-family="Helvetica,sans-Serif" font-size="10.00">Arduino.h</text>
</a>
</g>
</g>
<!-- Node5&#45;&gt;Node6 -->
<g id="edge5" class="edge">
<title>Node5&#45;&gt;Node6</title>
<path fill="none" stroke="midnightblue" d="M143,-56.08C143,-49.01 143,-38.86 143,-29.99"/>
<polygon fill="midnightblue" stroke="midnightblue" points="146.5,-29.75 143,-19.75 139.5,-29.75 146.5,-29.75"/>
</g>
<!-- Node16&#45;&gt;Node13 -->
<g id="edge16" class="edge">
<title>Node16&#45;&gt;Node13</title>
<path fill="none" stroke="midnightblue" d="M823.78,-112.44C805.1,-103.68 775.84,-89.94 754.38,-79.86"/>
<polygon fill="midnightblue" stroke="midnightblue" points="755.68,-76.6 745.14,-75.52 752.7,-82.93 755.68,-76.6"/>
</g>
</g>
</svg>
