<?xml version="1.0" encoding="UTF-8" standalone="no"?>
<!DOCTYPE svg PUBLIC "-//W3C//DTD SVG 1.1//EN"
 "http://www.w3.org/Graphics/SVG/1.1/DTD/svg11.dtd">
<!-- Generated by graphviz version 2.43.0 (0)
 -->
<!-- Title: Basic&#45;matrix&#45;operations.ino Pages: 1 -->
<svg width="738pt" height="308pt"
 viewBox="0.00 0.00 738.00 308.00" xmlns="http://www.w3.org/2000/svg" xmlns:xlink="http://www.w3.org/1999/xlink">
<g id="graph0" class="graph" transform="scale(1 1) rotate(0) translate(4 304)">
<title>Basic&#45;matrix&#45;operations.ino</title>
<polygon fill="white" stroke="transparent" points="-4,4 -4,-304 734,-304 734,4 -4,4"/>
<!-- Node1 -->
<g id="node1" class="node">
<title>Node1</title>
<g id="a_node1"><a xlink:title=" ">
<polygon fill="#bfbfbf" stroke="black" points="317,-280.5 317,-299.5 469,-299.5 469,-280.5 317,-280.5"/>
<text text-anchor="middle" x="393" y="-287.5" font-family="Helvetica,sans-Serif" font-size="10.00">Basic&#45;matrix&#45;operations.ino</text>
</a>
</g>
</g>
<!-- Node2 -->
<g id="node2" class="node">
<title>Node2</title>
<g id="a_node2"><a xlink:href="../../d9/d1c/Linear__Algebra_8h.html" target="_top" xlink:title=" ">
<polygon fill="white" stroke="black" points="225,-224.5 225,-243.5 323,-243.5 323,-224.5 225,-224.5"/>
<text text-anchor="middle" x="274" y="-231.5" font-family="Helvetica,sans-Serif" font-size="10.00">Linear_Algebra.h</text>
</a>
</g>
</g>
<!-- Node1&#45;&gt;Node2 -->
<g id="edge1" class="edge">
<title>Node1&#45;&gt;Node2</title>
<path fill="none" stroke="midnightblue" d="M374.14,-280.44C354.73,-271.64 324.27,-257.81 302.04,-247.72"/>
<polygon fill="midnightblue" stroke="midnightblue" points="303.32,-244.46 292.77,-243.52 300.43,-250.84 303.32,-244.46"/>
</g>
<!-- Node3 -->
<g id="node3" class="node">
<title>Node3</title>
<g id="a_node3"><a xlink:href="../../d9/d1c/Matrix_8hpp.html" target="_top" xlink:title=" ">
<polygon fill="white" stroke="black" points="305.5,-168.5 305.5,-187.5 374.5,-187.5 374.5,-168.5 305.5,-168.5"/>
<text text-anchor="middle" x="340" y="-175.5" font-family="Helvetica,sans-Serif" font-size="10.00">Matrix.hpp</text>
</a>
</g>
</g>
<!-- Node1&#45;&gt;Node3 -->
<g id="edge16" class="edge">
<title>Node1&#45;&gt;Node3</title>
<path fill="none" stroke="midnightblue" d="M388.49,-280.42C383.77,-271.41 376.21,-256.78 370,-244 362.37,-228.3 354.08,-210.26 348.15,-197.18"/>
<polygon fill="midnightblue" stroke="midnightblue" points="351.27,-195.56 343.96,-187.88 344.88,-198.44 351.27,-195.56"/>
</g>
<!-- Node15 -->
<g id="node15" class="node">
<title>Node15</title>
<g id="a_node15"><a xlink:href="../../d9/d52/HouseholderQR_8hpp.html" target="_top" xlink:title=" ">
<polygon fill="white" stroke="black" points="379.5,-224.5 379.5,-243.5 492.5,-243.5 492.5,-224.5 379.5,-224.5"/>
<text text-anchor="middle" x="436" y="-231.5" font-family="Helvetica,sans-Serif" font-size="10.00">HouseholderQR.hpp</text>
</a>
</g>
</g>
<!-- Node1&#45;&gt;Node15 -->
<g id="edge14" class="edge">
<title>Node1&#45;&gt;Node15</title>
<path fill="none" stroke="midnightblue" d="M400.1,-280.08C406.24,-272.38 415.27,-261.03 422.74,-251.65"/>
<polygon fill="midnightblue" stroke="midnightblue" points="425.54,-253.75 429.03,-243.75 420.06,-249.39 425.54,-253.75"/>
</g>
<!-- Node16 -->
<g id="node16" class="node">
<title>Node16</title>
<g id="a_node16"><a xlink:href="../../da/d4b/ArduinoCout_8hpp.html" target="_top" xlink:title="Arduino std::ostream Serial wrapper.">
<polygon fill="white" stroke="black" points="516,-224.5 516,-243.5 654,-243.5 654,-224.5 516,-224.5"/>
<text text-anchor="middle" x="585" y="-231.5" font-family="Helvetica,sans-Serif" font-size="10.00">Arduino/ArduinoCout.hpp</text>
</a>
</g>
</g>
<!-- Node1&#45;&gt;Node16 -->
<g id="edge17" class="edge">
<title>Node1&#45;&gt;Node16</title>
<path fill="none" stroke="midnightblue" d="M423.42,-280.44C456.28,-271.2 508.78,-256.44 544.97,-246.26"/>
<polygon fill="midnightblue" stroke="midnightblue" points="546.04,-249.59 554.72,-243.52 544.15,-242.85 546.04,-249.59"/>
</g>
<!-- Node2&#45;&gt;Node3 -->
<g id="edge2" class="edge">
<title>Node2&#45;&gt;Node3</title>
<path fill="none" stroke="midnightblue" d="M284.6,-224.32C294.46,-216.26 309.35,-204.08 321.22,-194.37"/>
<polygon fill="midnightblue" stroke="midnightblue" points="323.68,-196.88 329.2,-187.83 319.25,-191.46 323.68,-196.88"/>
</g>
<!-- Node4 -->
<g id="node4" class="node">
<title>Node4</title>
<g id="a_node4"><a xlink:href="../../d9/dd5/ArduinoConfig_8hpp.html" target="_top" xlink:title="Preprocessor logic for configuring the library to make it compatible with the Arduino environment.">
<polygon fill="white" stroke="black" points="577,-112.5 577,-131.5 723,-131.5 723,-112.5 577,-112.5"/>
<text text-anchor="middle" x="650" y="-119.5" font-family="Helvetica,sans-Serif" font-size="10.00">Arduino/ArduinoConfig.hpp</text>
</a>
</g>
</g>
<!-- Node3&#45;&gt;Node4 -->
<g id="edge3" class="edge">
<title>Node3&#45;&gt;Node4</title>
<path fill="none" stroke="midnightblue" d="M374.66,-170.96C427.07,-161.83 527.16,-144.4 591.14,-133.25"/>
<polygon fill="midnightblue" stroke="midnightblue" points="591.83,-136.68 601.09,-131.52 590.63,-129.79 591.83,-136.68"/>
</g>
<!-- Node7 -->
<g id="node7" class="node">
<title>Node7</title>
<g id="a_node7"><a xlink:title=" ">
<polygon fill="white" stroke="#bfbfbf" points="0,-112.5 0,-131.5 64,-131.5 64,-112.5 0,-112.5"/>
<text text-anchor="middle" x="32" y="-119.5" font-family="Helvetica,sans-Serif" font-size="10.00">algorithm</text>
</a>
</g>
</g>
<!-- Node3&#45;&gt;Node7 -->
<g id="edge6" class="edge">
<title>Node3&#45;&gt;Node7</title>
<path fill="none" stroke="midnightblue" d="M305.34,-171.72C256.17,-164.1 163.11,-149.23 74.18,-132.15"/>
<polygon fill="midnightblue" stroke="midnightblue" points="74.68,-128.69 64.2,-130.22 73.35,-135.56 74.68,-128.69"/>
</g>
<!-- Node8 -->
<g id="node8" class="node">
<title>Node8</title>
<g id="a_node8"><a xlink:title=" ">
<polygon fill="white" stroke="#bfbfbf" points="82,-112.5 82,-131.5 134,-131.5 134,-112.5 82,-112.5"/>
<text text-anchor="middle" x="108" y="-119.5" font-family="Helvetica,sans-Serif" font-size="10.00">cassert</text>
</a>
</g>
</g>
<!-- Node3&#45;&gt;Node8 -->
<g id="edge7" class="edge">
<title>Node3&#45;&gt;Node8</title>
<path fill="none" stroke="midnightblue" d="M305.41,-169.4C268.02,-161.11 206.42,-147.28 144.32,-132.28"/>
<polygon fill="midnightblue" stroke="midnightblue" points="144.9,-128.81 134.35,-129.86 143.25,-135.62 144.9,-128.81"/>
</g>
<!-- Node9 -->
<g id="node9" class="node">
<title>Node9</title>
<g id="a_node9"><a xlink:title=" ">
<polygon fill="white" stroke="#bfbfbf" points="152.5,-112.5 152.5,-131.5 217.5,-131.5 217.5,-112.5 152.5,-112.5"/>
<text text-anchor="middle" x="185" y="-119.5" font-family="Helvetica,sans-Serif" font-size="10.00">functional</text>
</a>
</g>
</g>
<!-- Node3&#45;&gt;Node9 -->
<g id="edge8" class="edge">
<title>Node3&#45;&gt;Node9</title>
<path fill="none" stroke="midnightblue" d="M315.44,-168.44C289.48,-159.4 248.33,-145.06 219.2,-134.92"/>
<polygon fill="midnightblue" stroke="midnightblue" points="220.04,-131.5 209.45,-131.52 217.74,-138.11 220.04,-131.5"/>
</g>
<!-- Node10 -->
<g id="node10" class="node">
<title>Node10</title>
<g id="a_node10"><a xlink:title=" ">
<polygon fill="white" stroke="#bfbfbf" points="236,-112.5 236,-131.5 292,-131.5 292,-112.5 236,-112.5"/>
<text text-anchor="middle" x="264" y="-119.5" font-family="Helvetica,sans-Serif" font-size="10.00">numeric</text>
</a>
</g>
</g>
<!-- Node3&#45;&gt;Node10 -->
<g id="edge9" class="edge">
<title>Node3&#45;&gt;Node10</title>
<path fill="none" stroke="midnightblue" d="M327.79,-168.32C316.22,-160.11 298.62,-147.6 284.84,-137.81"/>
<polygon fill="midnightblue" stroke="midnightblue" points="286.61,-134.77 276.43,-131.83 282.56,-140.48 286.61,-134.77"/>
</g>
<!-- Node11 -->
<g id="node11" class="node">
<title>Node11</title>
<g id="a_node11"><a xlink:title=" ">
<polygon fill="white" stroke="#bfbfbf" points="310,-112.5 310,-131.5 364,-131.5 364,-112.5 310,-112.5"/>
<text text-anchor="middle" x="337" y="-119.5" font-family="Helvetica,sans-Serif" font-size="10.00">random</text>
</a>
</g>
</g>
<!-- Node3&#45;&gt;Node11 -->
<g id="edge10" class="edge">
<title>Node3&#45;&gt;Node11</title>
<path fill="none" stroke="midnightblue" d="M339.5,-168.08C339.11,-161.01 338.55,-150.86 338.05,-141.99"/>
<polygon fill="midnightblue" stroke="midnightblue" points="341.54,-141.54 337.49,-131.75 334.55,-141.93 341.54,-141.54"/>
</g>
<!-- Node12 -->
<g id="node12" class="node">
<title>Node12</title>
<g id="a_node12"><a xlink:title=" ">
<polygon fill="white" stroke="#bfbfbf" points="382.5,-112.5 382.5,-131.5 427.5,-131.5 427.5,-112.5 382.5,-112.5"/>
<text text-anchor="middle" x="405" y="-119.5" font-family="Helvetica,sans-Serif" font-size="10.00">utility</text>
</a>
</g>
</g>
<!-- Node3&#45;&gt;Node12 -->
<g id="edge11" class="edge">
<title>Node3&#45;&gt;Node12</title>
<path fill="none" stroke="midnightblue" d="M350.44,-168.32C360.15,-160.26 374.82,-148.08 386.5,-138.37"/>
<polygon fill="midnightblue" stroke="midnightblue" points="388.91,-140.92 394.37,-131.83 384.44,-135.53 388.91,-140.92"/>
</g>
<!-- Node13 -->
<g id="node13" class="node">
<title>Node13</title>
<g id="a_node13"><a xlink:title=" ">
<polygon fill="white" stroke="#bfbfbf" points="445.5,-112.5 445.5,-131.5 492.5,-131.5 492.5,-112.5 445.5,-112.5"/>
<text text-anchor="middle" x="469" y="-119.5" font-family="Helvetica,sans-Serif" font-size="10.00">vector</text>
</a>
</g>
</g>
<!-- Node3&#45;&gt;Node13 -->
<g id="edge12" class="edge">
<title>Node3&#45;&gt;Node13</title>
<path fill="none" stroke="midnightblue" d="M360.44,-168.44C381.67,-159.56 415.1,-145.56 439.25,-135.45"/>
<polygon fill="midnightblue" stroke="midnightblue" points="440.78,-138.61 448.66,-131.52 438.08,-132.15 440.78,-138.61"/>
</g>
<!-- Node14 -->
<g id="node14" class="node">
<title>Node14</title>
<g id="a_node14"><a xlink:title=" ">
<polygon fill="white" stroke="#bfbfbf" points="511,-112.5 511,-131.5 559,-131.5 559,-112.5 511,-112.5"/>
<text text-anchor="middle" x="535" y="-119.5" font-family="Helvetica,sans-Serif" font-size="10.00">iosfwd</text>
</a>
</g>
</g>
<!-- Node3&#45;&gt;Node14 -->
<g id="edge13" class="edge">
<title>Node3&#45;&gt;Node14</title>
<path fill="none" stroke="midnightblue" d="M370.9,-168.44C406.34,-158.63 464.26,-142.59 500.96,-132.43"/>
<polygon fill="midnightblue" stroke="midnightblue" points="502.01,-135.77 510.72,-129.73 500.14,-129.02 502.01,-135.77"/>
</g>
<!-- Node5 -->
<g id="node5" class="node">
<title>Node5</title>
<g id="a_node5"><a xlink:href="../../df/d96/ArduinoMacroFix_8hpp.html" target="_top" xlink:title="Fixes for problematic macros defined by the Arduino Core.">
<polygon fill="white" stroke="black" points="570,-56.5 570,-75.5 730,-75.5 730,-56.5 570,-56.5"/>
<text text-anchor="middle" x="650" y="-63.5" font-family="Helvetica,sans-Serif" font-size="10.00">Arduino/ArduinoMacroFix.hpp</text>
</a>
</g>
</g>
<!-- Node4&#45;&gt;Node5 -->
<g id="edge4" class="edge">
<title>Node4&#45;&gt;Node5</title>
<path fill="none" stroke="midnightblue" d="M650,-112.08C650,-105.01 650,-94.86 650,-85.99"/>
<polygon fill="midnightblue" stroke="midnightblue" points="653.5,-85.75 650,-75.75 646.5,-85.75 653.5,-85.75"/>
</g>
<!-- Node6 -->
<g id="node6" class="node">
<title>Node6</title>
<g id="a_node6"><a xlink:title=" ">
<polygon fill="white" stroke="#bfbfbf" points="618.5,-0.5 618.5,-19.5 681.5,-19.5 681.5,-0.5 618.5,-0.5"/>
<text text-anchor="middle" x="650" y="-7.5" font-family="Helvetica,sans-Serif" font-size="10.00">Arduino.h</text>
</a>
</g>
</g>
<!-- Node5&#45;&gt;Node6 -->
<g id="edge5" class="edge">
<title>Node5&#45;&gt;Node6</title>
<path fill="none" stroke="midnightblue" d="M650,-56.08C650,-49.01 650,-38.86 650,-29.99"/>
<polygon fill="midnightblue" stroke="midnightblue" points="653.5,-29.75 650,-19.75 646.5,-29.75 653.5,-29.75"/>
</g>
<!-- Node15&#45;&gt;Node3 -->
<g id="edge15" class="edge">
<title>Node15&#45;&gt;Node3</title>
<path fill="none" stroke="midnightblue" d="M420.58,-224.32C405.46,-215.82 382.18,-202.73 364.53,-192.8"/>
<polygon fill="midnightblue" stroke="midnightblue" points="365.82,-189.51 355.39,-187.65 362.39,-195.61 365.82,-189.51"/>
</g>
<!-- Node16&#45;&gt;Node4 -->
<g id="edge18" class="edge">
<title>Node16&#45;&gt;Node4</title>
<path fill="none" stroke="midnightblue" d="M595.86,-224.44C605.78,-216.11 620.19,-202.59 629,-188 637.72,-173.57 643.23,-155.11 646.41,-141.56"/>
<polygon fill="midnightblue" stroke="midnightblue" points="649.89,-142.03 648.55,-131.52 643.04,-140.57 649.89,-142.03"/>
</g>
<!-- Node17 -->
<g id="node17" class="node">
<title>Node17</title>
<g id="a_node17"><a xlink:title=" ">
<polygon fill="white" stroke="#bfbfbf" points="477.5,-168.5 477.5,-187.5 534.5,-187.5 534.5,-168.5 477.5,-168.5"/>
<text text-anchor="middle" x="506" y="-175.5" font-family="Helvetica,sans-Serif" font-size="10.00">ostream</text>
</a>
</g>
</g>
<!-- Node16&#45;&gt;Node17 -->
<g id="edge19" class="edge">
<title>Node16&#45;&gt;Node17</title>
<path fill="none" stroke="midnightblue" d="M572.31,-224.32C560.1,-215.98 541.42,-203.21 527,-193.35"/>
<polygon fill="midnightblue" stroke="midnightblue" points="528.89,-190.41 518.66,-187.65 524.94,-196.19 528.89,-190.41"/>
</g>
<!-- Node18 -->
<g id="node18" class="node">
<title>Node18</title>
<g id="a_node18"><a xlink:title=" ">
<polygon fill="white" stroke="#bfbfbf" points="552.5,-168.5 552.5,-187.5 619.5,-187.5 619.5,-168.5 552.5,-168.5"/>
<text text-anchor="middle" x="586" y="-175.5" font-family="Helvetica,sans-Serif" font-size="10.00">streambuf</text>
</a>
</g>
</g>
<!-- Node16&#45;&gt;Node18 -->
<g id="edge20" class="edge">
<title>Node16&#45;&gt;Node18</title>
<path fill="none" stroke="midnightblue" d="M585.17,-224.08C585.3,-217.01 585.48,-206.86 585.65,-197.99"/>
<polygon fill="midnightblue" stroke="midnightblue" points="589.15,-197.81 585.84,-187.75 582.15,-197.68 589.15,-197.81"/>
</g>
</g>
</svg>
