<?xml version="1.0" encoding="UTF-8" standalone="no"?>
<!DOCTYPE svg PUBLIC "-//W3C//DTD SVG 1.1//EN"
 "http://www.w3.org/Graphics/SVG/1.1/DTD/svg11.dtd">
<!-- Generated by graphviz version 2.43.0 (0)
 -->
<!-- Title: Basic&#45;matrix&#45;operations.ino Pages: 1 -->
<svg width="803pt" height="308pt"
 viewBox="0.00 0.00 803.00 308.00" xmlns="http://www.w3.org/2000/svg" xmlns:xlink="http://www.w3.org/1999/xlink">
<g id="graph0" class="graph" transform="scale(1 1) rotate(0) translate(4 304)">
<title>Basic&#45;matrix&#45;operations.ino</title>
<polygon fill="white" stroke="transparent" points="-4,4 -4,-304 799,-304 799,4 -4,4"/>
<!-- Node1 -->
<g id="node1" class="node">
<title>Node1</title>
<g id="a_node1"><a xlink:title=" ">
<polygon fill="#bfbfbf" stroke="black" points="377,-280.5 377,-299.5 529,-299.5 529,-280.5 377,-280.5"/>
<text text-anchor="middle" x="453" y="-287.5" font-family="Helvetica,sans-Serif" font-size="10.00">Basic&#45;matrix&#45;operations.ino</text>
</a>
</g>
</g>
<!-- Node2 -->
<g id="node2" class="node">
<title>Node2</title>
<g id="a_node2"><a xlink:href="../../d9/d1c/Linear__Algebra_8h.html" target="_top" xlink:title=" ">
<polygon fill="white" stroke="black" points="285,-224.5 285,-243.5 383,-243.5 383,-224.5 285,-224.5"/>
<text text-anchor="middle" x="334" y="-231.5" font-family="Helvetica,sans-Serif" font-size="10.00">Linear_Algebra.h</text>
</a>
</g>
</g>
<!-- Node1&#45;&gt;Node2 -->
<g id="edge1" class="edge">
<title>Node1&#45;&gt;Node2</title>
<path fill="none" stroke="midnightblue" d="M434.14,-280.44C414.73,-271.64 384.27,-257.81 362.04,-247.72"/>
<polygon fill="midnightblue" stroke="midnightblue" points="363.32,-244.46 352.77,-243.52 360.43,-250.84 363.32,-244.46"/>
</g>
<!-- Node3 -->
<g id="node3" class="node">
<title>Node3</title>
<g id="a_node3"><a xlink:href="../../d9/d1c/Matrix_8hpp.html" target="_top" xlink:title=" ">
<polygon fill="white" stroke="black" points="363.5,-168.5 363.5,-187.5 432.5,-187.5 432.5,-168.5 363.5,-168.5"/>
<text text-anchor="middle" x="398" y="-175.5" font-family="Helvetica,sans-Serif" font-size="10.00">Matrix.hpp</text>
</a>
</g>
</g>
<!-- Node1&#45;&gt;Node3 -->
<g id="edge17" class="edge">
<title>Node1&#45;&gt;Node3</title>
<path fill="none" stroke="midnightblue" d="M448.55,-280.39C443.89,-271.35 436.37,-256.7 430,-244 422.08,-228.21 413.22,-210.18 406.83,-197.12"/>
<polygon fill="midnightblue" stroke="midnightblue" points="409.84,-195.3 402.31,-187.85 403.55,-198.37 409.84,-195.3"/>
</g>
<!-- Node16 -->
<g id="node16" class="node">
<title>Node16</title>
<g id="a_node16"><a xlink:href="../../d9/d52/HouseholderQR_8hpp.html" target="_top" xlink:title=" ">
<polygon fill="white" stroke="black" points="439.5,-224.5 439.5,-243.5 552.5,-243.5 552.5,-224.5 439.5,-224.5"/>
<text text-anchor="middle" x="496" y="-231.5" font-family="Helvetica,sans-Serif" font-size="10.00">HouseholderQR.hpp</text>
</a>
</g>
</g>
<!-- Node1&#45;&gt;Node16 -->
<g id="edge15" class="edge">
<title>Node1&#45;&gt;Node16</title>
<path fill="none" stroke="midnightblue" d="M460.1,-280.08C466.24,-272.38 475.27,-261.03 482.74,-251.65"/>
<polygon fill="midnightblue" stroke="midnightblue" points="485.54,-253.75 489.03,-243.75 480.06,-249.39 485.54,-253.75"/>
</g>
<!-- Node17 -->
<g id="node17" class="node">
<title>Node17</title>
<g id="a_node17"><a xlink:href="../../da/d4b/ArduinoCout_8hpp.html" target="_top" xlink:title="Arduino std::ostream Serial wrapper.">
<polygon fill="white" stroke="black" points="577,-224.5 577,-243.5 715,-243.5 715,-224.5 577,-224.5"/>
<text text-anchor="middle" x="646" y="-231.5" font-family="Helvetica,sans-Serif" font-size="10.00">Arduino/ArduinoCout.hpp</text>
</a>
</g>
</g>
<!-- Node1&#45;&gt;Node17 -->
<g id="edge18" class="edge">
<title>Node1&#45;&gt;Node17</title>
<path fill="none" stroke="midnightblue" d="M483.58,-280.44C516.61,-271.2 569.39,-256.44 605.77,-246.26"/>
<polygon fill="midnightblue" stroke="midnightblue" points="606.87,-249.58 615.56,-243.52 604.99,-242.84 606.87,-249.58"/>
</g>
<!-- Node2&#45;&gt;Node3 -->
<g id="edge2" class="edge">
<title>Node2&#45;&gt;Node3</title>
<path fill="none" stroke="midnightblue" d="M344.28,-224.32C353.84,-216.26 368.28,-204.08 379.78,-194.37"/>
<polygon fill="midnightblue" stroke="midnightblue" points="382.14,-196.96 387.53,-187.83 377.63,-191.61 382.14,-196.96"/>
</g>
<!-- Node4 -->
<g id="node4" class="node">
<title>Node4</title>
<g id="a_node4"><a xlink:href="../../d9/dd5/ArduinoConfig_8hpp.html" target="_top" xlink:title="Preprocessor logic for configuring the library to make it compatible with the Arduino environment.">
<polygon fill="white" stroke="black" points="642,-112.5 642,-131.5 788,-131.5 788,-112.5 642,-112.5"/>
<text text-anchor="middle" x="715" y="-119.5" font-family="Helvetica,sans-Serif" font-size="10.00">Arduino/ArduinoConfig.hpp</text>
</a>
</g>
</g>
<!-- Node3&#45;&gt;Node4 -->
<g id="edge3" class="edge">
<title>Node3&#45;&gt;Node4</title>
<path fill="none" stroke="midnightblue" d="M432.53,-171.12C485.84,-162.04 588.9,-144.48 654.7,-133.27"/>
<polygon fill="midnightblue" stroke="midnightblue" points="655.66,-136.66 664.93,-131.53 654.48,-129.76 655.66,-136.66"/>
</g>
<!-- Node7 -->
<g id="node7" class="node">
<title>Node7</title>
<g id="a_node7"><a xlink:title=" ">
<polygon fill="white" stroke="#bfbfbf" points="0,-112.5 0,-131.5 64,-131.5 64,-112.5 0,-112.5"/>
<text text-anchor="middle" x="32" y="-119.5" font-family="Helvetica,sans-Serif" font-size="10.00">algorithm</text>
</a>
</g>
</g>
<!-- Node3&#45;&gt;Node7 -->
<g id="edge6" class="edge">
<title>Node3&#45;&gt;Node7</title>
<path fill="none" stroke="midnightblue" d="M363.23,-173.09C305.36,-166.4 185.43,-151.68 74.22,-132.1"/>
<polygon fill="midnightblue" stroke="midnightblue" points="74.64,-128.62 64.18,-130.31 73.41,-135.51 74.64,-128.62"/>
</g>
<!-- Node8 -->
<g id="node8" class="node">
<title>Node8</title>
<g id="a_node8"><a xlink:title=" ">
<polygon fill="white" stroke="#bfbfbf" points="82,-112.5 82,-131.5 134,-131.5 134,-112.5 82,-112.5"/>
<text text-anchor="middle" x="108" y="-119.5" font-family="Helvetica,sans-Serif" font-size="10.00">cassert</text>
</a>
</g>
</g>
<!-- Node3&#45;&gt;Node8 -->
<g id="edge7" class="edge">
<title>Node3&#45;&gt;Node8</title>
<path fill="none" stroke="midnightblue" d="M363.19,-171.73C315.82,-164.36 228.21,-150.07 144.27,-132.15"/>
<polygon fill="midnightblue" stroke="midnightblue" points="144.83,-128.69 134.32,-130 143.36,-135.53 144.83,-128.69"/>
</g>
<!-- Node9 -->
<g id="node9" class="node">
<title>Node9</title>
<g id="a_node9"><a xlink:title=" ">
<polygon fill="white" stroke="#bfbfbf" points="152.5,-112.5 152.5,-131.5 199.5,-131.5 199.5,-112.5 152.5,-112.5"/>
<text text-anchor="middle" x="176" y="-119.5" font-family="Helvetica,sans-Serif" font-size="10.00">cmath</text>
</a>
</g>
</g>
<!-- Node3&#45;&gt;Node9 -->
<g id="edge8" class="edge">
<title>Node3&#45;&gt;Node9</title>
<path fill="none" stroke="midnightblue" d="M363.22,-169.22C327.06,-161.03 268.56,-147.5 209.59,-132.34"/>
<polygon fill="midnightblue" stroke="midnightblue" points="210.29,-128.91 199.74,-129.79 208.54,-135.69 210.29,-128.91"/>
</g>
<!-- Node10 -->
<g id="node10" class="node">
<title>Node10</title>
<g id="a_node10"><a xlink:title=" ">
<polygon fill="white" stroke="#bfbfbf" points="217.5,-112.5 217.5,-131.5 282.5,-131.5 282.5,-112.5 217.5,-112.5"/>
<text text-anchor="middle" x="250" y="-119.5" font-family="Helvetica,sans-Serif" font-size="10.00">functional</text>
</a>
</g>
</g>
<!-- Node3&#45;&gt;Node10 -->
<g id="edge9" class="edge">
<title>Node3&#45;&gt;Node10</title>
<path fill="none" stroke="midnightblue" d="M374.55,-168.44C349.87,-159.44 310.81,-145.19 283.02,-135.05"/>
<polygon fill="midnightblue" stroke="midnightblue" points="283.94,-131.66 273.34,-131.52 281.54,-138.23 283.94,-131.66"/>
</g>
<!-- Node11 -->
<g id="node11" class="node">
<title>Node11</title>
<g id="a_node11"><a xlink:title=" ">
<polygon fill="white" stroke="#bfbfbf" points="301,-112.5 301,-131.5 357,-131.5 357,-112.5 301,-112.5"/>
<text text-anchor="middle" x="329" y="-119.5" font-family="Helvetica,sans-Serif" font-size="10.00">numeric</text>
</a>
</g>
</g>
<!-- Node3&#45;&gt;Node11 -->
<g id="edge10" class="edge">
<title>Node3&#45;&gt;Node11</title>
<path fill="none" stroke="midnightblue" d="M386.91,-168.32C376.51,-160.18 360.74,-147.84 348.28,-138.09"/>
<polygon fill="midnightblue" stroke="midnightblue" points="350.32,-135.24 340.29,-131.83 346.01,-140.75 350.32,-135.24"/>
</g>
<!-- Node12 -->
<g id="node12" class="node">
<title>Node12</title>
<g id="a_node12"><a xlink:title=" ">
<polygon fill="white" stroke="#bfbfbf" points="375.5,-112.5 375.5,-131.5 420.5,-131.5 420.5,-112.5 375.5,-112.5"/>
<text text-anchor="middle" x="398" y="-119.5" font-family="Helvetica,sans-Serif" font-size="10.00">utility</text>
</a>
</g>
</g>
<!-- Node3&#45;&gt;Node12 -->
<g id="edge11" class="edge">
<title>Node3&#45;&gt;Node12</title>
<path fill="none" stroke="midnightblue" d="M398,-168.08C398,-161.01 398,-150.86 398,-141.99"/>
<polygon fill="midnightblue" stroke="midnightblue" points="401.5,-141.75 398,-131.75 394.5,-141.75 401.5,-141.75"/>
</g>
<!-- Node13 -->
<g id="node13" class="node">
<title>Node13</title>
<g id="a_node13"><a xlink:title=" ">
<polygon fill="white" stroke="#bfbfbf" points="438.5,-112.5 438.5,-131.5 485.5,-131.5 485.5,-112.5 438.5,-112.5"/>
<text text-anchor="middle" x="462" y="-119.5" font-family="Helvetica,sans-Serif" font-size="10.00">vector</text>
</a>
</g>
</g>
<!-- Node3&#45;&gt;Node13 -->
<g id="edge12" class="edge">
<title>Node3&#45;&gt;Node13</title>
<path fill="none" stroke="midnightblue" d="M408.28,-168.32C417.84,-160.26 432.28,-148.08 443.78,-138.37"/>
<polygon fill="midnightblue" stroke="midnightblue" points="446.14,-140.96 451.53,-131.83 441.63,-135.61 446.14,-140.96"/>
</g>
<!-- Node14 -->
<g id="node14" class="node">
<title>Node14</title>
<g id="a_node14"><a xlink:title=" ">
<polygon fill="white" stroke="#bfbfbf" points="504,-112.5 504,-131.5 552,-131.5 552,-112.5 504,-112.5"/>
<text text-anchor="middle" x="528" y="-119.5" font-family="Helvetica,sans-Serif" font-size="10.00">iosfwd</text>
</a>
</g>
</g>
<!-- Node3&#45;&gt;Node14 -->
<g id="edge13" class="edge">
<title>Node3&#45;&gt;Node14</title>
<path fill="none" stroke="midnightblue" d="M418.6,-168.44C439.99,-159.56 473.68,-145.56 498.02,-135.45"/>
<polygon fill="midnightblue" stroke="midnightblue" points="499.61,-138.58 507.5,-131.52 496.92,-132.12 499.61,-138.58"/>
</g>
<!-- Node15 -->
<g id="node15" class="node">
<title>Node15</title>
<g id="a_node15"><a xlink:title=" ">
<polygon fill="white" stroke="#bfbfbf" points="570,-112.5 570,-131.5 624,-131.5 624,-112.5 570,-112.5"/>
<text text-anchor="middle" x="597" y="-119.5" font-family="Helvetica,sans-Serif" font-size="10.00">random</text>
</a>
</g>
</g>
<!-- Node3&#45;&gt;Node15 -->
<g id="edge14" class="edge">
<title>Node3&#45;&gt;Node15</title>
<path fill="none" stroke="midnightblue" d="M429.53,-168.44C464.89,-158.85 522.2,-143.3 559.74,-133.11"/>
<polygon fill="midnightblue" stroke="midnightblue" points="561.04,-136.39 569.77,-130.39 559.2,-129.63 561.04,-136.39"/>
</g>
<!-- Node5 -->
<g id="node5" class="node">
<title>Node5</title>
<g id="a_node5"><a xlink:href="../../df/d96/ArduinoMacroFix_8hpp.html" target="_top" xlink:title="Fixes for problematic macros defined by the Arduino Core.">
<polygon fill="white" stroke="black" points="635,-56.5 635,-75.5 795,-75.5 795,-56.5 635,-56.5"/>
<text text-anchor="middle" x="715" y="-63.5" font-family="Helvetica,sans-Serif" font-size="10.00">Arduino/ArduinoMacroFix.hpp</text>
</a>
</g>
</g>
<!-- Node4&#45;&gt;Node5 -->
<g id="edge4" class="edge">
<title>Node4&#45;&gt;Node5</title>
<path fill="none" stroke="midnightblue" d="M715,-112.08C715,-105.01 715,-94.86 715,-85.99"/>
<polygon fill="midnightblue" stroke="midnightblue" points="718.5,-85.75 715,-75.75 711.5,-85.75 718.5,-85.75"/>
</g>
<!-- Node6 -->
<g id="node6" class="node">
<title>Node6</title>
<g id="a_node6"><a xlink:title=" ">
<polygon fill="white" stroke="#bfbfbf" points="683.5,-0.5 683.5,-19.5 746.5,-19.5 746.5,-0.5 683.5,-0.5"/>
<text text-anchor="middle" x="715" y="-7.5" font-family="Helvetica,sans-Serif" font-size="10.00">Arduino.h</text>
</a>
</g>
</g>
<!-- Node5&#45;&gt;Node6 -->
<g id="edge5" class="edge">
<title>Node5&#45;&gt;Node6</title>
<path fill="none" stroke="midnightblue" d="M715,-56.08C715,-49.01 715,-38.86 715,-29.99"/>
<polygon fill="midnightblue" stroke="midnightblue" points="718.5,-29.75 715,-19.75 711.5,-29.75 718.5,-29.75"/>
</g>
<!-- Node16&#45;&gt;Node3 -->
<g id="edge16" class="edge">
<title>Node16&#45;&gt;Node3</title>
<path fill="none" stroke="midnightblue" d="M480.25,-224.32C464.68,-215.74 440.62,-202.49 422.54,-192.52"/>
<polygon fill="midnightblue" stroke="midnightblue" points="424.15,-189.42 413.71,-187.65 420.78,-195.55 424.15,-189.42"/>
</g>
<!-- Node17&#45;&gt;Node4 -->
<g id="edge19" class="edge">
<title>Node17&#45;&gt;Node4</title>
<path fill="none" stroke="midnightblue" d="M656.98,-224.41C667.03,-216.05 681.71,-202.51 691,-188 700.22,-173.6 706.61,-155.14 710.46,-141.58"/>
<polygon fill="midnightblue" stroke="midnightblue" points="713.94,-142.09 713.1,-131.53 707.17,-140.31 713.94,-142.09"/>
</g>
<!-- Node18 -->
<g id="node18" class="node">
<title>Node18</title>
<g id="a_node18"><a xlink:title=" ">
<polygon fill="white" stroke="#bfbfbf" points="539.5,-168.5 539.5,-187.5 596.5,-187.5 596.5,-168.5 539.5,-168.5"/>
<text text-anchor="middle" x="568" y="-175.5" font-family="Helvetica,sans-Serif" font-size="10.00">ostream</text>
</a>
</g>
</g>
<!-- Node17&#45;&gt;Node18 -->
<g id="edge20" class="edge">
<title>Node17&#45;&gt;Node18</title>
<path fill="none" stroke="midnightblue" d="M633.47,-224.32C621.41,-215.98 602.97,-203.21 588.73,-193.35"/>
<polygon fill="midnightblue" stroke="midnightblue" points="590.72,-190.47 580.5,-187.65 586.73,-196.22 590.72,-190.47"/>
</g>
<!-- Node19 -->
<g id="node19" class="node">
<title>Node19</title>
<g id="a_node19"><a xlink:title=" ">
<polygon fill="white" stroke="#bfbfbf" points="614.5,-168.5 614.5,-187.5 681.5,-187.5 681.5,-168.5 614.5,-168.5"/>
<text text-anchor="middle" x="648" y="-175.5" font-family="Helvetica,sans-Serif" font-size="10.00">streambuf</text>
</a>
</g>
</g>
<!-- Node17&#45;&gt;Node19 -->
<g id="edge21" class="edge">
<title>Node17&#45;&gt;Node19</title>
<path fill="none" stroke="midnightblue" d="M646.33,-224.08C646.59,-217.01 646.97,-206.86 647.3,-197.99"/>
<polygon fill="midnightblue" stroke="midnightblue" points="650.8,-197.87 647.68,-187.75 643.81,-197.61 650.8,-197.87"/>
</g>
</g>
</svg>
