<?xml version="1.0" encoding="UTF-8" standalone="no"?>
<!DOCTYPE svg PUBLIC "-//W3C//DTD SVG 1.1//EN"
 "http://www.w3.org/Graphics/SVG/1.1/DTD/svg11.dtd">
<!-- Generated by graphviz version 2.43.0 (0)
 -->
<!-- Title: ArduinoMacroFix.hpp Pages: 1 -->
<svg width="713pt" height="263pt"
 viewBox="0.00 0.00 712.50 263.00" xmlns="http://www.w3.org/2000/svg" xmlns:xlink="http://www.w3.org/1999/xlink">
<g id="graph0" class="graph" transform="scale(1 1) rotate(0) translate(4 259)">
<title>ArduinoMacroFix.hpp</title>
<polygon fill="white" stroke="transparent" points="-4,4 -4,-259 708.5,-259 708.5,4 -4,4"/>
<!-- Node1 -->
<g id="node1" class="node">
<title>Node1</title>
<g id="a_node1"><a xlink:title="Fixes for problematic macros defined by the Arduino Core.">
<polygon fill="#bfbfbf" stroke="black" points="274.5,-235.5 274.5,-254.5 393.5,-254.5 393.5,-235.5 274.5,-235.5"/>
<text text-anchor="middle" x="334" y="-242.5" font-family="Helvetica,sans-Serif" font-size="10.00">ArduinoMacroFix.hpp</text>
</a>
</g>
</g>
<!-- Node2 -->
<g id="node2" class="node">
<title>Node2</title>
<g id="a_node2"><a xlink:href="../../d9/dd5/ArduinoConfig_8hpp.html" target="_top" xlink:title="Preprocessor logic for configuring the library to make it compatible with the Arduino environment.">
<polygon fill="white" stroke="black" points="281,-179.5 281,-198.5 387,-198.5 387,-179.5 281,-179.5"/>
<text text-anchor="middle" x="334" y="-186.5" font-family="Helvetica,sans-Serif" font-size="10.00">ArduinoConfig.hpp</text>
</a>
</g>
</g>
<!-- Node1&#45;&gt;Node2 -->
<g id="edge1" class="edge">
<title>Node1&#45;&gt;Node2</title>
<path fill="none" stroke="midnightblue" d="M334,-224.8C334,-215.91 334,-205.78 334,-198.75"/>
<polygon fill="midnightblue" stroke="midnightblue" points="330.5,-225.08 334,-235.08 337.5,-225.08 330.5,-225.08"/>
</g>
<!-- Node3 -->
<g id="node3" class="node">
<title>Node3</title>
<g id="a_node3"><a xlink:href="../../dd/db9/ArduinoConfig_8cpp.html" target="_top" xlink:title=" ">
<polygon fill="white" stroke="black" points="110.5,-123.5 110.5,-142.5 215.5,-142.5 215.5,-123.5 110.5,-123.5"/>
<text text-anchor="middle" x="163" y="-130.5" font-family="Helvetica,sans-Serif" font-size="10.00">ArduinoConfig.cpp</text>
</a>
</g>
</g>
<!-- Node2&#45;&gt;Node3 -->
<g id="edge2" class="edge">
<title>Node2&#45;&gt;Node3</title>
<path fill="none" stroke="midnightblue" d="M296.96,-176.3C264.74,-166.13 218.81,-151.62 189.97,-142.52"/>
<polygon fill="midnightblue" stroke="midnightblue" points="296.31,-179.77 306.9,-179.44 298.42,-173.09 296.31,-179.77"/>
</g>
<!-- Node4 -->
<g id="node4" class="node">
<title>Node4</title>
<g id="a_node4"><a xlink:href="../../da/d4b/ArduinoCout_8hpp.html" target="_top" xlink:title="Arduino std::ostream Serial wrapper.">
<polygon fill="white" stroke="black" points="234,-123.5 234,-142.5 332,-142.5 332,-123.5 234,-123.5"/>
<text text-anchor="middle" x="283" y="-130.5" font-family="Helvetica,sans-Serif" font-size="10.00">ArduinoCout.hpp</text>
</a>
</g>
</g>
<!-- Node2&#45;&gt;Node4 -->
<g id="edge3" class="edge">
<title>Node2&#45;&gt;Node4</title>
<path fill="none" stroke="midnightblue" d="M318.62,-171.72C309.63,-162.2 298.64,-150.56 291.26,-142.75"/>
<polygon fill="midnightblue" stroke="midnightblue" points="316.17,-174.22 325.58,-179.08 321.26,-169.41 316.17,-174.22"/>
</g>
<!-- Node6 -->
<g id="node6" class="node">
<title>Node6</title>
<g id="a_node6"><a xlink:href="../../d3/da8/ArduinoMatrixPrinter_8cpp.html" target="_top" xlink:title="Fallback functions for printing matrices without relying on std::ostream or printf.">
<polygon fill="white" stroke="black" points="567.5,-67.5 567.5,-86.5 704.5,-86.5 704.5,-67.5 567.5,-67.5"/>
<text text-anchor="middle" x="636" y="-74.5" font-family="Helvetica,sans-Serif" font-size="10.00">ArduinoMatrixPrinter.cpp</text>
</a>
</g>
</g>
<!-- Node2&#45;&gt;Node6 -->
<g id="edge5" class="edge">
<title>Node2&#45;&gt;Node6</title>
<path fill="none" stroke="midnightblue" d="M367.32,-175.86C428.88,-153.44 559.04,-106.03 612.41,-86.59"/>
<polygon fill="midnightblue" stroke="midnightblue" points="365.9,-172.66 357.7,-179.37 368.29,-179.23 365.9,-172.66"/>
</g>
<!-- Node7 -->
<g id="node7" class="node">
<title>Node7</title>
<g id="a_node7"><a xlink:href="../../d9/d1c/Matrix_8hpp.html" target="_top" xlink:title=" ">
<polygon fill="white" stroke="black" points="350.5,-123.5 350.5,-142.5 419.5,-142.5 419.5,-123.5 350.5,-123.5"/>
<text text-anchor="middle" x="385" y="-130.5" font-family="Helvetica,sans-Serif" font-size="10.00">Matrix.hpp</text>
</a>
</g>
</g>
<!-- Node2&#45;&gt;Node7 -->
<g id="edge6" class="edge">
<title>Node2&#45;&gt;Node7</title>
<path fill="none" stroke="midnightblue" d="M349.38,-171.72C358.37,-162.2 369.36,-150.56 376.74,-142.75"/>
<polygon fill="midnightblue" stroke="midnightblue" points="346.74,-169.41 342.42,-179.08 351.83,-174.22 346.74,-169.41"/>
</g>
<!-- Node5 -->
<g id="node5" class="node">
<title>Node5</title>
<g id="a_node5"><a xlink:href="../../dd/d4f/Basic-matrix-operations_8ino.html" target="_top" xlink:title=" ">
<polygon fill="white" stroke="black" points="0,-6 0,-25 152,-25 152,-6 0,-6"/>
<text text-anchor="middle" x="76" y="-13" font-family="Helvetica,sans-Serif" font-size="10.00">Basic&#45;matrix&#45;operations.ino</text>
</a>
</g>
</g>
<!-- Node4&#45;&gt;Node5 -->
<g id="edge4" class="edge">
<title>Node4&#45;&gt;Node5</title>
<path fill="none" stroke="midnightblue" d="M223.91,-122.09C169.05,-112.33 94.45,-97.41 85,-87 69.41,-69.83 71.86,-39.85 74.27,-25.14"/>
<polygon fill="midnightblue" stroke="midnightblue" points="223.44,-125.56 233.9,-123.85 224.66,-118.67 223.44,-125.56"/>
</g>
<!-- Node7&#45;&gt;Node5 -->
<g id="edge19" class="edge">
<title>Node7&#45;&gt;Node5</title>
<path fill="none" stroke="midnightblue" d="M340.49,-123.09C239.63,-107.25 198.45,-141.66 118,-87 95.61,-71.79 83.32,-40.32 78.47,-25.11"/>
<polygon fill="midnightblue" stroke="midnightblue" points="339.99,-126.56 350.44,-124.79 341.17,-119.66 339.99,-126.56"/>
</g>
<!-- Node7&#45;&gt;Node6 -->
<g id="edge7" class="edge">
<title>Node7&#45;&gt;Node6</title>
<path fill="none" stroke="midnightblue" d="M429.6,-122.4C476.92,-112.22 550.99,-96.29 596.35,-86.53"/>
<polygon fill="midnightblue" stroke="midnightblue" points="428.68,-119.02 419.64,-124.55 430.15,-125.87 428.68,-119.02"/>
</g>
<!-- Node8 -->
<g id="node8" class="node">
<title>Node8</title>
<g id="a_node8"><a xlink:href="../../d9/d52/HouseholderQR_8hpp.html" target="_top" xlink:title=" ">
<polygon fill="white" stroke="black" points="243.5,-67.5 243.5,-86.5 356.5,-86.5 356.5,-67.5 243.5,-67.5"/>
<text text-anchor="middle" x="300" y="-74.5" font-family="Helvetica,sans-Serif" font-size="10.00">HouseholderQR.hpp</text>
</a>
</g>
</g>
<!-- Node7&#45;&gt;Node8 -->
<g id="edge8" class="edge">
<title>Node7&#45;&gt;Node8</title>
<path fill="none" stroke="midnightblue" d="M362.81,-117.9C347.22,-108 326.87,-95.07 313.62,-86.65"/>
<polygon fill="midnightblue" stroke="midnightblue" points="361.03,-120.92 371.34,-123.32 364.78,-115.01 361.03,-120.92"/>
</g>
<!-- Node10 -->
<g id="node10" class="node">
<title>Node10</title>
<g id="a_node10"><a xlink:href="../../de/dd7/Basic-matrix-operations-no-iostream_8ino.html" target="_top" xlink:title=" ">
<polygon fill="white" stroke="black" points="302,-0.5 302,-30.5 436,-30.5 436,-0.5 302,-0.5"/>
<text text-anchor="start" x="310" y="-18.5" font-family="Helvetica,sans-Serif" font-size="10.00">Basic&#45;matrix&#45;operations</text>
<text text-anchor="middle" x="369" y="-7.5" font-family="Helvetica,sans-Serif" font-size="10.00">&#45;no&#45;iostream.ino</text>
</a>
</g>
</g>
<!-- Node7&#45;&gt;Node10 -->
<g id="edge20" class="edge">
<title>Node7&#45;&gt;Node10</title>
<path fill="none" stroke="midnightblue" d="M382.42,-113.38C379.22,-90.26 373.82,-51.32 370.95,-30.55"/>
<polygon fill="midnightblue" stroke="midnightblue" points="378.96,-113.89 383.8,-123.32 385.89,-112.93 378.96,-113.89"/>
</g>
<!-- Node12 -->
<g id="node12" class="node">
<title>Node12</title>
<g id="a_node12"><a xlink:href="../../d9/d1c/Linear__Algebra_8h.html" target="_top" xlink:title=" ">
<polygon fill="white" stroke="black" points="127,-67.5 127,-86.5 225,-86.5 225,-67.5 127,-67.5"/>
<text text-anchor="middle" x="176" y="-74.5" font-family="Helvetica,sans-Serif" font-size="10.00">Linear_Algebra.h</text>
</a>
</g>
</g>
<!-- Node7&#45;&gt;Node12 -->
<g id="edge13" class="edge">
<title>Node7&#45;&gt;Node12</title>
<path fill="none" stroke="midnightblue" d="M342.02,-120.89C302.55,-110.7 244.9,-95.8 208.96,-86.52"/>
<polygon fill="midnightblue" stroke="midnightblue" points="341.33,-124.33 351.88,-123.44 343.08,-117.55 341.33,-124.33"/>
</g>
<!-- Node13 -->
<g id="node13" class="node">
<title>Node13</title>
<g id="a_node13"><a xlink:href="../../d6/dcf/LU_8hpp.html" target="_top" xlink:title=" ">
<polygon fill="white" stroke="black" points="413,-67.5 413,-86.5 463,-86.5 463,-67.5 413,-67.5"/>
<text text-anchor="middle" x="438" y="-74.5" font-family="Helvetica,sans-Serif" font-size="10.00">LU.hpp</text>
</a>
</g>
</g>
<!-- Node7&#45;&gt;Node13 -->
<g id="edge16" class="edge">
<title>Node7&#45;&gt;Node13</title>
<path fill="none" stroke="midnightblue" d="M400.98,-115.72C410.32,-106.2 421.75,-94.56 429.41,-86.75"/>
<polygon fill="midnightblue" stroke="midnightblue" points="398.26,-113.49 393.75,-123.08 403.25,-118.4 398.26,-113.49"/>
</g>
<!-- Node15 -->
<g id="node15" class="node">
<title>Node15</title>
<g id="a_node15"><a xlink:href="../../dd/d52/Matrix_8cpp.html" target="_top" xlink:title=" ">
<polygon fill="white" stroke="black" points="481,-67.5 481,-86.5 549,-86.5 549,-67.5 481,-67.5"/>
<text text-anchor="middle" x="515" y="-74.5" font-family="Helvetica,sans-Serif" font-size="10.00">Matrix.cpp</text>
</a>
</g>
</g>
<!-- Node7&#45;&gt;Node15 -->
<g id="edge18" class="edge">
<title>Node7&#45;&gt;Node15</title>
<path fill="none" stroke="midnightblue" d="M415.09,-119.5C439.46,-109.38 473.14,-95.39 494.5,-86.52"/>
<polygon fill="midnightblue" stroke="midnightblue" points="413.49,-116.38 405.6,-123.44 416.18,-122.84 413.49,-116.38"/>
</g>
<!-- Node8&#45;&gt;Node5 -->
<g id="edge10" class="edge">
<title>Node8&#45;&gt;Node5</title>
<path fill="none" stroke="midnightblue" d="M258.2,-64.9C214.69,-53.34 147.51,-35.5 108.03,-25.01"/>
<polygon fill="midnightblue" stroke="midnightblue" points="257.34,-68.29 267.91,-67.48 259.14,-61.53 257.34,-68.29"/>
</g>
<!-- Node9 -->
<g id="node9" class="node">
<title>Node9</title>
<g id="a_node9"><a xlink:href="../../df/d5c/HouseholderQR_8cpp.html" target="_top" xlink:title=" ">
<polygon fill="white" stroke="black" points="170.5,-6 170.5,-25 283.5,-25 283.5,-6 170.5,-6"/>
<text text-anchor="middle" x="227" y="-13" font-family="Helvetica,sans-Serif" font-size="10.00">HouseholderQR.cpp</text>
</a>
</g>
</g>
<!-- Node8&#45;&gt;Node9 -->
<g id="edge9" class="edge">
<title>Node8&#45;&gt;Node9</title>
<path fill="none" stroke="midnightblue" d="M281.56,-60.97C267.6,-49.59 248.92,-34.37 237.44,-25.01"/>
<polygon fill="midnightblue" stroke="midnightblue" points="279.58,-63.87 289.54,-67.48 284,-58.44 279.58,-63.87"/>
</g>
<!-- Node8&#45;&gt;Node10 -->
<g id="edge11" class="edge">
<title>Node8&#45;&gt;Node10</title>
<path fill="none" stroke="midnightblue" d="M317.49,-60.92C328.32,-51.58 342.14,-39.66 352.74,-30.52"/>
<polygon fill="midnightblue" stroke="midnightblue" points="315.17,-58.29 309.89,-67.48 319.74,-63.6 315.17,-58.29"/>
</g>
<!-- Node11 -->
<g id="node11" class="node">
<title>Node11</title>
<g id="a_node11"><a xlink:href="../../de/d90/qr-perftest_8cpp.html" target="_top" xlink:title=" ">
<polygon fill="white" stroke="black" points="454,-6 454,-25 542,-25 542,-6 454,-6"/>
<text text-anchor="middle" x="498" y="-13" font-family="Helvetica,sans-Serif" font-size="10.00">qr&#45;perftest.cpp</text>
</a>
</g>
</g>
<!-- Node8&#45;&gt;Node11 -->
<g id="edge12" class="edge">
<title>Node8&#45;&gt;Node11</title>
<path fill="none" stroke="midnightblue" d="M338.17,-64.53C376.66,-52.96 435.16,-35.38 469.68,-25.01"/>
<polygon fill="midnightblue" stroke="midnightblue" points="336.94,-61.25 328.37,-67.48 338.95,-67.95 336.94,-61.25"/>
</g>
<!-- Node12&#45;&gt;Node5 -->
<g id="edge14" class="edge">
<title>Node12&#45;&gt;Node5</title>
<path fill="none" stroke="midnightblue" d="M152.88,-62.24C133.56,-50.75 106.63,-34.72 90.3,-25.01"/>
<polygon fill="midnightblue" stroke="midnightblue" points="151.29,-65.37 161.67,-67.48 154.87,-59.35 151.29,-65.37"/>
</g>
<!-- Node12&#45;&gt;Node10 -->
<g id="edge15" class="edge">
<title>Node12&#45;&gt;Node10</title>
<path fill="none" stroke="midnightblue" d="M213.36,-64.48C244.82,-54.78 289.95,-40.87 323.51,-30.52"/>
<polygon fill="midnightblue" stroke="midnightblue" points="212.18,-61.18 203.65,-67.48 214.24,-67.87 212.18,-61.18"/>
</g>
<!-- Node14 -->
<g id="node14" class="node">
<title>Node14</title>
<g id="a_node14"><a xlink:href="../../d6/d57/LU_8cpp.html" target="_top" xlink:title=" ">
<polygon fill="white" stroke="black" points="560,-6 560,-25 610,-25 610,-6 560,-6"/>
<text text-anchor="middle" x="585" y="-13" font-family="Helvetica,sans-Serif" font-size="10.00">LU.cpp</text>
</a>
</g>
</g>
<!-- Node13&#45;&gt;Node14 -->
<g id="edge17" class="edge">
<title>Node13&#45;&gt;Node14</title>
<path fill="none" stroke="midnightblue" d="M469.62,-63.64C492.33,-54.71 523.62,-42.29 551,-31 555.63,-29.09 560.59,-27 565.26,-25.01"/>
<polygon fill="midnightblue" stroke="midnightblue" points="468.18,-60.45 460.15,-67.36 470.74,-66.97 468.18,-60.45"/>
</g>
</g>
</svg>
