<?xml version="1.0" encoding="UTF-8" standalone="no"?>
<!DOCTYPE svg PUBLIC "-//W3C//DTD SVG 1.1//EN"
 "http://www.w3.org/Graphics/SVG/1.1/DTD/svg11.dtd">
<!-- Generated by graphviz version 2.43.0 (0)
 -->
<!-- Title: ArduinoMacroFix.hpp Pages: 1 -->
<svg width="592pt" height="252pt"
 viewBox="0.00 0.00 592.00 252.00" xmlns="http://www.w3.org/2000/svg" xmlns:xlink="http://www.w3.org/1999/xlink">
<g id="graph0" class="graph" transform="scale(1 1) rotate(0) translate(4 248)">
<title>ArduinoMacroFix.hpp</title>
<polygon fill="white" stroke="transparent" points="-4,4 -4,-248 588,-248 588,4 -4,4"/>
<!-- Node1 -->
<g id="node1" class="node">
<title>Node1</title>
<g id="a_node1"><a xlink:title="Fixes for problematic macros defined by the Arduino Core.">
<polygon fill="#bfbfbf" stroke="black" points="76.5,-224.5 76.5,-243.5 195.5,-243.5 195.5,-224.5 76.5,-224.5"/>
<text text-anchor="middle" x="136" y="-231.5" font-family="Helvetica,sans-Serif" font-size="10.00">ArduinoMacroFix.hpp</text>
</a>
</g>
</g>
<!-- Node2 -->
<g id="node2" class="node">
<title>Node2</title>
<g id="a_node2"><a xlink:href="../../d9/dd5/ArduinoConfig_8hpp.html" target="_top" xlink:title="Preprocessor logic for configuring the library to make it compatible with the Arduino environment.">
<polygon fill="white" stroke="black" points="83,-168.5 83,-187.5 189,-187.5 189,-168.5 83,-168.5"/>
<text text-anchor="middle" x="136" y="-175.5" font-family="Helvetica,sans-Serif" font-size="10.00">ArduinoConfig.hpp</text>
</a>
</g>
</g>
<!-- Node1&#45;&gt;Node2 -->
<g id="edge1" class="edge">
<title>Node1&#45;&gt;Node2</title>
<path fill="none" stroke="midnightblue" d="M136,-213.8C136,-204.91 136,-194.78 136,-187.75"/>
<polygon fill="midnightblue" stroke="midnightblue" points="132.5,-214.08 136,-224.08 139.5,-214.08 132.5,-214.08"/>
</g>
<!-- Node3 -->
<g id="node3" class="node">
<title>Node3</title>
<g id="a_node3"><a xlink:href="../../da/d4b/ArduinoCout_8hpp.html" target="_top" xlink:title="Arduino std::ostream Serial wrapper.">
<polygon fill="white" stroke="black" points="0,-112.5 0,-131.5 98,-131.5 98,-112.5 0,-112.5"/>
<text text-anchor="middle" x="49" y="-119.5" font-family="Helvetica,sans-Serif" font-size="10.00">ArduinoCout.hpp</text>
</a>
</g>
</g>
<!-- Node2&#45;&gt;Node3 -->
<g id="edge2" class="edge">
<title>Node2&#45;&gt;Node3</title>
<path fill="none" stroke="midnightblue" d="M113.28,-162.9C97.33,-153 76.5,-140.07 62.94,-131.65"/>
<polygon fill="midnightblue" stroke="midnightblue" points="111.68,-166.02 122.02,-168.32 115.37,-160.08 111.68,-166.02"/>
</g>
<!-- Node5 -->
<g id="node5" class="node">
<title>Node5</title>
<g id="a_node5"><a xlink:href="../../d3/da8/ArduinoMatrixPrinter_8cpp.html" target="_top" xlink:title="Fallback functions for printing matrices without relying on std::ostream or printf.">
<polygon fill="white" stroke="black" points="67.5,-56.5 67.5,-75.5 204.5,-75.5 204.5,-56.5 67.5,-56.5"/>
<text text-anchor="middle" x="136" y="-63.5" font-family="Helvetica,sans-Serif" font-size="10.00">ArduinoMatrixPrinter.cpp</text>
</a>
</g>
</g>
<!-- Node2&#45;&gt;Node5 -->
<g id="edge4" class="edge">
<title>Node2&#45;&gt;Node5</title>
<path fill="none" stroke="midnightblue" d="M136,-158.35C136,-134.25 136,-93.31 136,-75.59"/>
<polygon fill="midnightblue" stroke="midnightblue" points="132.5,-158.37 136,-168.37 139.5,-158.37 132.5,-158.37"/>
</g>
<!-- Node6 -->
<g id="node6" class="node">
<title>Node6</title>
<g id="a_node6"><a xlink:href="../../d9/d1c/Matrix_8hpp.html" target="_top" xlink:title=" ">
<polygon fill="white" stroke="black" points="236.5,-112.5 236.5,-131.5 305.5,-131.5 305.5,-112.5 236.5,-112.5"/>
<text text-anchor="middle" x="271" y="-119.5" font-family="Helvetica,sans-Serif" font-size="10.00">Matrix.hpp</text>
</a>
</g>
</g>
<!-- Node2&#45;&gt;Node6 -->
<g id="edge5" class="edge">
<title>Node2&#45;&gt;Node6</title>
<path fill="none" stroke="midnightblue" d="M166.91,-164.64C192.24,-154.5 227.43,-140.43 249.71,-131.52"/>
<polygon fill="midnightblue" stroke="midnightblue" points="165.38,-161.48 157.39,-168.44 167.98,-167.98 165.38,-161.48"/>
</g>
<!-- Node4 -->
<g id="node4" class="node">
<title>Node4</title>
<g id="a_node4"><a xlink:href="../../dd/d4f/Basic-matrix-operations_8ino.html" target="_top" xlink:title=" ">
<polygon fill="white" stroke="black" points="182,-0.5 182,-19.5 334,-19.5 334,-0.5 182,-0.5"/>
<text text-anchor="middle" x="258" y="-7.5" font-family="Helvetica,sans-Serif" font-size="10.00">Basic&#45;matrix&#45;operations.ino</text>
</a>
</g>
</g>
<!-- Node3&#45;&gt;Node4 -->
<g id="edge3" class="edge">
<title>Node3&#45;&gt;Node4</title>
<path fill="none" stroke="midnightblue" d="M46.31,-101.85C45.41,-87.45 46.8,-68.18 58,-56 74.8,-37.73 132.68,-26.01 181.88,-19.12"/>
<polygon fill="midnightblue" stroke="midnightblue" points="42.86,-102.54 47.37,-112.13 49.82,-101.82 42.86,-102.54"/>
</g>
<!-- Node6&#45;&gt;Node4 -->
<g id="edge14" class="edge">
<title>Node6&#45;&gt;Node4</title>
<path fill="none" stroke="midnightblue" d="M261.57,-103.25C257.79,-95.17 253.89,-85.35 252,-76 248,-56.23 252.46,-32.53 255.55,-19.92"/>
<polygon fill="midnightblue" stroke="midnightblue" points="258.53,-104.99 266.12,-112.37 264.79,-101.86 258.53,-104.99"/>
</g>
<!-- Node6&#45;&gt;Node5 -->
<g id="edge6" class="edge">
<title>Node6&#45;&gt;Node5</title>
<path fill="none" stroke="midnightblue" d="M240.09,-108.64C214.76,-98.5 179.57,-84.43 157.29,-75.52"/>
<polygon fill="midnightblue" stroke="midnightblue" points="239.02,-111.98 249.61,-112.44 241.62,-105.48 239.02,-111.98"/>
</g>
<!-- Node7 -->
<g id="node7" class="node">
<title>Node7</title>
<g id="a_node7"><a xlink:href="../../d9/d52/HouseholderQR_8hpp.html" target="_top" xlink:title=" ">
<polygon fill="white" stroke="black" points="377.5,-56.5 377.5,-75.5 490.5,-75.5 490.5,-56.5 377.5,-56.5"/>
<text text-anchor="middle" x="434" y="-63.5" font-family="Helvetica,sans-Serif" font-size="10.00">HouseholderQR.hpp</text>
</a>
</g>
</g>
<!-- Node6&#45;&gt;Node7 -->
<g id="edge7" class="edge">
<title>Node6&#45;&gt;Node7</title>
<path fill="none" stroke="midnightblue" d="M306.7,-109.17C337.4,-99 380.92,-84.59 408.29,-75.52"/>
<polygon fill="midnightblue" stroke="midnightblue" points="305.22,-105.98 296.83,-112.44 307.42,-112.62 305.22,-105.98"/>
</g>
<!-- Node10 -->
<g id="node10" class="node">
<title>Node10</title>
<g id="a_node10"><a xlink:href="../../d9/d1c/Linear__Algebra_8h.html" target="_top" xlink:title=" ">
<polygon fill="white" stroke="black" points="261,-56.5 261,-75.5 359,-75.5 359,-56.5 261,-56.5"/>
<text text-anchor="middle" x="310" y="-63.5" font-family="Helvetica,sans-Serif" font-size="10.00">Linear_Algebra.h</text>
</a>
</g>
</g>
<!-- Node6&#45;&gt;Node10 -->
<g id="edge11" class="edge">
<title>Node6&#45;&gt;Node10</title>
<path fill="none" stroke="midnightblue" d="M283.38,-103.86C290.14,-94.5 298.21,-83.33 303.68,-75.75"/>
<polygon fill="midnightblue" stroke="midnightblue" points="280.46,-101.93 277.44,-112.08 286.13,-106.03 280.46,-101.93"/>
</g>
<!-- Node11 -->
<g id="node11" class="node">
<title>Node11</title>
<g id="a_node11"><a xlink:href="../../dd/d52/Matrix_8cpp.html" target="_top" xlink:title=" ">
<polygon fill="white" stroke="black" points="509,-56.5 509,-75.5 577,-75.5 577,-56.5 509,-56.5"/>
<text text-anchor="middle" x="543" y="-63.5" font-family="Helvetica,sans-Serif" font-size="10.00">Matrix.cpp</text>
</a>
</g>
</g>
<!-- Node6&#45;&gt;Node11 -->
<g id="edge13" class="edge">
<title>Node6&#45;&gt;Node11</title>
<path fill="none" stroke="midnightblue" d="M315.72,-112.27C361.7,-103.27 435.38,-88.78 499,-76 502.21,-75.35 505.55,-74.68 508.89,-74"/>
<polygon fill="midnightblue" stroke="midnightblue" points="314.92,-108.86 305.78,-114.21 316.27,-115.73 314.92,-108.86"/>
</g>
<!-- Node7&#45;&gt;Node4 -->
<g id="edge9" class="edge">
<title>Node7&#45;&gt;Node4</title>
<path fill="none" stroke="midnightblue" d="M396.31,-53.44C363.13,-43.26 315.57,-28.66 285.76,-19.52"/>
<polygon fill="midnightblue" stroke="midnightblue" points="395.53,-56.86 406.11,-56.44 397.58,-50.16 395.53,-56.86"/>
</g>
<!-- Node8 -->
<g id="node8" class="node">
<title>Node8</title>
<g id="a_node8"><a xlink:href="../../df/d5c/HouseholderQR_8cpp.html" target="_top" xlink:title=" ">
<polygon fill="white" stroke="black" points="364.5,-0.5 364.5,-19.5 477.5,-19.5 477.5,-0.5 364.5,-0.5"/>
<text text-anchor="middle" x="421" y="-7.5" font-family="Helvetica,sans-Serif" font-size="10.00">HouseholderQR.cpp</text>
</a>
</g>
</g>
<!-- Node7&#45;&gt;Node8 -->
<g id="edge8" class="edge">
<title>Node7&#45;&gt;Node8</title>
<path fill="none" stroke="midnightblue" d="M429.45,-46.1C427.29,-37.14 424.82,-26.86 423.11,-19.75"/>
<polygon fill="midnightblue" stroke="midnightblue" points="426.11,-47.18 431.85,-56.08 432.92,-45.54 426.11,-47.18"/>
</g>
<!-- Node9 -->
<g id="node9" class="node">
<title>Node9</title>
<g id="a_node9"><a xlink:href="../../de/d90/qr-perftest_8cpp.html" target="_top" xlink:title=" ">
<polygon fill="white" stroke="black" points="496,-0.5 496,-19.5 584,-19.5 584,-0.5 496,-0.5"/>
<text text-anchor="middle" x="540" y="-7.5" font-family="Helvetica,sans-Serif" font-size="10.00">qr&#45;perftest.cpp</text>
</a>
</g>
</g>
<!-- Node7&#45;&gt;Node9 -->
<g id="edge10" class="edge">
<title>Node7&#45;&gt;Node9</title>
<path fill="none" stroke="midnightblue" d="M460.06,-51.73C479.68,-41.73 506.03,-28.31 523.01,-19.65"/>
<polygon fill="midnightblue" stroke="midnightblue" points="458.35,-48.67 451.03,-56.32 461.53,-54.9 458.35,-48.67"/>
</g>
<!-- Node10&#45;&gt;Node4 -->
<g id="edge12" class="edge">
<title>Node10&#45;&gt;Node4</title>
<path fill="none" stroke="midnightblue" d="M294.32,-48.72C285.16,-39.2 273.95,-27.56 266.43,-19.75"/>
<polygon fill="midnightblue" stroke="midnightblue" points="291.96,-51.31 301.41,-56.08 297,-46.45 291.96,-51.31"/>
</g>
</g>
</svg>
