<?xml version="1.0" encoding="UTF-8" standalone="no"?>
<!DOCTYPE svg PUBLIC "-//W3C//DTD SVG 1.1//EN"
 "http://www.w3.org/Graphics/SVG/1.1/DTD/svg11.dtd">
<!-- Generated by graphviz version 2.43.0 (0)
 -->
<!-- Title: RowPivotLU.cpp Pages: 1 -->
<svg width="889pt" height="420pt"
 viewBox="0.00 0.00 889.13 420.00" xmlns="http://www.w3.org/2000/svg" xmlns:xlink="http://www.w3.org/1999/xlink">
<g id="graph0" class="graph" transform="scale(1 1) rotate(0) translate(4 416)">
<title>RowPivotLU.cpp</title>
<polygon fill="white" stroke="transparent" points="-4,4 -4,-416 885.13,-416 885.13,4 -4,4"/>
<!-- Node1 -->
<g id="node1" class="node">
<title>Node1</title>
<g id="a_node1"><a xlink:title=" ">
<polygon fill="#bfbfbf" stroke="black" points="115.5,-392.5 115.5,-411.5 210.5,-411.5 210.5,-392.5 115.5,-392.5"/>
<text text-anchor="middle" x="163" y="-399.5" font-family="Helvetica,sans-Serif" font-size="10.00">RowPivotLU.cpp</text>
</a>
</g>
</g>
<!-- Node2 -->
<g id="node2" class="node">
<title>Node2</title>
<g id="a_node2"><a xlink:href="../../d3/d5d/RowPivotLU_8hpp.html" target="_top" xlink:title=" ">
<polygon fill="white" stroke="black" points="244,-280.5 244,-299.5 408,-299.5 408,-280.5 244,-280.5"/>
<text text-anchor="middle" x="326" y="-287.5" font-family="Helvetica,sans-Serif" font-size="10.00">include/linalg/RowPivotLU.hpp</text>
</a>
</g>
</g>
<!-- Node1&#45;&gt;Node2 -->
<g id="edge1" class="edge">
<title>Node1&#45;&gt;Node2</title>
<path fill="none" stroke="midnightblue" d="M181.04,-392.44C198.24,-383.99 224.61,-370.31 246,-356 268.84,-340.72 293.07,-320.38 308.8,-306.55"/>
<polygon fill="midnightblue" stroke="midnightblue" points="311.45,-308.88 316.6,-299.61 306.8,-303.65 311.45,-308.88"/>
</g>
<!-- Node8 -->
<g id="node8" class="node">
<title>Node8</title>
<g id="a_node8"><a xlink:title=" ">
<polygon fill="white" stroke="#bfbfbf" points="0,-112.5 0,-131.5 52,-131.5 52,-112.5 0,-112.5"/>
<text text-anchor="middle" x="26" y="-119.5" font-family="Helvetica,sans-Serif" font-size="10.00">cassert</text>
</a>
</g>
</g>
<!-- Node1&#45;&gt;Node8 -->
<g id="edge19" class="edge">
<title>Node1&#45;&gt;Node8</title>
<path fill="none" stroke="midnightblue" d="M134.61,-392.42C94.49,-378.34 26,-346.21 26,-291 26,-291 26,-291 26,-233 26,-200.95 26,-163.64 26,-141.75"/>
<polygon fill="midnightblue" stroke="midnightblue" points="29.5,-141.56 26,-131.56 22.5,-141.56 29.5,-141.56"/>
</g>
<!-- Node18 -->
<g id="node18" class="node">
<title>Node18</title>
<g id="a_node18"><a xlink:href="../../d5/d9e/RowPivotLU_8ipp.html" target="_top" xlink:title=" ">
<polygon fill="white" stroke="black" points="88.5,-336.5 88.5,-355.5 237.5,-355.5 237.5,-336.5 88.5,-336.5"/>
<text text-anchor="middle" x="163" y="-343.5" font-family="Helvetica,sans-Serif" font-size="10.00">boilerplate/RowPivotLU.ipp</text>
</a>
</g>
</g>
<!-- Node1&#45;&gt;Node18 -->
<g id="edge20" class="edge">
<title>Node1&#45;&gt;Node18</title>
<path fill="none" stroke="midnightblue" d="M163,-392.08C163,-385.01 163,-374.86 163,-365.99"/>
<polygon fill="midnightblue" stroke="midnightblue" points="166.5,-365.75 163,-355.75 159.5,-365.75 166.5,-365.75"/>
</g>
<!-- Node3 -->
<g id="node3" class="node">
<title>Node3</title>
<g id="a_node3"><a xlink:href="../../d9/d1c/Matrix_8hpp.html" target="_top" xlink:title=" ">
<polygon fill="white" stroke="black" points="384.5,-168.5 384.5,-187.5 453.5,-187.5 453.5,-168.5 384.5,-168.5"/>
<text text-anchor="middle" x="419" y="-175.5" font-family="Helvetica,sans-Serif" font-size="10.00">Matrix.hpp</text>
</a>
</g>
</g>
<!-- Node2&#45;&gt;Node3 -->
<g id="edge2" class="edge">
<title>Node2&#45;&gt;Node3</title>
<path fill="none" stroke="midnightblue" d="M326.58,-280.1C327.87,-266.67 331.98,-240.98 345,-224 355.74,-210.01 372.17,-199.39 386.83,-191.99"/>
<polygon fill="midnightblue" stroke="midnightblue" points="388.58,-195.03 396.12,-187.59 385.59,-188.7 388.58,-195.03"/>
</g>
<!-- Node17 -->
<g id="node17" class="node">
<title>Node17</title>
<g id="a_node17"><a xlink:href="../../df/d3f/PermutationMatrix_8hpp.html" target="_top" xlink:title=" ">
<polygon fill="white" stroke="black" points="354.5,-224.5 354.5,-243.5 483.5,-243.5 483.5,-224.5 354.5,-224.5"/>
<text text-anchor="middle" x="419" y="-231.5" font-family="Helvetica,sans-Serif" font-size="10.00">PermutationMatrix.hpp</text>
</a>
</g>
</g>
<!-- Node2&#45;&gt;Node17 -->
<g id="edge17" class="edge">
<title>Node2&#45;&gt;Node17</title>
<path fill="none" stroke="midnightblue" d="M340.94,-280.32C355.59,-271.82 378.13,-258.73 395.24,-248.8"/>
<polygon fill="midnightblue" stroke="midnightblue" points="397.2,-251.7 404.1,-243.65 393.69,-245.65 397.2,-251.7"/>
</g>
<!-- Node4 -->
<g id="node4" class="node">
<title>Node4</title>
<g id="a_node4"><a xlink:href="../../d9/dd5/ArduinoConfig_8hpp.html" target="_top" xlink:title="Preprocessor logic for configuring the library to make it compatible with the Arduino environment.">
<polygon fill="white" stroke="black" points="70,-112.5 70,-131.5 216,-131.5 216,-112.5 70,-112.5"/>
<text text-anchor="middle" x="143" y="-119.5" font-family="Helvetica,sans-Serif" font-size="10.00">Arduino/ArduinoConfig.hpp</text>
</a>
</g>
</g>
<!-- Node3&#45;&gt;Node4 -->
<g id="edge3" class="edge">
<title>Node3&#45;&gt;Node4</title>
<path fill="none" stroke="midnightblue" d="M384.32,-170.22C337.16,-160.99 252.34,-144.39 196.86,-133.54"/>
<polygon fill="midnightblue" stroke="midnightblue" points="197.34,-130.07 186.86,-131.58 196,-136.94 197.34,-130.07"/>
</g>
<!-- Node7 -->
<g id="node7" class="node">
<title>Node7</title>
<g id="a_node7"><a xlink:title=" ">
<polygon fill="white" stroke="#bfbfbf" points="234,-112.5 234,-131.5 298,-131.5 298,-112.5 234,-112.5"/>
<text text-anchor="middle" x="266" y="-119.5" font-family="Helvetica,sans-Serif" font-size="10.00">algorithm</text>
</a>
</g>
</g>
<!-- Node3&#45;&gt;Node7 -->
<g id="edge6" class="edge">
<title>Node3&#45;&gt;Node7</title>
<path fill="none" stroke="midnightblue" d="M394.76,-168.44C369.13,-159.4 328.51,-145.06 299.76,-134.92"/>
<polygon fill="midnightblue" stroke="midnightblue" points="300.72,-131.54 290.13,-131.52 298.39,-138.15 300.72,-131.54"/>
</g>
<!-- Node3&#45;&gt;Node8 -->
<g id="edge7" class="edge">
<title>Node3&#45;&gt;Node8</title>
<path fill="none" stroke="midnightblue" d="M384.46,-174.13C322.03,-168.61 186.1,-155.17 62.32,-132.04"/>
<polygon fill="midnightblue" stroke="midnightblue" points="62.77,-128.56 52.29,-130.14 61.47,-135.44 62.77,-128.56"/>
</g>
<!-- Node9 -->
<g id="node9" class="node">
<title>Node9</title>
<g id="a_node9"><a xlink:title=" ">
<polygon fill="white" stroke="#bfbfbf" points="316.5,-112.5 316.5,-131.5 363.5,-131.5 363.5,-112.5 316.5,-112.5"/>
<text text-anchor="middle" x="340" y="-119.5" font-family="Helvetica,sans-Serif" font-size="10.00">cmath</text>
</a>
</g>
</g>
<!-- Node3&#45;&gt;Node9 -->
<g id="edge8" class="edge">
<title>Node3&#45;&gt;Node9</title>
<path fill="none" stroke="midnightblue" d="M406.31,-168.32C394.1,-159.98 375.42,-147.21 361,-137.35"/>
<polygon fill="midnightblue" stroke="midnightblue" points="362.89,-134.41 352.66,-131.65 358.94,-140.19 362.89,-134.41"/>
</g>
<!-- Node10 -->
<g id="node10" class="node">
<title>Node10</title>
<g id="a_node10"><a xlink:title=" ">
<polygon fill="white" stroke="#bfbfbf" points="381.5,-112.5 381.5,-131.5 446.5,-131.5 446.5,-112.5 381.5,-112.5"/>
<text text-anchor="middle" x="414" y="-119.5" font-family="Helvetica,sans-Serif" font-size="10.00">functional</text>
</a>
</g>
</g>
<!-- Node3&#45;&gt;Node10 -->
<g id="edge9" class="edge">
<title>Node3&#45;&gt;Node10</title>
<path fill="none" stroke="midnightblue" d="M418.17,-168.08C417.52,-161.01 416.58,-150.86 415.76,-141.99"/>
<polygon fill="midnightblue" stroke="midnightblue" points="419.22,-141.39 414.81,-131.75 412.25,-142.03 419.22,-141.39"/>
</g>
<!-- Node11 -->
<g id="node11" class="node">
<title>Node11</title>
<g id="a_node11"><a xlink:title=" ">
<polygon fill="white" stroke="#bfbfbf" points="465,-112.5 465,-131.5 521,-131.5 521,-112.5 465,-112.5"/>
<text text-anchor="middle" x="493" y="-119.5" font-family="Helvetica,sans-Serif" font-size="10.00">numeric</text>
</a>
</g>
</g>
<!-- Node3&#45;&gt;Node11 -->
<g id="edge10" class="edge">
<title>Node3&#45;&gt;Node11</title>
<path fill="none" stroke="midnightblue" d="M430.89,-168.32C442.15,-160.11 459.29,-147.6 472.71,-137.81"/>
<polygon fill="midnightblue" stroke="midnightblue" points="474.88,-140.56 480.89,-131.83 470.75,-134.9 474.88,-140.56"/>
</g>
<!-- Node12 -->
<g id="node12" class="node">
<title>Node12</title>
<g id="a_node12"><a xlink:title=" ">
<polygon fill="white" stroke="#bfbfbf" points="539.5,-112.5 539.5,-131.5 584.5,-131.5 584.5,-112.5 539.5,-112.5"/>
<text text-anchor="middle" x="562" y="-119.5" font-family="Helvetica,sans-Serif" font-size="10.00">utility</text>
</a>
</g>
</g>
<!-- Node3&#45;&gt;Node12 -->
<g id="edge11" class="edge">
<title>Node3&#45;&gt;Node12</title>
<path fill="none" stroke="midnightblue" d="M441.66,-168.44C465.4,-159.48 502.91,-145.31 529.74,-135.18"/>
<polygon fill="midnightblue" stroke="midnightblue" points="531.33,-138.32 539.45,-131.52 528.86,-131.77 531.33,-138.32"/>
</g>
<!-- Node13 -->
<g id="node13" class="node">
<title>Node13</title>
<g id="a_node13"><a xlink:title=" ">
<polygon fill="white" stroke="#bfbfbf" points="755.5,-56.5 755.5,-75.5 802.5,-75.5 802.5,-56.5 755.5,-56.5"/>
<text text-anchor="middle" x="779" y="-63.5" font-family="Helvetica,sans-Serif" font-size="10.00">vector</text>
</a>
</g>
</g>
<!-- Node3&#45;&gt;Node13 -->
<g id="edge12" class="edge">
<title>Node3&#45;&gt;Node13</title>
<path fill="none" stroke="midnightblue" d="M453.7,-176.2C555.32,-173.5 846.82,-163.1 875,-132 897.92,-106.71 848.36,-86.41 812.28,-75.58"/>
<polygon fill="midnightblue" stroke="midnightblue" points="813.11,-72.18 802.54,-72.78 811.18,-78.9 813.11,-72.18"/>
</g>
<!-- Node14 -->
<g id="node14" class="node">
<title>Node14</title>
<g id="a_node14"><a xlink:title=" ">
<polygon fill="white" stroke="#bfbfbf" points="746,-112.5 746,-131.5 794,-131.5 794,-112.5 746,-112.5"/>
<text text-anchor="middle" x="770" y="-119.5" font-family="Helvetica,sans-Serif" font-size="10.00">iosfwd</text>
</a>
</g>
</g>
<!-- Node3&#45;&gt;Node14 -->
<g id="edge13" class="edge">
<title>Node3&#45;&gt;Node14</title>
<path fill="none" stroke="midnightblue" d="M453.6,-173.55C510.5,-167.55 627.52,-153.92 735.82,-132.01"/>
<polygon fill="midnightblue" stroke="midnightblue" points="736.84,-135.38 745.93,-129.94 735.43,-128.52 736.84,-135.38"/>
</g>
<!-- Node15 -->
<g id="node15" class="node">
<title>Node15</title>
<g id="a_node15"><a xlink:title=" ">
<polygon fill="white" stroke="#bfbfbf" points="812,-112.5 812,-131.5 866,-131.5 866,-112.5 812,-112.5"/>
<text text-anchor="middle" x="839" y="-119.5" font-family="Helvetica,sans-Serif" font-size="10.00">random</text>
</a>
</g>
</g>
<!-- Node3&#45;&gt;Node15 -->
<g id="edge14" class="edge">
<title>Node3&#45;&gt;Node15</title>
<path fill="none" stroke="midnightblue" d="M453.64,-174.44C519.58,-169.24 667.77,-156.02 801.91,-131.98"/>
<polygon fill="midnightblue" stroke="midnightblue" points="802.74,-135.39 811.95,-130.16 801.49,-128.5 802.74,-135.39"/>
</g>
<!-- Node16 -->
<g id="node16" class="node">
<title>Node16</title>
<g id="a_node16"><a xlink:href="../../df/daa/MatrixStorage_8hpp.html" target="_top" xlink:title=" ">
<polygon fill="white" stroke="black" points="602.5,-112.5 602.5,-131.5 727.5,-131.5 727.5,-112.5 602.5,-112.5"/>
<text text-anchor="middle" x="665" y="-119.5" font-family="Helvetica,sans-Serif" font-size="10.00">util/MatrixStorage.hpp</text>
</a>
</g>
</g>
<!-- Node3&#45;&gt;Node16 -->
<g id="edge15" class="edge">
<title>Node3&#45;&gt;Node16</title>
<path fill="none" stroke="midnightblue" d="M453.72,-169.38C496.13,-160.07 568.14,-144.26 616.13,-133.73"/>
<polygon fill="midnightblue" stroke="midnightblue" points="616.97,-137.13 625.99,-131.56 615.47,-130.29 616.97,-137.13"/>
</g>
<!-- Node5 -->
<g id="node5" class="node">
<title>Node5</title>
<g id="a_node5"><a xlink:href="../../df/d96/ArduinoMacroFix_8hpp.html" target="_top" xlink:title="Fixes for problematic macros defined by the Arduino Core.">
<polygon fill="white" stroke="black" points="83.5,-56.5 83.5,-75.5 202.5,-75.5 202.5,-56.5 83.5,-56.5"/>
<text text-anchor="middle" x="143" y="-63.5" font-family="Helvetica,sans-Serif" font-size="10.00">ArduinoMacroFix.hpp</text>
</a>
</g>
</g>
<!-- Node4&#45;&gt;Node5 -->
<g id="edge4" class="edge">
<title>Node4&#45;&gt;Node5</title>
<path fill="none" stroke="midnightblue" d="M143,-112.08C143,-105.01 143,-94.86 143,-85.99"/>
<polygon fill="midnightblue" stroke="midnightblue" points="146.5,-85.75 143,-75.75 139.5,-85.75 146.5,-85.75"/>
</g>
<!-- Node6 -->
<g id="node6" class="node">
<title>Node6</title>
<g id="a_node6"><a xlink:title=" ">
<polygon fill="white" stroke="#bfbfbf" points="111.5,-0.5 111.5,-19.5 174.5,-19.5 174.5,-0.5 111.5,-0.5"/>
<text text-anchor="middle" x="143" y="-7.5" font-family="Helvetica,sans-Serif" font-size="10.00">Arduino.h</text>
</a>
</g>
</g>
<!-- Node5&#45;&gt;Node6 -->
<g id="edge5" class="edge">
<title>Node5&#45;&gt;Node6</title>
<path fill="none" stroke="midnightblue" d="M143,-56.08C143,-49.01 143,-38.86 143,-29.99"/>
<polygon fill="midnightblue" stroke="midnightblue" points="146.5,-29.75 143,-19.75 139.5,-29.75 146.5,-29.75"/>
</g>
<!-- Node16&#45;&gt;Node13 -->
<g id="edge16" class="edge">
<title>Node16&#45;&gt;Node13</title>
<path fill="none" stroke="midnightblue" d="M683.06,-112.44C701.57,-103.68 730.58,-89.94 751.86,-79.86"/>
<polygon fill="midnightblue" stroke="midnightblue" points="753.48,-82.96 761.02,-75.52 750.49,-76.63 753.48,-82.96"/>
</g>
<!-- Node17&#45;&gt;Node3 -->
<g id="edge18" class="edge">
<title>Node17&#45;&gt;Node3</title>
<path fill="none" stroke="midnightblue" d="M419,-224.08C419,-217.01 419,-206.86 419,-197.99"/>
<polygon fill="midnightblue" stroke="midnightblue" points="422.5,-197.75 419,-187.75 415.5,-197.75 422.5,-197.75"/>
</g>
<!-- Node18&#45;&gt;Node2 -->
<g id="edge21" class="edge">
<title>Node18&#45;&gt;Node2</title>
<path fill="none" stroke="midnightblue" d="M188.83,-336.44C216.25,-327.36 259.78,-312.94 290.43,-302.78"/>
<polygon fill="midnightblue" stroke="midnightblue" points="291.9,-305.98 300.29,-299.52 289.7,-299.34 291.9,-305.98"/>
</g>
<!-- Node18&#45;&gt;Node8 -->
<g id="edge22" class="edge">
<title>Node18&#45;&gt;Node8</title>
<path fill="none" stroke="midnightblue" d="M137.68,-336.45C120.04,-329.28 97.22,-317.4 83,-300 80.39,-296.81 45.69,-186.13 31.74,-141.44"/>
<polygon fill="midnightblue" stroke="midnightblue" points="35.06,-140.33 28.75,-131.83 28.38,-142.42 35.06,-140.33"/>
</g>
<!-- Node19 -->
<g id="node19" class="node">
<title>Node19</title>
<g id="a_node19"><a xlink:title=" ">
<polygon fill="white" stroke="#bfbfbf" points="170,-280.5 170,-299.5 226,-299.5 226,-280.5 170,-280.5"/>
<text text-anchor="middle" x="198" y="-287.5" font-family="Helvetica,sans-Serif" font-size="10.00">iomanip</text>
</a>
</g>
</g>
<!-- Node18&#45;&gt;Node19 -->
<g id="edge23" class="edge">
<title>Node18&#45;&gt;Node19</title>
<path fill="none" stroke="midnightblue" d="M168.78,-336.08C173.67,-328.53 180.83,-317.49 186.83,-308.23"/>
<polygon fill="midnightblue" stroke="midnightblue" points="189.83,-310.05 192.33,-299.75 183.95,-306.24 189.83,-310.05"/>
</g>
<!-- Node20 -->
<g id="node20" class="node">
<title>Node20</title>
<g id="a_node20"><a xlink:title=" ">
<polygon fill="white" stroke="#bfbfbf" points="92,-280.5 92,-299.5 152,-299.5 152,-280.5 92,-280.5"/>
<text text-anchor="middle" x="122" y="-287.5" font-family="Helvetica,sans-Serif" font-size="10.00">iostream</text>
</a>
</g>
</g>
<!-- Node18&#45;&gt;Node20 -->
<g id="edge24" class="edge">
<title>Node18&#45;&gt;Node20</title>
<path fill="none" stroke="midnightblue" d="M156.23,-336.08C150.44,-328.46 141.94,-317.26 134.86,-307.94"/>
<polygon fill="midnightblue" stroke="midnightblue" points="137.48,-305.6 128.64,-299.75 131.9,-309.83 137.48,-305.6"/>
</g>
</g>
</svg>
