<?xml version="1.0" encoding="UTF-8" standalone="no"?>
<!DOCTYPE svg PUBLIC "-//W3C//DTD SVG 1.1//EN"
 "http://www.w3.org/Graphics/SVG/1.1/DTD/svg11.dtd">
<!-- Generated by graphviz version 2.43.0 (0)
 -->
<!-- Title: ArduinoMacroFix.hpp Pages: 1 -->
<svg width="1164pt" height="375pt"
 viewBox="0.00 0.00 1163.50 375.00" xmlns="http://www.w3.org/2000/svg" xmlns:xlink="http://www.w3.org/1999/xlink">
<g id="graph0" class="graph" transform="scale(1 1) rotate(0) translate(4 371)">
<title>ArduinoMacroFix.hpp</title>
<polygon fill="white" stroke="transparent" points="-4,4 -4,-371 1159.5,-371 1159.5,4 -4,4"/>
<!-- Node1 -->
<g id="node1" class="node">
<title>Node1</title>
<g id="a_node1"><a xlink:title="Fixes for problematic macros defined by the Arduino Core.">
<polygon fill="#bfbfbf" stroke="black" points="604.5,-347.5 604.5,-366.5 723.5,-366.5 723.5,-347.5 604.5,-347.5"/>
<text text-anchor="middle" x="664" y="-354.5" font-family="Helvetica,sans-Serif" font-size="10.00">ArduinoMacroFix.hpp</text>
</a>
</g>
</g>
<!-- Node2 -->
<g id="node2" class="node">
<title>Node2</title>
<g id="a_node2"><a xlink:href="../../d9/dd5/ArduinoConfig_8hpp.html" target="_top" xlink:title="Preprocessor logic for configuring the library to make it compatible with the Arduino environment.">
<polygon fill="white" stroke="black" points="611,-291.5 611,-310.5 717,-310.5 717,-291.5 611,-291.5"/>
<text text-anchor="middle" x="664" y="-298.5" font-family="Helvetica,sans-Serif" font-size="10.00">ArduinoConfig.hpp</text>
</a>
</g>
</g>
<!-- Node1&#45;&gt;Node2 -->
<g id="edge1" class="edge">
<title>Node1&#45;&gt;Node2</title>
<path fill="none" stroke="midnightblue" d="M664,-336.8C664,-327.91 664,-317.78 664,-310.75"/>
<polygon fill="midnightblue" stroke="midnightblue" points="660.5,-337.08 664,-347.08 667.5,-337.08 660.5,-337.08"/>
</g>
<!-- Node3 -->
<g id="node3" class="node">
<title>Node3</title>
<g id="a_node3"><a xlink:href="../../da/d4b/ArduinoCout_8hpp.html" target="_top" xlink:title="Arduino std::ostream Serial wrapper.">
<polygon fill="white" stroke="black" points="335,-235.5 335,-254.5 433,-254.5 433,-235.5 335,-235.5"/>
<text text-anchor="middle" x="384" y="-242.5" font-family="Helvetica,sans-Serif" font-size="10.00">ArduinoCout.hpp</text>
</a>
</g>
</g>
<!-- Node2&#45;&gt;Node3 -->
<g id="edge2" class="edge">
<title>Node2&#45;&gt;Node3</title>
<path fill="none" stroke="midnightblue" d="M609.75,-289.54C556.83,-279.33 477.33,-264 428.16,-254.52"/>
<polygon fill="midnightblue" stroke="midnightblue" points="609.15,-292.99 619.63,-291.44 610.48,-286.11 609.15,-292.99"/>
</g>
<!-- Node5 -->
<g id="node5" class="node">
<title>Node5</title>
<g id="a_node5"><a xlink:href="../../d9/d1c/Matrix_8hpp.html" target="_top" xlink:title=" ">
<polygon fill="white" stroke="black" points="598.5,-235.5 598.5,-254.5 667.5,-254.5 667.5,-235.5 598.5,-235.5"/>
<text text-anchor="middle" x="633" y="-242.5" font-family="Helvetica,sans-Serif" font-size="10.00">Matrix.hpp</text>
</a>
</g>
</g>
<!-- Node2&#45;&gt;Node5 -->
<g id="edge4" class="edge">
<title>Node2&#45;&gt;Node5</title>
<path fill="none" stroke="midnightblue" d="M653.82,-282.27C648.53,-273.05 642.28,-262.17 638.02,-254.75"/>
<polygon fill="midnightblue" stroke="midnightblue" points="650.87,-284.15 658.88,-291.08 656.94,-280.67 650.87,-284.15"/>
</g>
<!-- Node20 -->
<g id="node20" class="node">
<title>Node20</title>
<g id="a_node20"><a xlink:href="../../d3/da8/ArduinoMatrixPrinter_8cpp.html" target="_top" xlink:title="Fallback functions for printing matrices without relying on std::ostream or printf.">
<polygon fill="white" stroke="black" points="1018.5,-179.5 1018.5,-198.5 1155.5,-198.5 1155.5,-179.5 1018.5,-179.5"/>
<text text-anchor="middle" x="1087" y="-186.5" font-family="Helvetica,sans-Serif" font-size="10.00">ArduinoMatrixPrinter.cpp</text>
</a>
</g>
</g>
<!-- Node2&#45;&gt;Node20 -->
<g id="edge32" class="edge">
<title>Node2&#45;&gt;Node20</title>
<path fill="none" stroke="midnightblue" d="M672.63,-282.49C681.17,-267.22 695.73,-245.86 715,-235 718.28,-233.15 911.61,-210.41 1018.22,-197.99"/>
<polygon fill="midnightblue" stroke="midnightblue" points="669.47,-281 667.91,-291.48 675.66,-284.26 669.47,-281"/>
</g>
<!-- Node23 -->
<g id="node23" class="node">
<title>Node23</title>
<g id="a_node23"><a xlink:href="../../dd/db9/ArduinoConfig_8cpp.html" target="_top" xlink:title=" ">
<polygon fill="white" stroke="black" points="724.5,-235.5 724.5,-254.5 829.5,-254.5 829.5,-235.5 724.5,-235.5"/>
<text text-anchor="middle" x="777" y="-242.5" font-family="Helvetica,sans-Serif" font-size="10.00">ArduinoConfig.cpp</text>
</a>
</g>
</g>
<!-- Node2&#45;&gt;Node23 -->
<g id="edge31" class="edge">
<title>Node2&#45;&gt;Node23</title>
<path fill="none" stroke="midnightblue" d="M691,-287.1C712.11,-277.01 740.86,-263.27 759.18,-254.52"/>
<polygon fill="midnightblue" stroke="midnightblue" points="689.42,-283.97 681.91,-291.44 692.44,-290.29 689.42,-283.97"/>
</g>
<!-- Node4 -->
<g id="node4" class="node">
<title>Node4</title>
<g id="a_node4"><a xlink:href="../../dd/d4f/Basic-matrix-operations_8ino.html" target="_top" xlink:title=" ">
<polygon fill="white" stroke="black" points="0,-118 0,-137 152,-137 152,-118 0,-118"/>
<text text-anchor="middle" x="76" y="-125" font-family="Helvetica,sans-Serif" font-size="10.00">Basic&#45;matrix&#45;operations.ino</text>
</a>
</g>
</g>
<!-- Node3&#45;&gt;Node4 -->
<g id="edge3" class="edge">
<title>Node3&#45;&gt;Node4</title>
<path fill="none" stroke="midnightblue" d="M324.86,-239.2C279.65,-233.8 216.69,-222.49 166,-199 132.15,-183.31 99.48,-152.64 84.51,-137.46"/>
<polygon fill="midnightblue" stroke="midnightblue" points="324.46,-242.68 334.79,-240.32 325.25,-235.72 324.46,-242.68"/>
</g>
<!-- Node5&#45;&gt;Node4 -->
<g id="edge28" class="edge">
<title>Node5&#45;&gt;Node4</title>
<path fill="none" stroke="midnightblue" d="M588.16,-241.05C496.18,-234.68 289.07,-218.62 221,-199 169.9,-184.27 114.78,-152.57 89.75,-137.2"/>
<polygon fill="midnightblue" stroke="midnightblue" points="588.05,-244.55 598.27,-241.74 588.53,-237.57 588.05,-244.55"/>
</g>
<!-- Node6 -->
<g id="node6" class="node">
<title>Node6</title>
<g id="a_node6"><a xlink:href="../../d9/d52/HouseholderQR_8hpp.html" target="_top" xlink:title=" ">
<polygon fill="white" stroke="black" points="346.5,-179.5 346.5,-198.5 459.5,-198.5 459.5,-179.5 346.5,-179.5"/>
<text text-anchor="middle" x="403" y="-186.5" font-family="Helvetica,sans-Serif" font-size="10.00">HouseholderQR.hpp</text>
</a>
</g>
</g>
<!-- Node5&#45;&gt;Node6 -->
<g id="edge5" class="edge">
<title>Node5&#45;&gt;Node6</title>
<path fill="none" stroke="midnightblue" d="M588.06,-233.45C544.64,-223.26 479.69,-208 439.4,-198.55"/>
<polygon fill="midnightblue" stroke="midnightblue" points="587.53,-236.92 598.07,-235.8 589.13,-230.11 587.53,-236.92"/>
</g>
<!-- Node9 -->
<g id="node9" class="node">
<title>Node9</title>
<g id="a_node9"><a xlink:href="../../de/dd7/Basic-matrix-operations-no-iostream_8ino.html" target="_top" xlink:title=" ">
<polygon fill="white" stroke="black" points="336,-112.5 336,-142.5 470,-142.5 470,-112.5 336,-112.5"/>
<text text-anchor="start" x="344" y="-130.5" font-family="Helvetica,sans-Serif" font-size="10.00">Basic&#45;matrix&#45;operations</text>
<text text-anchor="middle" x="403" y="-119.5" font-family="Helvetica,sans-Serif" font-size="10.00">&#45;no&#45;iostream.ino</text>
</a>
</g>
</g>
<!-- Node5&#45;&gt;Node9 -->
<g id="edge29" class="edge">
<title>Node5&#45;&gt;Node9</title>
<path fill="none" stroke="midnightblue" d="M606.48,-230.77C588.55,-221.81 564.34,-209.71 543,-199 504.08,-179.47 459.12,-156.82 430.88,-142.57"/>
<polygon fill="midnightblue" stroke="midnightblue" points="605.23,-234.05 615.74,-235.39 608.36,-227.79 605.23,-234.05"/>
</g>
<!-- Node11 -->
<g id="node11" class="node">
<title>Node11</title>
<g id="a_node11"><a xlink:href="../../d5/db4/NoPivotLU_8hpp.html" target="_top" xlink:title=" ">
<polygon fill="white" stroke="black" points="552.5,-179.5 552.5,-198.5 641.5,-198.5 641.5,-179.5 552.5,-179.5"/>
<text text-anchor="middle" x="597" y="-186.5" font-family="Helvetica,sans-Serif" font-size="10.00">NoPivotLU.hpp</text>
</a>
</g>
</g>
<!-- Node5&#45;&gt;Node11 -->
<g id="edge12" class="edge">
<title>Node5&#45;&gt;Node11</title>
<path fill="none" stroke="midnightblue" d="M621.38,-226.57C615.18,-217.27 607.83,-206.25 602.83,-198.75"/>
<polygon fill="midnightblue" stroke="midnightblue" points="618.6,-228.7 627.06,-235.08 624.42,-224.82 618.6,-228.7"/>
</g>
<!-- Node14 -->
<g id="node14" class="node">
<title>Node14</title>
<g id="a_node14"><a xlink:href="../../df/d3f/PermutationMatrix_8hpp.html" target="_top" xlink:title=" ">
<polygon fill="white" stroke="black" points="698.5,-179.5 698.5,-198.5 827.5,-198.5 827.5,-179.5 698.5,-179.5"/>
<text text-anchor="middle" x="763" y="-186.5" font-family="Helvetica,sans-Serif" font-size="10.00">PermutationMatrix.hpp</text>
</a>
</g>
</g>
<!-- Node5&#45;&gt;Node14 -->
<g id="edge16" class="edge">
<title>Node5&#45;&gt;Node14</title>
<path fill="none" stroke="midnightblue" d="M663.09,-231.5C687.46,-221.38 721.14,-207.39 742.5,-198.52"/>
<polygon fill="midnightblue" stroke="midnightblue" points="661.49,-228.38 653.6,-235.44 664.18,-234.84 661.49,-228.38"/>
</g>
<!-- Node15 -->
<g id="node15" class="node">
<title>Node15</title>
<g id="a_node15"><a xlink:href="../../d3/d5d/RowPivotLU_8hpp.html" target="_top" xlink:title=" ">
<polygon fill="white" stroke="black" points="742,-118 742,-137 838,-137 838,-118 742,-118"/>
<text text-anchor="middle" x="790" y="-125" font-family="Helvetica,sans-Serif" font-size="10.00">RowPivotLU.hpp</text>
</a>
</g>
</g>
<!-- Node5&#45;&gt;Node15 -->
<g id="edge22" class="edge">
<title>Node5&#45;&gt;Node15</title>
<path fill="none" stroke="midnightblue" d="M644.59,-227.12C654.97,-212.93 671.26,-192.81 689,-179 712.97,-160.33 744.94,-145.76 766.44,-137.16"/>
<polygon fill="midnightblue" stroke="midnightblue" points="641.6,-225.28 638.67,-235.46 647.31,-229.34 641.6,-225.28"/>
</g>
<!-- Node19 -->
<g id="node19" class="node">
<title>Node19</title>
<g id="a_node19"><a xlink:href="../../d9/d1c/Linear__Algebra_8h.html" target="_top" xlink:title=" ">
<polygon fill="white" stroke="black" points="230,-179.5 230,-198.5 328,-198.5 328,-179.5 230,-179.5"/>
<text text-anchor="middle" x="279" y="-186.5" font-family="Helvetica,sans-Serif" font-size="10.00">Linear_Algebra.h</text>
</a>
</g>
</g>
<!-- Node5&#45;&gt;Node19 -->
<g id="edge23" class="edge">
<title>Node5&#45;&gt;Node19</title>
<path fill="none" stroke="midnightblue" d="M588.44,-237.27C530.51,-228.51 426.18,-212.7 337,-199 334.08,-198.55 331.08,-198.09 328.05,-197.62"/>
<polygon fill="midnightblue" stroke="midnightblue" points="587.95,-240.73 598.36,-238.77 589,-233.81 587.95,-240.73"/>
</g>
<!-- Node5&#45;&gt;Node20 -->
<g id="edge26" class="edge">
<title>Node5&#45;&gt;Node20</title>
<path fill="none" stroke="midnightblue" d="M678.05,-235.6C679.38,-235.39 680.7,-235.19 682,-235 826.66,-213.78 863.71,-215.38 1009,-199 1011.98,-198.66 1015.02,-198.32 1018.1,-197.97"/>
<polygon fill="midnightblue" stroke="midnightblue" points="677.04,-232.22 667.75,-237.3 678.18,-239.12 677.04,-232.22"/>
</g>
<!-- Node21 -->
<g id="node21" class="node">
<title>Node21</title>
<g id="a_node21"><a xlink:href="../../dd/d52/Matrix_8cpp.html" target="_top" xlink:title=" ">
<polygon fill="white" stroke="black" points="846,-179.5 846,-198.5 914,-198.5 914,-179.5 846,-179.5"/>
<text text-anchor="middle" x="880" y="-186.5" font-family="Helvetica,sans-Serif" font-size="10.00">Matrix.cpp</text>
</a>
</g>
</g>
<!-- Node5&#45;&gt;Node21 -->
<g id="edge27" class="edge">
<title>Node5&#45;&gt;Node21</title>
<path fill="none" stroke="midnightblue" d="M677.46,-234.28C725.72,-223.73 801.74,-207.11 845.63,-197.51"/>
<polygon fill="midnightblue" stroke="midnightblue" points="676.63,-230.88 667.6,-236.43 678.12,-237.72 676.63,-230.88"/>
</g>
<!-- Node22 -->
<g id="node22" class="node">
<title>Node22</title>
<g id="a_node22"><a xlink:href="../../de/de8/Basics_8cpp.html" target="_top" xlink:title=" ">
<polygon fill="white" stroke="black" points="932,-179.5 932,-198.5 1000,-198.5 1000,-179.5 932,-179.5"/>
<text text-anchor="middle" x="966" y="-186.5" font-family="Helvetica,sans-Serif" font-size="10.00">Basics.cpp</text>
</a>
</g>
</g>
<!-- Node5&#45;&gt;Node22 -->
<g id="edge30" class="edge">
<title>Node5&#45;&gt;Node22</title>
<path fill="none" stroke="midnightblue" d="M677.54,-235.75C679.04,-235.5 680.53,-235.24 682,-235 788.83,-217.22 816.4,-218.1 923,-199 925.85,-198.49 928.81,-197.93 931.77,-197.35"/>
<polygon fill="midnightblue" stroke="midnightblue" points="676.75,-232.34 667.51,-237.51 677.96,-239.23 676.75,-232.34"/>
</g>
<!-- Node6&#45;&gt;Node4 -->
<g id="edge9" class="edge">
<title>Node6&#45;&gt;Node4</title>
<path fill="none" stroke="midnightblue" d="M345.94,-177.62C282.61,-166.09 181.61,-147.72 122.76,-137.01"/>
<polygon fill="midnightblue" stroke="midnightblue" points="345.68,-181.13 356.15,-179.48 346.94,-174.24 345.68,-181.13"/>
</g>
<!-- Node7 -->
<g id="node7" class="node">
<title>Node7</title>
<g id="a_node7"><a xlink:href="../../d6/d05/HouseholderQR_8ipp.html" target="_top" xlink:title=" ">
<polygon fill="white" stroke="black" points="208,-118 208,-137 318,-137 318,-118 208,-118"/>
<text text-anchor="middle" x="263" y="-125" font-family="Helvetica,sans-Serif" font-size="10.00">HouseholderQR.ipp</text>
</a>
</g>
</g>
<!-- Node6&#45;&gt;Node7 -->
<g id="edge6" class="edge">
<title>Node6&#45;&gt;Node7</title>
<path fill="none" stroke="midnightblue" d="M373.54,-175.48C346.35,-163.92 306.71,-147.08 283.02,-137.01"/>
<polygon fill="midnightblue" stroke="midnightblue" points="372.37,-178.78 382.94,-179.48 375.11,-172.34 372.37,-178.78"/>
</g>
<!-- Node8 -->
<g id="node8" class="node">
<title>Node8</title>
<g id="a_node8"><a xlink:href="../../df/d5c/HouseholderQR_8cpp.html" target="_top" xlink:title=" ">
<polygon fill="white" stroke="black" points="165.5,-56.5 165.5,-75.5 278.5,-75.5 278.5,-56.5 165.5,-56.5"/>
<text text-anchor="middle" x="222" y="-63.5" font-family="Helvetica,sans-Serif" font-size="10.00">HouseholderQR.cpp</text>
</a>
</g>
</g>
<!-- Node6&#45;&gt;Node8 -->
<g id="edge8" class="edge">
<title>Node6&#45;&gt;Node8</title>
<path fill="none" stroke="midnightblue" d="M338.13,-177.84C281.79,-168.35 207.87,-154.04 199,-143 182.77,-122.8 202.78,-91.28 214.56,-75.96"/>
<polygon fill="midnightblue" stroke="midnightblue" points="337.63,-181.3 348.07,-179.49 338.78,-174.4 337.63,-181.3"/>
</g>
<!-- Node6&#45;&gt;Node9 -->
<g id="edge10" class="edge">
<title>Node6&#45;&gt;Node9</title>
<path fill="none" stroke="midnightblue" d="M403,-169.23C403,-160.59 403,-150.5 403,-142.52"/>
<polygon fill="midnightblue" stroke="midnightblue" points="399.5,-169.48 403,-179.48 406.5,-169.48 399.5,-169.48"/>
</g>
<!-- Node10 -->
<g id="node10" class="node">
<title>Node10</title>
<g id="a_node10"><a xlink:href="../../d3/d58/QR-PerfTest_8cpp.html" target="_top" xlink:title=" ">
<polygon fill="white" stroke="black" points="488,-118 488,-137 582,-137 582,-118 488,-118"/>
<text text-anchor="middle" x="535" y="-125" font-family="Helvetica,sans-Serif" font-size="10.00">QR&#45;PerfTest.cpp</text>
</a>
</g>
</g>
<!-- Node6&#45;&gt;Node10 -->
<g id="edge11" class="edge">
<title>Node6&#45;&gt;Node10</title>
<path fill="none" stroke="midnightblue" d="M431.11,-175.33C456.74,-163.78 493.89,-147.03 516.12,-137.01"/>
<polygon fill="midnightblue" stroke="midnightblue" points="429.59,-172.17 421.91,-179.48 432.47,-178.56 429.59,-172.17"/>
</g>
<!-- Node7&#45;&gt;Node8 -->
<g id="edge7" class="edge">
<title>Node7&#45;&gt;Node8</title>
<path fill="none" stroke="midnightblue" d="M251.29,-109.51C243.63,-98.39 233.95,-84.34 227.86,-75.51"/>
<polygon fill="midnightblue" stroke="midnightblue" points="248.57,-111.73 257.13,-117.98 254.33,-107.75 248.57,-111.73"/>
</g>
<!-- Node12 -->
<g id="node12" class="node">
<title>Node12</title>
<g id="a_node12"><a xlink:href="../../de/d20/NoPivotLU_8ipp.html" target="_top" xlink:title=" ">
<polygon fill="white" stroke="black" points="638,-118 638,-137 724,-137 724,-118 638,-118"/>
<text text-anchor="middle" x="681" y="-125" font-family="Helvetica,sans-Serif" font-size="10.00">NoPivotLU.ipp</text>
</a>
</g>
</g>
<!-- Node11&#45;&gt;Node12 -->
<g id="edge13" class="edge">
<title>Node11&#45;&gt;Node12</title>
<path fill="none" stroke="midnightblue" d="M617.31,-173.61C633.47,-162.17 655.52,-146.55 668.99,-137.01"/>
<polygon fill="midnightblue" stroke="midnightblue" points="615.17,-170.84 609.04,-179.48 619.22,-176.55 615.17,-170.84"/>
</g>
<!-- Node13 -->
<g id="node13" class="node">
<title>Node13</title>
<g id="a_node13"><a xlink:href="../../dc/d48/NoPivotLU_8cpp.html" target="_top" xlink:title=" ">
<polygon fill="white" stroke="black" points="582,-56.5 582,-75.5 670,-75.5 670,-56.5 582,-56.5"/>
<text text-anchor="middle" x="626" y="-63.5" font-family="Helvetica,sans-Serif" font-size="10.00">NoPivotLU.cpp</text>
</a>
</g>
</g>
<!-- Node11&#45;&gt;Node13 -->
<g id="edge15" class="edge">
<title>Node11&#45;&gt;Node13</title>
<path fill="none" stroke="midnightblue" d="M601.47,-169.35C607.84,-142.77 619.27,-95.08 623.93,-75.62"/>
<polygon fill="midnightblue" stroke="midnightblue" points="598.01,-168.76 599.09,-179.3 604.82,-170.39 598.01,-168.76"/>
</g>
<!-- Node12&#45;&gt;Node13 -->
<g id="edge14" class="edge">
<title>Node12&#45;&gt;Node13</title>
<path fill="none" stroke="midnightblue" d="M666.21,-110.5C655.8,-99.24 642.27,-84.6 633.87,-75.51"/>
<polygon fill="midnightblue" stroke="midnightblue" points="663.76,-113.01 673.12,-117.98 668.9,-108.26 663.76,-113.01"/>
</g>
<!-- Node14&#45;&gt;Node15 -->
<g id="edge17" class="edge">
<title>Node14&#45;&gt;Node15</title>
<path fill="none" stroke="midnightblue" d="M771.02,-170.33C776.01,-159.33 782.21,-145.66 786.14,-137.01"/>
<polygon fill="midnightblue" stroke="midnightblue" points="767.81,-168.92 766.87,-179.48 774.19,-171.82 767.81,-168.92"/>
</g>
<!-- Node18 -->
<g id="node18" class="node">
<title>Node18</title>
<g id="a_node18"><a xlink:href="../../d9/d7f/PermutationMatrix_8cpp.html" target="_top" xlink:title=" ">
<polygon fill="white" stroke="black" points="856,-118 856,-137 984,-137 984,-118 856,-118"/>
<text text-anchor="middle" x="920" y="-125" font-family="Helvetica,sans-Serif" font-size="10.00">PermutationMatrix.cpp</text>
</a>
</g>
</g>
<!-- Node14&#45;&gt;Node18 -->
<g id="edge21" class="edge">
<title>Node14&#45;&gt;Node18</title>
<path fill="none" stroke="midnightblue" d="M795.24,-175.78C825.75,-164.22 870.75,-147.16 897.55,-137.01"/>
<polygon fill="midnightblue" stroke="midnightblue" points="793.6,-172.66 785.49,-179.48 796.09,-179.2 793.6,-172.66"/>
</g>
<!-- Node16 -->
<g id="node16" class="node">
<title>Node16</title>
<g id="a_node16"><a xlink:href="../../d5/d9e/RowPivotLU_8ipp.html" target="_top" xlink:title=" ">
<polygon fill="white" stroke="black" points="780.5,-56.5 780.5,-75.5 873.5,-75.5 873.5,-56.5 780.5,-56.5"/>
<text text-anchor="middle" x="827" y="-63.5" font-family="Helvetica,sans-Serif" font-size="10.00">RowPivotLU.ipp</text>
</a>
</g>
</g>
<!-- Node15&#45;&gt;Node16 -->
<g id="edge18" class="edge">
<title>Node15&#45;&gt;Node16</title>
<path fill="none" stroke="midnightblue" d="M800.78,-109.17C807.66,-98.11 816.27,-84.25 821.71,-75.51"/>
<polygon fill="midnightblue" stroke="midnightblue" points="797.61,-107.63 795.3,-117.98 803.55,-111.33 797.61,-107.63"/>
</g>
<!-- Node17 -->
<g id="node17" class="node">
<title>Node17</title>
<g id="a_node17"><a xlink:href="../../d7/d1c/RowPivotLU_8cpp.html" target="_top" xlink:title=" ">
<polygon fill="white" stroke="black" points="741.5,-0.5 741.5,-19.5 836.5,-19.5 836.5,-0.5 741.5,-0.5"/>
<text text-anchor="middle" x="789" y="-7.5" font-family="Helvetica,sans-Serif" font-size="10.00">RowPivotLU.cpp</text>
</a>
</g>
</g>
<!-- Node15&#45;&gt;Node17 -->
<g id="edge20" class="edge">
<title>Node15&#45;&gt;Node17</title>
<path fill="none" stroke="midnightblue" d="M780.61,-108.83C774.21,-94.67 767.49,-74.23 771,-56 773.55,-42.78 779.94,-28.51 784.38,-19.66"/>
<polygon fill="midnightblue" stroke="midnightblue" points="777.52,-110.47 785.06,-117.91 783.8,-107.39 777.52,-110.47"/>
</g>
<!-- Node16&#45;&gt;Node17 -->
<g id="edge19" class="edge">
<title>Node16&#45;&gt;Node17</title>
<path fill="none" stroke="midnightblue" d="M814.94,-47.86C808.36,-38.5 800.49,-27.33 795.16,-19.75"/>
<polygon fill="midnightblue" stroke="midnightblue" points="812.11,-49.92 820.73,-56.08 817.83,-45.89 812.11,-49.92"/>
</g>
<!-- Node19&#45;&gt;Node4 -->
<g id="edge24" class="edge">
<title>Node19&#45;&gt;Node4</title>
<path fill="none" stroke="midnightblue" d="M240.11,-176.6C200.66,-165.04 140.51,-147.41 105.03,-137.01"/>
<polygon fill="midnightblue" stroke="midnightblue" points="239.33,-180.02 249.92,-179.48 241.3,-173.3 239.33,-180.02"/>
</g>
<!-- Node19&#45;&gt;Node9 -->
<g id="edge25" class="edge">
<title>Node19&#45;&gt;Node9</title>
<path fill="none" stroke="midnightblue" d="M305.95,-175.07C325.96,-165.47 353.24,-152.38 373.78,-142.52"/>
<polygon fill="midnightblue" stroke="midnightblue" points="304.27,-171.99 296.77,-179.48 307.3,-178.3 304.27,-171.99"/>
</g>
</g>
</svg>
