<?xml version="1.0" encoding="UTF-8" standalone="no"?>
<!DOCTYPE svg PUBLIC "-//W3C//DTD SVG 1.1//EN"
 "http://www.w3.org/Graphics/SVG/1.1/DTD/svg11.dtd">
<!-- Generated by graphviz version 2.43.0 (0)
 -->
<!-- Title: ArduinoCout.hpp Pages: 1 -->
<svg width="322pt" height="196pt"
 viewBox="0.00 0.00 321.50 196.00" xmlns="http://www.w3.org/2000/svg" xmlns:xlink="http://www.w3.org/1999/xlink">
<g id="graph0" class="graph" transform="scale(1 1) rotate(0) translate(4 192)">
<title>ArduinoCout.hpp</title>
<polygon fill="white" stroke="transparent" points="-4,4 -4,-192 317.5,-192 317.5,4 -4,4"/>
<!-- Node1 -->
<g id="node1" class="node">
<title>Node1</title>
<g id="a_node1"><a xlink:title="Arduino std::ostream Serial wrapper.">
<polygon fill="#bfbfbf" stroke="black" points="151,-168.5 151,-187.5 249,-187.5 249,-168.5 151,-168.5"/>
<text text-anchor="middle" x="200" y="-175.5" font-family="Helvetica,sans-Serif" font-size="10.00">ArduinoCout.hpp</text>
</a>
</g>
</g>
<!-- Node2 -->
<g id="node2" class="node">
<title>Node2</title>
<g id="a_node2"><a xlink:href="../../d9/dd5/ArduinoConfig_8hpp.html" target="_top" xlink:title="Preprocessor logic for configuring the library to make it compatible with the Arduino environment.">
<polygon fill="white" stroke="black" points="7,-112.5 7,-131.5 153,-131.5 153,-112.5 7,-112.5"/>
<text text-anchor="middle" x="80" y="-119.5" font-family="Helvetica,sans-Serif" font-size="10.00">Arduino/ArduinoConfig.hpp</text>
</a>
</g>
</g>
<!-- Node1&#45;&gt;Node2 -->
<g id="edge1" class="edge">
<title>Node1&#45;&gt;Node2</title>
<path fill="none" stroke="midnightblue" d="M180.99,-168.44C161.41,-159.64 130.69,-145.81 108.27,-135.72"/>
<polygon fill="midnightblue" stroke="midnightblue" points="109.48,-132.43 98.93,-131.52 106.61,-138.81 109.48,-132.43"/>
</g>
<!-- Node5 -->
<g id="node5" class="node">
<title>Node5</title>
<g id="a_node5"><a xlink:title=" ">
<polygon fill="white" stroke="#bfbfbf" points="171.5,-112.5 171.5,-131.5 228.5,-131.5 228.5,-112.5 171.5,-112.5"/>
<text text-anchor="middle" x="200" y="-119.5" font-family="Helvetica,sans-Serif" font-size="10.00">ostream</text>
</a>
</g>
</g>
<!-- Node1&#45;&gt;Node5 -->
<g id="edge4" class="edge">
<title>Node1&#45;&gt;Node5</title>
<path fill="none" stroke="midnightblue" d="M200,-168.08C200,-161.01 200,-150.86 200,-141.99"/>
<polygon fill="midnightblue" stroke="midnightblue" points="203.5,-141.75 200,-131.75 196.5,-141.75 203.5,-141.75"/>
</g>
<!-- Node6 -->
<g id="node6" class="node">
<title>Node6</title>
<g id="a_node6"><a xlink:title=" ">
<polygon fill="white" stroke="#bfbfbf" points="246.5,-112.5 246.5,-131.5 313.5,-131.5 313.5,-112.5 246.5,-112.5"/>
<text text-anchor="middle" x="280" y="-119.5" font-family="Helvetica,sans-Serif" font-size="10.00">streambuf</text>
</a>
</g>
</g>
<!-- Node1&#45;&gt;Node6 -->
<g id="edge5" class="edge">
<title>Node1&#45;&gt;Node6</title>
<path fill="none" stroke="midnightblue" d="M212.85,-168.32C225.22,-159.98 244.13,-147.21 258.74,-137.35"/>
<polygon fill="midnightblue" stroke="midnightblue" points="260.85,-140.15 267.18,-131.65 256.93,-134.35 260.85,-140.15"/>
</g>
<!-- Node3 -->
<g id="node3" class="node">
<title>Node3</title>
<g id="a_node3"><a xlink:href="../../df/d96/ArduinoMacroFix_8hpp.html" target="_top" xlink:title="Fixes for problematic macros defined by the Arduino Core.">
<polygon fill="white" stroke="black" points="0,-56.5 0,-75.5 160,-75.5 160,-56.5 0,-56.5"/>
<text text-anchor="middle" x="80" y="-63.5" font-family="Helvetica,sans-Serif" font-size="10.00">Arduino/ArduinoMacroFix.hpp</text>
</a>
</g>
</g>
<!-- Node2&#45;&gt;Node3 -->
<g id="edge2" class="edge">
<title>Node2&#45;&gt;Node3</title>
<path fill="none" stroke="midnightblue" d="M80,-112.08C80,-105.01 80,-94.86 80,-85.99"/>
<polygon fill="midnightblue" stroke="midnightblue" points="83.5,-85.75 80,-75.75 76.5,-85.75 83.5,-85.75"/>
</g>
<!-- Node4 -->
<g id="node4" class="node">
<title>Node4</title>
<g id="a_node4"><a xlink:title=" ">
<polygon fill="white" stroke="#bfbfbf" points="48.5,-0.5 48.5,-19.5 111.5,-19.5 111.5,-0.5 48.5,-0.5"/>
<text text-anchor="middle" x="80" y="-7.5" font-family="Helvetica,sans-Serif" font-size="10.00">Arduino.h</text>
</a>
</g>
</g>
<!-- Node3&#45;&gt;Node4 -->
<g id="edge3" class="edge">
<title>Node3&#45;&gt;Node4</title>
<path fill="none" stroke="midnightblue" d="M80,-56.08C80,-49.01 80,-38.86 80,-29.99"/>
<polygon fill="midnightblue" stroke="midnightblue" points="83.5,-29.75 80,-19.75 76.5,-29.75 83.5,-29.75"/>
</g>
</g>
</svg>
