<?xml version="1.0" encoding="UTF-8" standalone="no"?>
<!DOCTYPE svg PUBLIC "-//W3C//DTD SVG 1.1//EN"
 "http://www.w3.org/Graphics/SVG/1.1/DTD/svg11.dtd">
<!-- Generated by graphviz version 2.43.0 (0)
 -->
<!-- Title: Matrix.hpp Pages: 1 -->
<svg width="517pt" height="140pt"
 viewBox="0.00 0.00 516.50 140.00" xmlns="http://www.w3.org/2000/svg" xmlns:xlink="http://www.w3.org/1999/xlink">
<g id="graph0" class="graph" transform="scale(1 1) rotate(0) translate(4 136)">
<title>Matrix.hpp</title>
<polygon fill="white" stroke="transparent" points="-4,4 -4,-136 512.5,-136 512.5,4 -4,4"/>
<!-- Node1 -->
<g id="node1" class="node">
<title>Node1</title>
<g id="a_node1"><a xlink:title=" ">
<polygon fill="#bfbfbf" stroke="black" points="262,-112.5 262,-131.5 331,-131.5 331,-112.5 262,-112.5"/>
<text text-anchor="middle" x="296.5" y="-119.5" font-family="Helvetica,sans-Serif" font-size="10.00">Matrix.hpp</text>
</a>
</g>
</g>
<!-- Node2 -->
<g id="node2" class="node">
<title>Node2</title>
<g id="a_node2"><a xlink:href="../../d3/da8/ArduinoMatrixPrinter_8cpp.html" target="_top" xlink:title="Fallback functions for printing matrices without relying on std::ostream or printf.">
<polygon fill="white" stroke="black" points="0,-56.5 0,-75.5 137,-75.5 137,-56.5 0,-56.5"/>
<text text-anchor="middle" x="68.5" y="-63.5" font-family="Helvetica,sans-Serif" font-size="10.00">ArduinoMatrixPrinter.cpp</text>
</a>
</g>
</g>
<!-- Node1&#45;&gt;Node2 -->
<g id="edge1" class="edge">
<title>Node1&#45;&gt;Node2</title>
<path fill="none" stroke="midnightblue" d="M251.95,-110.45C208.91,-100.26 144.52,-85 104.59,-75.55"/>
<polygon fill="midnightblue" stroke="midnightblue" points="251.33,-113.9 261.87,-112.8 252.95,-107.09 251.33,-113.9"/>
</g>
<!-- Node3 -->
<g id="node3" class="node">
<title>Node3</title>
<g id="a_node3"><a xlink:href="../../d9/d52/HouseholderQR_8hpp.html" target="_top" xlink:title=" ">
<polygon fill="white" stroke="black" points="155,-56.5 155,-75.5 268,-75.5 268,-56.5 155,-56.5"/>
<text text-anchor="middle" x="211.5" y="-63.5" font-family="Helvetica,sans-Serif" font-size="10.00">HouseholderQR.hpp</text>
</a>
</g>
</g>
<!-- Node1&#45;&gt;Node3 -->
<g id="edge2" class="edge">
<title>Node1&#45;&gt;Node3</title>
<path fill="none" stroke="midnightblue" d="M274.31,-106.9C258.72,-97 238.37,-84.07 225.12,-75.65"/>
<polygon fill="midnightblue" stroke="midnightblue" points="272.53,-109.92 282.84,-112.32 276.28,-104.01 272.53,-109.92"/>
</g>
<!-- Node5 -->
<g id="node5" class="node">
<title>Node5</title>
<g id="a_node5"><a xlink:href="../../dd/d4f/Basic-matrix-operations_8ino.html" target="_top" xlink:title=" ">
<polygon fill="white" stroke="black" points="273.5,-0.5 273.5,-19.5 425.5,-19.5 425.5,-0.5 273.5,-0.5"/>
<text text-anchor="middle" x="349.5" y="-7.5" font-family="Helvetica,sans-Serif" font-size="10.00">Basic&#45;matrix&#45;operations.ino</text>
</a>
</g>
</g>
<!-- Node1&#45;&gt;Node5 -->
<g id="edge9" class="edge">
<title>Node1&#45;&gt;Node5</title>
<path fill="none" stroke="midnightblue" d="M300.07,-102.29C303.07,-88.93 308.08,-70.77 315.5,-56 322.45,-42.18 333.77,-28.28 341.42,-19.66"/>
<polygon fill="midnightblue" stroke="midnightblue" points="296.62,-101.71 298.02,-112.21 303.48,-103.13 296.62,-101.71"/>
</g>
<!-- Node7 -->
<g id="node7" class="node">
<title>Node7</title>
<g id="a_node7"><a xlink:href="../../d9/d1c/Linear__Algebra_8h.html" target="_top" xlink:title=" ">
<polygon fill="white" stroke="black" points="324.5,-56.5 324.5,-75.5 422.5,-75.5 422.5,-56.5 324.5,-56.5"/>
<text text-anchor="middle" x="373.5" y="-63.5" font-family="Helvetica,sans-Serif" font-size="10.00">Linear_Algebra.h</text>
</a>
</g>
</g>
<!-- Node1&#45;&gt;Node7 -->
<g id="edge6" class="edge">
<title>Node1&#45;&gt;Node7</title>
<path fill="none" stroke="midnightblue" d="M317.4,-106.34C331.41,-96.52 349.38,-83.91 361.16,-75.65"/>
<polygon fill="midnightblue" stroke="midnightblue" points="315.05,-103.72 308.87,-112.32 319.07,-109.45 315.05,-103.72"/>
</g>
<!-- Node8 -->
<g id="node8" class="node">
<title>Node8</title>
<g id="a_node8"><a xlink:href="../../dd/d52/Matrix_8cpp.html" target="_top" xlink:title=" ">
<polygon fill="white" stroke="black" points="440.5,-56.5 440.5,-75.5 508.5,-75.5 508.5,-56.5 440.5,-56.5"/>
<text text-anchor="middle" x="474.5" y="-63.5" font-family="Helvetica,sans-Serif" font-size="10.00">Matrix.cpp</text>
</a>
</g>
</g>
<!-- Node1&#45;&gt;Node8 -->
<g id="edge8" class="edge">
<title>Node1&#45;&gt;Node8</title>
<path fill="none" stroke="midnightblue" d="M334.62,-109.44C368.18,-99.26 416.27,-84.66 446.43,-75.52"/>
<polygon fill="midnightblue" stroke="midnightblue" points="333.26,-106.19 324.7,-112.44 335.29,-112.89 333.26,-106.19"/>
</g>
<!-- Node4 -->
<g id="node4" class="node">
<title>Node4</title>
<g id="a_node4"><a xlink:href="../../df/d5c/HouseholderQR_8cpp.html" target="_top" xlink:title=" ">
<polygon fill="white" stroke="black" points="36,-0.5 36,-19.5 149,-19.5 149,-0.5 36,-0.5"/>
<text text-anchor="middle" x="92.5" y="-7.5" font-family="Helvetica,sans-Serif" font-size="10.00">HouseholderQR.cpp</text>
</a>
</g>
</g>
<!-- Node3&#45;&gt;Node4 -->
<g id="edge3" class="edge">
<title>Node3&#45;&gt;Node4</title>
<path fill="none" stroke="midnightblue" d="M183.36,-52.23C161.1,-42.13 130.64,-28.31 111.27,-19.52"/>
<polygon fill="midnightblue" stroke="midnightblue" points="182.09,-55.5 192.64,-56.44 184.98,-49.12 182.09,-55.5"/>
</g>
<!-- Node3&#45;&gt;Node5 -->
<g id="edge4" class="edge">
<title>Node3&#45;&gt;Node5</title>
<path fill="none" stroke="midnightblue" d="M242.75,-52.77C268.67,-42.63 304.86,-28.47 327.74,-19.52"/>
<polygon fill="midnightblue" stroke="midnightblue" points="241.4,-49.54 233.37,-56.44 243.95,-56.06 241.4,-49.54"/>
</g>
<!-- Node6 -->
<g id="node6" class="node">
<title>Node6</title>
<g id="a_node6"><a xlink:href="../../de/d90/qr-perftest_8cpp.html" target="_top" xlink:title=" ">
<polygon fill="white" stroke="black" points="167.5,-0.5 167.5,-19.5 255.5,-19.5 255.5,-0.5 167.5,-0.5"/>
<text text-anchor="middle" x="211.5" y="-7.5" font-family="Helvetica,sans-Serif" font-size="10.00">qr&#45;perftest.cpp</text>
</a>
</g>
</g>
<!-- Node3&#45;&gt;Node6 -->
<g id="edge5" class="edge">
<title>Node3&#45;&gt;Node6</title>
<path fill="none" stroke="midnightblue" d="M211.5,-45.8C211.5,-36.91 211.5,-26.78 211.5,-19.75"/>
<polygon fill="midnightblue" stroke="midnightblue" points="208,-46.08 211.5,-56.08 215,-46.08 208,-46.08"/>
</g>
<!-- Node7&#45;&gt;Node5 -->
<g id="edge7" class="edge">
<title>Node7&#45;&gt;Node5</title>
<path fill="none" stroke="midnightblue" d="M365.36,-46.69C361.32,-37.59 356.62,-27.01 353.39,-19.75"/>
<polygon fill="midnightblue" stroke="midnightblue" points="362.28,-48.37 369.54,-56.08 368.67,-45.52 362.28,-48.37"/>
</g>
</g>
</svg>
