<?xml version="1.0" encoding="UTF-8" standalone="no"?>
<!DOCTYPE svg PUBLIC "-//W3C//DTD SVG 1.1//EN"
 "http://www.w3.org/Graphics/SVG/1.1/DTD/svg11.dtd">
<!-- Generated by graphviz version 2.43.0 (0)
 -->
<!-- Title: Matrix.hpp Pages: 1 -->
<svg width="576pt" height="151pt"
 viewBox="0.00 0.00 576.00 151.00" xmlns="http://www.w3.org/2000/svg" xmlns:xlink="http://www.w3.org/1999/xlink">
<g id="graph0" class="graph" transform="scale(1 1) rotate(0) translate(4 147)">
<title>Matrix.hpp</title>
<polygon fill="white" stroke="transparent" points="-4,4 -4,-147 572,-147 572,4 -4,4"/>
<!-- Node1 -->
<g id="node1" class="node">
<title>Node1</title>
<g id="a_node1"><a xlink:title=" ">
<polygon fill="#bfbfbf" stroke="black" points="321.5,-123.5 321.5,-142.5 390.5,-142.5 390.5,-123.5 321.5,-123.5"/>
<text text-anchor="middle" x="356" y="-130.5" font-family="Helvetica,sans-Serif" font-size="10.00">Matrix.hpp</text>
</a>
</g>
</g>
<!-- Node2 -->
<g id="node2" class="node">
<title>Node2</title>
<g id="a_node2"><a xlink:href="../../d3/da8/ArduinoMatrixPrinter_8cpp.html" target="_top" xlink:title="Fallback functions for printing matrices without relying on std::ostream or printf.">
<polygon fill="white" stroke="black" points="21.5,-67.5 21.5,-86.5 158.5,-86.5 158.5,-67.5 21.5,-67.5"/>
<text text-anchor="middle" x="90" y="-74.5" font-family="Helvetica,sans-Serif" font-size="10.00">ArduinoMatrixPrinter.cpp</text>
</a>
</g>
</g>
<!-- Node1&#45;&gt;Node2 -->
<g id="edge1" class="edge">
<title>Node1&#45;&gt;Node2</title>
<path fill="none" stroke="midnightblue" d="M311.62,-122.99C261.59,-112.83 180.86,-96.45 131.89,-86.5"/>
<polygon fill="midnightblue" stroke="midnightblue" points="311,-126.44 321.5,-125 312.39,-119.58 311,-126.44"/>
</g>
<!-- Node3 -->
<g id="node3" class="node">
<title>Node3</title>
<g id="a_node3"><a xlink:href="../../d9/d52/HouseholderQR_8hpp.html" target="_top" xlink:title=" ">
<polygon fill="white" stroke="black" points="176.5,-67.5 176.5,-86.5 289.5,-86.5 289.5,-67.5 176.5,-67.5"/>
<text text-anchor="middle" x="233" y="-74.5" font-family="Helvetica,sans-Serif" font-size="10.00">HouseholderQR.hpp</text>
</a>
</g>
</g>
<!-- Node1&#45;&gt;Node3 -->
<g id="edge2" class="edge">
<title>Node1&#45;&gt;Node3</title>
<path fill="none" stroke="midnightblue" d="M327.23,-119.37C304.19,-109.26 272.52,-95.35 252.4,-86.52"/>
<polygon fill="midnightblue" stroke="midnightblue" points="325.95,-122.63 336.51,-123.44 328.76,-116.22 325.95,-122.63"/>
</g>
<!-- Node5 -->
<g id="node5" class="node">
<title>Node5</title>
<g id="a_node5"><a xlink:href="../../dd/d4f/Basic-matrix-operations_8ino.html" target="_top" xlink:title=" ">
<polygon fill="white" stroke="black" points="238,-6 238,-25 390,-25 390,-6 238,-6"/>
<text text-anchor="middle" x="314" y="-13" font-family="Helvetica,sans-Serif" font-size="10.00">Basic&#45;matrix&#45;operations.ino</text>
</a>
</g>
</g>
<!-- Node1&#45;&gt;Node5 -->
<g id="edge11" class="edge">
<title>Node1&#45;&gt;Node5</title>
<path fill="none" stroke="midnightblue" d="M348.06,-114.16C344.51,-105.95 340.38,-96.05 337,-87 328.8,-65.05 320.64,-38.68 316.6,-25.26"/>
<polygon fill="midnightblue" stroke="midnightblue" points="344.92,-115.71 352.14,-123.46 351.33,-112.9 344.92,-115.71"/>
</g>
<!-- Node6 -->
<g id="node6" class="node">
<title>Node6</title>
<g id="a_node6"><a xlink:href="../../de/dd7/Basic-matrix-operations-no-iostream_8ino.html" target="_top" xlink:title=" ">
<polygon fill="white" stroke="black" points="408,-0.5 408,-30.5 542,-30.5 542,-0.5 408,-0.5"/>
<text text-anchor="start" x="416" y="-18.5" font-family="Helvetica,sans-Serif" font-size="10.00">Basic&#45;matrix&#45;operations</text>
<text text-anchor="middle" x="475" y="-7.5" font-family="Helvetica,sans-Serif" font-size="10.00">&#45;no&#45;iostream.ino</text>
</a>
</g>
</g>
<!-- Node1&#45;&gt;Node6 -->
<g id="edge12" class="edge">
<title>Node1&#45;&gt;Node6</title>
<path fill="none" stroke="midnightblue" d="M400.34,-120.22C418.87,-113.28 439.25,-102.7 453,-87 467.03,-70.99 472.11,-46.1 473.96,-30.58"/>
<polygon fill="midnightblue" stroke="midnightblue" points="399.15,-116.93 390.86,-123.53 401.46,-123.54 399.15,-116.93"/>
</g>
<!-- Node8 -->
<g id="node8" class="node">
<title>Node8</title>
<g id="a_node8"><a xlink:href="../../d9/d1c/Linear__Algebra_8h.html" target="_top" xlink:title=" ">
<polygon fill="white" stroke="black" points="346,-67.5 346,-86.5 444,-86.5 444,-67.5 346,-67.5"/>
<text text-anchor="middle" x="395" y="-74.5" font-family="Helvetica,sans-Serif" font-size="10.00">Linear_Algebra.h</text>
</a>
</g>
</g>
<!-- Node1&#45;&gt;Node8 -->
<g id="edge7" class="edge">
<title>Node1&#45;&gt;Node8</title>
<path fill="none" stroke="midnightblue" d="M368.38,-114.86C375.14,-105.5 383.21,-94.33 388.68,-86.75"/>
<polygon fill="midnightblue" stroke="midnightblue" points="365.46,-112.93 362.44,-123.08 371.13,-117.03 365.46,-112.93"/>
</g>
<!-- Node9 -->
<g id="node9" class="node">
<title>Node9</title>
<g id="a_node9"><a xlink:href="../../dd/d52/Matrix_8cpp.html" target="_top" xlink:title=" ">
<polygon fill="white" stroke="black" points="500,-67.5 500,-86.5 568,-86.5 568,-67.5 500,-67.5"/>
<text text-anchor="middle" x="534" y="-74.5" font-family="Helvetica,sans-Serif" font-size="10.00">Matrix.cpp</text>
</a>
</g>
</g>
<!-- Node1&#45;&gt;Node9 -->
<g id="edge10" class="edge">
<title>Node1&#45;&gt;Node9</title>
<path fill="none" stroke="midnightblue" d="M394.12,-120.44C427.68,-110.26 475.77,-95.66 505.93,-86.52"/>
<polygon fill="midnightblue" stroke="midnightblue" points="392.76,-117.19 384.2,-123.44 394.79,-123.89 392.76,-117.19"/>
</g>
<!-- Node4 -->
<g id="node4" class="node">
<title>Node4</title>
<g id="a_node4"><a xlink:href="../../df/d5c/HouseholderQR_8cpp.html" target="_top" xlink:title=" ">
<polygon fill="white" stroke="black" points="106.5,-6 106.5,-25 219.5,-25 219.5,-6 106.5,-6"/>
<text text-anchor="middle" x="163" y="-13" font-family="Helvetica,sans-Serif" font-size="10.00">HouseholderQR.cpp</text>
</a>
</g>
</g>
<!-- Node3&#45;&gt;Node4 -->
<g id="edge3" class="edge">
<title>Node3&#45;&gt;Node4</title>
<path fill="none" stroke="midnightblue" d="M215.32,-60.97C201.93,-49.59 184.02,-34.37 173.01,-25.01"/>
<polygon fill="midnightblue" stroke="midnightblue" points="213.08,-63.67 222.97,-67.48 217.62,-58.33 213.08,-63.67"/>
</g>
<!-- Node3&#45;&gt;Node5 -->
<g id="edge4" class="edge">
<title>Node3&#45;&gt;Node5</title>
<path fill="none" stroke="midnightblue" d="M253.02,-61.29C268.56,-49.88 289.55,-34.46 302.42,-25.01"/>
<polygon fill="midnightblue" stroke="midnightblue" points="250.59,-58.73 244.61,-67.48 254.74,-64.38 250.59,-58.73"/>
</g>
<!-- Node3&#45;&gt;Node6 -->
<g id="edge5" class="edge">
<title>Node3&#45;&gt;Node6</title>
<path fill="none" stroke="midnightblue" d="M277.56,-65.05C317.09,-55.33 375.06,-41.07 417.97,-30.52"/>
<polygon fill="midnightblue" stroke="midnightblue" points="276.55,-61.69 267.67,-67.48 278.22,-68.49 276.55,-61.69"/>
</g>
<!-- Node7 -->
<g id="node7" class="node">
<title>Node7</title>
<g id="a_node7"><a xlink:href="../../de/d90/qr-perftest_8cpp.html" target="_top" xlink:title=" ">
<polygon fill="white" stroke="black" points="0,-6 0,-25 88,-25 88,-6 0,-6"/>
<text text-anchor="middle" x="44" y="-13" font-family="Helvetica,sans-Serif" font-size="10.00">qr&#45;perftest.cpp</text>
</a>
</g>
</g>
<!-- Node3&#45;&gt;Node7 -->
<g id="edge6" class="edge">
<title>Node3&#45;&gt;Node7</title>
<path fill="none" stroke="midnightblue" d="M196.09,-64.38C159.35,-52.82 103.85,-35.34 71.03,-25.01"/>
<polygon fill="midnightblue" stroke="midnightblue" points="195.33,-67.81 205.92,-67.48 197.43,-61.13 195.33,-67.81"/>
</g>
<!-- Node8&#45;&gt;Node5 -->
<g id="edge8" class="edge">
<title>Node8&#45;&gt;Node5</title>
<path fill="none" stroke="midnightblue" d="M374.98,-61.29C359.44,-49.88 338.45,-34.46 325.58,-25.01"/>
<polygon fill="midnightblue" stroke="midnightblue" points="373.26,-64.38 383.39,-67.48 377.41,-58.73 373.26,-64.38"/>
</g>
<!-- Node8&#45;&gt;Node6 -->
<g id="edge9" class="edge">
<title>Node8&#45;&gt;Node6</title>
<path fill="none" stroke="midnightblue" d="M414.54,-61.47C427.21,-52.05 443.62,-39.84 456.15,-30.52"/>
<polygon fill="midnightblue" stroke="midnightblue" points="412.4,-58.7 406.46,-67.48 416.57,-64.32 412.4,-58.7"/>
</g>
</g>
</svg>
