<?xml version="1.0" encoding="UTF-8" standalone="no"?>
<!DOCTYPE svg PUBLIC "-//W3C//DTD SVG 1.1//EN"
 "http://www.w3.org/Graphics/SVG/1.1/DTD/svg11.dtd">
<!-- Generated by graphviz version 2.43.0 (0)
 -->
<!-- Title: Matrix.hpp Pages: 1 -->
<svg width="647pt" height="151pt"
 viewBox="0.00 0.00 647.00 151.00" xmlns="http://www.w3.org/2000/svg" xmlns:xlink="http://www.w3.org/1999/xlink">
<g id="graph0" class="graph" transform="scale(1 1) rotate(0) translate(4 147)">
<title>Matrix.hpp</title>
<polygon fill="white" stroke="transparent" points="-4,4 -4,-147 643,-147 643,4 -4,4"/>
<!-- Node1 -->
<g id="node1" class="node">
<title>Node1</title>
<g id="a_node1"><a xlink:title=" ">
<polygon fill="#bfbfbf" stroke="black" points="363.5,-123.5 363.5,-142.5 432.5,-142.5 432.5,-123.5 363.5,-123.5"/>
<text text-anchor="middle" x="398" y="-130.5" font-family="Helvetica,sans-Serif" font-size="10.00">Matrix.hpp</text>
</a>
</g>
</g>
<!-- Node2 -->
<g id="node2" class="node">
<title>Node2</title>
<g id="a_node2"><a xlink:href="../../d3/da8/ArduinoMatrixPrinter_8cpp.html" target="_top" xlink:title="Fallback functions for printing matrices without relying on std::ostream or printf.">
<polygon fill="white" stroke="black" points="24.5,-67.5 24.5,-86.5 161.5,-86.5 161.5,-67.5 24.5,-67.5"/>
<text text-anchor="middle" x="93" y="-74.5" font-family="Helvetica,sans-Serif" font-size="10.00">ArduinoMatrixPrinter.cpp</text>
</a>
</g>
</g>
<!-- Node1&#45;&gt;Node2 -->
<g id="edge1" class="edge">
<title>Node1&#45;&gt;Node2</title>
<path fill="none" stroke="midnightblue" d="M353.22,-124.07C296.57,-114.04 199.4,-96.84 141.18,-86.53"/>
<polygon fill="midnightblue" stroke="midnightblue" points="352.85,-127.56 363.31,-125.86 354.07,-120.67 352.85,-127.56"/>
</g>
<!-- Node3 -->
<g id="node3" class="node">
<title>Node3</title>
<g id="a_node3"><a xlink:href="../../d9/d52/HouseholderQR_8hpp.html" target="_top" xlink:title=" ">
<polygon fill="white" stroke="black" points="179.5,-67.5 179.5,-86.5 292.5,-86.5 292.5,-67.5 179.5,-67.5"/>
<text text-anchor="middle" x="236" y="-74.5" font-family="Helvetica,sans-Serif" font-size="10.00">HouseholderQR.hpp</text>
</a>
</g>
</g>
<!-- Node1&#45;&gt;Node3 -->
<g id="edge2" class="edge">
<title>Node1&#45;&gt;Node3</title>
<path fill="none" stroke="midnightblue" d="M362.52,-120.17C332.01,-110 288.76,-95.59 261.55,-86.52"/>
<polygon fill="midnightblue" stroke="midnightblue" points="361.74,-123.6 372.33,-123.44 363.95,-116.96 361.74,-123.6"/>
</g>
<!-- Node5 -->
<g id="node5" class="node">
<title>Node5</title>
<g id="a_node5"><a xlink:href="../../dd/d4f/Basic-matrix-operations_8ino.html" target="_top" xlink:title=" ">
<polygon fill="white" stroke="black" points="238,-6 238,-25 390,-25 390,-6 238,-6"/>
<text text-anchor="middle" x="314" y="-13" font-family="Helvetica,sans-Serif" font-size="10.00">Basic&#45;matrix&#45;operations.ino</text>
</a>
</g>
</g>
<!-- Node1&#45;&gt;Node5 -->
<g id="edge13" class="edge">
<title>Node1&#45;&gt;Node5</title>
<path fill="none" stroke="midnightblue" d="M374.26,-118.06C362.6,-110.2 349.12,-99.45 340,-87 325.66,-67.42 318.43,-39.08 315.55,-25.04"/>
<polygon fill="midnightblue" stroke="midnightblue" points="372.42,-121.04 382.73,-123.49 376.2,-115.15 372.42,-121.04"/>
</g>
<!-- Node6 -->
<g id="node6" class="node">
<title>Node6</title>
<g id="a_node6"><a xlink:href="../../de/dd7/Basic-matrix-operations-no-iostream_8ino.html" target="_top" xlink:title=" ">
<polygon fill="white" stroke="black" points="408,-0.5 408,-30.5 542,-30.5 542,-0.5 408,-0.5"/>
<text text-anchor="start" x="416" y="-18.5" font-family="Helvetica,sans-Serif" font-size="10.00">Basic&#45;matrix&#45;operations</text>
<text text-anchor="middle" x="475" y="-7.5" font-family="Helvetica,sans-Serif" font-size="10.00">&#45;no&#45;iostream.ino</text>
</a>
</g>
</g>
<!-- Node1&#45;&gt;Node6 -->
<g id="edge14" class="edge">
<title>Node1&#45;&gt;Node6</title>
<path fill="none" stroke="midnightblue" d="M422.68,-118.08C434.36,-110.33 447.56,-99.68 456,-87 467.52,-69.69 472.07,-45.63 473.86,-30.57"/>
<polygon fill="midnightblue" stroke="midnightblue" points="420.76,-115.15 414.15,-123.43 424.48,-121.08 420.76,-115.15"/>
</g>
<!-- Node8 -->
<g id="node8" class="node">
<title>Node8</title>
<g id="a_node8"><a xlink:href="../../d9/d1c/Linear__Algebra_8h.html" target="_top" xlink:title=" ">
<polygon fill="white" stroke="black" points="349,-67.5 349,-86.5 447,-86.5 447,-67.5 349,-67.5"/>
<text text-anchor="middle" x="398" y="-74.5" font-family="Helvetica,sans-Serif" font-size="10.00">Linear_Algebra.h</text>
</a>
</g>
</g>
<!-- Node1&#45;&gt;Node8 -->
<g id="edge7" class="edge">
<title>Node1&#45;&gt;Node8</title>
<path fill="none" stroke="midnightblue" d="M398,-112.8C398,-103.91 398,-93.78 398,-86.75"/>
<polygon fill="midnightblue" stroke="midnightblue" points="394.5,-113.08 398,-123.08 401.5,-113.08 394.5,-113.08"/>
</g>
<!-- Node9 -->
<g id="node9" class="node">
<title>Node9</title>
<g id="a_node9"><a xlink:href="../../d6/dcf/LU_8hpp.html" target="_top" xlink:title=" ">
<polygon fill="white" stroke="black" points="503,-67.5 503,-86.5 553,-86.5 553,-67.5 503,-67.5"/>
<text text-anchor="middle" x="528" y="-74.5" font-family="Helvetica,sans-Serif" font-size="10.00">LU.hpp</text>
</a>
</g>
</g>
<!-- Node1&#45;&gt;Node9 -->
<g id="edge10" class="edge">
<title>Node1&#45;&gt;Node9</title>
<path fill="none" stroke="midnightblue" d="M428.09,-119.5C452.46,-109.38 486.14,-95.39 507.5,-86.52"/>
<polygon fill="midnightblue" stroke="midnightblue" points="426.49,-116.38 418.6,-123.44 429.18,-122.84 426.49,-116.38"/>
</g>
<!-- Node11 -->
<g id="node11" class="node">
<title>Node11</title>
<g id="a_node11"><a xlink:href="../../dd/d52/Matrix_8cpp.html" target="_top" xlink:title=" ">
<polygon fill="white" stroke="black" points="571,-67.5 571,-86.5 639,-86.5 639,-67.5 571,-67.5"/>
<text text-anchor="middle" x="605" y="-74.5" font-family="Helvetica,sans-Serif" font-size="10.00">Matrix.cpp</text>
</a>
</g>
</g>
<!-- Node1&#45;&gt;Node11 -->
<g id="edge12" class="edge">
<title>Node1&#45;&gt;Node11</title>
<path fill="none" stroke="midnightblue" d="M440.82,-120.83C479.91,-110.63 536.83,-95.78 572.35,-86.52"/>
<polygon fill="midnightblue" stroke="midnightblue" points="439.59,-117.53 430.8,-123.44 441.36,-124.31 439.59,-117.53"/>
</g>
<!-- Node4 -->
<g id="node4" class="node">
<title>Node4</title>
<g id="a_node4"><a xlink:href="../../df/d5c/HouseholderQR_8cpp.html" target="_top" xlink:title=" ">
<polygon fill="white" stroke="black" points="106.5,-6 106.5,-25 219.5,-25 219.5,-6 106.5,-6"/>
<text text-anchor="middle" x="163" y="-13" font-family="Helvetica,sans-Serif" font-size="10.00">HouseholderQR.cpp</text>
</a>
</g>
</g>
<!-- Node3&#45;&gt;Node4 -->
<g id="edge3" class="edge">
<title>Node3&#45;&gt;Node4</title>
<path fill="none" stroke="midnightblue" d="M217.56,-60.97C203.6,-49.59 184.92,-34.37 173.44,-25.01"/>
<polygon fill="midnightblue" stroke="midnightblue" points="215.58,-63.87 225.54,-67.48 220,-58.44 215.58,-63.87"/>
</g>
<!-- Node3&#45;&gt;Node5 -->
<g id="edge4" class="edge">
<title>Node3&#45;&gt;Node5</title>
<path fill="none" stroke="midnightblue" d="M255.28,-61.29C270.24,-49.88 290.46,-34.46 302.85,-25.01"/>
<polygon fill="midnightblue" stroke="midnightblue" points="253,-58.63 247.18,-67.48 257.25,-64.19 253,-58.63"/>
</g>
<!-- Node3&#45;&gt;Node6 -->
<g id="edge5" class="edge">
<title>Node3&#45;&gt;Node6</title>
<path fill="none" stroke="midnightblue" d="M280.25,-64.98C319.29,-55.27 376.39,-41.05 418.67,-30.52"/>
<polygon fill="midnightblue" stroke="midnightblue" points="279.1,-61.66 270.24,-67.48 280.79,-68.46 279.1,-61.66"/>
</g>
<!-- Node7 -->
<g id="node7" class="node">
<title>Node7</title>
<g id="a_node7"><a xlink:href="../../de/d90/qr-perftest_8cpp.html" target="_top" xlink:title=" ">
<polygon fill="white" stroke="black" points="0,-6 0,-25 88,-25 88,-6 0,-6"/>
<text text-anchor="middle" x="44" y="-13" font-family="Helvetica,sans-Serif" font-size="10.00">qr&#45;perftest.cpp</text>
</a>
</g>
</g>
<!-- Node3&#45;&gt;Node7 -->
<g id="edge6" class="edge">
<title>Node3&#45;&gt;Node7</title>
<path fill="none" stroke="midnightblue" d="M198.51,-64.38C161.19,-52.82 104.8,-35.34 71.46,-25.01"/>
<polygon fill="midnightblue" stroke="midnightblue" points="197.9,-67.86 208.49,-67.48 199.98,-61.17 197.9,-67.86"/>
</g>
<!-- Node8&#45;&gt;Node5 -->
<g id="edge8" class="edge">
<title>Node8&#45;&gt;Node5</title>
<path fill="none" stroke="midnightblue" d="M377.69,-61.61C361.53,-50.17 339.48,-34.55 326.01,-25.01"/>
<polygon fill="midnightblue" stroke="midnightblue" points="375.78,-64.55 385.96,-67.48 379.83,-58.84 375.78,-64.55"/>
</g>
<!-- Node8&#45;&gt;Node6 -->
<g id="edge9" class="edge">
<title>Node8&#45;&gt;Node6</title>
<path fill="none" stroke="midnightblue" d="M417.16,-61.2C429.3,-51.81 444.91,-39.75 456.85,-30.52"/>
<polygon fill="midnightblue" stroke="midnightblue" points="414.81,-58.59 409.03,-67.48 419.09,-64.13 414.81,-58.59"/>
</g>
<!-- Node10 -->
<g id="node10" class="node">
<title>Node10</title>
<g id="a_node10"><a xlink:href="../../d6/d57/LU_8cpp.html" target="_top" xlink:title=" ">
<polygon fill="white" stroke="black" points="560,-6 560,-25 610,-25 610,-6 560,-6"/>
<text text-anchor="middle" x="585" y="-13" font-family="Helvetica,sans-Serif" font-size="10.00">LU.cpp</text>
</a>
</g>
</g>
<!-- Node9&#45;&gt;Node10 -->
<g id="edge11" class="edge">
<title>Node9&#45;&gt;Node10</title>
<path fill="none" stroke="midnightblue" d="M543.33,-60C554.12,-48.74 568.14,-34.1 576.85,-25.01"/>
<polygon fill="midnightblue" stroke="midnightblue" points="540.56,-57.83 536.17,-67.48 545.61,-62.68 540.56,-57.83"/>
</g>
</g>
</svg>
