<?xml version="1.0" encoding="UTF-8" standalone="no"?>
<!DOCTYPE svg PUBLIC "-//W3C//DTD SVG 1.1//EN"
 "http://www.w3.org/Graphics/SVG/1.1/DTD/svg11.dtd">
<!-- Generated by graphviz version 2.43.0 (0)
 -->
<!-- Title: SerialBuf Pages: 1 -->
<svg width="85pt" height="171pt"
 viewBox="0.00 0.00 85.00 171.00" xmlns="http://www.w3.org/2000/svg" xmlns:xlink="http://www.w3.org/1999/xlink">
<g id="graph0" class="graph" transform="scale(1 1) rotate(0) translate(4 167)">
<title>SerialBuf</title>
<polygon fill="white" stroke="transparent" points="-4,4 -4,-167 81,-167 81,4 -4,4"/>
<!-- Node1 -->
<g id="node1" class="node">
<title>Node1</title>
<g id="a_node1"><a xlink:title="&quot;Buffer&quot; custom std::ostream that wraps the Serial output of the Arduino.">
<polygon fill="#bfbfbf" stroke="black" points="0,-0.5 0,-68.5 77,-68.5 77,-0.5 0,-0.5"/>
<text text-anchor="middle" x="38.5" y="-56.5" font-family="Helvetica,sans-Serif" font-size="10.00">SerialBuf</text>
<polyline fill="none" stroke="black" points="0,-49.5 77,-49.5 "/>
<text text-anchor="middle" x="38.5" y="-37.5" font-family="Helvetica,sans-Serif" font-size="10.00"> </text>
<polyline fill="none" stroke="black" points="0,-30.5 77,-30.5 "/>
<text text-anchor="start" x="8" y="-18.5" font-family="Helvetica,sans-Serif" font-size="10.00">+ xsputn()</text>
<text text-anchor="start" x="8" y="-7.5" font-family="Helvetica,sans-Serif" font-size="10.00">+ overflow()</text>
</a>
</g>
</g>
<!-- Node2 -->
<g id="node2" class="node">
<title>Node2</title>
<g id="a_node2"><a xlink:title=" ">
<polygon fill="white" stroke="#bfbfbf" points="5,-105.5 5,-162.5 72,-162.5 72,-105.5 5,-105.5"/>
<text text-anchor="middle" x="38.5" y="-150.5" font-family="Helvetica,sans-Serif" font-size="10.00">streambuf</text>
<polyline fill="none" stroke="#bfbfbf" points="5,-143.5 72,-143.5 "/>
<text text-anchor="middle" x="38.5" y="-131.5" font-family="Helvetica,sans-Serif" font-size="10.00"> </text>
<polyline fill="none" stroke="#bfbfbf" points="5,-124.5 72,-124.5 "/>
<text text-anchor="middle" x="38.5" y="-112.5" font-family="Helvetica,sans-Serif" font-size="10.00"> </text>
</a>
</g>
</g>
<!-- Node2&#45;&gt;Node1 -->
<g id="edge1" class="edge">
<title>Node2&#45;&gt;Node1</title>
<path fill="none" stroke="midnightblue" d="M38.5,-95.06C38.5,-86.39 38.5,-77.24 38.5,-68.79"/>
<polygon fill="none" stroke="midnightblue" points="35,-95.32 38.5,-105.32 42,-95.32 35,-95.32"/>
</g>
</g>
</svg>
