<?xml version="1.0" encoding="UTF-8" standalone="no"?>
<!DOCTYPE svg PUBLIC "-//W3C//DTD SVG 1.1//EN"
 "http://www.w3.org/Graphics/SVG/1.1/DTD/svg11.dtd">
<!-- Generated by graphviz version 2.43.0 (0)
 -->
<!-- Title: examples Pages: 1 -->
<svg width="270pt" height="132pt"
 viewBox="0.00 0.00 270.00 132.00" xmlns="http://www.w3.org/2000/svg" xmlns:xlink="http://www.w3.org/1999/xlink">
<g id="graph0" class="graph" transform="scale(1 1) rotate(0) translate(4 128)">
<title>examples</title>
<polygon fill="white" stroke="transparent" points="-4,4 -4,-128 266,-128 266,4 -4,4"/>
<g id="clust1" class="cluster">
<title>clusterdir_d28a4824dc47e487b107a5db32ef43c4</title>
<g id="a_clust1"><a xlink:href="dir_d28a4824dc47e487b107a5db32ef43c4.html" target="_top">
<polygon fill="#eeeeff" stroke="black" points="8,-64 8,-116 254,-116 254,-64 8,-64"/>
</a>
</g>
</g>
<!-- dir_d28a4824dc47e487b107a5db32ef43c4 -->
<g id="node1" class="node">
<title>dir_d28a4824dc47e487b107a5db32ef43c4</title>
<text text-anchor="middle" x="213" y="-87.5" font-family="Helvetica,sans-Serif" font-size="10.00">examples</text>
</g>
<!-- dir_4d1c121ec184540d7a357c43e5632015 -->
<g id="node2" class="node">
<title>dir_4d1c121ec184540d7a357c43e5632015</title>
<g id="a_node2"><a xlink:href="dir_4d1c121ec184540d7a357c43e5632015.html" target="_top" xlink:title="Basics">
<polygon fill="white" stroke="black" points="162,-108 108,-108 108,-72 162,-72 162,-108"/>
<text text-anchor="middle" x="135" y="-87.5" font-family="Helvetica,sans-Serif" font-size="10.00">Basics</text>
</a>
</g>
</g>
<!-- dir_68267d1309a1af8e8297ef4c3efbcdba -->
<g id="node4" class="node">
<title>dir_68267d1309a1af8e8297ef4c3efbcdba</title>
<g id="a_node4"><a xlink:href="dir_68267d1309a1af8e8297ef4c3efbcdba.html" target="_top" xlink:title="src">
<polygon fill="white" stroke="red" points="121,-36 67,-36 67,0 121,0 121,-36"/>
<text text-anchor="middle" x="94" y="-15.5" font-family="Helvetica,sans-Serif" font-size="10.00">src</text>
</a>
</g>
</g>
<!-- dir_4d1c121ec184540d7a357c43e5632015&#45;&gt;dir_68267d1309a1af8e8297ef4c3efbcdba -->
<g id="edge2" class="edge">
<title>dir_4d1c121ec184540d7a357c43e5632015&#45;&gt;dir_68267d1309a1af8e8297ef4c3efbcdba</title>
<path fill="none" stroke="black" d="M124.87,-71.7C120.15,-63.64 114.44,-53.89 109.22,-44.98"/>
<polygon fill="black" stroke="black" points="112.09,-42.96 104.02,-36.1 106.05,-46.5 112.09,-42.96"/>
<g id="a_edge2&#45;headlabel"><a xlink:href="dir_000001_000002.html" target="_top" xlink:title="1">
<text text-anchor="middle" x="116.36" y="-42.13" font-family="Helvetica,sans-Serif" font-size="10.00">1</text>
</a>
</g>
</g>
<!-- dir_dd568c31d99c2480b7e58f4e99afde4c -->
<g id="node3" class="node">
<title>dir_dd568c31d99c2480b7e58f4e99afde4c</title>
<g id="a_node3"><a xlink:href="dir_dd568c31d99c2480b7e58f4e99afde4c.html" target="_top" xlink:title="QR&#45;PerfTest">
<polygon fill="white" stroke="black" points="90,-108 16,-108 16,-72 90,-72 90,-108"/>
<text text-anchor="middle" x="53" y="-87.5" font-family="Helvetica,sans-Serif" font-size="10.00">QR&#45;PerfTest</text>
</a>
</g>
</g>
<!-- dir_dd568c31d99c2480b7e58f4e99afde4c&#45;&gt;dir_68267d1309a1af8e8297ef4c3efbcdba -->
<g id="edge1" class="edge">
<title>dir_dd568c31d99c2480b7e58f4e99afde4c&#45;&gt;dir_68267d1309a1af8e8297ef4c3efbcdba</title>
<path fill="none" stroke="black" d="M63.13,-71.7C67.85,-63.64 73.56,-53.89 78.78,-44.98"/>
<polygon fill="black" stroke="black" points="81.95,-46.5 83.98,-36.1 75.91,-42.96 81.95,-46.5"/>
<g id="a_edge1&#45;headlabel"><a xlink:href="dir_000009_000002.html" target="_top" xlink:title="1">
<text text-anchor="middle" x="82.58" y="-48.54" font-family="Helvetica,sans-Serif" font-size="10.00">1</text>
</a>
</g>
</g>
</g>
</svg>
