<?xml version="1.0" encoding="UTF-8" standalone="no"?>
<!DOCTYPE svg PUBLIC "-//W3C//DTD SVG 1.1//EN"
 "http://www.w3.org/Graphics/SVG/1.1/DTD/svg11.dtd">
<!-- Generated by graphviz version 2.43.0 (0)
 -->
<!-- Title: src Pages: 1 -->
<svg width="126pt" height="247pt"
 viewBox="0.00 0.00 126.00 247.00" xmlns="http://www.w3.org/2000/svg" xmlns:xlink="http://www.w3.org/1999/xlink">
<g id="graph0" class="graph" transform="scale(1 1) rotate(0) translate(4 243)">
<title>src</title>
<polygon fill="white" stroke="transparent" points="-4,4 -4,-243 122,-243 122,4 -4,4"/>
<g id="clust1" class="cluster">
<title>clusterdir_68267d1309a1af8e8297ef4c3efbcdba</title>
<g id="a_clust1"><a xlink:href="dir_68267d1309a1af8e8297ef4c3efbcdba.html" target="_top" xlink:title="src">
<polygon fill="#ddddee" stroke="black" points="8,-8 8,-231 110,-231 110,-8 8,-8"/>
<text text-anchor="middle" x="59" y="-219" font-family="Helvetica,sans-Serif" font-size="10.00">src</text>
</a>
</g>
</g>
<g id="clust2" class="cluster">
<title>clusterdir_98cdb10f369f6a3b9149e010b312bf5d</title>
<g id="a_clust2"><a xlink:href="dir_98cdb10f369f6a3b9149e010b312bf5d.html" target="_top">
<polygon fill="#eeeeff" stroke="black" points="16,-80 16,-204 102,-204 102,-80 16,-80"/>
</a>
</g>
</g>
<!-- dir_b0856f6b0d80ccb263b2f415c91f9e17 -->
<g id="node1" class="node">
<title>dir_b0856f6b0d80ccb263b2f415c91f9e17</title>
<g id="a_node1"><a xlink:href="dir_b0856f6b0d80ccb263b2f415c91f9e17.html" target="_top" xlink:title="include">
<polygon fill="white" stroke="red" points="86,-52 32,-52 32,-16 86,-16 86,-52"/>
<text text-anchor="middle" x="59" y="-31.5" font-family="Helvetica,sans-Serif" font-size="10.00">include</text>
</a>
</g>
</g>
<!-- dir_98cdb10f369f6a3b9149e010b312bf5d -->
<g id="node2" class="node">
<title>dir_98cdb10f369f6a3b9149e010b312bf5d</title>
<text text-anchor="middle" x="59" y="-175.5" font-family="Helvetica,sans-Serif" font-size="10.00">src</text>
</g>
<!-- dir_6895197589028e462695e448a0dbe4c3 -->
<g id="node3" class="node">
<title>dir_6895197589028e462695e448a0dbe4c3</title>
<g id="a_node3"><a xlink:href="dir_6895197589028e462695e448a0dbe4c3.html" target="_top" xlink:title="boilerplate">
<polygon fill="white" stroke="black" points="93.5,-124 24.5,-124 24.5,-88 93.5,-88 93.5,-124"/>
<text text-anchor="middle" x="59" y="-103.5" font-family="Helvetica,sans-Serif" font-size="10.00">boilerplate</text>
</a>
</g>
</g>
<!-- dir_98cdb10f369f6a3b9149e010b312bf5d&#45;&gt;dir_6895197589028e462695e448a0dbe4c3 -->
<g id="edge2" class="edge">
<title>dir_98cdb10f369f6a3b9149e010b312bf5d&#45;&gt;dir_6895197589028e462695e448a0dbe4c3</title>
<path fill="none" stroke="black" d="M59,-159.7C59,-151.98 59,-142.71 59,-134.11"/>
<polygon fill="black" stroke="black" points="62.5,-134.1 59,-124.1 55.5,-134.1 62.5,-134.1"/>
<g id="a_edge2&#45;headlabel"><a xlink:href="dir_000003_000006.html" target="_top" xlink:title="3">
<text text-anchor="middle" x="65.34" y="-135.2" font-family="Helvetica,sans-Serif" font-size="10.00">3</text>
</a>
</g>
</g>
<!-- dir_6895197589028e462695e448a0dbe4c3&#45;&gt;dir_b0856f6b0d80ccb263b2f415c91f9e17 -->
<g id="edge1" class="edge">
<title>dir_6895197589028e462695e448a0dbe4c3&#45;&gt;dir_b0856f6b0d80ccb263b2f415c91f9e17</title>
<path fill="none" stroke="black" d="M59,-87.7C59,-79.98 59,-70.71 59,-62.11"/>
<polygon fill="black" stroke="black" points="62.5,-62.1 59,-52.1 55.5,-62.1 62.5,-62.1"/>
<g id="a_edge1&#45;headlabel"><a xlink:href="dir_000006_000004.html" target="_top" xlink:title="3">
<text text-anchor="middle" x="65.34" y="-63.2" font-family="Helvetica,sans-Serif" font-size="10.00">3</text>
</a>
</g>
</g>
</g>
</svg>
