<?xml version="1.0" encoding="UTF-8" standalone="no"?>
<!DOCTYPE svg PUBLIC "-//W3C//DTD SVG 1.1//EN"
 "http://www.w3.org/Graphics/SVG/1.1/DTD/svg11.dtd">
<!-- Generated by graphviz version 2.43.0 (0)
 -->
<!-- Title: RowPivotLU.cpp Pages: 1 -->
<svg width="742pt" height="252pt"
 viewBox="0.00 0.00 742.00 252.00" xmlns="http://www.w3.org/2000/svg" xmlns:xlink="http://www.w3.org/1999/xlink">
<g id="graph0" class="graph" transform="scale(1 1) rotate(0) translate(4 248)">
<title>RowPivotLU.cpp</title>
<polygon fill="white" stroke="transparent" points="-4,4 -4,-248 738,-248 738,4 -4,4"/>
<!-- Node1 -->
<g id="node1" class="node">
<title>Node1</title>
<g id="a_node1"><a xlink:title=" ">
<polygon fill="#bfbfbf" stroke="black" points="552.5,-224.5 552.5,-243.5 647.5,-243.5 647.5,-224.5 552.5,-224.5"/>
<text text-anchor="middle" x="600" y="-231.5" font-family="Helvetica,sans-Serif" font-size="10.00">RowPivotLU.cpp</text>
</a>
</g>
</g>
<!-- Node2 -->
<g id="node2" class="node">
<title>Node2</title>
<g id="a_node2"><a xlink:href="../../d3/d5d/RowPivotLU_8hpp.html" target="_top" xlink:title=" ">
<polygon fill="white" stroke="black" points="396,-168.5 396,-187.5 492,-187.5 492,-168.5 396,-168.5"/>
<text text-anchor="middle" x="444" y="-175.5" font-family="Helvetica,sans-Serif" font-size="10.00">RowPivotLU.hpp</text>
</a>
</g>
</g>
<!-- Node1&#45;&gt;Node2 -->
<g id="edge1" class="edge">
<title>Node1&#45;&gt;Node2</title>
<path fill="none" stroke="midnightblue" d="M575.28,-224.44C549.15,-215.4 507.74,-201.06 478.42,-190.92"/>
<polygon fill="midnightblue" stroke="midnightblue" points="479.2,-187.48 468.6,-187.52 476.91,-194.1 479.2,-187.48"/>
</g>
<!-- Node5 -->
<g id="node5" class="node">
<title>Node5</title>
<g id="a_node5"><a xlink:title=" ">
<polygon fill="white" stroke="#bfbfbf" points="572,-0.5 572,-19.5 624,-19.5 624,-0.5 572,-0.5"/>
<text text-anchor="middle" x="598" y="-7.5" font-family="Helvetica,sans-Serif" font-size="10.00">cassert</text>
</a>
</g>
</g>
<!-- Node1&#45;&gt;Node5 -->
<g id="edge14" class="edge">
<title>Node1&#45;&gt;Node5</title>
<path fill="none" stroke="midnightblue" d="M597.77,-224.45C595.54,-215.45 592.27,-200.84 591,-188 585.33,-130.76 591.68,-62.68 595.52,-30.16"/>
<polygon fill="midnightblue" stroke="midnightblue" points="599.03,-30.22 596.79,-19.87 592.09,-29.36 599.03,-30.22"/>
</g>
<!-- Node14 -->
<g id="node14" class="node">
<title>Node14</title>
<g id="a_node14"><a xlink:title=" ">
<polygon fill="white" stroke="#bfbfbf" points="600,-168.5 600,-187.5 656,-187.5 656,-168.5 600,-168.5"/>
<text text-anchor="middle" x="628" y="-175.5" font-family="Helvetica,sans-Serif" font-size="10.00">iomanip</text>
</a>
</g>
</g>
<!-- Node1&#45;&gt;Node14 -->
<g id="edge15" class="edge">
<title>Node1&#45;&gt;Node14</title>
<path fill="none" stroke="midnightblue" d="M604.62,-224.08C608.46,-216.69 614.02,-205.95 618.76,-196.81"/>
<polygon fill="midnightblue" stroke="midnightblue" points="621.97,-198.24 623.46,-187.75 615.75,-195.02 621.97,-198.24"/>
</g>
<!-- Node15 -->
<g id="node15" class="node">
<title>Node15</title>
<g id="a_node15"><a xlink:title=" ">
<polygon fill="white" stroke="#bfbfbf" points="674,-168.5 674,-187.5 734,-187.5 734,-168.5 674,-168.5"/>
<text text-anchor="middle" x="704" y="-175.5" font-family="Helvetica,sans-Serif" font-size="10.00">iostream</text>
</a>
</g>
</g>
<!-- Node1&#45;&gt;Node15 -->
<g id="edge16" class="edge">
<title>Node1&#45;&gt;Node15</title>
<path fill="none" stroke="midnightblue" d="M616.71,-224.32C633.31,-215.7 659,-202.36 678.22,-192.39"/>
<polygon fill="midnightblue" stroke="midnightblue" points="680.07,-195.37 687.33,-187.65 676.84,-189.16 680.07,-195.37"/>
</g>
<!-- Node3 -->
<g id="node3" class="node">
<title>Node3</title>
<g id="a_node3"><a xlink:href="../../d9/d1c/Matrix_8hpp.html" target="_top" xlink:title=" ">
<polygon fill="white" stroke="black" points="316.5,-56.5 316.5,-75.5 385.5,-75.5 385.5,-56.5 316.5,-56.5"/>
<text text-anchor="middle" x="351" y="-63.5" font-family="Helvetica,sans-Serif" font-size="10.00">Matrix.hpp</text>
</a>
</g>
</g>
<!-- Node2&#45;&gt;Node3 -->
<g id="edge2" class="edge">
<title>Node2&#45;&gt;Node3</title>
<path fill="none" stroke="midnightblue" d="M443.25,-168.11C441.71,-154.68 437.15,-129 424,-112 413.24,-98.09 396.87,-87.44 382.35,-79.99"/>
<polygon fill="midnightblue" stroke="midnightblue" points="383.69,-76.75 373.16,-75.57 380.65,-83.06 383.69,-76.75"/>
</g>
<!-- Node13 -->
<g id="node13" class="node">
<title>Node13</title>
<g id="a_node13"><a xlink:href="../../df/d3f/PermutationMatrix_8hpp.html" target="_top" xlink:title=" ">
<polygon fill="white" stroke="black" points="286.5,-112.5 286.5,-131.5 415.5,-131.5 415.5,-112.5 286.5,-112.5"/>
<text text-anchor="middle" x="351" y="-119.5" font-family="Helvetica,sans-Serif" font-size="10.00">PermutationMatrix.hpp</text>
</a>
</g>
</g>
<!-- Node2&#45;&gt;Node13 -->
<g id="edge12" class="edge">
<title>Node2&#45;&gt;Node13</title>
<path fill="none" stroke="midnightblue" d="M429.06,-168.32C414.41,-159.82 391.87,-146.73 374.76,-136.8"/>
<polygon fill="midnightblue" stroke="midnightblue" points="376.31,-133.65 365.9,-131.65 372.8,-139.7 376.31,-133.65"/>
</g>
<!-- Node4 -->
<g id="node4" class="node">
<title>Node4</title>
<g id="a_node4"><a xlink:title=" ">
<polygon fill="white" stroke="#bfbfbf" points="0,-0.5 0,-19.5 64,-19.5 64,-0.5 0,-0.5"/>
<text text-anchor="middle" x="32" y="-7.5" font-family="Helvetica,sans-Serif" font-size="10.00">algorithm</text>
</a>
</g>
</g>
<!-- Node3&#45;&gt;Node4 -->
<g id="edge3" class="edge">
<title>Node3&#45;&gt;Node4</title>
<path fill="none" stroke="midnightblue" d="M316.22,-60C265.28,-52.55 167.17,-37.67 74.06,-20.12"/>
<polygon fill="midnightblue" stroke="midnightblue" points="74.67,-16.67 64.19,-18.24 73.37,-23.55 74.67,-16.67"/>
</g>
<!-- Node3&#45;&gt;Node5 -->
<g id="edge4" class="edge">
<title>Node3&#45;&gt;Node5</title>
<path fill="none" stroke="midnightblue" d="M385.62,-58.12C425.7,-50.06 493.95,-36.01 561.67,-20.24"/>
<polygon fill="midnightblue" stroke="midnightblue" points="562.72,-23.59 571.66,-17.9 561.12,-16.77 562.72,-23.59"/>
</g>
<!-- Node6 -->
<g id="node6" class="node">
<title>Node6</title>
<g id="a_node6"><a xlink:title=" ">
<polygon fill="white" stroke="#bfbfbf" points="82.5,-0.5 82.5,-19.5 129.5,-19.5 129.5,-0.5 82.5,-0.5"/>
<text text-anchor="middle" x="106" y="-7.5" font-family="Helvetica,sans-Serif" font-size="10.00">cmath</text>
</a>
</g>
</g>
<!-- Node3&#45;&gt;Node6 -->
<g id="edge5" class="edge">
<title>Node3&#45;&gt;Node6</title>
<path fill="none" stroke="midnightblue" d="M316.16,-58.37C275.83,-50.54 207.21,-36.72 139.67,-20.3"/>
<polygon fill="midnightblue" stroke="midnightblue" points="140.27,-16.84 129.72,-17.86 138.6,-23.64 140.27,-16.84"/>
</g>
<!-- Node7 -->
<g id="node7" class="node">
<title>Node7</title>
<g id="a_node7"><a xlink:title=" ">
<polygon fill="white" stroke="#bfbfbf" points="147.5,-0.5 147.5,-19.5 212.5,-19.5 212.5,-0.5 147.5,-0.5"/>
<text text-anchor="middle" x="180" y="-7.5" font-family="Helvetica,sans-Serif" font-size="10.00">functional</text>
</a>
</g>
</g>
<!-- Node3&#45;&gt;Node7 -->
<g id="edge6" class="edge">
<title>Node3&#45;&gt;Node7</title>
<path fill="none" stroke="midnightblue" d="M323.9,-56.44C295.01,-47.32 249.08,-32.81 216.89,-22.65"/>
<polygon fill="midnightblue" stroke="midnightblue" points="217.56,-19.19 206.97,-19.52 215.45,-25.87 217.56,-19.19"/>
</g>
<!-- Node8 -->
<g id="node8" class="node">
<title>Node8</title>
<g id="a_node8"><a xlink:title=" ">
<polygon fill="white" stroke="#bfbfbf" points="231,-0.5 231,-19.5 279,-19.5 279,-0.5 231,-0.5"/>
<text text-anchor="middle" x="255" y="-7.5" font-family="Helvetica,sans-Serif" font-size="10.00">iosfwd</text>
</a>
</g>
</g>
<!-- Node3&#45;&gt;Node8 -->
<g id="edge7" class="edge">
<title>Node3&#45;&gt;Node8</title>
<path fill="none" stroke="midnightblue" d="M335.58,-56.32C320.46,-47.82 297.18,-34.73 279.53,-24.8"/>
<polygon fill="midnightblue" stroke="midnightblue" points="280.82,-21.51 270.39,-19.65 277.39,-27.61 280.82,-21.51"/>
</g>
<!-- Node9 -->
<g id="node9" class="node">
<title>Node9</title>
<g id="a_node9"><a xlink:title=" ">
<polygon fill="white" stroke="#bfbfbf" points="297,-0.5 297,-19.5 353,-19.5 353,-0.5 297,-0.5"/>
<text text-anchor="middle" x="325" y="-7.5" font-family="Helvetica,sans-Serif" font-size="10.00">numeric</text>
</a>
</g>
</g>
<!-- Node3&#45;&gt;Node9 -->
<g id="edge8" class="edge">
<title>Node3&#45;&gt;Node9</title>
<path fill="none" stroke="midnightblue" d="M346.71,-56.08C343.15,-48.69 337.98,-37.95 333.58,-28.81"/>
<polygon fill="midnightblue" stroke="midnightblue" points="336.71,-27.24 329.21,-19.75 330.4,-30.28 336.71,-27.24"/>
</g>
<!-- Node10 -->
<g id="node10" class="node">
<title>Node10</title>
<g id="a_node10"><a xlink:title=" ">
<polygon fill="white" stroke="#bfbfbf" points="371,-0.5 371,-19.5 425,-19.5 425,-0.5 371,-0.5"/>
<text text-anchor="middle" x="398" y="-7.5" font-family="Helvetica,sans-Serif" font-size="10.00">random</text>
</a>
</g>
</g>
<!-- Node3&#45;&gt;Node10 -->
<g id="edge9" class="edge">
<title>Node3&#45;&gt;Node10</title>
<path fill="none" stroke="midnightblue" d="M358.76,-56.08C365.54,-48.3 375.54,-36.8 383.76,-27.37"/>
<polygon fill="midnightblue" stroke="midnightblue" points="386.46,-29.59 390.38,-19.75 381.18,-25 386.46,-29.59"/>
</g>
<!-- Node11 -->
<g id="node11" class="node">
<title>Node11</title>
<g id="a_node11"><a xlink:title=" ">
<polygon fill="white" stroke="#bfbfbf" points="443.5,-0.5 443.5,-19.5 488.5,-19.5 488.5,-0.5 443.5,-0.5"/>
<text text-anchor="middle" x="466" y="-7.5" font-family="Helvetica,sans-Serif" font-size="10.00">utility</text>
</a>
</g>
</g>
<!-- Node3&#45;&gt;Node11 -->
<g id="edge10" class="edge">
<title>Node3&#45;&gt;Node11</title>
<path fill="none" stroke="midnightblue" d="M369.22,-56.44C387.9,-47.68 417.16,-33.94 438.62,-23.86"/>
<polygon fill="midnightblue" stroke="midnightblue" points="440.3,-26.93 447.86,-19.52 437.32,-20.6 440.3,-26.93"/>
</g>
<!-- Node12 -->
<g id="node12" class="node">
<title>Node12</title>
<g id="a_node12"><a xlink:title=" ">
<polygon fill="white" stroke="#bfbfbf" points="506.5,-0.5 506.5,-19.5 553.5,-19.5 553.5,-0.5 506.5,-0.5"/>
<text text-anchor="middle" x="530" y="-7.5" font-family="Helvetica,sans-Serif" font-size="10.00">vector</text>
</a>
</g>
</g>
<!-- Node3&#45;&gt;Node12 -->
<g id="edge11" class="edge">
<title>Node3&#45;&gt;Node12</title>
<path fill="none" stroke="midnightblue" d="M379.36,-56.44C411.17,-46.85 462.7,-31.3 496.47,-21.11"/>
<polygon fill="midnightblue" stroke="midnightblue" points="497.78,-24.38 506.34,-18.14 495.76,-17.67 497.78,-24.38"/>
</g>
<!-- Node13&#45;&gt;Node3 -->
<g id="edge13" class="edge">
<title>Node13&#45;&gt;Node3</title>
<path fill="none" stroke="midnightblue" d="M351,-112.08C351,-105.01 351,-94.86 351,-85.99"/>
<polygon fill="midnightblue" stroke="midnightblue" points="354.5,-85.75 351,-75.75 347.5,-85.75 354.5,-85.75"/>
</g>
</g>
</svg>
