<?xml version="1.0" encoding="UTF-8" standalone="no"?>
<!DOCTYPE svg PUBLIC "-//W3C//DTD SVG 1.1//EN"
 "http://www.w3.org/Graphics/SVG/1.1/DTD/svg11.dtd">
<!-- Generated by graphviz version 2.43.0 (0)
 -->
<!-- Title: HouseholderQR.hpp Pages: 1 -->
<svg width="632pt" height="140pt"
 viewBox="0.00 0.00 631.50 140.00" xmlns="http://www.w3.org/2000/svg" xmlns:xlink="http://www.w3.org/1999/xlink">
<g id="graph0" class="graph" transform="scale(1 1) rotate(0) translate(4 136)">
<title>HouseholderQR.hpp</title>
<polygon fill="white" stroke="transparent" points="-4,4 -4,-136 627.5,-136 627.5,4 -4,4"/>
<!-- Node1 -->
<g id="node1" class="node">
<title>Node1</title>
<g id="a_node1"><a xlink:title=" ">
<polygon fill="#bfbfbf" stroke="black" points="268.5,-112.5 268.5,-131.5 381.5,-131.5 381.5,-112.5 268.5,-112.5"/>
<text text-anchor="middle" x="325" y="-119.5" font-family="Helvetica,sans-Serif" font-size="10.00">HouseholderQR.hpp</text>
</a>
</g>
</g>
<!-- Node2 -->
<g id="node2" class="node">
<title>Node2</title>
<g id="a_node2"><a xlink:href="../../d9/d1c/Matrix_8hpp.html" target="_top" xlink:title=" ">
<polygon fill="white" stroke="black" points="290.5,-56.5 290.5,-75.5 359.5,-75.5 359.5,-56.5 290.5,-56.5"/>
<text text-anchor="middle" x="325" y="-63.5" font-family="Helvetica,sans-Serif" font-size="10.00">Matrix.hpp</text>
</a>
</g>
</g>
<!-- Node1&#45;&gt;Node2 -->
<g id="edge1" class="edge">
<title>Node1&#45;&gt;Node2</title>
<path fill="none" stroke="midnightblue" d="M325,-112.08C325,-105.01 325,-94.86 325,-85.99"/>
<polygon fill="midnightblue" stroke="midnightblue" points="328.5,-85.75 325,-75.75 321.5,-85.75 328.5,-85.75"/>
</g>
<!-- Node3 -->
<g id="node3" class="node">
<title>Node3</title>
<g id="a_node3"><a xlink:title=" ">
<polygon fill="white" stroke="#bfbfbf" points="0,-0.5 0,-19.5 64,-19.5 64,-0.5 0,-0.5"/>
<text text-anchor="middle" x="32" y="-7.5" font-family="Helvetica,sans-Serif" font-size="10.00">algorithm</text>
</a>
</g>
</g>
<!-- Node2&#45;&gt;Node3 -->
<g id="edge2" class="edge">
<title>Node2&#45;&gt;Node3</title>
<path fill="none" stroke="midnightblue" d="M290.27,-59.24C243.45,-51.39 157.26,-36.58 74.07,-20.15"/>
<polygon fill="midnightblue" stroke="midnightblue" points="74.69,-16.71 64.2,-18.19 73.33,-23.57 74.69,-16.71"/>
</g>
<!-- Node4 -->
<g id="node4" class="node">
<title>Node4</title>
<g id="a_node4"><a xlink:title=" ">
<polygon fill="white" stroke="#bfbfbf" points="82,-0.5 82,-19.5 134,-19.5 134,-0.5 82,-0.5"/>
<text text-anchor="middle" x="108" y="-7.5" font-family="Helvetica,sans-Serif" font-size="10.00">cassert</text>
</a>
</g>
</g>
<!-- Node2&#45;&gt;Node4 -->
<g id="edge3" class="edge">
<title>Node2&#45;&gt;Node4</title>
<path fill="none" stroke="midnightblue" d="M290.42,-56.55C255.8,-48.07 200.73,-34.52 144.19,-20.28"/>
<polygon fill="midnightblue" stroke="midnightblue" points="144.92,-16.86 134.37,-17.81 143.21,-23.65 144.92,-16.86"/>
</g>
<!-- Node5 -->
<g id="node5" class="node">
<title>Node5</title>
<g id="a_node5"><a xlink:title=" ">
<polygon fill="white" stroke="#bfbfbf" points="152.5,-0.5 152.5,-19.5 199.5,-19.5 199.5,-0.5 152.5,-0.5"/>
<text text-anchor="middle" x="176" y="-7.5" font-family="Helvetica,sans-Serif" font-size="10.00">cmath</text>
</a>
</g>
</g>
<!-- Node2&#45;&gt;Node5 -->
<g id="edge4" class="edge">
<title>Node2&#45;&gt;Node5</title>
<path fill="none" stroke="midnightblue" d="M301.39,-56.44C276.54,-47.44 237.23,-33.19 209.25,-23.05"/>
<polygon fill="midnightblue" stroke="midnightblue" points="210.09,-19.63 199.5,-19.52 207.71,-26.21 210.09,-19.63"/>
</g>
<!-- Node6 -->
<g id="node6" class="node">
<title>Node6</title>
<g id="a_node6"><a xlink:title=" ">
<polygon fill="white" stroke="#bfbfbf" points="217.5,-0.5 217.5,-19.5 282.5,-19.5 282.5,-0.5 217.5,-0.5"/>
<text text-anchor="middle" x="250" y="-7.5" font-family="Helvetica,sans-Serif" font-size="10.00">functional</text>
</a>
</g>
</g>
<!-- Node2&#45;&gt;Node6 -->
<g id="edge5" class="edge">
<title>Node2&#45;&gt;Node6</title>
<path fill="none" stroke="midnightblue" d="M312.95,-56.32C301.54,-48.11 284.17,-35.6 270.57,-25.81"/>
<polygon fill="midnightblue" stroke="midnightblue" points="272.43,-22.84 262.27,-19.83 268.34,-28.52 272.43,-22.84"/>
</g>
<!-- Node7 -->
<g id="node7" class="node">
<title>Node7</title>
<g id="a_node7"><a xlink:title=" ">
<polygon fill="white" stroke="#bfbfbf" points="301,-0.5 301,-19.5 349,-19.5 349,-0.5 301,-0.5"/>
<text text-anchor="middle" x="325" y="-7.5" font-family="Helvetica,sans-Serif" font-size="10.00">iosfwd</text>
</a>
</g>
</g>
<!-- Node2&#45;&gt;Node7 -->
<g id="edge6" class="edge">
<title>Node2&#45;&gt;Node7</title>
<path fill="none" stroke="midnightblue" d="M325,-56.08C325,-49.01 325,-38.86 325,-29.99"/>
<polygon fill="midnightblue" stroke="midnightblue" points="328.5,-29.75 325,-19.75 321.5,-29.75 328.5,-29.75"/>
</g>
<!-- Node8 -->
<g id="node8" class="node">
<title>Node8</title>
<g id="a_node8"><a xlink:title=" ">
<polygon fill="white" stroke="#bfbfbf" points="367,-0.5 367,-19.5 423,-19.5 423,-0.5 367,-0.5"/>
<text text-anchor="middle" x="395" y="-7.5" font-family="Helvetica,sans-Serif" font-size="10.00">numeric</text>
</a>
</g>
</g>
<!-- Node2&#45;&gt;Node8 -->
<g id="edge7" class="edge">
<title>Node2&#45;&gt;Node8</title>
<path fill="none" stroke="midnightblue" d="M336.25,-56.32C346.8,-48.18 362.8,-35.84 375.44,-26.09"/>
<polygon fill="midnightblue" stroke="midnightblue" points="377.77,-28.71 383.55,-19.83 373.49,-23.17 377.77,-28.71"/>
</g>
<!-- Node9 -->
<g id="node9" class="node">
<title>Node9</title>
<g id="a_node9"><a xlink:title=" ">
<polygon fill="white" stroke="#bfbfbf" points="441,-0.5 441,-19.5 495,-19.5 495,-0.5 441,-0.5"/>
<text text-anchor="middle" x="468" y="-7.5" font-family="Helvetica,sans-Serif" font-size="10.00">random</text>
</a>
</g>
</g>
<!-- Node2&#45;&gt;Node9 -->
<g id="edge8" class="edge">
<title>Node2&#45;&gt;Node9</title>
<path fill="none" stroke="midnightblue" d="M347.66,-56.44C371.4,-47.48 408.91,-33.31 435.74,-23.18"/>
<polygon fill="midnightblue" stroke="midnightblue" points="437.33,-26.32 445.45,-19.52 434.86,-19.77 437.33,-26.32"/>
</g>
<!-- Node10 -->
<g id="node10" class="node">
<title>Node10</title>
<g id="a_node10"><a xlink:title=" ">
<polygon fill="white" stroke="#bfbfbf" points="513.5,-0.5 513.5,-19.5 558.5,-19.5 558.5,-0.5 513.5,-0.5"/>
<text text-anchor="middle" x="536" y="-7.5" font-family="Helvetica,sans-Serif" font-size="10.00">utility</text>
</a>
</g>
</g>
<!-- Node2&#45;&gt;Node10 -->
<g id="edge9" class="edge">
<title>Node2&#45;&gt;Node10</title>
<path fill="none" stroke="midnightblue" d="M359.72,-56.57C393.87,-48.22 447.7,-34.88 503.58,-20.06"/>
<polygon fill="midnightblue" stroke="midnightblue" points="504.53,-23.42 513.3,-17.47 502.73,-16.66 504.53,-23.42"/>
</g>
<!-- Node11 -->
<g id="node11" class="node">
<title>Node11</title>
<g id="a_node11"><a xlink:title=" ">
<polygon fill="white" stroke="#bfbfbf" points="576.5,-0.5 576.5,-19.5 623.5,-19.5 623.5,-0.5 576.5,-0.5"/>
<text text-anchor="middle" x="600" y="-7.5" font-family="Helvetica,sans-Serif" font-size="10.00">vector</text>
</a>
</g>
</g>
<!-- Node2&#45;&gt;Node11 -->
<g id="edge10" class="edge">
<title>Node2&#45;&gt;Node11</title>
<path fill="none" stroke="midnightblue" d="M359.81,-59.58C405.23,-52.28 487.36,-38.32 566.2,-20.27"/>
<polygon fill="midnightblue" stroke="midnightblue" points="567.34,-23.59 576.3,-17.93 565.76,-16.77 567.34,-23.59"/>
</g>
</g>
</svg>
