<?xml version="1.0" encoding="UTF-8" standalone="no"?>
<!DOCTYPE svg PUBLIC "-//W3C//DTD SVG 1.1//EN"
 "http://www.w3.org/Graphics/SVG/1.1/DTD/svg11.dtd">
<!-- Generated by graphviz version 2.43.0 (0)
 -->
<!-- Title: examples Pages: 1 -->
<svg width="342pt" height="132pt"
 viewBox="0.00 0.00 342.00 132.00" xmlns="http://www.w3.org/2000/svg" xmlns:xlink="http://www.w3.org/1999/xlink">
<g id="graph0" class="graph" transform="scale(1 1) rotate(0) translate(4 128)">
<title>examples</title>
<polygon fill="white" stroke="transparent" points="-4,4 -4,-128 338,-128 338,4 -4,4"/>
<g id="clust1" class="cluster">
<title>clusterdir_d28a4824dc47e487b107a5db32ef43c4</title>
<g id="a_clust1"><a xlink:href="dir_d28a4824dc47e487b107a5db32ef43c4.html" target="_top">
<polygon fill="#eeeeff" stroke="black" points="8,-64 8,-116 326,-116 326,-64 8,-64"/>
</a>
</g>
</g>
<!-- dir_d28a4824dc47e487b107a5db32ef43c4 -->
<g id="node1" class="node">
<title>dir_d28a4824dc47e487b107a5db32ef43c4</title>
<text text-anchor="middle" x="285" y="-87.5" font-family="Helvetica,sans-Serif" font-size="10.00">examples</text>
</g>
<!-- dir_566e3080b9de3b93d5667d10c656a736 -->
<g id="node2" class="node">
<title>dir_566e3080b9de3b93d5667d10c656a736</title>
<g id="a_node2"><a xlink:href="dir_566e3080b9de3b93d5667d10c656a736.html" target="_top" xlink:title="Arduino">
<polygon fill="white" stroke="red" points="234,-108 180,-108 180,-72 234,-72 234,-108"/>
<text text-anchor="middle" x="207" y="-87.5" font-family="Helvetica,sans-Serif" font-size="10.00">Arduino</text>
</a>
</g>
</g>
<!-- dir_68267d1309a1af8e8297ef4c3efbcdba -->
<g id="node5" class="node">
<title>dir_68267d1309a1af8e8297ef4c3efbcdba</title>
<g id="a_node5"><a xlink:href="dir_68267d1309a1af8e8297ef4c3efbcdba.html" target="_top" xlink:title="src">
<polygon fill="white" stroke="red" points="162,-36 108,-36 108,0 162,0 162,-36"/>
<text text-anchor="middle" x="135" y="-15.5" font-family="Helvetica,sans-Serif" font-size="10.00">src</text>
</a>
</g>
</g>
<!-- dir_566e3080b9de3b93d5667d10c656a736&#45;&gt;dir_68267d1309a1af8e8297ef4c3efbcdba -->
<g id="edge2" class="edge">
<title>dir_566e3080b9de3b93d5667d10c656a736&#45;&gt;dir_68267d1309a1af8e8297ef4c3efbcdba</title>
<path fill="none" stroke="black" d="M189.2,-71.7C180.4,-63.14 169.62,-52.66 160,-43.3"/>
<polygon fill="black" stroke="black" points="162.2,-40.57 152.59,-36.1 157.32,-45.58 162.2,-40.57"/>
<g id="a_edge2&#45;headlabel"><a xlink:href="dir_000007_000000.html" target="_top" xlink:title="7">
<text text-anchor="middle" x="166.76" y="-38.54" font-family="Helvetica,sans-Serif" font-size="10.00">7</text>
</a>
</g>
</g>
<!-- dir_4d1c121ec184540d7a357c43e5632015 -->
<g id="node3" class="node">
<title>dir_4d1c121ec184540d7a357c43e5632015</title>
<g id="a_node3"><a xlink:href="dir_4d1c121ec184540d7a357c43e5632015.html" target="_top" xlink:title="Basics">
<polygon fill="white" stroke="black" points="162,-108 108,-108 108,-72 162,-72 162,-108"/>
<text text-anchor="middle" x="135" y="-87.5" font-family="Helvetica,sans-Serif" font-size="10.00">Basics</text>
</a>
</g>
</g>
<!-- dir_4d1c121ec184540d7a357c43e5632015&#45;&gt;dir_68267d1309a1af8e8297ef4c3efbcdba -->
<g id="edge3" class="edge">
<title>dir_4d1c121ec184540d7a357c43e5632015&#45;&gt;dir_68267d1309a1af8e8297ef4c3efbcdba</title>
<path fill="none" stroke="black" d="M135,-71.7C135,-63.98 135,-54.71 135,-46.11"/>
<polygon fill="black" stroke="black" points="138.5,-46.1 135,-36.1 131.5,-46.1 138.5,-46.1"/>
<g id="a_edge3&#45;headlabel"><a xlink:href="dir_000010_000000.html" target="_top" xlink:title="1">
<text text-anchor="middle" x="141.34" y="-47.2" font-family="Helvetica,sans-Serif" font-size="10.00">1</text>
</a>
</g>
</g>
<!-- dir_dd568c31d99c2480b7e58f4e99afde4c -->
<g id="node4" class="node">
<title>dir_dd568c31d99c2480b7e58f4e99afde4c</title>
<g id="a_node4"><a xlink:href="dir_dd568c31d99c2480b7e58f4e99afde4c.html" target="_top" xlink:title="QR&#45;PerfTest">
<polygon fill="white" stroke="black" points="90,-108 16,-108 16,-72 90,-72 90,-108"/>
<text text-anchor="middle" x="53" y="-87.5" font-family="Helvetica,sans-Serif" font-size="10.00">QR&#45;PerfTest</text>
</a>
</g>
</g>
<!-- dir_dd568c31d99c2480b7e58f4e99afde4c&#45;&gt;dir_68267d1309a1af8e8297ef4c3efbcdba -->
<g id="edge1" class="edge">
<title>dir_dd568c31d99c2480b7e58f4e99afde4c&#45;&gt;dir_68267d1309a1af8e8297ef4c3efbcdba</title>
<path fill="none" stroke="black" d="M73.27,-71.7C83.5,-62.97 96.06,-52.24 107.18,-42.75"/>
<polygon fill="black" stroke="black" points="109.63,-45.26 114.96,-36.1 105.09,-39.94 109.63,-45.26"/>
<g id="a_edge1&#45;headlabel"><a xlink:href="dir_000014_000000.html" target="_top" xlink:title="1">
<text text-anchor="middle" x="108.74" y="-47.25" font-family="Helvetica,sans-Serif" font-size="10.00">1</text>
</a>
</g>
</g>
</g>
</svg>
