<?xml version="1.0" encoding="UTF-8" standalone="no"?>
<!DOCTYPE svg PUBLIC "-//W3C//DTD SVG 1.1//EN"
 "http://www.w3.org/Graphics/SVG/1.1/DTD/svg11.dtd">
<!-- Generated by graphviz version 2.43.0 (0)
 -->
<!-- Title: src Pages: 1 -->
<svg width="182pt" height="247pt"
 viewBox="0.00 0.00 182.00 247.00" xmlns="http://www.w3.org/2000/svg" xmlns:xlink="http://www.w3.org/1999/xlink">
<g id="graph0" class="graph" transform="scale(1 1) rotate(0) translate(4 243)">
<title>src</title>
<polygon fill="white" stroke="transparent" points="-4,4 -4,-243 178,-243 178,4 -4,4"/>
<g id="clust1" class="cluster">
<title>clusterdir_68267d1309a1af8e8297ef4c3efbcdba</title>
<g id="a_clust1"><a xlink:href="dir_68267d1309a1af8e8297ef4c3efbcdba.html" target="_top" xlink:title="src">
<polygon fill="#ddddee" stroke="black" points="8,-8 8,-231 166,-231 166,-8 8,-8"/>
<text text-anchor="middle" x="87" y="-219" font-family="Helvetica,sans-Serif" font-size="10.00">src</text>
</a>
</g>
</g>
<g id="clust2" class="cluster">
<title>clusterdir_98cdb10f369f6a3b9149e010b312bf5d</title>
<g id="a_clust2"><a xlink:href="dir_98cdb10f369f6a3b9149e010b312bf5d.html" target="_top">
<polygon fill="#eeeeff" stroke="black" points="16,-80 16,-204 158,-204 158,-80 16,-80"/>
</a>
</g>
</g>
<!-- dir_b0856f6b0d80ccb263b2f415c91f9e17 -->
<g id="node1" class="node">
<title>dir_b0856f6b0d80ccb263b2f415c91f9e17</title>
<g id="a_node1"><a xlink:href="dir_b0856f6b0d80ccb263b2f415c91f9e17.html" target="_top" xlink:title="include">
<polygon fill="white" stroke="red" points="119,-52 65,-52 65,-16 119,-16 119,-52"/>
<text text-anchor="middle" x="92" y="-31.5" font-family="Helvetica,sans-Serif" font-size="10.00">include</text>
</a>
</g>
</g>
<!-- dir_98cdb10f369f6a3b9149e010b312bf5d -->
<g id="node2" class="node">
<title>dir_98cdb10f369f6a3b9149e010b312bf5d</title>
<text text-anchor="middle" x="51" y="-175.5" font-family="Helvetica,sans-Serif" font-size="10.00">src</text>
</g>
<!-- dir_6895197589028e462695e448a0dbe4c3 -->
<g id="node4" class="node">
<title>dir_6895197589028e462695e448a0dbe4c3</title>
<g id="a_node4"><a xlink:href="dir_6895197589028e462695e448a0dbe4c3.html" target="_top" xlink:title="boilerplate">
<polygon fill="white" stroke="black" points="98.5,-124 29.5,-124 29.5,-88 98.5,-88 98.5,-124"/>
<text text-anchor="middle" x="64" y="-103.5" font-family="Helvetica,sans-Serif" font-size="10.00">boilerplate</text>
</a>
</g>
</g>
<!-- dir_98cdb10f369f6a3b9149e010b312bf5d&#45;&gt;dir_6895197589028e462695e448a0dbe4c3 -->
<g id="edge3" class="edge">
<title>dir_98cdb10f369f6a3b9149e010b312bf5d&#45;&gt;dir_6895197589028e462695e448a0dbe4c3</title>
<path fill="none" stroke="black" d="M54.21,-159.7C55.65,-151.98 57.37,-142.71 58.96,-134.11"/>
<polygon fill="black" stroke="black" points="62.44,-134.58 60.82,-124.1 55.56,-133.3 62.44,-134.58"/>
<g id="a_edge3&#45;headlabel"><a xlink:href="dir_000001_000011.html" target="_top" xlink:title="3">
<text text-anchor="middle" x="64.57" y="-136.13" font-family="Helvetica,sans-Serif" font-size="10.00">3</text>
</a>
</g>
</g>
<!-- dir_f89bcc2783f7ae51398ee78aa939d4ba -->
<g id="node3" class="node">
<title>dir_f89bcc2783f7ae51398ee78aa939d4ba</title>
<g id="a_node3"><a xlink:href="dir_f89bcc2783f7ae51398ee78aa939d4ba.html" target="_top" xlink:title="Arduino">
<polygon fill="white" stroke="black" points="150,-196 96,-196 96,-160 150,-160 150,-196"/>
<text text-anchor="middle" x="123" y="-175.5" font-family="Helvetica,sans-Serif" font-size="10.00">Arduino</text>
</a>
</g>
</g>
<!-- dir_f89bcc2783f7ae51398ee78aa939d4ba&#45;&gt;dir_b0856f6b0d80ccb263b2f415c91f9e17 -->
<g id="edge2" class="edge">
<title>dir_f89bcc2783f7ae51398ee78aa939d4ba&#45;&gt;dir_b0856f6b0d80ccb263b2f415c91f9e17</title>
<path fill="none" stroke="black" d="M121.35,-159.98C119.23,-140.46 114.97,-107.59 108,-80 106.49,-74.03 104.51,-67.73 102.46,-61.8"/>
<polygon fill="black" stroke="black" points="105.71,-60.5 99.01,-52.29 99.13,-62.88 105.71,-60.5"/>
<g id="a_edge2&#45;headlabel"><a xlink:href="dir_000002_000003.html" target="_top" xlink:title="3">
<text text-anchor="middle" x="109.6" y="-60.41" font-family="Helvetica,sans-Serif" font-size="10.00">3</text>
</a>
</g>
</g>
<!-- dir_6895197589028e462695e448a0dbe4c3&#45;&gt;dir_b0856f6b0d80ccb263b2f415c91f9e17 -->
<g id="edge1" class="edge">
<title>dir_6895197589028e462695e448a0dbe4c3&#45;&gt;dir_b0856f6b0d80ccb263b2f415c91f9e17</title>
<path fill="none" stroke="black" d="M70.92,-87.7C74.07,-79.81 77.88,-70.3 81.38,-61.55"/>
<polygon fill="black" stroke="black" points="84.69,-62.69 85.16,-52.1 78.19,-60.09 84.69,-62.69"/>
<g id="a_edge1&#45;headlabel"><a xlink:href="dir_000011_000003.html" target="_top" xlink:title="3">
<text text-anchor="middle" x="86" y="-64.58" font-family="Helvetica,sans-Serif" font-size="10.00">3</text>
</a>
</g>
</g>
</g>
</svg>
