<?xml version="1.0" encoding="UTF-8" standalone="no"?>
<!DOCTYPE svg PUBLIC "-//W3C//DTD SVG 1.1//EN"
 "http://www.w3.org/Graphics/SVG/1.1/DTD/svg11.dtd">
<!-- Generated by graphviz version 2.43.0 (0)
 -->
<!-- Title: Graphical Class Hierarchy Pages: 1 -->
<svg width="270pt" height="104pt"
 viewBox="0.00 0.00 270.00 104.00" xmlns="http://www.w3.org/2000/svg" xmlns:xlink="http://www.w3.org/1999/xlink">
<g id="graph0" class="graph" transform="scale(1 1) rotate(0) translate(4 100)">
<title>Graphical Class Hierarchy</title>
<polygon fill="white" stroke="transparent" points="-4,4 -4,-100 266,-100 266,4 -4,4"/>
<!-- Node4 -->
<g id="node1" class="node">
<title>Node4</title>
<g id="a_node1"><a xlink:title=" ">
<polygon fill="white" stroke="#bfbfbf" points="0,-38.5 0,-57.5 60,-57.5 60,-38.5 0,-38.5"/>
<text text-anchor="middle" x="30" y="-45.5" font-family="Helvetica,sans-Serif" font-size="10.00">Printable</text>
</a>
</g>
</g>
<!-- Node0 -->
<g id="node2" class="node">
<title>Node0</title>
<g id="a_node2"><a xlink:href="d3/d3f/classMatrix.html" target="_top" xlink:title="General matrix class.">
<polygon fill="white" stroke="black" points="96,-38.5 96,-57.5 144,-57.5 144,-38.5 96,-38.5"/>
<text text-anchor="middle" x="120" y="-45.5" font-family="Helvetica,sans-Serif" font-size="10.00">Matrix</text>
</a>
</g>
</g>
<!-- Node4&#45;&gt;Node0 -->
<g id="edge1" class="edge">
<title>Node4&#45;&gt;Node0</title>
<path fill="none" stroke="midnightblue" d="M70.37,-48C79.12,-48 88.11,-48 95.94,-48"/>
<polygon fill="midnightblue" stroke="midnightblue" points="70.3,-44.5 60.3,-48 70.3,-51.5 70.3,-44.5"/>
</g>
<!-- Node1 -->
<g id="node3" class="node">
<title>Node1</title>
<g id="a_node3"><a xlink:href="d2/d78/classRowVector.html" target="_top" xlink:title="A row vector (1×n matrix).">
<polygon fill="white" stroke="black" points="187,-76.5 187,-95.5 255,-95.5 255,-76.5 187,-76.5"/>
<text text-anchor="middle" x="221" y="-83.5" font-family="Helvetica,sans-Serif" font-size="10.00">RowVector</text>
</a>
</g>
</g>
<!-- Node0&#45;&gt;Node1 -->
<g id="edge2" class="edge">
<title>Node0&#45;&gt;Node1</title>
<path fill="none" stroke="midnightblue" d="M153.66,-60.54C167.19,-65.73 182.63,-71.65 195.2,-76.48"/>
<polygon fill="midnightblue" stroke="midnightblue" points="154.8,-57.23 144.21,-56.91 152.29,-63.76 154.8,-57.23"/>
</g>
<!-- Node2 -->
<g id="node4" class="node">
<title>Node2</title>
<g id="a_node4"><a xlink:href="d3/d61/classSquareMatrix.html" target="_top" xlink:title="Square matrix class.">
<polygon fill="white" stroke="black" points="180,-38.5 180,-57.5 262,-57.5 262,-38.5 180,-38.5"/>
<text text-anchor="middle" x="221" y="-45.5" font-family="Helvetica,sans-Serif" font-size="10.00">SquareMatrix</text>
</a>
</g>
</g>
<!-- Node0&#45;&gt;Node2 -->
<g id="edge3" class="edge">
<title>Node0&#45;&gt;Node2</title>
<path fill="none" stroke="midnightblue" d="M154.48,-48C162.64,-48 171.45,-48 179.88,-48"/>
<polygon fill="midnightblue" stroke="midnightblue" points="154.21,-44.5 144.21,-48 154.21,-51.5 154.21,-44.5"/>
</g>
<!-- Node3 -->
<g id="node5" class="node">
<title>Node3</title>
<g id="a_node5"><a xlink:href="d6/da1/classVector.html" target="_top" xlink:title="A column vector (n×1 matrix).">
<polygon fill="white" stroke="black" points="197.5,-0.5 197.5,-19.5 244.5,-19.5 244.5,-0.5 197.5,-0.5"/>
<text text-anchor="middle" x="221" y="-7.5" font-family="Helvetica,sans-Serif" font-size="10.00">Vector</text>
</a>
</g>
</g>
<!-- Node0&#45;&gt;Node3 -->
<g id="edge4" class="edge">
<title>Node0&#45;&gt;Node3</title>
<path fill="none" stroke="midnightblue" d="M153.69,-35.45C167.97,-29.97 184.36,-23.68 197.28,-18.72"/>
<polygon fill="midnightblue" stroke="midnightblue" points="152.29,-32.24 144.21,-39.09 154.8,-38.77 152.29,-32.24"/>
</g>
</g>
</svg>
